G04 MADE WITH FRITZING*
G04 WWW.FRITZING.ORG*
G04 DOUBLE SIDED*
G04 HOLES PLATED*
G04 CONTOUR ON CENTER OF CONTOUR VECTOR*
%ASAXBY*%
%FSLAX23Y23*%
%MOIN*%
%OFA0B0*%
%SFA1.0B1.0*%
%ADD10C,0.078000*%
%ADD11C,0.052000*%
%ADD12C,0.076000*%
%ADD13C,0.126614*%
%ADD14C,0.086000*%
%ADD15C,0.158110*%
%ADD16R,0.078000X0.078000*%
%ADD17C,0.024000*%
%ADD18R,0.001000X0.001000*%
%LNCOPPER1*%
G90*
G70*
G54D10*
X2902Y229D03*
X2902Y329D03*
X2902Y429D03*
X2402Y2429D03*
X2502Y2429D03*
X2602Y2429D03*
X2702Y2429D03*
X2802Y2429D03*
X3202Y2429D03*
X3302Y2429D03*
X3402Y2429D03*
X3502Y2429D03*
X3602Y2429D03*
G54D11*
X3502Y1729D03*
X3402Y1729D03*
X3302Y1729D03*
X3202Y1729D03*
X3102Y1729D03*
X3002Y1729D03*
X2902Y1729D03*
X2802Y1729D03*
X2702Y1729D03*
X2602Y1729D03*
X2502Y1729D03*
X2402Y1729D03*
X2302Y1729D03*
X2202Y1729D03*
X2102Y1729D03*
X2102Y729D03*
X2202Y729D03*
X2302Y729D03*
X2402Y729D03*
X2502Y729D03*
X2602Y729D03*
X2702Y729D03*
X2802Y729D03*
X2902Y729D03*
X3002Y729D03*
X3102Y729D03*
X3202Y729D03*
X3302Y729D03*
X3402Y729D03*
X3502Y729D03*
G54D10*
X1602Y2429D03*
X1702Y2429D03*
X1802Y2429D03*
X1902Y2429D03*
X2002Y2429D03*
X3102Y229D03*
X3102Y329D03*
X3102Y429D03*
G54D12*
X1202Y1229D03*
G54D13*
X482Y1379D03*
G54D12*
X1202Y829D03*
G54D14*
X532Y1008D03*
G54D12*
X1202Y1029D03*
G54D14*
X532Y1146D03*
G54D12*
X1202Y929D03*
X1202Y1129D03*
X1202Y1329D03*
G54D13*
X482Y779D03*
G54D10*
X2802Y2329D03*
X2302Y2329D03*
X3102Y2329D03*
X3502Y2329D03*
X3302Y229D03*
X3302Y329D03*
X3302Y429D03*
X1702Y1529D03*
X1702Y1429D03*
X1702Y1329D03*
X1702Y1229D03*
X1702Y1129D03*
X1702Y1029D03*
X1702Y929D03*
X1702Y829D03*
X802Y1629D03*
X902Y1629D03*
X1002Y1629D03*
X1102Y1629D03*
G54D15*
X97Y129D03*
X3802Y129D03*
X3802Y2629D03*
X102Y2629D03*
G54D16*
X2802Y2429D03*
X3602Y2429D03*
X2002Y2429D03*
G54D17*
X1702Y1410D02*
X1702Y1348D01*
D02*
X1702Y1510D02*
X1702Y1348D01*
D02*
X3483Y2329D02*
X3104Y2328D01*
D02*
X3104Y2328D02*
X3117Y2318D01*
D02*
X2783Y2329D02*
X2321Y2329D01*
G54D18*
X2100Y1780D02*
X2105Y1780D01*
X2200Y1780D02*
X2205Y1780D01*
X2300Y1780D02*
X2305Y1780D01*
X2400Y1780D02*
X2405Y1780D01*
X2500Y1780D02*
X2505Y1780D01*
X2600Y1780D02*
X2605Y1780D01*
X2700Y1780D02*
X2705Y1780D01*
X2800Y1780D02*
X2805Y1780D01*
X2900Y1780D02*
X2905Y1780D01*
X3000Y1780D02*
X3005Y1780D01*
X3100Y1780D02*
X3105Y1780D01*
X3200Y1780D02*
X3205Y1780D01*
X3300Y1780D02*
X3305Y1780D01*
X3400Y1780D02*
X3405Y1780D01*
X3502Y1780D02*
X3503Y1780D01*
X2095Y1779D02*
X2110Y1779D01*
X2195Y1779D02*
X2210Y1779D01*
X2295Y1779D02*
X2310Y1779D01*
X2395Y1779D02*
X2410Y1779D01*
X2495Y1779D02*
X2510Y1779D01*
X2595Y1779D02*
X2610Y1779D01*
X2695Y1779D02*
X2710Y1779D01*
X2795Y1779D02*
X2810Y1779D01*
X2895Y1779D02*
X2910Y1779D01*
X2995Y1779D02*
X3010Y1779D01*
X3095Y1779D02*
X3110Y1779D01*
X3195Y1779D02*
X3210Y1779D01*
X3295Y1779D02*
X3310Y1779D01*
X3395Y1779D02*
X3410Y1779D01*
X3496Y1779D02*
X3509Y1779D01*
X2093Y1778D02*
X2112Y1778D01*
X2193Y1778D02*
X2212Y1778D01*
X2293Y1778D02*
X2312Y1778D01*
X2393Y1778D02*
X2412Y1778D01*
X2493Y1778D02*
X2512Y1778D01*
X2593Y1778D02*
X2612Y1778D01*
X2693Y1778D02*
X2712Y1778D01*
X2793Y1778D02*
X2812Y1778D01*
X2893Y1778D02*
X2912Y1778D01*
X2993Y1778D02*
X3012Y1778D01*
X3093Y1778D02*
X3112Y1778D01*
X3193Y1778D02*
X3212Y1778D01*
X3293Y1778D02*
X3312Y1778D01*
X3393Y1778D02*
X3412Y1778D01*
X3493Y1778D02*
X3512Y1778D01*
X2091Y1777D02*
X2114Y1777D01*
X2191Y1777D02*
X2214Y1777D01*
X2291Y1777D02*
X2314Y1777D01*
X2391Y1777D02*
X2414Y1777D01*
X2491Y1777D02*
X2514Y1777D01*
X2591Y1777D02*
X2614Y1777D01*
X2691Y1777D02*
X2714Y1777D01*
X2791Y1777D02*
X2814Y1777D01*
X2891Y1777D02*
X2914Y1777D01*
X2991Y1777D02*
X3014Y1777D01*
X3091Y1777D02*
X3114Y1777D01*
X3191Y1777D02*
X3214Y1777D01*
X3291Y1777D02*
X3314Y1777D01*
X3391Y1777D02*
X3414Y1777D01*
X3491Y1777D02*
X3514Y1777D01*
X2089Y1776D02*
X2116Y1776D01*
X2189Y1776D02*
X2216Y1776D01*
X2289Y1776D02*
X2316Y1776D01*
X2389Y1776D02*
X2416Y1776D01*
X2489Y1776D02*
X2516Y1776D01*
X2589Y1776D02*
X2616Y1776D01*
X2689Y1776D02*
X2716Y1776D01*
X2789Y1776D02*
X2816Y1776D01*
X2889Y1776D02*
X2916Y1776D01*
X2989Y1776D02*
X3016Y1776D01*
X3089Y1776D02*
X3116Y1776D01*
X3189Y1776D02*
X3216Y1776D01*
X3289Y1776D02*
X3316Y1776D01*
X3389Y1776D02*
X3416Y1776D01*
X3489Y1776D02*
X3516Y1776D01*
X2088Y1775D02*
X2117Y1775D01*
X2187Y1775D02*
X2217Y1775D01*
X2288Y1775D02*
X2317Y1775D01*
X2387Y1775D02*
X2417Y1775D01*
X2488Y1775D02*
X2517Y1775D01*
X2588Y1775D02*
X2617Y1775D01*
X2688Y1775D02*
X2717Y1775D01*
X2787Y1775D02*
X2817Y1775D01*
X2888Y1775D02*
X2917Y1775D01*
X2988Y1775D02*
X3017Y1775D01*
X3087Y1775D02*
X3117Y1775D01*
X3188Y1775D02*
X3217Y1775D01*
X3287Y1775D02*
X3317Y1775D01*
X3388Y1775D02*
X3417Y1775D01*
X3488Y1775D02*
X3517Y1775D01*
X2086Y1774D02*
X2119Y1774D01*
X2186Y1774D02*
X2219Y1774D01*
X2286Y1774D02*
X2319Y1774D01*
X2386Y1774D02*
X2419Y1774D01*
X2486Y1774D02*
X2519Y1774D01*
X2586Y1774D02*
X2619Y1774D01*
X2686Y1774D02*
X2719Y1774D01*
X2786Y1774D02*
X2819Y1774D01*
X2886Y1774D02*
X2919Y1774D01*
X2986Y1774D02*
X3019Y1774D01*
X3086Y1774D02*
X3119Y1774D01*
X3186Y1774D02*
X3219Y1774D01*
X3286Y1774D02*
X3319Y1774D01*
X3386Y1774D02*
X3419Y1774D01*
X3486Y1774D02*
X3518Y1774D01*
X2085Y1773D02*
X2120Y1773D01*
X2185Y1773D02*
X2220Y1773D01*
X2285Y1773D02*
X2320Y1773D01*
X2385Y1773D02*
X2420Y1773D01*
X2485Y1773D02*
X2520Y1773D01*
X2585Y1773D02*
X2620Y1773D01*
X2685Y1773D02*
X2720Y1773D01*
X2785Y1773D02*
X2820Y1773D01*
X2885Y1773D02*
X2920Y1773D01*
X2985Y1773D02*
X3020Y1773D01*
X3085Y1773D02*
X3120Y1773D01*
X3185Y1773D02*
X3220Y1773D01*
X3285Y1773D02*
X3320Y1773D01*
X3385Y1773D02*
X3420Y1773D01*
X3485Y1773D02*
X3520Y1773D01*
X2084Y1772D02*
X2121Y1772D01*
X2184Y1772D02*
X2221Y1772D01*
X2284Y1772D02*
X2321Y1772D01*
X2384Y1772D02*
X2421Y1772D01*
X2484Y1772D02*
X2521Y1772D01*
X2584Y1772D02*
X2621Y1772D01*
X2684Y1772D02*
X2721Y1772D01*
X2784Y1772D02*
X2821Y1772D01*
X2884Y1772D02*
X2921Y1772D01*
X2984Y1772D02*
X3021Y1772D01*
X3084Y1772D02*
X3121Y1772D01*
X3184Y1772D02*
X3221Y1772D01*
X3284Y1772D02*
X3321Y1772D01*
X3384Y1772D02*
X3421Y1772D01*
X3484Y1772D02*
X3521Y1772D01*
X2083Y1771D02*
X2122Y1771D01*
X2183Y1771D02*
X2222Y1771D01*
X2283Y1771D02*
X2322Y1771D01*
X2383Y1771D02*
X2422Y1771D01*
X2483Y1771D02*
X2522Y1771D01*
X2583Y1771D02*
X2622Y1771D01*
X2683Y1771D02*
X2722Y1771D01*
X2783Y1771D02*
X2822Y1771D01*
X2883Y1771D02*
X2922Y1771D01*
X2983Y1771D02*
X3022Y1771D01*
X3083Y1771D02*
X3122Y1771D01*
X3183Y1771D02*
X3222Y1771D01*
X3283Y1771D02*
X3322Y1771D01*
X3383Y1771D02*
X3422Y1771D01*
X3483Y1771D02*
X3522Y1771D01*
X2082Y1770D02*
X2122Y1770D01*
X2182Y1770D02*
X2222Y1770D01*
X2282Y1770D02*
X2322Y1770D01*
X2382Y1770D02*
X2422Y1770D01*
X2482Y1770D02*
X2522Y1770D01*
X2582Y1770D02*
X2622Y1770D01*
X2682Y1770D02*
X2722Y1770D01*
X2782Y1770D02*
X2822Y1770D01*
X2882Y1770D02*
X2922Y1770D01*
X2982Y1770D02*
X3022Y1770D01*
X3082Y1770D02*
X3122Y1770D01*
X3182Y1770D02*
X3222Y1770D01*
X3282Y1770D02*
X3322Y1770D01*
X3382Y1770D02*
X3422Y1770D01*
X3483Y1770D02*
X3522Y1770D01*
X2082Y1769D02*
X2123Y1769D01*
X2182Y1769D02*
X2223Y1769D01*
X2282Y1769D02*
X2323Y1769D01*
X2382Y1769D02*
X2423Y1769D01*
X2482Y1769D02*
X2523Y1769D01*
X2582Y1769D02*
X2623Y1769D01*
X2682Y1769D02*
X2723Y1769D01*
X2782Y1769D02*
X2823Y1769D01*
X2882Y1769D02*
X2923Y1769D01*
X2982Y1769D02*
X3023Y1769D01*
X3082Y1769D02*
X3123Y1769D01*
X3182Y1769D02*
X3223Y1769D01*
X3282Y1769D02*
X3323Y1769D01*
X3382Y1769D02*
X3423Y1769D01*
X3482Y1769D02*
X3523Y1769D01*
X2081Y1768D02*
X2124Y1768D01*
X2181Y1768D02*
X2224Y1768D01*
X2281Y1768D02*
X2324Y1768D01*
X2381Y1768D02*
X2424Y1768D01*
X2481Y1768D02*
X2524Y1768D01*
X2581Y1768D02*
X2624Y1768D01*
X2681Y1768D02*
X2724Y1768D01*
X2781Y1768D02*
X2824Y1768D01*
X2881Y1768D02*
X2924Y1768D01*
X2981Y1768D02*
X3024Y1768D01*
X3081Y1768D02*
X3124Y1768D01*
X3181Y1768D02*
X3224Y1768D01*
X3281Y1768D02*
X3324Y1768D01*
X3381Y1768D02*
X3424Y1768D01*
X3481Y1768D02*
X3524Y1768D01*
X2080Y1767D02*
X2124Y1767D01*
X2180Y1767D02*
X2224Y1767D01*
X2280Y1767D02*
X2324Y1767D01*
X2380Y1767D02*
X2424Y1767D01*
X2480Y1767D02*
X2524Y1767D01*
X2580Y1767D02*
X2624Y1767D01*
X2680Y1767D02*
X2724Y1767D01*
X2780Y1767D02*
X2824Y1767D01*
X2880Y1767D02*
X2924Y1767D01*
X2980Y1767D02*
X3024Y1767D01*
X3080Y1767D02*
X3124Y1767D01*
X3180Y1767D02*
X3224Y1767D01*
X3280Y1767D02*
X3324Y1767D01*
X3380Y1767D02*
X3424Y1767D01*
X3481Y1767D02*
X3524Y1767D01*
X2080Y1766D02*
X2125Y1766D01*
X2180Y1766D02*
X2225Y1766D01*
X2280Y1766D02*
X2325Y1766D01*
X2380Y1766D02*
X2425Y1766D01*
X2480Y1766D02*
X2525Y1766D01*
X2580Y1766D02*
X2625Y1766D01*
X2680Y1766D02*
X2725Y1766D01*
X2780Y1766D02*
X2825Y1766D01*
X2880Y1766D02*
X2925Y1766D01*
X2980Y1766D02*
X3025Y1766D01*
X3080Y1766D02*
X3125Y1766D01*
X3180Y1766D02*
X3225Y1766D01*
X3280Y1766D02*
X3325Y1766D01*
X3380Y1766D02*
X3425Y1766D01*
X3480Y1766D02*
X3525Y1766D01*
X2079Y1765D02*
X2125Y1765D01*
X2179Y1765D02*
X2226Y1765D01*
X2279Y1765D02*
X2325Y1765D01*
X2379Y1765D02*
X2426Y1765D01*
X2479Y1765D02*
X2525Y1765D01*
X2579Y1765D02*
X2625Y1765D01*
X2679Y1765D02*
X2725Y1765D01*
X2779Y1765D02*
X2826Y1765D01*
X2879Y1765D02*
X2925Y1765D01*
X2979Y1765D02*
X3025Y1765D01*
X3079Y1765D02*
X3126Y1765D01*
X3179Y1765D02*
X3225Y1765D01*
X3279Y1765D02*
X3326Y1765D01*
X3379Y1765D02*
X3425Y1765D01*
X3479Y1765D02*
X3525Y1765D01*
X2079Y1764D02*
X2126Y1764D01*
X2179Y1764D02*
X2226Y1764D01*
X2279Y1764D02*
X2326Y1764D01*
X2379Y1764D02*
X2426Y1764D01*
X2479Y1764D02*
X2526Y1764D01*
X2579Y1764D02*
X2626Y1764D01*
X2679Y1764D02*
X2726Y1764D01*
X2779Y1764D02*
X2826Y1764D01*
X2879Y1764D02*
X2926Y1764D01*
X2979Y1764D02*
X3026Y1764D01*
X3079Y1764D02*
X3126Y1764D01*
X3179Y1764D02*
X3226Y1764D01*
X3279Y1764D02*
X3326Y1764D01*
X3379Y1764D02*
X3426Y1764D01*
X3479Y1764D02*
X3526Y1764D01*
X2079Y1763D02*
X2126Y1763D01*
X2179Y1763D02*
X2226Y1763D01*
X2279Y1763D02*
X2326Y1763D01*
X2379Y1763D02*
X2426Y1763D01*
X2479Y1763D02*
X2526Y1763D01*
X2579Y1763D02*
X2626Y1763D01*
X2679Y1763D02*
X2726Y1763D01*
X2779Y1763D02*
X2826Y1763D01*
X2879Y1763D02*
X2926Y1763D01*
X2979Y1763D02*
X3026Y1763D01*
X3079Y1763D02*
X3126Y1763D01*
X3179Y1763D02*
X3226Y1763D01*
X3279Y1763D02*
X3326Y1763D01*
X3379Y1763D02*
X3426Y1763D01*
X3479Y1763D02*
X3526Y1763D01*
X2078Y1762D02*
X2127Y1762D01*
X2178Y1762D02*
X2227Y1762D01*
X2278Y1762D02*
X2327Y1762D01*
X2378Y1762D02*
X2427Y1762D01*
X2478Y1762D02*
X2527Y1762D01*
X2578Y1762D02*
X2627Y1762D01*
X2678Y1762D02*
X2727Y1762D01*
X2778Y1762D02*
X2827Y1762D01*
X2878Y1762D02*
X2927Y1762D01*
X2978Y1762D02*
X3027Y1762D01*
X3078Y1762D02*
X3127Y1762D01*
X3178Y1762D02*
X3227Y1762D01*
X3278Y1762D02*
X3327Y1762D01*
X3378Y1762D02*
X3427Y1762D01*
X3478Y1762D02*
X3527Y1762D01*
X2078Y1761D02*
X2127Y1761D01*
X2178Y1761D02*
X2227Y1761D01*
X2278Y1761D02*
X2327Y1761D01*
X2378Y1761D02*
X2427Y1761D01*
X2478Y1761D02*
X2527Y1761D01*
X2578Y1761D02*
X2627Y1761D01*
X2678Y1761D02*
X2727Y1761D01*
X2778Y1761D02*
X2827Y1761D01*
X2878Y1761D02*
X2927Y1761D01*
X2978Y1761D02*
X3027Y1761D01*
X3078Y1761D02*
X3127Y1761D01*
X3178Y1761D02*
X3227Y1761D01*
X3278Y1761D02*
X3327Y1761D01*
X3378Y1761D02*
X3427Y1761D01*
X3478Y1761D02*
X3527Y1761D01*
X2078Y1760D02*
X2127Y1760D01*
X2178Y1760D02*
X2227Y1760D01*
X2278Y1760D02*
X2327Y1760D01*
X2378Y1760D02*
X2427Y1760D01*
X2478Y1760D02*
X2527Y1760D01*
X2578Y1760D02*
X2627Y1760D01*
X2678Y1760D02*
X2727Y1760D01*
X2778Y1760D02*
X2827Y1760D01*
X2878Y1760D02*
X2927Y1760D01*
X2978Y1760D02*
X3027Y1760D01*
X3078Y1760D02*
X3127Y1760D01*
X3178Y1760D02*
X3227Y1760D01*
X3278Y1760D02*
X3327Y1760D01*
X3378Y1760D02*
X3427Y1760D01*
X3478Y1760D02*
X3527Y1760D01*
X2077Y1759D02*
X2127Y1759D01*
X2177Y1759D02*
X2227Y1759D01*
X2277Y1759D02*
X2327Y1759D01*
X2377Y1759D02*
X2427Y1759D01*
X2477Y1759D02*
X2527Y1759D01*
X2577Y1759D02*
X2627Y1759D01*
X2677Y1759D02*
X2727Y1759D01*
X2777Y1759D02*
X2827Y1759D01*
X2877Y1759D02*
X2927Y1759D01*
X2977Y1759D02*
X3027Y1759D01*
X3077Y1759D02*
X3127Y1759D01*
X3177Y1759D02*
X3227Y1759D01*
X3277Y1759D02*
X3327Y1759D01*
X3377Y1759D02*
X3427Y1759D01*
X3477Y1759D02*
X3527Y1759D01*
X2077Y1758D02*
X2128Y1758D01*
X2177Y1758D02*
X2228Y1758D01*
X2277Y1758D02*
X2328Y1758D01*
X2377Y1758D02*
X2428Y1758D01*
X2477Y1758D02*
X2528Y1758D01*
X2577Y1758D02*
X2628Y1758D01*
X2677Y1758D02*
X2728Y1758D01*
X2777Y1758D02*
X2828Y1758D01*
X2877Y1758D02*
X2928Y1758D01*
X2977Y1758D02*
X3028Y1758D01*
X3077Y1758D02*
X3128Y1758D01*
X3177Y1758D02*
X3228Y1758D01*
X3277Y1758D02*
X3328Y1758D01*
X3377Y1758D02*
X3428Y1758D01*
X3477Y1758D02*
X3528Y1758D01*
X2077Y1757D02*
X2128Y1757D01*
X2177Y1757D02*
X2228Y1757D01*
X2277Y1757D02*
X2328Y1757D01*
X2377Y1757D02*
X2428Y1757D01*
X2477Y1757D02*
X2528Y1757D01*
X2577Y1757D02*
X2628Y1757D01*
X2677Y1757D02*
X2728Y1757D01*
X2777Y1757D02*
X2828Y1757D01*
X2877Y1757D02*
X2928Y1757D01*
X2977Y1757D02*
X3028Y1757D01*
X3077Y1757D02*
X3128Y1757D01*
X3177Y1757D02*
X3228Y1757D01*
X3277Y1757D02*
X3328Y1757D01*
X3377Y1757D02*
X3428Y1757D01*
X3477Y1757D02*
X3528Y1757D01*
X2077Y1756D02*
X2128Y1756D01*
X2177Y1756D02*
X2228Y1756D01*
X2277Y1756D02*
X2328Y1756D01*
X2377Y1756D02*
X2428Y1756D01*
X2477Y1756D02*
X2528Y1756D01*
X2577Y1756D02*
X2628Y1756D01*
X2677Y1756D02*
X2728Y1756D01*
X2777Y1756D02*
X2828Y1756D01*
X2877Y1756D02*
X2928Y1756D01*
X2977Y1756D02*
X3028Y1756D01*
X3077Y1756D02*
X3128Y1756D01*
X3177Y1756D02*
X3228Y1756D01*
X3277Y1756D02*
X3328Y1756D01*
X3377Y1756D02*
X3428Y1756D01*
X3477Y1756D02*
X3528Y1756D01*
X2077Y1755D02*
X2128Y1755D01*
X2177Y1755D02*
X2228Y1755D01*
X2277Y1755D02*
X2328Y1755D01*
X2377Y1755D02*
X2428Y1755D01*
X2477Y1755D02*
X2528Y1755D01*
X2577Y1755D02*
X2628Y1755D01*
X2677Y1755D02*
X2728Y1755D01*
X2777Y1755D02*
X2828Y1755D01*
X2877Y1755D02*
X2928Y1755D01*
X2977Y1755D02*
X3028Y1755D01*
X3077Y1755D02*
X3128Y1755D01*
X3177Y1755D02*
X3228Y1755D01*
X3277Y1755D02*
X3328Y1755D01*
X3377Y1755D02*
X3428Y1755D01*
X3477Y1755D02*
X3528Y1755D01*
X2077Y1754D02*
X2128Y1754D01*
X2177Y1754D02*
X2228Y1754D01*
X2277Y1754D02*
X2328Y1754D01*
X2377Y1754D02*
X2428Y1754D01*
X2477Y1754D02*
X2528Y1754D01*
X2577Y1754D02*
X2628Y1754D01*
X2677Y1754D02*
X2728Y1754D01*
X2777Y1754D02*
X2828Y1754D01*
X2877Y1754D02*
X2928Y1754D01*
X2977Y1754D02*
X3028Y1754D01*
X3077Y1754D02*
X3128Y1754D01*
X3177Y1754D02*
X3228Y1754D01*
X3277Y1754D02*
X3328Y1754D01*
X3377Y1754D02*
X3428Y1754D01*
X3477Y1754D02*
X3528Y1754D01*
X2077Y1753D02*
X2128Y1753D01*
X2177Y1753D02*
X2228Y1753D01*
X2277Y1753D02*
X2328Y1753D01*
X2377Y1753D02*
X2428Y1753D01*
X2477Y1753D02*
X2528Y1753D01*
X2577Y1753D02*
X2628Y1753D01*
X2677Y1753D02*
X2728Y1753D01*
X2777Y1753D02*
X2828Y1753D01*
X2877Y1753D02*
X2928Y1753D01*
X2977Y1753D02*
X3028Y1753D01*
X3077Y1753D02*
X3128Y1753D01*
X3177Y1753D02*
X3228Y1753D01*
X3277Y1753D02*
X3328Y1753D01*
X3377Y1753D02*
X3428Y1753D01*
X3477Y1753D02*
X3528Y1753D01*
X2077Y1752D02*
X2128Y1752D01*
X2177Y1752D02*
X2228Y1752D01*
X2277Y1752D02*
X2328Y1752D01*
X2377Y1752D02*
X2428Y1752D01*
X2477Y1752D02*
X2528Y1752D01*
X2577Y1752D02*
X2628Y1752D01*
X2677Y1752D02*
X2728Y1752D01*
X2777Y1752D02*
X2828Y1752D01*
X2877Y1752D02*
X2928Y1752D01*
X2977Y1752D02*
X3028Y1752D01*
X3077Y1752D02*
X3128Y1752D01*
X3177Y1752D02*
X3228Y1752D01*
X3277Y1752D02*
X3328Y1752D01*
X3377Y1752D02*
X3428Y1752D01*
X3477Y1752D02*
X3528Y1752D01*
X2077Y1751D02*
X2128Y1751D01*
X2177Y1751D02*
X2228Y1751D01*
X2277Y1751D02*
X2328Y1751D01*
X2377Y1751D02*
X2428Y1751D01*
X2477Y1751D02*
X2528Y1751D01*
X2577Y1751D02*
X2628Y1751D01*
X2677Y1751D02*
X2728Y1751D01*
X2777Y1751D02*
X2828Y1751D01*
X2877Y1751D02*
X2928Y1751D01*
X2977Y1751D02*
X3028Y1751D01*
X3077Y1751D02*
X3128Y1751D01*
X3177Y1751D02*
X3228Y1751D01*
X3277Y1751D02*
X3328Y1751D01*
X3377Y1751D02*
X3428Y1751D01*
X3477Y1751D02*
X3528Y1751D01*
X2077Y1750D02*
X2128Y1750D01*
X2177Y1750D02*
X2228Y1750D01*
X2277Y1750D02*
X2328Y1750D01*
X2377Y1750D02*
X2428Y1750D01*
X2477Y1750D02*
X2528Y1750D01*
X2577Y1750D02*
X2628Y1750D01*
X2677Y1750D02*
X2728Y1750D01*
X2777Y1750D02*
X2828Y1750D01*
X2877Y1750D02*
X2928Y1750D01*
X2977Y1750D02*
X3028Y1750D01*
X3077Y1750D02*
X3128Y1750D01*
X3177Y1750D02*
X3228Y1750D01*
X3277Y1750D02*
X3328Y1750D01*
X3377Y1750D02*
X3428Y1750D01*
X3477Y1750D02*
X3528Y1750D01*
X2077Y1749D02*
X2128Y1749D01*
X2177Y1749D02*
X2228Y1749D01*
X2277Y1749D02*
X2328Y1749D01*
X2377Y1749D02*
X2428Y1749D01*
X2477Y1749D02*
X2528Y1749D01*
X2577Y1749D02*
X2628Y1749D01*
X2677Y1749D02*
X2728Y1749D01*
X2777Y1749D02*
X2828Y1749D01*
X2877Y1749D02*
X2928Y1749D01*
X2977Y1749D02*
X3028Y1749D01*
X3077Y1749D02*
X3128Y1749D01*
X3177Y1749D02*
X3228Y1749D01*
X3277Y1749D02*
X3328Y1749D01*
X3377Y1749D02*
X3428Y1749D01*
X3477Y1749D02*
X3528Y1749D01*
X2077Y1748D02*
X2128Y1748D01*
X2177Y1748D02*
X2228Y1748D01*
X2277Y1748D02*
X2328Y1748D01*
X2377Y1748D02*
X2428Y1748D01*
X2477Y1748D02*
X2528Y1748D01*
X2577Y1748D02*
X2628Y1748D01*
X2677Y1748D02*
X2728Y1748D01*
X2777Y1748D02*
X2828Y1748D01*
X2877Y1748D02*
X2928Y1748D01*
X2977Y1748D02*
X3028Y1748D01*
X3077Y1748D02*
X3128Y1748D01*
X3177Y1748D02*
X3228Y1748D01*
X3277Y1748D02*
X3328Y1748D01*
X3377Y1748D02*
X3428Y1748D01*
X3477Y1748D02*
X3528Y1748D01*
X2077Y1747D02*
X2128Y1747D01*
X2177Y1747D02*
X2228Y1747D01*
X2277Y1747D02*
X2328Y1747D01*
X2377Y1747D02*
X2428Y1747D01*
X2477Y1747D02*
X2528Y1747D01*
X2577Y1747D02*
X2628Y1747D01*
X2677Y1747D02*
X2728Y1747D01*
X2777Y1747D02*
X2828Y1747D01*
X2877Y1747D02*
X2928Y1747D01*
X2977Y1747D02*
X3028Y1747D01*
X3077Y1747D02*
X3128Y1747D01*
X3177Y1747D02*
X3228Y1747D01*
X3277Y1747D02*
X3328Y1747D01*
X3377Y1747D02*
X3428Y1747D01*
X3477Y1747D02*
X3528Y1747D01*
X2077Y1746D02*
X2128Y1746D01*
X2177Y1746D02*
X2228Y1746D01*
X2277Y1746D02*
X2328Y1746D01*
X2377Y1746D02*
X2428Y1746D01*
X2477Y1746D02*
X2528Y1746D01*
X2577Y1746D02*
X2628Y1746D01*
X2677Y1746D02*
X2728Y1746D01*
X2777Y1746D02*
X2828Y1746D01*
X2877Y1746D02*
X2928Y1746D01*
X2977Y1746D02*
X3028Y1746D01*
X3077Y1746D02*
X3128Y1746D01*
X3177Y1746D02*
X3228Y1746D01*
X3277Y1746D02*
X3328Y1746D01*
X3377Y1746D02*
X3428Y1746D01*
X3477Y1746D02*
X3528Y1746D01*
X2077Y1745D02*
X2128Y1745D01*
X2177Y1745D02*
X2228Y1745D01*
X2277Y1745D02*
X2328Y1745D01*
X2377Y1745D02*
X2428Y1745D01*
X2477Y1745D02*
X2528Y1745D01*
X2577Y1745D02*
X2628Y1745D01*
X2677Y1745D02*
X2728Y1745D01*
X2777Y1745D02*
X2828Y1745D01*
X2877Y1745D02*
X2928Y1745D01*
X2977Y1745D02*
X3028Y1745D01*
X3077Y1745D02*
X3128Y1745D01*
X3177Y1745D02*
X3228Y1745D01*
X3277Y1745D02*
X3328Y1745D01*
X3377Y1745D02*
X3428Y1745D01*
X3477Y1745D02*
X3528Y1745D01*
X2077Y1744D02*
X2128Y1744D01*
X2177Y1744D02*
X2228Y1744D01*
X2277Y1744D02*
X2328Y1744D01*
X2377Y1744D02*
X2428Y1744D01*
X2477Y1744D02*
X2528Y1744D01*
X2577Y1744D02*
X2628Y1744D01*
X2677Y1744D02*
X2728Y1744D01*
X2777Y1744D02*
X2828Y1744D01*
X2877Y1744D02*
X2928Y1744D01*
X2977Y1744D02*
X3028Y1744D01*
X3077Y1744D02*
X3128Y1744D01*
X3177Y1744D02*
X3228Y1744D01*
X3277Y1744D02*
X3328Y1744D01*
X3377Y1744D02*
X3428Y1744D01*
X3477Y1744D02*
X3528Y1744D01*
X2077Y1743D02*
X2098Y1743D01*
X2107Y1743D02*
X2128Y1743D01*
X2177Y1743D02*
X2198Y1743D01*
X2207Y1743D02*
X2228Y1743D01*
X2277Y1743D02*
X2298Y1743D01*
X2307Y1743D02*
X2328Y1743D01*
X2377Y1743D02*
X2397Y1743D01*
X2408Y1743D02*
X2428Y1743D01*
X2477Y1743D02*
X2498Y1743D01*
X2506Y1743D02*
X2528Y1743D01*
X2577Y1743D02*
X2598Y1743D01*
X2606Y1743D02*
X2628Y1743D01*
X2677Y1743D02*
X2699Y1743D01*
X2706Y1743D02*
X2728Y1743D01*
X2777Y1743D02*
X2798Y1743D01*
X2807Y1743D02*
X2828Y1743D01*
X2877Y1743D02*
X2899Y1743D01*
X2906Y1743D02*
X2928Y1743D01*
X2977Y1743D02*
X2999Y1743D01*
X3006Y1743D02*
X3028Y1743D01*
X3077Y1743D02*
X3098Y1743D01*
X3107Y1743D02*
X3128Y1743D01*
X3177Y1743D02*
X3198Y1743D01*
X3207Y1743D02*
X3228Y1743D01*
X3277Y1743D02*
X3298Y1743D01*
X3307Y1743D02*
X3328Y1743D01*
X3377Y1743D02*
X3398Y1743D01*
X3407Y1743D02*
X3428Y1743D01*
X3477Y1743D02*
X3499Y1743D01*
X3506Y1743D02*
X3528Y1743D01*
X2077Y1742D02*
X2095Y1742D01*
X2110Y1742D02*
X2128Y1742D01*
X2177Y1742D02*
X2195Y1742D01*
X2210Y1742D02*
X2228Y1742D01*
X2277Y1742D02*
X2295Y1742D01*
X2310Y1742D02*
X2328Y1742D01*
X2377Y1742D02*
X2395Y1742D01*
X2410Y1742D02*
X2428Y1742D01*
X2477Y1742D02*
X2495Y1742D01*
X2509Y1742D02*
X2528Y1742D01*
X2577Y1742D02*
X2595Y1742D01*
X2609Y1742D02*
X2628Y1742D01*
X2677Y1742D02*
X2696Y1742D01*
X2709Y1742D02*
X2728Y1742D01*
X2777Y1742D02*
X2795Y1742D01*
X2810Y1742D02*
X2828Y1742D01*
X2877Y1742D02*
X2896Y1742D01*
X2909Y1742D02*
X2928Y1742D01*
X2977Y1742D02*
X2996Y1742D01*
X3009Y1742D02*
X3028Y1742D01*
X3077Y1742D02*
X3095Y1742D01*
X3110Y1742D02*
X3128Y1742D01*
X3177Y1742D02*
X3195Y1742D01*
X3210Y1742D02*
X3228Y1742D01*
X3277Y1742D02*
X3295Y1742D01*
X3310Y1742D02*
X3328Y1742D01*
X3377Y1742D02*
X3395Y1742D01*
X3410Y1742D02*
X3428Y1742D01*
X3477Y1742D02*
X3496Y1742D01*
X3509Y1742D02*
X3528Y1742D01*
X2077Y1741D02*
X2093Y1741D01*
X2112Y1741D02*
X2128Y1741D01*
X2177Y1741D02*
X2193Y1741D01*
X2212Y1741D02*
X2228Y1741D01*
X2277Y1741D02*
X2293Y1741D01*
X2312Y1741D02*
X2328Y1741D01*
X2377Y1741D02*
X2393Y1741D01*
X2412Y1741D02*
X2428Y1741D01*
X2477Y1741D02*
X2494Y1741D01*
X2511Y1741D02*
X2528Y1741D01*
X2577Y1741D02*
X2594Y1741D01*
X2611Y1741D02*
X2628Y1741D01*
X2677Y1741D02*
X2694Y1741D01*
X2711Y1741D02*
X2728Y1741D01*
X2777Y1741D02*
X2793Y1741D01*
X2812Y1741D02*
X2828Y1741D01*
X2877Y1741D02*
X2894Y1741D01*
X2911Y1741D02*
X2928Y1741D01*
X2977Y1741D02*
X2994Y1741D01*
X3011Y1741D02*
X3028Y1741D01*
X3077Y1741D02*
X3094Y1741D01*
X3111Y1741D02*
X3128Y1741D01*
X3177Y1741D02*
X3193Y1741D01*
X3212Y1741D02*
X3228Y1741D01*
X3277Y1741D02*
X3293Y1741D01*
X3312Y1741D02*
X3328Y1741D01*
X3377Y1741D02*
X3393Y1741D01*
X3412Y1741D02*
X3428Y1741D01*
X3477Y1741D02*
X3494Y1741D01*
X3511Y1741D02*
X3528Y1741D01*
X2077Y1740D02*
X2092Y1740D01*
X2113Y1740D02*
X2128Y1740D01*
X2177Y1740D02*
X2192Y1740D01*
X2213Y1740D02*
X2228Y1740D01*
X2277Y1740D02*
X2292Y1740D01*
X2313Y1740D02*
X2328Y1740D01*
X2377Y1740D02*
X2392Y1740D01*
X2413Y1740D02*
X2428Y1740D01*
X2477Y1740D02*
X2492Y1740D01*
X2513Y1740D02*
X2528Y1740D01*
X2577Y1740D02*
X2592Y1740D01*
X2613Y1740D02*
X2628Y1740D01*
X2677Y1740D02*
X2692Y1740D01*
X2713Y1740D02*
X2728Y1740D01*
X2777Y1740D02*
X2792Y1740D01*
X2813Y1740D02*
X2828Y1740D01*
X2877Y1740D02*
X2892Y1740D01*
X2913Y1740D02*
X2928Y1740D01*
X2977Y1740D02*
X2992Y1740D01*
X3013Y1740D02*
X3028Y1740D01*
X3077Y1740D02*
X3092Y1740D01*
X3113Y1740D02*
X3128Y1740D01*
X3177Y1740D02*
X3192Y1740D01*
X3213Y1740D02*
X3228Y1740D01*
X3277Y1740D02*
X3292Y1740D01*
X3313Y1740D02*
X3328Y1740D01*
X3377Y1740D02*
X3392Y1740D01*
X3413Y1740D02*
X3428Y1740D01*
X3477Y1740D02*
X3492Y1740D01*
X3513Y1740D02*
X3528Y1740D01*
X2077Y1739D02*
X2091Y1739D01*
X2114Y1739D02*
X2128Y1739D01*
X2177Y1739D02*
X2191Y1739D01*
X2214Y1739D02*
X2228Y1739D01*
X2277Y1739D02*
X2291Y1739D01*
X2314Y1739D02*
X2328Y1739D01*
X2377Y1739D02*
X2391Y1739D01*
X2414Y1739D02*
X2428Y1739D01*
X2477Y1739D02*
X2491Y1739D01*
X2514Y1739D02*
X2528Y1739D01*
X2577Y1739D02*
X2591Y1739D01*
X2614Y1739D02*
X2628Y1739D01*
X2677Y1739D02*
X2691Y1739D01*
X2714Y1739D02*
X2728Y1739D01*
X2777Y1739D02*
X2791Y1739D01*
X2814Y1739D02*
X2828Y1739D01*
X2877Y1739D02*
X2891Y1739D01*
X2914Y1739D02*
X2928Y1739D01*
X2977Y1739D02*
X2991Y1739D01*
X3014Y1739D02*
X3028Y1739D01*
X3077Y1739D02*
X3091Y1739D01*
X3114Y1739D02*
X3128Y1739D01*
X3177Y1739D02*
X3191Y1739D01*
X3214Y1739D02*
X3228Y1739D01*
X3277Y1739D02*
X3291Y1739D01*
X3314Y1739D02*
X3328Y1739D01*
X3377Y1739D02*
X3391Y1739D01*
X3414Y1739D02*
X3428Y1739D01*
X3477Y1739D02*
X3491Y1739D01*
X3514Y1739D02*
X3528Y1739D01*
X2077Y1738D02*
X2090Y1738D01*
X2115Y1738D02*
X2128Y1738D01*
X2177Y1738D02*
X2190Y1738D01*
X2215Y1738D02*
X2228Y1738D01*
X2277Y1738D02*
X2290Y1738D01*
X2315Y1738D02*
X2328Y1738D01*
X2377Y1738D02*
X2390Y1738D01*
X2415Y1738D02*
X2428Y1738D01*
X2477Y1738D02*
X2490Y1738D01*
X2515Y1738D02*
X2528Y1738D01*
X2577Y1738D02*
X2590Y1738D01*
X2615Y1738D02*
X2628Y1738D01*
X2677Y1738D02*
X2690Y1738D01*
X2715Y1738D02*
X2728Y1738D01*
X2777Y1738D02*
X2790Y1738D01*
X2815Y1738D02*
X2828Y1738D01*
X2877Y1738D02*
X2890Y1738D01*
X2915Y1738D02*
X2928Y1738D01*
X2977Y1738D02*
X2990Y1738D01*
X3015Y1738D02*
X3028Y1738D01*
X3077Y1738D02*
X3090Y1738D01*
X3115Y1738D02*
X3128Y1738D01*
X3177Y1738D02*
X3190Y1738D01*
X3215Y1738D02*
X3228Y1738D01*
X3277Y1738D02*
X3290Y1738D01*
X3315Y1738D02*
X3328Y1738D01*
X3377Y1738D02*
X3390Y1738D01*
X3415Y1738D02*
X3428Y1738D01*
X3477Y1738D02*
X3490Y1738D01*
X3515Y1738D02*
X3528Y1738D01*
X2077Y1737D02*
X2089Y1737D01*
X2116Y1737D02*
X2128Y1737D01*
X2177Y1737D02*
X2189Y1737D01*
X2216Y1737D02*
X2228Y1737D01*
X2277Y1737D02*
X2289Y1737D01*
X2316Y1737D02*
X2328Y1737D01*
X2377Y1737D02*
X2389Y1737D01*
X2416Y1737D02*
X2428Y1737D01*
X2477Y1737D02*
X2489Y1737D01*
X2516Y1737D02*
X2528Y1737D01*
X2577Y1737D02*
X2589Y1737D01*
X2616Y1737D02*
X2628Y1737D01*
X2677Y1737D02*
X2689Y1737D01*
X2716Y1737D02*
X2728Y1737D01*
X2777Y1737D02*
X2789Y1737D01*
X2816Y1737D02*
X2828Y1737D01*
X2877Y1737D02*
X2889Y1737D01*
X2916Y1737D02*
X2928Y1737D01*
X2977Y1737D02*
X2989Y1737D01*
X3016Y1737D02*
X3028Y1737D01*
X3077Y1737D02*
X3089Y1737D01*
X3116Y1737D02*
X3128Y1737D01*
X3177Y1737D02*
X3189Y1737D01*
X3216Y1737D02*
X3228Y1737D01*
X3277Y1737D02*
X3289Y1737D01*
X3316Y1737D02*
X3328Y1737D01*
X3377Y1737D02*
X3389Y1737D01*
X3416Y1737D02*
X3428Y1737D01*
X3477Y1737D02*
X3489Y1737D01*
X3516Y1737D02*
X3528Y1737D01*
X2077Y1736D02*
X2088Y1736D01*
X2117Y1736D02*
X2128Y1736D01*
X2177Y1736D02*
X2188Y1736D01*
X2217Y1736D02*
X2228Y1736D01*
X2277Y1736D02*
X2288Y1736D01*
X2317Y1736D02*
X2328Y1736D01*
X2377Y1736D02*
X2388Y1736D01*
X2417Y1736D02*
X2428Y1736D01*
X2477Y1736D02*
X2489Y1736D01*
X2516Y1736D02*
X2528Y1736D01*
X2577Y1736D02*
X2589Y1736D01*
X2616Y1736D02*
X2628Y1736D01*
X2677Y1736D02*
X2689Y1736D01*
X2716Y1736D02*
X2728Y1736D01*
X2777Y1736D02*
X2788Y1736D01*
X2817Y1736D02*
X2828Y1736D01*
X2877Y1736D02*
X2889Y1736D01*
X2916Y1736D02*
X2928Y1736D01*
X2977Y1736D02*
X2989Y1736D01*
X3016Y1736D02*
X3028Y1736D01*
X3077Y1736D02*
X3089Y1736D01*
X3116Y1736D02*
X3128Y1736D01*
X3177Y1736D02*
X3188Y1736D01*
X3217Y1736D02*
X3228Y1736D01*
X3277Y1736D02*
X3288Y1736D01*
X3317Y1736D02*
X3328Y1736D01*
X3377Y1736D02*
X3388Y1736D01*
X3417Y1736D02*
X3428Y1736D01*
X3477Y1736D02*
X3489Y1736D01*
X3516Y1736D02*
X3528Y1736D01*
X2077Y1735D02*
X2088Y1735D01*
X2117Y1735D02*
X2128Y1735D01*
X2177Y1735D02*
X2188Y1735D01*
X2217Y1735D02*
X2228Y1735D01*
X2277Y1735D02*
X2288Y1735D01*
X2317Y1735D02*
X2328Y1735D01*
X2377Y1735D02*
X2388Y1735D01*
X2417Y1735D02*
X2428Y1735D01*
X2477Y1735D02*
X2488Y1735D01*
X2517Y1735D02*
X2528Y1735D01*
X2577Y1735D02*
X2588Y1735D01*
X2617Y1735D02*
X2628Y1735D01*
X2677Y1735D02*
X2688Y1735D01*
X2717Y1735D02*
X2728Y1735D01*
X2777Y1735D02*
X2788Y1735D01*
X2817Y1735D02*
X2828Y1735D01*
X2877Y1735D02*
X2888Y1735D01*
X2917Y1735D02*
X2928Y1735D01*
X2977Y1735D02*
X2988Y1735D01*
X3017Y1735D02*
X3028Y1735D01*
X3077Y1735D02*
X3088Y1735D01*
X3117Y1735D02*
X3128Y1735D01*
X3177Y1735D02*
X3188Y1735D01*
X3217Y1735D02*
X3228Y1735D01*
X3277Y1735D02*
X3288Y1735D01*
X3317Y1735D02*
X3328Y1735D01*
X3377Y1735D02*
X3388Y1735D01*
X3417Y1735D02*
X3428Y1735D01*
X3477Y1735D02*
X3488Y1735D01*
X3517Y1735D02*
X3528Y1735D01*
X2077Y1734D02*
X2087Y1734D01*
X2118Y1734D02*
X2128Y1734D01*
X2177Y1734D02*
X2187Y1734D01*
X2218Y1734D02*
X2228Y1734D01*
X2277Y1734D02*
X2287Y1734D01*
X2318Y1734D02*
X2328Y1734D01*
X2377Y1734D02*
X2387Y1734D01*
X2418Y1734D02*
X2428Y1734D01*
X2477Y1734D02*
X2487Y1734D01*
X2518Y1734D02*
X2528Y1734D01*
X2577Y1734D02*
X2587Y1734D01*
X2618Y1734D02*
X2628Y1734D01*
X2677Y1734D02*
X2687Y1734D01*
X2718Y1734D02*
X2728Y1734D01*
X2777Y1734D02*
X2787Y1734D01*
X2818Y1734D02*
X2828Y1734D01*
X2877Y1734D02*
X2887Y1734D01*
X2918Y1734D02*
X2928Y1734D01*
X2977Y1734D02*
X2987Y1734D01*
X3018Y1734D02*
X3028Y1734D01*
X3077Y1734D02*
X3087Y1734D01*
X3118Y1734D02*
X3128Y1734D01*
X3177Y1734D02*
X3187Y1734D01*
X3218Y1734D02*
X3228Y1734D01*
X3277Y1734D02*
X3287Y1734D01*
X3318Y1734D02*
X3328Y1734D01*
X3377Y1734D02*
X3387Y1734D01*
X3418Y1734D02*
X3428Y1734D01*
X3477Y1734D02*
X3487Y1734D01*
X3517Y1734D02*
X3528Y1734D01*
X2077Y1733D02*
X2087Y1733D01*
X2118Y1733D02*
X2128Y1733D01*
X2177Y1733D02*
X2187Y1733D01*
X2218Y1733D02*
X2228Y1733D01*
X2277Y1733D02*
X2287Y1733D01*
X2318Y1733D02*
X2328Y1733D01*
X2377Y1733D02*
X2387Y1733D01*
X2418Y1733D02*
X2428Y1733D01*
X2477Y1733D02*
X2487Y1733D01*
X2518Y1733D02*
X2528Y1733D01*
X2577Y1733D02*
X2587Y1733D01*
X2618Y1733D02*
X2628Y1733D01*
X2677Y1733D02*
X2687Y1733D01*
X2718Y1733D02*
X2728Y1733D01*
X2777Y1733D02*
X2787Y1733D01*
X2818Y1733D02*
X2828Y1733D01*
X2877Y1733D02*
X2887Y1733D01*
X2918Y1733D02*
X2928Y1733D01*
X2977Y1733D02*
X2987Y1733D01*
X3018Y1733D02*
X3028Y1733D01*
X3077Y1733D02*
X3087Y1733D01*
X3118Y1733D02*
X3128Y1733D01*
X3177Y1733D02*
X3187Y1733D01*
X3218Y1733D02*
X3228Y1733D01*
X3277Y1733D02*
X3287Y1733D01*
X3318Y1733D02*
X3328Y1733D01*
X3377Y1733D02*
X3387Y1733D01*
X3418Y1733D02*
X3428Y1733D01*
X3477Y1733D02*
X3487Y1733D01*
X3518Y1733D02*
X3528Y1733D01*
X2077Y1732D02*
X2087Y1732D01*
X2118Y1732D02*
X2128Y1732D01*
X2177Y1732D02*
X2187Y1732D01*
X2218Y1732D02*
X2228Y1732D01*
X2277Y1732D02*
X2287Y1732D01*
X2318Y1732D02*
X2328Y1732D01*
X2377Y1732D02*
X2387Y1732D01*
X2418Y1732D02*
X2428Y1732D01*
X2477Y1732D02*
X2487Y1732D01*
X2518Y1732D02*
X2528Y1732D01*
X2577Y1732D02*
X2587Y1732D01*
X2618Y1732D02*
X2628Y1732D01*
X2677Y1732D02*
X2687Y1732D01*
X2718Y1732D02*
X2728Y1732D01*
X2777Y1732D02*
X2787Y1732D01*
X2818Y1732D02*
X2828Y1732D01*
X2877Y1732D02*
X2887Y1732D01*
X2918Y1732D02*
X2928Y1732D01*
X2977Y1732D02*
X2987Y1732D01*
X3018Y1732D02*
X3028Y1732D01*
X3077Y1732D02*
X3087Y1732D01*
X3118Y1732D02*
X3128Y1732D01*
X3177Y1732D02*
X3187Y1732D01*
X3218Y1732D02*
X3228Y1732D01*
X3277Y1732D02*
X3287Y1732D01*
X3318Y1732D02*
X3328Y1732D01*
X3377Y1732D02*
X3387Y1732D01*
X3418Y1732D02*
X3428Y1732D01*
X3477Y1732D02*
X3487Y1732D01*
X3518Y1732D02*
X3528Y1732D01*
X2077Y1731D02*
X2086Y1731D01*
X2119Y1731D02*
X2128Y1731D01*
X2177Y1731D02*
X2186Y1731D01*
X2219Y1731D02*
X2228Y1731D01*
X2277Y1731D02*
X2286Y1731D01*
X2319Y1731D02*
X2328Y1731D01*
X2377Y1731D02*
X2386Y1731D01*
X2419Y1731D02*
X2428Y1731D01*
X2477Y1731D02*
X2486Y1731D01*
X2519Y1731D02*
X2528Y1731D01*
X2577Y1731D02*
X2586Y1731D01*
X2619Y1731D02*
X2628Y1731D01*
X2677Y1731D02*
X2686Y1731D01*
X2719Y1731D02*
X2728Y1731D01*
X2777Y1731D02*
X2786Y1731D01*
X2819Y1731D02*
X2828Y1731D01*
X2877Y1731D02*
X2886Y1731D01*
X2919Y1731D02*
X2928Y1731D01*
X2977Y1731D02*
X2986Y1731D01*
X3019Y1731D02*
X3028Y1731D01*
X3077Y1731D02*
X3086Y1731D01*
X3119Y1731D02*
X3128Y1731D01*
X3177Y1731D02*
X3186Y1731D01*
X3219Y1731D02*
X3228Y1731D01*
X3277Y1731D02*
X3286Y1731D01*
X3319Y1731D02*
X3328Y1731D01*
X3377Y1731D02*
X3386Y1731D01*
X3419Y1731D02*
X3428Y1731D01*
X3477Y1731D02*
X3486Y1731D01*
X3519Y1731D02*
X3528Y1731D01*
X2077Y1730D02*
X2086Y1730D01*
X2119Y1730D02*
X2128Y1730D01*
X2177Y1730D02*
X2186Y1730D01*
X2219Y1730D02*
X2228Y1730D01*
X2277Y1730D02*
X2286Y1730D01*
X2319Y1730D02*
X2328Y1730D01*
X2377Y1730D02*
X2386Y1730D01*
X2419Y1730D02*
X2428Y1730D01*
X2477Y1730D02*
X2486Y1730D01*
X2519Y1730D02*
X2528Y1730D01*
X2577Y1730D02*
X2586Y1730D01*
X2619Y1730D02*
X2628Y1730D01*
X2677Y1730D02*
X2686Y1730D01*
X2719Y1730D02*
X2728Y1730D01*
X2777Y1730D02*
X2786Y1730D01*
X2819Y1730D02*
X2828Y1730D01*
X2877Y1730D02*
X2886Y1730D01*
X2919Y1730D02*
X2928Y1730D01*
X2977Y1730D02*
X2986Y1730D01*
X3019Y1730D02*
X3028Y1730D01*
X3077Y1730D02*
X3086Y1730D01*
X3119Y1730D02*
X3128Y1730D01*
X3177Y1730D02*
X3186Y1730D01*
X3219Y1730D02*
X3228Y1730D01*
X3277Y1730D02*
X3286Y1730D01*
X3319Y1730D02*
X3328Y1730D01*
X3377Y1730D02*
X3386Y1730D01*
X3419Y1730D02*
X3428Y1730D01*
X3477Y1730D02*
X3486Y1730D01*
X3519Y1730D02*
X3528Y1730D01*
X2077Y1729D02*
X2086Y1729D01*
X2119Y1729D02*
X2128Y1729D01*
X2177Y1729D02*
X2186Y1729D01*
X2219Y1729D02*
X2228Y1729D01*
X2277Y1729D02*
X2286Y1729D01*
X2319Y1729D02*
X2328Y1729D01*
X2377Y1729D02*
X2386Y1729D01*
X2419Y1729D02*
X2428Y1729D01*
X2477Y1729D02*
X2486Y1729D01*
X2519Y1729D02*
X2528Y1729D01*
X2577Y1729D02*
X2586Y1729D01*
X2619Y1729D02*
X2628Y1729D01*
X2677Y1729D02*
X2686Y1729D01*
X2719Y1729D02*
X2728Y1729D01*
X2777Y1729D02*
X2786Y1729D01*
X2819Y1729D02*
X2828Y1729D01*
X2877Y1729D02*
X2886Y1729D01*
X2919Y1729D02*
X2928Y1729D01*
X2977Y1729D02*
X2986Y1729D01*
X3019Y1729D02*
X3028Y1729D01*
X3077Y1729D02*
X3086Y1729D01*
X3119Y1729D02*
X3128Y1729D01*
X3177Y1729D02*
X3186Y1729D01*
X3219Y1729D02*
X3228Y1729D01*
X3277Y1729D02*
X3286Y1729D01*
X3319Y1729D02*
X3328Y1729D01*
X3377Y1729D02*
X3386Y1729D01*
X3419Y1729D02*
X3428Y1729D01*
X3477Y1729D02*
X3486Y1729D01*
X3519Y1729D02*
X3528Y1729D01*
X2077Y1728D02*
X2086Y1728D01*
X2119Y1728D02*
X2128Y1728D01*
X2177Y1728D02*
X2186Y1728D01*
X2219Y1728D02*
X2228Y1728D01*
X2277Y1728D02*
X2286Y1728D01*
X2319Y1728D02*
X2328Y1728D01*
X2377Y1728D02*
X2386Y1728D01*
X2419Y1728D02*
X2428Y1728D01*
X2477Y1728D02*
X2486Y1728D01*
X2519Y1728D02*
X2528Y1728D01*
X2577Y1728D02*
X2586Y1728D01*
X2619Y1728D02*
X2628Y1728D01*
X2677Y1728D02*
X2686Y1728D01*
X2719Y1728D02*
X2728Y1728D01*
X2777Y1728D02*
X2786Y1728D01*
X2819Y1728D02*
X2828Y1728D01*
X2877Y1728D02*
X2886Y1728D01*
X2919Y1728D02*
X2928Y1728D01*
X2977Y1728D02*
X2986Y1728D01*
X3019Y1728D02*
X3028Y1728D01*
X3077Y1728D02*
X3086Y1728D01*
X3119Y1728D02*
X3128Y1728D01*
X3177Y1728D02*
X3186Y1728D01*
X3219Y1728D02*
X3228Y1728D01*
X3277Y1728D02*
X3286Y1728D01*
X3319Y1728D02*
X3328Y1728D01*
X3377Y1728D02*
X3386Y1728D01*
X3419Y1728D02*
X3428Y1728D01*
X3477Y1728D02*
X3486Y1728D01*
X3519Y1728D02*
X3528Y1728D01*
X2077Y1727D02*
X2086Y1727D01*
X2119Y1727D02*
X2128Y1727D01*
X2177Y1727D02*
X2186Y1727D01*
X2219Y1727D02*
X2228Y1727D01*
X2277Y1727D02*
X2286Y1727D01*
X2319Y1727D02*
X2328Y1727D01*
X2377Y1727D02*
X2386Y1727D01*
X2419Y1727D02*
X2428Y1727D01*
X2477Y1727D02*
X2486Y1727D01*
X2519Y1727D02*
X2528Y1727D01*
X2577Y1727D02*
X2586Y1727D01*
X2619Y1727D02*
X2628Y1727D01*
X2677Y1727D02*
X2686Y1727D01*
X2719Y1727D02*
X2728Y1727D01*
X2777Y1727D02*
X2786Y1727D01*
X2819Y1727D02*
X2828Y1727D01*
X2877Y1727D02*
X2886Y1727D01*
X2919Y1727D02*
X2928Y1727D01*
X2977Y1727D02*
X2986Y1727D01*
X3019Y1727D02*
X3028Y1727D01*
X3077Y1727D02*
X3086Y1727D01*
X3119Y1727D02*
X3128Y1727D01*
X3177Y1727D02*
X3186Y1727D01*
X3219Y1727D02*
X3228Y1727D01*
X3277Y1727D02*
X3286Y1727D01*
X3319Y1727D02*
X3328Y1727D01*
X3377Y1727D02*
X3386Y1727D01*
X3419Y1727D02*
X3428Y1727D01*
X3477Y1727D02*
X3486Y1727D01*
X3519Y1727D02*
X3528Y1727D01*
X2077Y1726D02*
X2086Y1726D01*
X2119Y1726D02*
X2128Y1726D01*
X2177Y1726D02*
X2186Y1726D01*
X2219Y1726D02*
X2228Y1726D01*
X2277Y1726D02*
X2286Y1726D01*
X2319Y1726D02*
X2328Y1726D01*
X2377Y1726D02*
X2386Y1726D01*
X2419Y1726D02*
X2428Y1726D01*
X2477Y1726D02*
X2486Y1726D01*
X2519Y1726D02*
X2528Y1726D01*
X2577Y1726D02*
X2586Y1726D01*
X2619Y1726D02*
X2628Y1726D01*
X2677Y1726D02*
X2686Y1726D01*
X2719Y1726D02*
X2728Y1726D01*
X2777Y1726D02*
X2786Y1726D01*
X2819Y1726D02*
X2828Y1726D01*
X2877Y1726D02*
X2886Y1726D01*
X2919Y1726D02*
X2928Y1726D01*
X2977Y1726D02*
X2986Y1726D01*
X3019Y1726D02*
X3028Y1726D01*
X3077Y1726D02*
X3086Y1726D01*
X3119Y1726D02*
X3128Y1726D01*
X3177Y1726D02*
X3186Y1726D01*
X3219Y1726D02*
X3228Y1726D01*
X3277Y1726D02*
X3286Y1726D01*
X3319Y1726D02*
X3328Y1726D01*
X3377Y1726D02*
X3386Y1726D01*
X3419Y1726D02*
X3428Y1726D01*
X3477Y1726D02*
X3486Y1726D01*
X3519Y1726D02*
X3528Y1726D01*
X2077Y1725D02*
X2086Y1725D01*
X2119Y1725D02*
X2128Y1725D01*
X2177Y1725D02*
X2186Y1725D01*
X2219Y1725D02*
X2228Y1725D01*
X2277Y1725D02*
X2286Y1725D01*
X2319Y1725D02*
X2328Y1725D01*
X2377Y1725D02*
X2386Y1725D01*
X2419Y1725D02*
X2428Y1725D01*
X2477Y1725D02*
X2486Y1725D01*
X2519Y1725D02*
X2528Y1725D01*
X2577Y1725D02*
X2586Y1725D01*
X2619Y1725D02*
X2628Y1725D01*
X2677Y1725D02*
X2686Y1725D01*
X2719Y1725D02*
X2728Y1725D01*
X2777Y1725D02*
X2786Y1725D01*
X2819Y1725D02*
X2828Y1725D01*
X2877Y1725D02*
X2886Y1725D01*
X2919Y1725D02*
X2928Y1725D01*
X2977Y1725D02*
X2986Y1725D01*
X3019Y1725D02*
X3028Y1725D01*
X3077Y1725D02*
X3086Y1725D01*
X3119Y1725D02*
X3128Y1725D01*
X3177Y1725D02*
X3186Y1725D01*
X3219Y1725D02*
X3228Y1725D01*
X3277Y1725D02*
X3286Y1725D01*
X3319Y1725D02*
X3328Y1725D01*
X3377Y1725D02*
X3386Y1725D01*
X3419Y1725D02*
X3428Y1725D01*
X3477Y1725D02*
X3486Y1725D01*
X3519Y1725D02*
X3528Y1725D01*
X2077Y1724D02*
X2086Y1724D01*
X2119Y1724D02*
X2128Y1724D01*
X2177Y1724D02*
X2186Y1724D01*
X2219Y1724D02*
X2228Y1724D01*
X2277Y1724D02*
X2286Y1724D01*
X2319Y1724D02*
X2328Y1724D01*
X2377Y1724D02*
X2386Y1724D01*
X2419Y1724D02*
X2428Y1724D01*
X2477Y1724D02*
X2486Y1724D01*
X2519Y1724D02*
X2528Y1724D01*
X2577Y1724D02*
X2586Y1724D01*
X2619Y1724D02*
X2628Y1724D01*
X2677Y1724D02*
X2686Y1724D01*
X2719Y1724D02*
X2728Y1724D01*
X2777Y1724D02*
X2786Y1724D01*
X2819Y1724D02*
X2828Y1724D01*
X2877Y1724D02*
X2886Y1724D01*
X2919Y1724D02*
X2928Y1724D01*
X2977Y1724D02*
X2986Y1724D01*
X3019Y1724D02*
X3028Y1724D01*
X3077Y1724D02*
X3086Y1724D01*
X3119Y1724D02*
X3128Y1724D01*
X3177Y1724D02*
X3186Y1724D01*
X3219Y1724D02*
X3228Y1724D01*
X3277Y1724D02*
X3286Y1724D01*
X3319Y1724D02*
X3328Y1724D01*
X3377Y1724D02*
X3386Y1724D01*
X3419Y1724D02*
X3428Y1724D01*
X3477Y1724D02*
X3486Y1724D01*
X3519Y1724D02*
X3528Y1724D01*
X2077Y1723D02*
X2087Y1723D01*
X2118Y1723D02*
X2128Y1723D01*
X2177Y1723D02*
X2187Y1723D01*
X2218Y1723D02*
X2228Y1723D01*
X2277Y1723D02*
X2287Y1723D01*
X2318Y1723D02*
X2328Y1723D01*
X2377Y1723D02*
X2387Y1723D01*
X2418Y1723D02*
X2428Y1723D01*
X2477Y1723D02*
X2487Y1723D01*
X2518Y1723D02*
X2528Y1723D01*
X2577Y1723D02*
X2587Y1723D01*
X2618Y1723D02*
X2628Y1723D01*
X2677Y1723D02*
X2687Y1723D01*
X2718Y1723D02*
X2728Y1723D01*
X2777Y1723D02*
X2787Y1723D01*
X2818Y1723D02*
X2828Y1723D01*
X2877Y1723D02*
X2887Y1723D01*
X2918Y1723D02*
X2928Y1723D01*
X2977Y1723D02*
X2987Y1723D01*
X3018Y1723D02*
X3028Y1723D01*
X3077Y1723D02*
X3087Y1723D01*
X3118Y1723D02*
X3128Y1723D01*
X3177Y1723D02*
X3187Y1723D01*
X3218Y1723D02*
X3228Y1723D01*
X3277Y1723D02*
X3287Y1723D01*
X3318Y1723D02*
X3328Y1723D01*
X3377Y1723D02*
X3387Y1723D01*
X3418Y1723D02*
X3428Y1723D01*
X3477Y1723D02*
X3487Y1723D01*
X3518Y1723D02*
X3528Y1723D01*
X2077Y1722D02*
X2087Y1722D01*
X2118Y1722D02*
X2128Y1722D01*
X2177Y1722D02*
X2187Y1722D01*
X2218Y1722D02*
X2228Y1722D01*
X2277Y1722D02*
X2287Y1722D01*
X2318Y1722D02*
X2328Y1722D01*
X2377Y1722D02*
X2387Y1722D01*
X2418Y1722D02*
X2428Y1722D01*
X2477Y1722D02*
X2487Y1722D01*
X2518Y1722D02*
X2528Y1722D01*
X2577Y1722D02*
X2587Y1722D01*
X2618Y1722D02*
X2628Y1722D01*
X2677Y1722D02*
X2687Y1722D01*
X2718Y1722D02*
X2728Y1722D01*
X2777Y1722D02*
X2787Y1722D01*
X2818Y1722D02*
X2828Y1722D01*
X2877Y1722D02*
X2887Y1722D01*
X2918Y1722D02*
X2928Y1722D01*
X2977Y1722D02*
X2987Y1722D01*
X3018Y1722D02*
X3028Y1722D01*
X3077Y1722D02*
X3087Y1722D01*
X3118Y1722D02*
X3128Y1722D01*
X3177Y1722D02*
X3187Y1722D01*
X3218Y1722D02*
X3228Y1722D01*
X3277Y1722D02*
X3287Y1722D01*
X3318Y1722D02*
X3328Y1722D01*
X3377Y1722D02*
X3387Y1722D01*
X3418Y1722D02*
X3428Y1722D01*
X3477Y1722D02*
X3487Y1722D01*
X3518Y1722D02*
X3528Y1722D01*
X2077Y1721D02*
X2087Y1721D01*
X2118Y1721D02*
X2128Y1721D01*
X2177Y1721D02*
X2187Y1721D01*
X2218Y1721D02*
X2228Y1721D01*
X2277Y1721D02*
X2287Y1721D01*
X2318Y1721D02*
X2328Y1721D01*
X2377Y1721D02*
X2387Y1721D01*
X2418Y1721D02*
X2428Y1721D01*
X2477Y1721D02*
X2487Y1721D01*
X2518Y1721D02*
X2528Y1721D01*
X2577Y1721D02*
X2587Y1721D01*
X2618Y1721D02*
X2628Y1721D01*
X2677Y1721D02*
X2687Y1721D01*
X2718Y1721D02*
X2728Y1721D01*
X2777Y1721D02*
X2787Y1721D01*
X2818Y1721D02*
X2828Y1721D01*
X2877Y1721D02*
X2887Y1721D01*
X2918Y1721D02*
X2928Y1721D01*
X2977Y1721D02*
X2987Y1721D01*
X3018Y1721D02*
X3028Y1721D01*
X3077Y1721D02*
X3087Y1721D01*
X3118Y1721D02*
X3128Y1721D01*
X3177Y1721D02*
X3187Y1721D01*
X3218Y1721D02*
X3228Y1721D01*
X3277Y1721D02*
X3287Y1721D01*
X3318Y1721D02*
X3328Y1721D01*
X3377Y1721D02*
X3387Y1721D01*
X3418Y1721D02*
X3428Y1721D01*
X3477Y1721D02*
X3487Y1721D01*
X3518Y1721D02*
X3528Y1721D01*
X2077Y1720D02*
X2088Y1720D01*
X2117Y1720D02*
X2128Y1720D01*
X2177Y1720D02*
X2188Y1720D01*
X2217Y1720D02*
X2228Y1720D01*
X2277Y1720D02*
X2288Y1720D01*
X2317Y1720D02*
X2328Y1720D01*
X2377Y1720D02*
X2388Y1720D01*
X2417Y1720D02*
X2428Y1720D01*
X2477Y1720D02*
X2488Y1720D01*
X2517Y1720D02*
X2528Y1720D01*
X2577Y1720D02*
X2588Y1720D01*
X2617Y1720D02*
X2628Y1720D01*
X2677Y1720D02*
X2688Y1720D01*
X2717Y1720D02*
X2728Y1720D01*
X2777Y1720D02*
X2788Y1720D01*
X2817Y1720D02*
X2828Y1720D01*
X2877Y1720D02*
X2888Y1720D01*
X2917Y1720D02*
X2928Y1720D01*
X2977Y1720D02*
X2988Y1720D01*
X3017Y1720D02*
X3028Y1720D01*
X3077Y1720D02*
X3088Y1720D01*
X3117Y1720D02*
X3128Y1720D01*
X3177Y1720D02*
X3188Y1720D01*
X3217Y1720D02*
X3228Y1720D01*
X3277Y1720D02*
X3288Y1720D01*
X3317Y1720D02*
X3328Y1720D01*
X3377Y1720D02*
X3388Y1720D01*
X3417Y1720D02*
X3428Y1720D01*
X3477Y1720D02*
X3488Y1720D01*
X3517Y1720D02*
X3528Y1720D01*
X2077Y1719D02*
X2088Y1719D01*
X2117Y1719D02*
X2128Y1719D01*
X2177Y1719D02*
X2188Y1719D01*
X2217Y1719D02*
X2228Y1719D01*
X2277Y1719D02*
X2288Y1719D01*
X2317Y1719D02*
X2328Y1719D01*
X2377Y1719D02*
X2388Y1719D01*
X2417Y1719D02*
X2428Y1719D01*
X2477Y1719D02*
X2488Y1719D01*
X2517Y1719D02*
X2528Y1719D01*
X2577Y1719D02*
X2588Y1719D01*
X2617Y1719D02*
X2628Y1719D01*
X2677Y1719D02*
X2688Y1719D01*
X2717Y1719D02*
X2728Y1719D01*
X2777Y1719D02*
X2788Y1719D01*
X2817Y1719D02*
X2828Y1719D01*
X2877Y1719D02*
X2888Y1719D01*
X2917Y1719D02*
X2928Y1719D01*
X2977Y1719D02*
X2988Y1719D01*
X3017Y1719D02*
X3028Y1719D01*
X3077Y1719D02*
X3088Y1719D01*
X3117Y1719D02*
X3128Y1719D01*
X3177Y1719D02*
X3188Y1719D01*
X3217Y1719D02*
X3228Y1719D01*
X3277Y1719D02*
X3288Y1719D01*
X3317Y1719D02*
X3328Y1719D01*
X3377Y1719D02*
X3388Y1719D01*
X3417Y1719D02*
X3428Y1719D01*
X3477Y1719D02*
X3488Y1719D01*
X3517Y1719D02*
X3528Y1719D01*
X2077Y1718D02*
X2089Y1718D01*
X2116Y1718D02*
X2128Y1718D01*
X2177Y1718D02*
X2189Y1718D01*
X2216Y1718D02*
X2228Y1718D01*
X2277Y1718D02*
X2289Y1718D01*
X2316Y1718D02*
X2328Y1718D01*
X2377Y1718D02*
X2389Y1718D01*
X2416Y1718D02*
X2428Y1718D01*
X2477Y1718D02*
X2489Y1718D01*
X2516Y1718D02*
X2528Y1718D01*
X2577Y1718D02*
X2589Y1718D01*
X2616Y1718D02*
X2628Y1718D01*
X2677Y1718D02*
X2689Y1718D01*
X2716Y1718D02*
X2728Y1718D01*
X2777Y1718D02*
X2789Y1718D01*
X2816Y1718D02*
X2828Y1718D01*
X2877Y1718D02*
X2889Y1718D01*
X2916Y1718D02*
X2928Y1718D01*
X2977Y1718D02*
X2989Y1718D01*
X3016Y1718D02*
X3028Y1718D01*
X3077Y1718D02*
X3089Y1718D01*
X3116Y1718D02*
X3128Y1718D01*
X3177Y1718D02*
X3189Y1718D01*
X3216Y1718D02*
X3228Y1718D01*
X3277Y1718D02*
X3289Y1718D01*
X3316Y1718D02*
X3328Y1718D01*
X3377Y1718D02*
X3389Y1718D01*
X3416Y1718D02*
X3428Y1718D01*
X3477Y1718D02*
X3489Y1718D01*
X3516Y1718D02*
X3528Y1718D01*
X2077Y1717D02*
X2090Y1717D01*
X2115Y1717D02*
X2128Y1717D01*
X2177Y1717D02*
X2190Y1717D01*
X2215Y1717D02*
X2228Y1717D01*
X2277Y1717D02*
X2290Y1717D01*
X2315Y1717D02*
X2328Y1717D01*
X2377Y1717D02*
X2390Y1717D01*
X2415Y1717D02*
X2428Y1717D01*
X2477Y1717D02*
X2490Y1717D01*
X2515Y1717D02*
X2528Y1717D01*
X2577Y1717D02*
X2590Y1717D01*
X2615Y1717D02*
X2628Y1717D01*
X2677Y1717D02*
X2690Y1717D01*
X2715Y1717D02*
X2728Y1717D01*
X2777Y1717D02*
X2790Y1717D01*
X2815Y1717D02*
X2828Y1717D01*
X2877Y1717D02*
X2890Y1717D01*
X2915Y1717D02*
X2928Y1717D01*
X2977Y1717D02*
X2990Y1717D01*
X3015Y1717D02*
X3028Y1717D01*
X3077Y1717D02*
X3090Y1717D01*
X3115Y1717D02*
X3128Y1717D01*
X3177Y1717D02*
X3190Y1717D01*
X3215Y1717D02*
X3228Y1717D01*
X3277Y1717D02*
X3290Y1717D01*
X3315Y1717D02*
X3328Y1717D01*
X3377Y1717D02*
X3390Y1717D01*
X3415Y1717D02*
X3428Y1717D01*
X3477Y1717D02*
X3490Y1717D01*
X3515Y1717D02*
X3528Y1717D01*
X2077Y1716D02*
X2091Y1716D01*
X2114Y1716D02*
X2128Y1716D01*
X2177Y1716D02*
X2191Y1716D01*
X2214Y1716D02*
X2228Y1716D01*
X2277Y1716D02*
X2291Y1716D01*
X2314Y1716D02*
X2328Y1716D01*
X2377Y1716D02*
X2391Y1716D01*
X2414Y1716D02*
X2428Y1716D01*
X2477Y1716D02*
X2491Y1716D01*
X2514Y1716D02*
X2528Y1716D01*
X2577Y1716D02*
X2591Y1716D01*
X2614Y1716D02*
X2628Y1716D01*
X2677Y1716D02*
X2691Y1716D01*
X2714Y1716D02*
X2728Y1716D01*
X2777Y1716D02*
X2791Y1716D01*
X2814Y1716D02*
X2828Y1716D01*
X2877Y1716D02*
X2891Y1716D01*
X2914Y1716D02*
X2928Y1716D01*
X2977Y1716D02*
X2991Y1716D01*
X3014Y1716D02*
X3028Y1716D01*
X3077Y1716D02*
X3091Y1716D01*
X3114Y1716D02*
X3128Y1716D01*
X3177Y1716D02*
X3191Y1716D01*
X3214Y1716D02*
X3228Y1716D01*
X3277Y1716D02*
X3291Y1716D01*
X3314Y1716D02*
X3328Y1716D01*
X3377Y1716D02*
X3391Y1716D01*
X3414Y1716D02*
X3428Y1716D01*
X3477Y1716D02*
X3491Y1716D01*
X3514Y1716D02*
X3528Y1716D01*
X2077Y1715D02*
X2092Y1715D01*
X2113Y1715D02*
X2128Y1715D01*
X2177Y1715D02*
X2192Y1715D01*
X2213Y1715D02*
X2228Y1715D01*
X2277Y1715D02*
X2292Y1715D01*
X2313Y1715D02*
X2328Y1715D01*
X2377Y1715D02*
X2392Y1715D01*
X2413Y1715D02*
X2428Y1715D01*
X2477Y1715D02*
X2492Y1715D01*
X2513Y1715D02*
X2528Y1715D01*
X2577Y1715D02*
X2592Y1715D01*
X2613Y1715D02*
X2628Y1715D01*
X2677Y1715D02*
X2692Y1715D01*
X2713Y1715D02*
X2728Y1715D01*
X2777Y1715D02*
X2792Y1715D01*
X2813Y1715D02*
X2828Y1715D01*
X2877Y1715D02*
X2892Y1715D01*
X2913Y1715D02*
X2928Y1715D01*
X2977Y1715D02*
X2992Y1715D01*
X3013Y1715D02*
X3028Y1715D01*
X3077Y1715D02*
X3092Y1715D01*
X3113Y1715D02*
X3128Y1715D01*
X3177Y1715D02*
X3192Y1715D01*
X3213Y1715D02*
X3228Y1715D01*
X3277Y1715D02*
X3292Y1715D01*
X3313Y1715D02*
X3328Y1715D01*
X3377Y1715D02*
X3392Y1715D01*
X3413Y1715D02*
X3428Y1715D01*
X3477Y1715D02*
X3492Y1715D01*
X3513Y1715D02*
X3528Y1715D01*
X2077Y1714D02*
X2093Y1714D01*
X2112Y1714D02*
X2128Y1714D01*
X2177Y1714D02*
X2193Y1714D01*
X2212Y1714D02*
X2228Y1714D01*
X2277Y1714D02*
X2293Y1714D01*
X2312Y1714D02*
X2328Y1714D01*
X2377Y1714D02*
X2393Y1714D01*
X2412Y1714D02*
X2428Y1714D01*
X2477Y1714D02*
X2493Y1714D01*
X2512Y1714D02*
X2528Y1714D01*
X2577Y1714D02*
X2593Y1714D01*
X2612Y1714D02*
X2628Y1714D01*
X2677Y1714D02*
X2693Y1714D01*
X2712Y1714D02*
X2728Y1714D01*
X2777Y1714D02*
X2793Y1714D01*
X2812Y1714D02*
X2828Y1714D01*
X2877Y1714D02*
X2893Y1714D01*
X2912Y1714D02*
X2928Y1714D01*
X2977Y1714D02*
X2993Y1714D01*
X3012Y1714D02*
X3028Y1714D01*
X3077Y1714D02*
X3093Y1714D01*
X3112Y1714D02*
X3128Y1714D01*
X3177Y1714D02*
X3193Y1714D01*
X3212Y1714D02*
X3228Y1714D01*
X3277Y1714D02*
X3293Y1714D01*
X3312Y1714D02*
X3328Y1714D01*
X3377Y1714D02*
X3393Y1714D01*
X3412Y1714D02*
X3428Y1714D01*
X3477Y1714D02*
X3493Y1714D01*
X3512Y1714D02*
X3528Y1714D01*
X2077Y1713D02*
X2095Y1713D01*
X2110Y1713D02*
X2128Y1713D01*
X2177Y1713D02*
X2195Y1713D01*
X2210Y1713D02*
X2228Y1713D01*
X2277Y1713D02*
X2295Y1713D01*
X2310Y1713D02*
X2328Y1713D01*
X2377Y1713D02*
X2395Y1713D01*
X2410Y1713D02*
X2428Y1713D01*
X2477Y1713D02*
X2495Y1713D01*
X2510Y1713D02*
X2528Y1713D01*
X2577Y1713D02*
X2595Y1713D01*
X2610Y1713D02*
X2628Y1713D01*
X2677Y1713D02*
X2695Y1713D01*
X2710Y1713D02*
X2728Y1713D01*
X2777Y1713D02*
X2795Y1713D01*
X2810Y1713D02*
X2828Y1713D01*
X2877Y1713D02*
X2895Y1713D01*
X2910Y1713D02*
X2928Y1713D01*
X2977Y1713D02*
X2995Y1713D01*
X3010Y1713D02*
X3028Y1713D01*
X3077Y1713D02*
X3095Y1713D01*
X3110Y1713D02*
X3128Y1713D01*
X3177Y1713D02*
X3195Y1713D01*
X3210Y1713D02*
X3228Y1713D01*
X3277Y1713D02*
X3295Y1713D01*
X3310Y1713D02*
X3328Y1713D01*
X3377Y1713D02*
X3395Y1713D01*
X3410Y1713D02*
X3428Y1713D01*
X3477Y1713D02*
X3495Y1713D01*
X3510Y1713D02*
X3528Y1713D01*
X2077Y1712D02*
X2097Y1712D01*
X2108Y1712D02*
X2128Y1712D01*
X2177Y1712D02*
X2197Y1712D01*
X2208Y1712D02*
X2228Y1712D01*
X2277Y1712D02*
X2297Y1712D01*
X2308Y1712D02*
X2328Y1712D01*
X2377Y1712D02*
X2397Y1712D01*
X2408Y1712D02*
X2428Y1712D01*
X2477Y1712D02*
X2498Y1712D01*
X2507Y1712D02*
X2528Y1712D01*
X2577Y1712D02*
X2598Y1712D01*
X2607Y1712D02*
X2628Y1712D01*
X2677Y1712D02*
X2698Y1712D01*
X2707Y1712D02*
X2728Y1712D01*
X2777Y1712D02*
X2798Y1712D01*
X2807Y1712D02*
X2828Y1712D01*
X2877Y1712D02*
X2898Y1712D01*
X2907Y1712D02*
X2928Y1712D01*
X2977Y1712D02*
X2998Y1712D01*
X3007Y1712D02*
X3028Y1712D01*
X3077Y1712D02*
X3098Y1712D01*
X3107Y1712D02*
X3128Y1712D01*
X3177Y1712D02*
X3197Y1712D01*
X3208Y1712D02*
X3228Y1712D01*
X3277Y1712D02*
X3297Y1712D01*
X3308Y1712D02*
X3328Y1712D01*
X3377Y1712D02*
X3397Y1712D01*
X3408Y1712D02*
X3428Y1712D01*
X3477Y1712D02*
X3498Y1712D01*
X3507Y1712D02*
X3528Y1712D01*
X2077Y1711D02*
X2128Y1711D01*
X2177Y1711D02*
X2228Y1711D01*
X2277Y1711D02*
X2328Y1711D01*
X2377Y1711D02*
X2428Y1711D01*
X2477Y1711D02*
X2528Y1711D01*
X2577Y1711D02*
X2628Y1711D01*
X2677Y1711D02*
X2728Y1711D01*
X2777Y1711D02*
X2828Y1711D01*
X2877Y1711D02*
X2928Y1711D01*
X2977Y1711D02*
X3028Y1711D01*
X3077Y1711D02*
X3128Y1711D01*
X3177Y1711D02*
X3228Y1711D01*
X3277Y1711D02*
X3328Y1711D01*
X3377Y1711D02*
X3428Y1711D01*
X3477Y1711D02*
X3528Y1711D01*
X2077Y1710D02*
X2128Y1710D01*
X2177Y1710D02*
X2228Y1710D01*
X2277Y1710D02*
X2328Y1710D01*
X2377Y1710D02*
X2428Y1710D01*
X2477Y1710D02*
X2528Y1710D01*
X2577Y1710D02*
X2628Y1710D01*
X2677Y1710D02*
X2728Y1710D01*
X2777Y1710D02*
X2828Y1710D01*
X2877Y1710D02*
X2928Y1710D01*
X2977Y1710D02*
X3028Y1710D01*
X3077Y1710D02*
X3128Y1710D01*
X3177Y1710D02*
X3228Y1710D01*
X3277Y1710D02*
X3328Y1710D01*
X3377Y1710D02*
X3428Y1710D01*
X3477Y1710D02*
X3528Y1710D01*
X2077Y1709D02*
X2128Y1709D01*
X2177Y1709D02*
X2228Y1709D01*
X2277Y1709D02*
X2328Y1709D01*
X2377Y1709D02*
X2428Y1709D01*
X2477Y1709D02*
X2528Y1709D01*
X2577Y1709D02*
X2628Y1709D01*
X2677Y1709D02*
X2728Y1709D01*
X2777Y1709D02*
X2828Y1709D01*
X2877Y1709D02*
X2928Y1709D01*
X2977Y1709D02*
X3028Y1709D01*
X3077Y1709D02*
X3128Y1709D01*
X3177Y1709D02*
X3228Y1709D01*
X3277Y1709D02*
X3328Y1709D01*
X3377Y1709D02*
X3428Y1709D01*
X3477Y1709D02*
X3528Y1709D01*
X2077Y1708D02*
X2128Y1708D01*
X2177Y1708D02*
X2228Y1708D01*
X2277Y1708D02*
X2328Y1708D01*
X2377Y1708D02*
X2428Y1708D01*
X2477Y1708D02*
X2528Y1708D01*
X2577Y1708D02*
X2628Y1708D01*
X2677Y1708D02*
X2728Y1708D01*
X2777Y1708D02*
X2828Y1708D01*
X2877Y1708D02*
X2928Y1708D01*
X2977Y1708D02*
X3028Y1708D01*
X3077Y1708D02*
X3128Y1708D01*
X3177Y1708D02*
X3228Y1708D01*
X3277Y1708D02*
X3328Y1708D01*
X3377Y1708D02*
X3428Y1708D01*
X3477Y1708D02*
X3528Y1708D01*
X2077Y1707D02*
X2128Y1707D01*
X2177Y1707D02*
X2228Y1707D01*
X2277Y1707D02*
X2328Y1707D01*
X2377Y1707D02*
X2428Y1707D01*
X2477Y1707D02*
X2528Y1707D01*
X2577Y1707D02*
X2628Y1707D01*
X2677Y1707D02*
X2728Y1707D01*
X2777Y1707D02*
X2828Y1707D01*
X2877Y1707D02*
X2928Y1707D01*
X2977Y1707D02*
X3028Y1707D01*
X3077Y1707D02*
X3128Y1707D01*
X3177Y1707D02*
X3228Y1707D01*
X3277Y1707D02*
X3328Y1707D01*
X3377Y1707D02*
X3428Y1707D01*
X3477Y1707D02*
X3528Y1707D01*
X2077Y1706D02*
X2128Y1706D01*
X2177Y1706D02*
X2228Y1706D01*
X2277Y1706D02*
X2328Y1706D01*
X2377Y1706D02*
X2428Y1706D01*
X2477Y1706D02*
X2528Y1706D01*
X2577Y1706D02*
X2628Y1706D01*
X2677Y1706D02*
X2728Y1706D01*
X2777Y1706D02*
X2828Y1706D01*
X2877Y1706D02*
X2928Y1706D01*
X2977Y1706D02*
X3028Y1706D01*
X3077Y1706D02*
X3128Y1706D01*
X3177Y1706D02*
X3228Y1706D01*
X3277Y1706D02*
X3328Y1706D01*
X3377Y1706D02*
X3428Y1706D01*
X3477Y1706D02*
X3528Y1706D01*
X2077Y1705D02*
X2128Y1705D01*
X2177Y1705D02*
X2228Y1705D01*
X2277Y1705D02*
X2328Y1705D01*
X2377Y1705D02*
X2428Y1705D01*
X2477Y1705D02*
X2528Y1705D01*
X2577Y1705D02*
X2628Y1705D01*
X2677Y1705D02*
X2728Y1705D01*
X2777Y1705D02*
X2828Y1705D01*
X2877Y1705D02*
X2928Y1705D01*
X2977Y1705D02*
X3028Y1705D01*
X3077Y1705D02*
X3128Y1705D01*
X3177Y1705D02*
X3228Y1705D01*
X3277Y1705D02*
X3328Y1705D01*
X3377Y1705D02*
X3428Y1705D01*
X3477Y1705D02*
X3528Y1705D01*
X2077Y1704D02*
X2128Y1704D01*
X2177Y1704D02*
X2228Y1704D01*
X2277Y1704D02*
X2328Y1704D01*
X2377Y1704D02*
X2428Y1704D01*
X2477Y1704D02*
X2528Y1704D01*
X2577Y1704D02*
X2628Y1704D01*
X2677Y1704D02*
X2728Y1704D01*
X2777Y1704D02*
X2828Y1704D01*
X2877Y1704D02*
X2928Y1704D01*
X2977Y1704D02*
X3028Y1704D01*
X3077Y1704D02*
X3128Y1704D01*
X3177Y1704D02*
X3228Y1704D01*
X3277Y1704D02*
X3328Y1704D01*
X3377Y1704D02*
X3428Y1704D01*
X3477Y1704D02*
X3528Y1704D01*
X2077Y1703D02*
X2128Y1703D01*
X2177Y1703D02*
X2228Y1703D01*
X2277Y1703D02*
X2328Y1703D01*
X2377Y1703D02*
X2428Y1703D01*
X2477Y1703D02*
X2528Y1703D01*
X2577Y1703D02*
X2628Y1703D01*
X2677Y1703D02*
X2728Y1703D01*
X2777Y1703D02*
X2828Y1703D01*
X2877Y1703D02*
X2928Y1703D01*
X2977Y1703D02*
X3028Y1703D01*
X3077Y1703D02*
X3128Y1703D01*
X3177Y1703D02*
X3228Y1703D01*
X3277Y1703D02*
X3328Y1703D01*
X3377Y1703D02*
X3428Y1703D01*
X3477Y1703D02*
X3528Y1703D01*
X2077Y1702D02*
X2128Y1702D01*
X2177Y1702D02*
X2228Y1702D01*
X2277Y1702D02*
X2328Y1702D01*
X2377Y1702D02*
X2428Y1702D01*
X2477Y1702D02*
X2528Y1702D01*
X2577Y1702D02*
X2628Y1702D01*
X2677Y1702D02*
X2728Y1702D01*
X2777Y1702D02*
X2828Y1702D01*
X2877Y1702D02*
X2928Y1702D01*
X2977Y1702D02*
X3028Y1702D01*
X3077Y1702D02*
X3128Y1702D01*
X3177Y1702D02*
X3228Y1702D01*
X3277Y1702D02*
X3328Y1702D01*
X3377Y1702D02*
X3428Y1702D01*
X3477Y1702D02*
X3528Y1702D01*
X2077Y1701D02*
X2128Y1701D01*
X2177Y1701D02*
X2228Y1701D01*
X2277Y1701D02*
X2328Y1701D01*
X2377Y1701D02*
X2428Y1701D01*
X2477Y1701D02*
X2528Y1701D01*
X2577Y1701D02*
X2628Y1701D01*
X2677Y1701D02*
X2728Y1701D01*
X2777Y1701D02*
X2828Y1701D01*
X2877Y1701D02*
X2928Y1701D01*
X2977Y1701D02*
X3028Y1701D01*
X3077Y1701D02*
X3128Y1701D01*
X3177Y1701D02*
X3228Y1701D01*
X3277Y1701D02*
X3328Y1701D01*
X3377Y1701D02*
X3428Y1701D01*
X3477Y1701D02*
X3528Y1701D01*
X2077Y1700D02*
X2128Y1700D01*
X2177Y1700D02*
X2228Y1700D01*
X2277Y1700D02*
X2328Y1700D01*
X2377Y1700D02*
X2428Y1700D01*
X2477Y1700D02*
X2528Y1700D01*
X2577Y1700D02*
X2628Y1700D01*
X2677Y1700D02*
X2728Y1700D01*
X2777Y1700D02*
X2828Y1700D01*
X2877Y1700D02*
X2928Y1700D01*
X2977Y1700D02*
X3028Y1700D01*
X3077Y1700D02*
X3128Y1700D01*
X3177Y1700D02*
X3228Y1700D01*
X3277Y1700D02*
X3328Y1700D01*
X3377Y1700D02*
X3428Y1700D01*
X3477Y1700D02*
X3528Y1700D01*
X2077Y1699D02*
X2128Y1699D01*
X2177Y1699D02*
X2228Y1699D01*
X2277Y1699D02*
X2328Y1699D01*
X2377Y1699D02*
X2428Y1699D01*
X2477Y1699D02*
X2528Y1699D01*
X2577Y1699D02*
X2628Y1699D01*
X2677Y1699D02*
X2728Y1699D01*
X2777Y1699D02*
X2828Y1699D01*
X2877Y1699D02*
X2928Y1699D01*
X2977Y1699D02*
X3028Y1699D01*
X3077Y1699D02*
X3128Y1699D01*
X3177Y1699D02*
X3228Y1699D01*
X3277Y1699D02*
X3328Y1699D01*
X3377Y1699D02*
X3428Y1699D01*
X3477Y1699D02*
X3528Y1699D01*
X2077Y1698D02*
X2128Y1698D01*
X2177Y1698D02*
X2228Y1698D01*
X2277Y1698D02*
X2328Y1698D01*
X2377Y1698D02*
X2428Y1698D01*
X2477Y1698D02*
X2528Y1698D01*
X2577Y1698D02*
X2628Y1698D01*
X2677Y1698D02*
X2728Y1698D01*
X2777Y1698D02*
X2828Y1698D01*
X2877Y1698D02*
X2928Y1698D01*
X2977Y1698D02*
X3028Y1698D01*
X3077Y1698D02*
X3128Y1698D01*
X3177Y1698D02*
X3228Y1698D01*
X3277Y1698D02*
X3328Y1698D01*
X3377Y1698D02*
X3428Y1698D01*
X3477Y1698D02*
X3528Y1698D01*
X2077Y1697D02*
X2127Y1697D01*
X2177Y1697D02*
X2227Y1697D01*
X2277Y1697D02*
X2327Y1697D01*
X2377Y1697D02*
X2427Y1697D01*
X2477Y1697D02*
X2527Y1697D01*
X2577Y1697D02*
X2627Y1697D01*
X2677Y1697D02*
X2727Y1697D01*
X2777Y1697D02*
X2827Y1697D01*
X2877Y1697D02*
X2927Y1697D01*
X2977Y1697D02*
X3027Y1697D01*
X3077Y1697D02*
X3127Y1697D01*
X3177Y1697D02*
X3227Y1697D01*
X3277Y1697D02*
X3327Y1697D01*
X3377Y1697D02*
X3427Y1697D01*
X3477Y1697D02*
X3527Y1697D01*
X2078Y1696D02*
X2127Y1696D01*
X2178Y1696D02*
X2227Y1696D01*
X2278Y1696D02*
X2327Y1696D01*
X2378Y1696D02*
X2427Y1696D01*
X2478Y1696D02*
X2527Y1696D01*
X2578Y1696D02*
X2627Y1696D01*
X2678Y1696D02*
X2727Y1696D01*
X2778Y1696D02*
X2827Y1696D01*
X2878Y1696D02*
X2927Y1696D01*
X2978Y1696D02*
X3027Y1696D01*
X3078Y1696D02*
X3127Y1696D01*
X3178Y1696D02*
X3227Y1696D01*
X3278Y1696D02*
X3327Y1696D01*
X3378Y1696D02*
X3427Y1696D01*
X3478Y1696D02*
X3527Y1696D01*
X2078Y1695D02*
X2127Y1695D01*
X2178Y1695D02*
X2227Y1695D01*
X2278Y1695D02*
X2327Y1695D01*
X2378Y1695D02*
X2427Y1695D01*
X2478Y1695D02*
X2527Y1695D01*
X2578Y1695D02*
X2627Y1695D01*
X2678Y1695D02*
X2727Y1695D01*
X2778Y1695D02*
X2827Y1695D01*
X2878Y1695D02*
X2927Y1695D01*
X2978Y1695D02*
X3027Y1695D01*
X3078Y1695D02*
X3127Y1695D01*
X3178Y1695D02*
X3227Y1695D01*
X3278Y1695D02*
X3327Y1695D01*
X3378Y1695D02*
X3427Y1695D01*
X3478Y1695D02*
X3527Y1695D01*
X2078Y1694D02*
X2127Y1694D01*
X2178Y1694D02*
X2227Y1694D01*
X2278Y1694D02*
X2327Y1694D01*
X2378Y1694D02*
X2427Y1694D01*
X2478Y1694D02*
X2527Y1694D01*
X2578Y1694D02*
X2627Y1694D01*
X2678Y1694D02*
X2727Y1694D01*
X2778Y1694D02*
X2827Y1694D01*
X2878Y1694D02*
X2927Y1694D01*
X2978Y1694D02*
X3027Y1694D01*
X3078Y1694D02*
X3127Y1694D01*
X3178Y1694D02*
X3227Y1694D01*
X3278Y1694D02*
X3327Y1694D01*
X3378Y1694D02*
X3427Y1694D01*
X3478Y1694D02*
X3527Y1694D01*
X2079Y1693D02*
X2126Y1693D01*
X2179Y1693D02*
X2226Y1693D01*
X2279Y1693D02*
X2326Y1693D01*
X2379Y1693D02*
X2426Y1693D01*
X2479Y1693D02*
X2526Y1693D01*
X2579Y1693D02*
X2626Y1693D01*
X2679Y1693D02*
X2726Y1693D01*
X2779Y1693D02*
X2826Y1693D01*
X2879Y1693D02*
X2926Y1693D01*
X2979Y1693D02*
X3026Y1693D01*
X3079Y1693D02*
X3126Y1693D01*
X3179Y1693D02*
X3226Y1693D01*
X3279Y1693D02*
X3326Y1693D01*
X3379Y1693D02*
X3426Y1693D01*
X3479Y1693D02*
X3526Y1693D01*
X2079Y1692D02*
X2126Y1692D01*
X2179Y1692D02*
X2226Y1692D01*
X2279Y1692D02*
X2326Y1692D01*
X2379Y1692D02*
X2426Y1692D01*
X2479Y1692D02*
X2526Y1692D01*
X2579Y1692D02*
X2626Y1692D01*
X2679Y1692D02*
X2726Y1692D01*
X2779Y1692D02*
X2826Y1692D01*
X2879Y1692D02*
X2926Y1692D01*
X2979Y1692D02*
X3026Y1692D01*
X3079Y1692D02*
X3126Y1692D01*
X3179Y1692D02*
X3226Y1692D01*
X3279Y1692D02*
X3326Y1692D01*
X3379Y1692D02*
X3426Y1692D01*
X3479Y1692D02*
X3526Y1692D01*
X2080Y1691D02*
X2125Y1691D01*
X2180Y1691D02*
X2225Y1691D01*
X2280Y1691D02*
X2325Y1691D01*
X2380Y1691D02*
X2425Y1691D01*
X2480Y1691D02*
X2525Y1691D01*
X2580Y1691D02*
X2625Y1691D01*
X2680Y1691D02*
X2725Y1691D01*
X2780Y1691D02*
X2825Y1691D01*
X2880Y1691D02*
X2925Y1691D01*
X2980Y1691D02*
X3025Y1691D01*
X3080Y1691D02*
X3125Y1691D01*
X3180Y1691D02*
X3225Y1691D01*
X3280Y1691D02*
X3325Y1691D01*
X3380Y1691D02*
X3425Y1691D01*
X3480Y1691D02*
X3525Y1691D01*
X2080Y1690D02*
X2125Y1690D01*
X2180Y1690D02*
X2225Y1690D01*
X2280Y1690D02*
X2325Y1690D01*
X2380Y1690D02*
X2425Y1690D01*
X2480Y1690D02*
X2525Y1690D01*
X2580Y1690D02*
X2625Y1690D01*
X2680Y1690D02*
X2725Y1690D01*
X2780Y1690D02*
X2825Y1690D01*
X2880Y1690D02*
X2925Y1690D01*
X2980Y1690D02*
X3025Y1690D01*
X3080Y1690D02*
X3125Y1690D01*
X3180Y1690D02*
X3225Y1690D01*
X3280Y1690D02*
X3325Y1690D01*
X3380Y1690D02*
X3425Y1690D01*
X3480Y1690D02*
X3525Y1690D01*
X2081Y1689D02*
X2124Y1689D01*
X2181Y1689D02*
X2224Y1689D01*
X2281Y1689D02*
X2324Y1689D01*
X2381Y1689D02*
X2424Y1689D01*
X2481Y1689D02*
X2524Y1689D01*
X2581Y1689D02*
X2624Y1689D01*
X2681Y1689D02*
X2724Y1689D01*
X2781Y1689D02*
X2824Y1689D01*
X2881Y1689D02*
X2924Y1689D01*
X2981Y1689D02*
X3024Y1689D01*
X3081Y1689D02*
X3124Y1689D01*
X3181Y1689D02*
X3224Y1689D01*
X3281Y1689D02*
X3324Y1689D01*
X3381Y1689D02*
X3424Y1689D01*
X3481Y1689D02*
X3524Y1689D01*
X2081Y1688D02*
X2124Y1688D01*
X2181Y1688D02*
X2224Y1688D01*
X2281Y1688D02*
X2324Y1688D01*
X2381Y1688D02*
X2424Y1688D01*
X2481Y1688D02*
X2524Y1688D01*
X2581Y1688D02*
X2624Y1688D01*
X2681Y1688D02*
X2724Y1688D01*
X2781Y1688D02*
X2824Y1688D01*
X2881Y1688D02*
X2924Y1688D01*
X2981Y1688D02*
X3024Y1688D01*
X3081Y1688D02*
X3124Y1688D01*
X3181Y1688D02*
X3224Y1688D01*
X3281Y1688D02*
X3324Y1688D01*
X3381Y1688D02*
X3424Y1688D01*
X3481Y1688D02*
X3524Y1688D01*
X2082Y1687D02*
X2123Y1687D01*
X2182Y1687D02*
X2223Y1687D01*
X2282Y1687D02*
X2323Y1687D01*
X2382Y1687D02*
X2423Y1687D01*
X2482Y1687D02*
X2523Y1687D01*
X2582Y1687D02*
X2623Y1687D01*
X2682Y1687D02*
X2723Y1687D01*
X2782Y1687D02*
X2823Y1687D01*
X2882Y1687D02*
X2923Y1687D01*
X2982Y1687D02*
X3023Y1687D01*
X3082Y1687D02*
X3123Y1687D01*
X3182Y1687D02*
X3223Y1687D01*
X3282Y1687D02*
X3323Y1687D01*
X3382Y1687D02*
X3423Y1687D01*
X3482Y1687D02*
X3523Y1687D01*
X2083Y1686D02*
X2122Y1686D01*
X2183Y1686D02*
X2222Y1686D01*
X2283Y1686D02*
X2322Y1686D01*
X2383Y1686D02*
X2422Y1686D01*
X2483Y1686D02*
X2522Y1686D01*
X2583Y1686D02*
X2622Y1686D01*
X2683Y1686D02*
X2722Y1686D01*
X2783Y1686D02*
X2822Y1686D01*
X2883Y1686D02*
X2922Y1686D01*
X2983Y1686D02*
X3022Y1686D01*
X3083Y1686D02*
X3122Y1686D01*
X3183Y1686D02*
X3222Y1686D01*
X3283Y1686D02*
X3322Y1686D01*
X3383Y1686D02*
X3422Y1686D01*
X3483Y1686D02*
X3522Y1686D01*
X2084Y1685D02*
X2121Y1685D01*
X2184Y1685D02*
X2221Y1685D01*
X2284Y1685D02*
X2321Y1685D01*
X2384Y1685D02*
X2421Y1685D01*
X2484Y1685D02*
X2521Y1685D01*
X2584Y1685D02*
X2621Y1685D01*
X2684Y1685D02*
X2721Y1685D01*
X2784Y1685D02*
X2821Y1685D01*
X2884Y1685D02*
X2921Y1685D01*
X2984Y1685D02*
X3021Y1685D01*
X3084Y1685D02*
X3121Y1685D01*
X3184Y1685D02*
X3221Y1685D01*
X3284Y1685D02*
X3321Y1685D01*
X3384Y1685D02*
X3421Y1685D01*
X3484Y1685D02*
X3521Y1685D01*
X2084Y1684D02*
X2120Y1684D01*
X2184Y1684D02*
X2220Y1684D01*
X2284Y1684D02*
X2320Y1684D01*
X2384Y1684D02*
X2420Y1684D01*
X2484Y1684D02*
X2520Y1684D01*
X2584Y1684D02*
X2620Y1684D01*
X2684Y1684D02*
X2720Y1684D01*
X2784Y1684D02*
X2820Y1684D01*
X2884Y1684D02*
X2920Y1684D01*
X2984Y1684D02*
X3020Y1684D01*
X3084Y1684D02*
X3120Y1684D01*
X3184Y1684D02*
X3220Y1684D01*
X3284Y1684D02*
X3320Y1684D01*
X3384Y1684D02*
X3420Y1684D01*
X3484Y1684D02*
X3520Y1684D01*
X2086Y1683D02*
X2119Y1683D01*
X2186Y1683D02*
X2219Y1683D01*
X2286Y1683D02*
X2319Y1683D01*
X2386Y1683D02*
X2419Y1683D01*
X2486Y1683D02*
X2519Y1683D01*
X2586Y1683D02*
X2619Y1683D01*
X2686Y1683D02*
X2719Y1683D01*
X2786Y1683D02*
X2819Y1683D01*
X2886Y1683D02*
X2919Y1683D01*
X2986Y1683D02*
X3019Y1683D01*
X3086Y1683D02*
X3119Y1683D01*
X3186Y1683D02*
X3219Y1683D01*
X3286Y1683D02*
X3319Y1683D01*
X3386Y1683D02*
X3419Y1683D01*
X3485Y1683D02*
X3519Y1683D01*
X2087Y1682D02*
X2118Y1682D01*
X2187Y1682D02*
X2218Y1682D01*
X2287Y1682D02*
X2318Y1682D01*
X2387Y1682D02*
X2418Y1682D01*
X2487Y1682D02*
X2518Y1682D01*
X2587Y1682D02*
X2618Y1682D01*
X2687Y1682D02*
X2718Y1682D01*
X2787Y1682D02*
X2818Y1682D01*
X2887Y1682D02*
X2918Y1682D01*
X2987Y1682D02*
X3018Y1682D01*
X3087Y1682D02*
X3118Y1682D01*
X3187Y1682D02*
X3218Y1682D01*
X3287Y1682D02*
X3318Y1682D01*
X3387Y1682D02*
X3418Y1682D01*
X3487Y1682D02*
X3518Y1682D01*
X2088Y1681D02*
X2117Y1681D01*
X2188Y1681D02*
X2217Y1681D01*
X2288Y1681D02*
X2317Y1681D01*
X2388Y1681D02*
X2417Y1681D01*
X2488Y1681D02*
X2517Y1681D01*
X2588Y1681D02*
X2617Y1681D01*
X2688Y1681D02*
X2717Y1681D01*
X2788Y1681D02*
X2817Y1681D01*
X2888Y1681D02*
X2917Y1681D01*
X2988Y1681D02*
X3017Y1681D01*
X3088Y1681D02*
X3117Y1681D01*
X3188Y1681D02*
X3217Y1681D01*
X3288Y1681D02*
X3317Y1681D01*
X3388Y1681D02*
X3417Y1681D01*
X3488Y1681D02*
X3517Y1681D01*
X2090Y1680D02*
X2115Y1680D01*
X2190Y1680D02*
X2215Y1680D01*
X2290Y1680D02*
X2315Y1680D01*
X2390Y1680D02*
X2415Y1680D01*
X2490Y1680D02*
X2515Y1680D01*
X2590Y1680D02*
X2615Y1680D01*
X2690Y1680D02*
X2715Y1680D01*
X2790Y1680D02*
X2815Y1680D01*
X2890Y1680D02*
X2915Y1680D01*
X2990Y1680D02*
X3015Y1680D01*
X3090Y1680D02*
X3115Y1680D01*
X3190Y1680D02*
X3215Y1680D01*
X3290Y1680D02*
X3315Y1680D01*
X3390Y1680D02*
X3415Y1680D01*
X3489Y1680D02*
X3515Y1680D01*
X2091Y1679D02*
X2113Y1679D01*
X2191Y1679D02*
X2213Y1679D01*
X2291Y1679D02*
X2313Y1679D01*
X2391Y1679D02*
X2413Y1679D01*
X2491Y1679D02*
X2513Y1679D01*
X2591Y1679D02*
X2613Y1679D01*
X2691Y1679D02*
X2713Y1679D01*
X2791Y1679D02*
X2813Y1679D01*
X2891Y1679D02*
X2913Y1679D01*
X2991Y1679D02*
X3013Y1679D01*
X3091Y1679D02*
X3113Y1679D01*
X3191Y1679D02*
X3213Y1679D01*
X3291Y1679D02*
X3313Y1679D01*
X3391Y1679D02*
X3413Y1679D01*
X3491Y1679D02*
X3514Y1679D01*
X2094Y1678D02*
X2111Y1678D01*
X2194Y1678D02*
X2211Y1678D01*
X2294Y1678D02*
X2311Y1678D01*
X2394Y1678D02*
X2411Y1678D01*
X2494Y1678D02*
X2511Y1678D01*
X2594Y1678D02*
X2611Y1678D01*
X2694Y1678D02*
X2711Y1678D01*
X2794Y1678D02*
X2811Y1678D01*
X2894Y1678D02*
X2911Y1678D01*
X2994Y1678D02*
X3011Y1678D01*
X3094Y1678D02*
X3111Y1678D01*
X3194Y1678D02*
X3211Y1678D01*
X3294Y1678D02*
X3311Y1678D01*
X3394Y1678D02*
X3411Y1678D01*
X3493Y1678D02*
X3512Y1678D01*
X2097Y1677D02*
X2108Y1677D01*
X2197Y1677D02*
X2208Y1677D01*
X2297Y1677D02*
X2308Y1677D01*
X2397Y1677D02*
X2408Y1677D01*
X2497Y1677D02*
X2508Y1677D01*
X2597Y1677D02*
X2608Y1677D01*
X2697Y1677D02*
X2708Y1677D01*
X2797Y1677D02*
X2808Y1677D01*
X2897Y1677D02*
X2908Y1677D01*
X2997Y1677D02*
X3008Y1677D01*
X3097Y1677D02*
X3108Y1677D01*
X3197Y1677D02*
X3208Y1677D01*
X3297Y1677D02*
X3308Y1677D01*
X3397Y1677D02*
X3408Y1677D01*
X3496Y1677D02*
X3508Y1677D01*
X2096Y782D02*
X2109Y782D01*
X2196Y782D02*
X2209Y782D01*
X2296Y782D02*
X2309Y782D01*
X2396Y782D02*
X2409Y782D01*
X2596Y782D02*
X2609Y782D01*
X2696Y782D02*
X2709Y782D01*
X2796Y782D02*
X2809Y782D01*
X2896Y782D02*
X2909Y782D01*
X2996Y782D02*
X3009Y782D01*
X3096Y782D02*
X3109Y782D01*
X3196Y782D02*
X3209Y782D01*
X3296Y782D02*
X3309Y782D01*
X3396Y782D02*
X3409Y782D01*
X3496Y782D02*
X3509Y782D01*
X2093Y781D02*
X2112Y781D01*
X2193Y781D02*
X2212Y781D01*
X2293Y781D02*
X2312Y781D01*
X2393Y781D02*
X2412Y781D01*
X2496Y781D02*
X2509Y781D01*
X2593Y781D02*
X2612Y781D01*
X2693Y781D02*
X2712Y781D01*
X2793Y781D02*
X2812Y781D01*
X2893Y781D02*
X2912Y781D01*
X2993Y781D02*
X3012Y781D01*
X3093Y781D02*
X3112Y781D01*
X3193Y781D02*
X3212Y781D01*
X3293Y781D02*
X3312Y781D01*
X3393Y781D02*
X3412Y781D01*
X3493Y781D02*
X3512Y781D01*
X2091Y780D02*
X2114Y780D01*
X2191Y780D02*
X2214Y780D01*
X2291Y780D02*
X2314Y780D01*
X2391Y780D02*
X2414Y780D01*
X2493Y780D02*
X2512Y780D01*
X2591Y780D02*
X2614Y780D01*
X2691Y780D02*
X2714Y780D01*
X2791Y780D02*
X2814Y780D01*
X2891Y780D02*
X2914Y780D01*
X2991Y780D02*
X3014Y780D01*
X3091Y780D02*
X3114Y780D01*
X3191Y780D02*
X3214Y780D01*
X3291Y780D02*
X3314Y780D01*
X3391Y780D02*
X3414Y780D01*
X3491Y780D02*
X3514Y780D01*
X2089Y779D02*
X2116Y779D01*
X2189Y779D02*
X2216Y779D01*
X2289Y779D02*
X2316Y779D01*
X2389Y779D02*
X2416Y779D01*
X2491Y779D02*
X2514Y779D01*
X2589Y779D02*
X2616Y779D01*
X2689Y779D02*
X2716Y779D01*
X2789Y779D02*
X2816Y779D01*
X2889Y779D02*
X2916Y779D01*
X2989Y779D02*
X3016Y779D01*
X3089Y779D02*
X3116Y779D01*
X3189Y779D02*
X3216Y779D01*
X3289Y779D02*
X3316Y779D01*
X3389Y779D02*
X3416Y779D01*
X3489Y779D02*
X3516Y779D01*
X2088Y778D02*
X2117Y778D01*
X2188Y778D02*
X2217Y778D01*
X2288Y778D02*
X2317Y778D01*
X2388Y778D02*
X2417Y778D01*
X2489Y778D02*
X2515Y778D01*
X2588Y778D02*
X2617Y778D01*
X2688Y778D02*
X2717Y778D01*
X2788Y778D02*
X2817Y778D01*
X2888Y778D02*
X2917Y778D01*
X2988Y778D02*
X3017Y778D01*
X3088Y778D02*
X3117Y778D01*
X3188Y778D02*
X3217Y778D01*
X3288Y778D02*
X3317Y778D01*
X3388Y778D02*
X3417Y778D01*
X3488Y778D02*
X3517Y778D01*
X2087Y777D02*
X2118Y777D01*
X2187Y777D02*
X2218Y777D01*
X2287Y777D02*
X2318Y777D01*
X2387Y777D02*
X2418Y777D01*
X2488Y777D02*
X2517Y777D01*
X2587Y777D02*
X2618Y777D01*
X2687Y777D02*
X2718Y777D01*
X2787Y777D02*
X2818Y777D01*
X2887Y777D02*
X2918Y777D01*
X2987Y777D02*
X3018Y777D01*
X3087Y777D02*
X3118Y777D01*
X3187Y777D02*
X3218Y777D01*
X3287Y777D02*
X3318Y777D01*
X3387Y777D02*
X3418Y777D01*
X3487Y777D02*
X3518Y777D01*
X2085Y776D02*
X2119Y776D01*
X2185Y776D02*
X2219Y776D01*
X2285Y776D02*
X2319Y776D01*
X2385Y776D02*
X2419Y776D01*
X2487Y776D02*
X2518Y776D01*
X2585Y776D02*
X2619Y776D01*
X2685Y776D02*
X2719Y776D01*
X2785Y776D02*
X2819Y776D01*
X2885Y776D02*
X2919Y776D01*
X2985Y776D02*
X3019Y776D01*
X3085Y776D02*
X3119Y776D01*
X3185Y776D02*
X3219Y776D01*
X3285Y776D02*
X3319Y776D01*
X3385Y776D02*
X3419Y776D01*
X3485Y776D02*
X3519Y776D01*
X2084Y775D02*
X2121Y775D01*
X2184Y775D02*
X2221Y775D01*
X2284Y775D02*
X2321Y775D01*
X2384Y775D02*
X2421Y775D01*
X2485Y775D02*
X2519Y775D01*
X2584Y775D02*
X2621Y775D01*
X2684Y775D02*
X2721Y775D01*
X2784Y775D02*
X2821Y775D01*
X2884Y775D02*
X2921Y775D01*
X2984Y775D02*
X3021Y775D01*
X3084Y775D02*
X3121Y775D01*
X3184Y775D02*
X3221Y775D01*
X3284Y775D02*
X3321Y775D01*
X3384Y775D02*
X3421Y775D01*
X3484Y775D02*
X3521Y775D01*
X2083Y774D02*
X2121Y774D01*
X2183Y774D02*
X2221Y774D01*
X2283Y774D02*
X2321Y774D01*
X2383Y774D02*
X2421Y774D01*
X2484Y774D02*
X2521Y774D01*
X2583Y774D02*
X2621Y774D01*
X2683Y774D02*
X2721Y774D01*
X2783Y774D02*
X2821Y774D01*
X2883Y774D02*
X2921Y774D01*
X2983Y774D02*
X3021Y774D01*
X3083Y774D02*
X3121Y774D01*
X3183Y774D02*
X3221Y774D01*
X3283Y774D02*
X3321Y774D01*
X3383Y774D02*
X3421Y774D01*
X3483Y774D02*
X3521Y774D01*
X2083Y773D02*
X2122Y773D01*
X2183Y773D02*
X2222Y773D01*
X2283Y773D02*
X2322Y773D01*
X2383Y773D02*
X2422Y773D01*
X2483Y773D02*
X2521Y773D01*
X2583Y773D02*
X2622Y773D01*
X2683Y773D02*
X2722Y773D01*
X2783Y773D02*
X2822Y773D01*
X2883Y773D02*
X2922Y773D01*
X2983Y773D02*
X3022Y773D01*
X3083Y773D02*
X3122Y773D01*
X3183Y773D02*
X3222Y773D01*
X3283Y773D02*
X3322Y773D01*
X3383Y773D02*
X3422Y773D01*
X3483Y773D02*
X3522Y773D01*
X2082Y772D02*
X2123Y772D01*
X2182Y772D02*
X2223Y772D01*
X2282Y772D02*
X2323Y772D01*
X2382Y772D02*
X2423Y772D01*
X2483Y772D02*
X2522Y772D01*
X2582Y772D02*
X2623Y772D01*
X2682Y772D02*
X2723Y772D01*
X2782Y772D02*
X2823Y772D01*
X2882Y772D02*
X2923Y772D01*
X2982Y772D02*
X3023Y772D01*
X3082Y772D02*
X3123Y772D01*
X3182Y772D02*
X3223Y772D01*
X3282Y772D02*
X3323Y772D01*
X3382Y772D02*
X3423Y772D01*
X3482Y772D02*
X3523Y772D01*
X2081Y771D02*
X2124Y771D01*
X2181Y771D02*
X2224Y771D01*
X2281Y771D02*
X2324Y771D01*
X2381Y771D02*
X2424Y771D01*
X2482Y771D02*
X2523Y771D01*
X2581Y771D02*
X2624Y771D01*
X2681Y771D02*
X2724Y771D01*
X2781Y771D02*
X2824Y771D01*
X2881Y771D02*
X2924Y771D01*
X2981Y771D02*
X3024Y771D01*
X3081Y771D02*
X3124Y771D01*
X3181Y771D02*
X3224Y771D01*
X3281Y771D02*
X3324Y771D01*
X3381Y771D02*
X3424Y771D01*
X3481Y771D02*
X3524Y771D01*
X2081Y770D02*
X2124Y770D01*
X2181Y770D02*
X2224Y770D01*
X2281Y770D02*
X2324Y770D01*
X2381Y770D02*
X2424Y770D01*
X2481Y770D02*
X2524Y770D01*
X2581Y770D02*
X2624Y770D01*
X2681Y770D02*
X2724Y770D01*
X2781Y770D02*
X2824Y770D01*
X2881Y770D02*
X2924Y770D01*
X2981Y770D02*
X3024Y770D01*
X3081Y770D02*
X3124Y770D01*
X3181Y770D02*
X3224Y770D01*
X3281Y770D02*
X3324Y770D01*
X3381Y770D02*
X3424Y770D01*
X3481Y770D02*
X3524Y770D01*
X2080Y769D02*
X2125Y769D01*
X2180Y769D02*
X2225Y769D01*
X2280Y769D02*
X2325Y769D01*
X2380Y769D02*
X2425Y769D01*
X2481Y769D02*
X2524Y769D01*
X2580Y769D02*
X2625Y769D01*
X2680Y769D02*
X2725Y769D01*
X2780Y769D02*
X2825Y769D01*
X2880Y769D02*
X2925Y769D01*
X2980Y769D02*
X3025Y769D01*
X3080Y769D02*
X3125Y769D01*
X3180Y769D02*
X3225Y769D01*
X3280Y769D02*
X3325Y769D01*
X3380Y769D02*
X3425Y769D01*
X3480Y769D02*
X3525Y769D01*
X2080Y768D02*
X2125Y768D01*
X2180Y768D02*
X2225Y768D01*
X2280Y768D02*
X2325Y768D01*
X2380Y768D02*
X2425Y768D01*
X2480Y768D02*
X2525Y768D01*
X2580Y768D02*
X2625Y768D01*
X2680Y768D02*
X2725Y768D01*
X2780Y768D02*
X2825Y768D01*
X2880Y768D02*
X2925Y768D01*
X2980Y768D02*
X3025Y768D01*
X3080Y768D02*
X3125Y768D01*
X3180Y768D02*
X3225Y768D01*
X3280Y768D02*
X3325Y768D01*
X3380Y768D02*
X3425Y768D01*
X3480Y768D02*
X3525Y768D01*
X2079Y767D02*
X2126Y767D01*
X2179Y767D02*
X2226Y767D01*
X2279Y767D02*
X2326Y767D01*
X2379Y767D02*
X2426Y767D01*
X2480Y767D02*
X2525Y767D01*
X2579Y767D02*
X2626Y767D01*
X2679Y767D02*
X2726Y767D01*
X2779Y767D02*
X2826Y767D01*
X2879Y767D02*
X2926Y767D01*
X2979Y767D02*
X3026Y767D01*
X3079Y767D02*
X3126Y767D01*
X3179Y767D02*
X3226Y767D01*
X3279Y767D02*
X3326Y767D01*
X3379Y767D02*
X3426Y767D01*
X3479Y767D02*
X3526Y767D01*
X2079Y766D02*
X2126Y766D01*
X2179Y766D02*
X2226Y766D01*
X2279Y766D02*
X2326Y766D01*
X2379Y766D02*
X2426Y766D01*
X2479Y766D02*
X2526Y766D01*
X2579Y766D02*
X2626Y766D01*
X2679Y766D02*
X2726Y766D01*
X2779Y766D02*
X2826Y766D01*
X2879Y766D02*
X2926Y766D01*
X2979Y766D02*
X3026Y766D01*
X3079Y766D02*
X3126Y766D01*
X3179Y766D02*
X3226Y766D01*
X3279Y766D02*
X3326Y766D01*
X3379Y766D02*
X3426Y766D01*
X3479Y766D02*
X3526Y766D01*
X2078Y765D02*
X2127Y765D01*
X2178Y765D02*
X2227Y765D01*
X2278Y765D02*
X2327Y765D01*
X2378Y765D02*
X2427Y765D01*
X2479Y765D02*
X2526Y765D01*
X2578Y765D02*
X2627Y765D01*
X2678Y765D02*
X2727Y765D01*
X2778Y765D02*
X2827Y765D01*
X2878Y765D02*
X2927Y765D01*
X2978Y765D02*
X3027Y765D01*
X3078Y765D02*
X3127Y765D01*
X3178Y765D02*
X3227Y765D01*
X3278Y765D02*
X3327Y765D01*
X3378Y765D02*
X3427Y765D01*
X3478Y765D02*
X3527Y765D01*
X2078Y764D02*
X2127Y764D01*
X2178Y764D02*
X2227Y764D01*
X2278Y764D02*
X2327Y764D01*
X2378Y764D02*
X2427Y764D01*
X2478Y764D02*
X2527Y764D01*
X2578Y764D02*
X2627Y764D01*
X2678Y764D02*
X2727Y764D01*
X2778Y764D02*
X2827Y764D01*
X2878Y764D02*
X2927Y764D01*
X2978Y764D02*
X3027Y764D01*
X3078Y764D02*
X3127Y764D01*
X3178Y764D02*
X3227Y764D01*
X3278Y764D02*
X3327Y764D01*
X3378Y764D02*
X3427Y764D01*
X3478Y764D02*
X3527Y764D01*
X2078Y763D02*
X2127Y763D01*
X2178Y763D02*
X2227Y763D01*
X2278Y763D02*
X2327Y763D01*
X2378Y763D02*
X2427Y763D01*
X2478Y763D02*
X2527Y763D01*
X2578Y763D02*
X2627Y763D01*
X2678Y763D02*
X2727Y763D01*
X2778Y763D02*
X2827Y763D01*
X2878Y763D02*
X2927Y763D01*
X2978Y763D02*
X3027Y763D01*
X3078Y763D02*
X3127Y763D01*
X3178Y763D02*
X3227Y763D01*
X3278Y763D02*
X3327Y763D01*
X3378Y763D02*
X3427Y763D01*
X3478Y763D02*
X3527Y763D01*
X2077Y762D02*
X2127Y762D01*
X2177Y762D02*
X2227Y762D01*
X2277Y762D02*
X2327Y762D01*
X2377Y762D02*
X2427Y762D01*
X2478Y762D02*
X2527Y762D01*
X2577Y762D02*
X2627Y762D01*
X2677Y762D02*
X2727Y762D01*
X2777Y762D02*
X2827Y762D01*
X2877Y762D02*
X2927Y762D01*
X2977Y762D02*
X3027Y762D01*
X3077Y762D02*
X3127Y762D01*
X3177Y762D02*
X3227Y762D01*
X3277Y762D02*
X3327Y762D01*
X3377Y762D02*
X3427Y762D01*
X3477Y762D02*
X3527Y762D01*
X2077Y761D02*
X2128Y761D01*
X2177Y761D02*
X2228Y761D01*
X2277Y761D02*
X2328Y761D01*
X2377Y761D02*
X2428Y761D01*
X2477Y761D02*
X2527Y761D01*
X2577Y761D02*
X2628Y761D01*
X2677Y761D02*
X2728Y761D01*
X2777Y761D02*
X2828Y761D01*
X2877Y761D02*
X2928Y761D01*
X2977Y761D02*
X3028Y761D01*
X3077Y761D02*
X3128Y761D01*
X3177Y761D02*
X3228Y761D01*
X3277Y761D02*
X3328Y761D01*
X3377Y761D02*
X3428Y761D01*
X3477Y761D02*
X3528Y761D01*
X2077Y760D02*
X2128Y760D01*
X2177Y760D02*
X2228Y760D01*
X2277Y760D02*
X2328Y760D01*
X2377Y760D02*
X2428Y760D01*
X2477Y760D02*
X2528Y760D01*
X2577Y760D02*
X2628Y760D01*
X2677Y760D02*
X2728Y760D01*
X2777Y760D02*
X2828Y760D01*
X2877Y760D02*
X2928Y760D01*
X2977Y760D02*
X3028Y760D01*
X3077Y760D02*
X3128Y760D01*
X3177Y760D02*
X3228Y760D01*
X3277Y760D02*
X3328Y760D01*
X3377Y760D02*
X3428Y760D01*
X3477Y760D02*
X3528Y760D01*
X2077Y759D02*
X2128Y759D01*
X2177Y759D02*
X2228Y759D01*
X2277Y759D02*
X2328Y759D01*
X2377Y759D02*
X2428Y759D01*
X2477Y759D02*
X2528Y759D01*
X2577Y759D02*
X2628Y759D01*
X2677Y759D02*
X2728Y759D01*
X2777Y759D02*
X2828Y759D01*
X2877Y759D02*
X2928Y759D01*
X2977Y759D02*
X3028Y759D01*
X3077Y759D02*
X3128Y759D01*
X3177Y759D02*
X3228Y759D01*
X3277Y759D02*
X3328Y759D01*
X3377Y759D02*
X3428Y759D01*
X3477Y759D02*
X3528Y759D01*
X2077Y758D02*
X2128Y758D01*
X2177Y758D02*
X2228Y758D01*
X2277Y758D02*
X2328Y758D01*
X2377Y758D02*
X2428Y758D01*
X2477Y758D02*
X2528Y758D01*
X2577Y758D02*
X2628Y758D01*
X2677Y758D02*
X2728Y758D01*
X2777Y758D02*
X2828Y758D01*
X2877Y758D02*
X2928Y758D01*
X2977Y758D02*
X3028Y758D01*
X3077Y758D02*
X3128Y758D01*
X3177Y758D02*
X3228Y758D01*
X3277Y758D02*
X3328Y758D01*
X3377Y758D02*
X3428Y758D01*
X3477Y758D02*
X3528Y758D01*
X2077Y757D02*
X2128Y757D01*
X2177Y757D02*
X2228Y757D01*
X2277Y757D02*
X2328Y757D01*
X2377Y757D02*
X2428Y757D01*
X2477Y757D02*
X2528Y757D01*
X2577Y757D02*
X2628Y757D01*
X2677Y757D02*
X2728Y757D01*
X2777Y757D02*
X2828Y757D01*
X2877Y757D02*
X2928Y757D01*
X2977Y757D02*
X3028Y757D01*
X3077Y757D02*
X3128Y757D01*
X3177Y757D02*
X3228Y757D01*
X3277Y757D02*
X3328Y757D01*
X3377Y757D02*
X3428Y757D01*
X3477Y757D02*
X3528Y757D01*
X2077Y756D02*
X2128Y756D01*
X2177Y756D02*
X2228Y756D01*
X2277Y756D02*
X2328Y756D01*
X2377Y756D02*
X2428Y756D01*
X2477Y756D02*
X2528Y756D01*
X2577Y756D02*
X2628Y756D01*
X2677Y756D02*
X2728Y756D01*
X2777Y756D02*
X2828Y756D01*
X2877Y756D02*
X2928Y756D01*
X2977Y756D02*
X3028Y756D01*
X3077Y756D02*
X3128Y756D01*
X3177Y756D02*
X3228Y756D01*
X3277Y756D02*
X3328Y756D01*
X3377Y756D02*
X3428Y756D01*
X3477Y756D02*
X3528Y756D01*
X2077Y755D02*
X2128Y755D01*
X2177Y755D02*
X2228Y755D01*
X2277Y755D02*
X2328Y755D01*
X2377Y755D02*
X2428Y755D01*
X2477Y755D02*
X2528Y755D01*
X2577Y755D02*
X2628Y755D01*
X2677Y755D02*
X2728Y755D01*
X2777Y755D02*
X2828Y755D01*
X2877Y755D02*
X2928Y755D01*
X2977Y755D02*
X3028Y755D01*
X3077Y755D02*
X3128Y755D01*
X3177Y755D02*
X3228Y755D01*
X3277Y755D02*
X3328Y755D01*
X3377Y755D02*
X3428Y755D01*
X3477Y755D02*
X3528Y755D01*
X2077Y754D02*
X2128Y754D01*
X2177Y754D02*
X2228Y754D01*
X2277Y754D02*
X2328Y754D01*
X2377Y754D02*
X2428Y754D01*
X2477Y754D02*
X2528Y754D01*
X2577Y754D02*
X2628Y754D01*
X2677Y754D02*
X2728Y754D01*
X2777Y754D02*
X2828Y754D01*
X2877Y754D02*
X2928Y754D01*
X2977Y754D02*
X3028Y754D01*
X3077Y754D02*
X3128Y754D01*
X3177Y754D02*
X3228Y754D01*
X3277Y754D02*
X3328Y754D01*
X3377Y754D02*
X3428Y754D01*
X3477Y754D02*
X3528Y754D01*
X2077Y753D02*
X2128Y753D01*
X2177Y753D02*
X2228Y753D01*
X2277Y753D02*
X2328Y753D01*
X2377Y753D02*
X2428Y753D01*
X2477Y753D02*
X2528Y753D01*
X2577Y753D02*
X2628Y753D01*
X2677Y753D02*
X2728Y753D01*
X2777Y753D02*
X2828Y753D01*
X2877Y753D02*
X2928Y753D01*
X2977Y753D02*
X3028Y753D01*
X3077Y753D02*
X3128Y753D01*
X3177Y753D02*
X3228Y753D01*
X3277Y753D02*
X3328Y753D01*
X3377Y753D02*
X3428Y753D01*
X3477Y753D02*
X3528Y753D01*
X2077Y752D02*
X2128Y752D01*
X2177Y752D02*
X2228Y752D01*
X2277Y752D02*
X2328Y752D01*
X2377Y752D02*
X2428Y752D01*
X2477Y752D02*
X2528Y752D01*
X2577Y752D02*
X2628Y752D01*
X2677Y752D02*
X2728Y752D01*
X2777Y752D02*
X2828Y752D01*
X2877Y752D02*
X2928Y752D01*
X2977Y752D02*
X3028Y752D01*
X3077Y752D02*
X3128Y752D01*
X3177Y752D02*
X3228Y752D01*
X3277Y752D02*
X3328Y752D01*
X3377Y752D02*
X3428Y752D01*
X3477Y752D02*
X3528Y752D01*
X2077Y751D02*
X2128Y751D01*
X2177Y751D02*
X2228Y751D01*
X2277Y751D02*
X2328Y751D01*
X2377Y751D02*
X2428Y751D01*
X2477Y751D02*
X2528Y751D01*
X2577Y751D02*
X2628Y751D01*
X2677Y751D02*
X2728Y751D01*
X2777Y751D02*
X2828Y751D01*
X2877Y751D02*
X2928Y751D01*
X2977Y751D02*
X3028Y751D01*
X3077Y751D02*
X3128Y751D01*
X3177Y751D02*
X3228Y751D01*
X3277Y751D02*
X3328Y751D01*
X3377Y751D02*
X3428Y751D01*
X3477Y751D02*
X3528Y751D01*
X2077Y750D02*
X2128Y750D01*
X2177Y750D02*
X2228Y750D01*
X2277Y750D02*
X2328Y750D01*
X2377Y750D02*
X2428Y750D01*
X2477Y750D02*
X2528Y750D01*
X2577Y750D02*
X2628Y750D01*
X2677Y750D02*
X2728Y750D01*
X2777Y750D02*
X2828Y750D01*
X2877Y750D02*
X2928Y750D01*
X2977Y750D02*
X3028Y750D01*
X3077Y750D02*
X3128Y750D01*
X3177Y750D02*
X3228Y750D01*
X3277Y750D02*
X3328Y750D01*
X3377Y750D02*
X3428Y750D01*
X3477Y750D02*
X3528Y750D01*
X2077Y749D02*
X2128Y749D01*
X2177Y749D02*
X2228Y749D01*
X2277Y749D02*
X2328Y749D01*
X2377Y749D02*
X2428Y749D01*
X2477Y749D02*
X2528Y749D01*
X2577Y749D02*
X2628Y749D01*
X2677Y749D02*
X2728Y749D01*
X2777Y749D02*
X2828Y749D01*
X2877Y749D02*
X2928Y749D01*
X2977Y749D02*
X3028Y749D01*
X3077Y749D02*
X3128Y749D01*
X3177Y749D02*
X3228Y749D01*
X3277Y749D02*
X3328Y749D01*
X3377Y749D02*
X3428Y749D01*
X3477Y749D02*
X3528Y749D01*
X2077Y748D02*
X2128Y748D01*
X2177Y748D02*
X2228Y748D01*
X2277Y748D02*
X2328Y748D01*
X2377Y748D02*
X2428Y748D01*
X2477Y748D02*
X2528Y748D01*
X2577Y748D02*
X2628Y748D01*
X2677Y748D02*
X2728Y748D01*
X2777Y748D02*
X2828Y748D01*
X2877Y748D02*
X2928Y748D01*
X2977Y748D02*
X3028Y748D01*
X3077Y748D02*
X3128Y748D01*
X3177Y748D02*
X3228Y748D01*
X3277Y748D02*
X3328Y748D01*
X3377Y748D02*
X3428Y748D01*
X3477Y748D02*
X3528Y748D01*
X2077Y747D02*
X2100Y747D01*
X2105Y747D02*
X2128Y747D01*
X2177Y747D02*
X2200Y747D01*
X2205Y747D02*
X2228Y747D01*
X2277Y747D02*
X2300Y747D01*
X2305Y747D02*
X2328Y747D01*
X2377Y747D02*
X2399Y747D01*
X2406Y747D02*
X2428Y747D01*
X2477Y747D02*
X2528Y747D01*
X2577Y747D02*
X2628Y747D01*
X2677Y747D02*
X2728Y747D01*
X2777Y747D02*
X2828Y747D01*
X2877Y747D02*
X2900Y747D01*
X2905Y747D02*
X2928Y747D01*
X2977Y747D02*
X3028Y747D01*
X3077Y747D02*
X3128Y747D01*
X3177Y747D02*
X3200Y747D01*
X3205Y747D02*
X3228Y747D01*
X3277Y747D02*
X3300Y747D01*
X3305Y747D02*
X3328Y747D01*
X3377Y747D02*
X3400Y747D01*
X3405Y747D02*
X3428Y747D01*
X3477Y747D02*
X3528Y747D01*
X2077Y746D02*
X2096Y746D01*
X2109Y746D02*
X2128Y746D01*
X2177Y746D02*
X2196Y746D01*
X2209Y746D02*
X2228Y746D01*
X2277Y746D02*
X2296Y746D01*
X2309Y746D02*
X2328Y746D01*
X2377Y746D02*
X2396Y746D01*
X2409Y746D02*
X2428Y746D01*
X2477Y746D02*
X2528Y746D01*
X2577Y746D02*
X2597Y746D01*
X2608Y746D02*
X2628Y746D01*
X2677Y746D02*
X2697Y746D01*
X2708Y746D02*
X2728Y746D01*
X2777Y746D02*
X2796Y746D01*
X2809Y746D02*
X2828Y746D01*
X2877Y746D02*
X2896Y746D01*
X2909Y746D02*
X2928Y746D01*
X2977Y746D02*
X2997Y746D01*
X3008Y746D02*
X3028Y746D01*
X3077Y746D02*
X3097Y746D01*
X3108Y746D02*
X3128Y746D01*
X3177Y746D02*
X3196Y746D01*
X3209Y746D02*
X3228Y746D01*
X3277Y746D02*
X3296Y746D01*
X3309Y746D02*
X3328Y746D01*
X3377Y746D02*
X3396Y746D01*
X3409Y746D02*
X3428Y746D01*
X3477Y746D02*
X3497Y746D01*
X3508Y746D02*
X3528Y746D01*
X2077Y745D02*
X2094Y745D01*
X2111Y745D02*
X2128Y745D01*
X2177Y745D02*
X2194Y745D01*
X2211Y745D02*
X2228Y745D01*
X2277Y745D02*
X2294Y745D01*
X2311Y745D02*
X2328Y745D01*
X2377Y745D02*
X2394Y745D01*
X2411Y745D02*
X2428Y745D01*
X2477Y745D02*
X2497Y745D01*
X2508Y745D02*
X2528Y745D01*
X2577Y745D02*
X2594Y745D01*
X2611Y745D02*
X2628Y745D01*
X2677Y745D02*
X2694Y745D01*
X2711Y745D02*
X2728Y745D01*
X2777Y745D02*
X2794Y745D01*
X2811Y745D02*
X2828Y745D01*
X2877Y745D02*
X2894Y745D01*
X2911Y745D02*
X2928Y745D01*
X2977Y745D02*
X2994Y745D01*
X3011Y745D02*
X3028Y745D01*
X3077Y745D02*
X3094Y745D01*
X3111Y745D02*
X3128Y745D01*
X3177Y745D02*
X3194Y745D01*
X3211Y745D02*
X3228Y745D01*
X3277Y745D02*
X3294Y745D01*
X3311Y745D02*
X3328Y745D01*
X3377Y745D02*
X3394Y745D01*
X3411Y745D02*
X3428Y745D01*
X3477Y745D02*
X3494Y745D01*
X3511Y745D02*
X3528Y745D01*
X2077Y744D02*
X2092Y744D01*
X2113Y744D02*
X2128Y744D01*
X2177Y744D02*
X2192Y744D01*
X2213Y744D02*
X2228Y744D01*
X2277Y744D02*
X2292Y744D01*
X2313Y744D02*
X2328Y744D01*
X2377Y744D02*
X2392Y744D01*
X2413Y744D02*
X2428Y744D01*
X2477Y744D02*
X2494Y744D01*
X2511Y744D02*
X2528Y744D01*
X2577Y744D02*
X2593Y744D01*
X2612Y744D02*
X2628Y744D01*
X2677Y744D02*
X2693Y744D01*
X2712Y744D02*
X2728Y744D01*
X2777Y744D02*
X2793Y744D01*
X2812Y744D02*
X2828Y744D01*
X2877Y744D02*
X2892Y744D01*
X2913Y744D02*
X2928Y744D01*
X2977Y744D02*
X2993Y744D01*
X3012Y744D02*
X3028Y744D01*
X3077Y744D02*
X3093Y744D01*
X3112Y744D02*
X3128Y744D01*
X3177Y744D02*
X3192Y744D01*
X3213Y744D02*
X3228Y744D01*
X3277Y744D02*
X3292Y744D01*
X3313Y744D02*
X3328Y744D01*
X3377Y744D02*
X3392Y744D01*
X3413Y744D02*
X3428Y744D01*
X3477Y744D02*
X3493Y744D01*
X3512Y744D02*
X3528Y744D01*
X2077Y743D02*
X2091Y743D01*
X2114Y743D02*
X2128Y743D01*
X2177Y743D02*
X2191Y743D01*
X2214Y743D02*
X2228Y743D01*
X2277Y743D02*
X2291Y743D01*
X2314Y743D02*
X2328Y743D01*
X2377Y743D02*
X2391Y743D01*
X2414Y743D02*
X2428Y743D01*
X2477Y743D02*
X2493Y743D01*
X2512Y743D02*
X2528Y743D01*
X2577Y743D02*
X2592Y743D01*
X2613Y743D02*
X2628Y743D01*
X2677Y743D02*
X2692Y743D01*
X2713Y743D02*
X2728Y743D01*
X2777Y743D02*
X2791Y743D01*
X2814Y743D02*
X2828Y743D01*
X2877Y743D02*
X2891Y743D01*
X2914Y743D02*
X2928Y743D01*
X2977Y743D02*
X2992Y743D01*
X3013Y743D02*
X3028Y743D01*
X3077Y743D02*
X3092Y743D01*
X3113Y743D02*
X3128Y743D01*
X3177Y743D02*
X3191Y743D01*
X3214Y743D02*
X3228Y743D01*
X3277Y743D02*
X3291Y743D01*
X3314Y743D02*
X3328Y743D01*
X3377Y743D02*
X3391Y743D01*
X3414Y743D02*
X3428Y743D01*
X3477Y743D02*
X3492Y743D01*
X3513Y743D02*
X3528Y743D01*
X2077Y742D02*
X2090Y742D01*
X2115Y742D02*
X2128Y742D01*
X2177Y742D02*
X2190Y742D01*
X2215Y742D02*
X2228Y742D01*
X2277Y742D02*
X2290Y742D01*
X2315Y742D02*
X2328Y742D01*
X2377Y742D02*
X2390Y742D01*
X2415Y742D02*
X2428Y742D01*
X2477Y742D02*
X2492Y742D01*
X2513Y742D02*
X2528Y742D01*
X2577Y742D02*
X2590Y742D01*
X2615Y742D02*
X2628Y742D01*
X2677Y742D02*
X2690Y742D01*
X2715Y742D02*
X2728Y742D01*
X2777Y742D02*
X2790Y742D01*
X2815Y742D02*
X2828Y742D01*
X2877Y742D02*
X2890Y742D01*
X2915Y742D02*
X2928Y742D01*
X2977Y742D02*
X2990Y742D01*
X3015Y742D02*
X3028Y742D01*
X3077Y742D02*
X3090Y742D01*
X3115Y742D02*
X3128Y742D01*
X3177Y742D02*
X3190Y742D01*
X3215Y742D02*
X3228Y742D01*
X3277Y742D02*
X3290Y742D01*
X3315Y742D02*
X3328Y742D01*
X3377Y742D02*
X3390Y742D01*
X3415Y742D02*
X3428Y742D01*
X3477Y742D02*
X3490Y742D01*
X3515Y742D02*
X3528Y742D01*
X2077Y741D02*
X2089Y741D01*
X2116Y741D02*
X2128Y741D01*
X2177Y741D02*
X2189Y741D01*
X2216Y741D02*
X2228Y741D01*
X2277Y741D02*
X2289Y741D01*
X2316Y741D02*
X2328Y741D01*
X2377Y741D02*
X2389Y741D01*
X2416Y741D02*
X2428Y741D01*
X2477Y741D02*
X2490Y741D01*
X2515Y741D02*
X2528Y741D01*
X2577Y741D02*
X2590Y741D01*
X2615Y741D02*
X2628Y741D01*
X2677Y741D02*
X2690Y741D01*
X2715Y741D02*
X2728Y741D01*
X2777Y741D02*
X2790Y741D01*
X2815Y741D02*
X2828Y741D01*
X2877Y741D02*
X2889Y741D01*
X2916Y741D02*
X2928Y741D01*
X2977Y741D02*
X2990Y741D01*
X3015Y741D02*
X3028Y741D01*
X3077Y741D02*
X3090Y741D01*
X3115Y741D02*
X3128Y741D01*
X3177Y741D02*
X3189Y741D01*
X3216Y741D02*
X3228Y741D01*
X3277Y741D02*
X3289Y741D01*
X3316Y741D02*
X3328Y741D01*
X3377Y741D02*
X3389Y741D01*
X3416Y741D02*
X3428Y741D01*
X3477Y741D02*
X3490Y741D01*
X3515Y741D02*
X3528Y741D01*
X2077Y740D02*
X2089Y740D01*
X2116Y740D02*
X2128Y740D01*
X2177Y740D02*
X2189Y740D01*
X2216Y740D02*
X2228Y740D01*
X2277Y740D02*
X2289Y740D01*
X2316Y740D02*
X2328Y740D01*
X2377Y740D02*
X2389Y740D01*
X2416Y740D02*
X2428Y740D01*
X2477Y740D02*
X2490Y740D01*
X2515Y740D02*
X2528Y740D01*
X2577Y740D02*
X2589Y740D01*
X2616Y740D02*
X2628Y740D01*
X2677Y740D02*
X2689Y740D01*
X2716Y740D02*
X2728Y740D01*
X2777Y740D02*
X2789Y740D01*
X2816Y740D02*
X2828Y740D01*
X2877Y740D02*
X2889Y740D01*
X2916Y740D02*
X2928Y740D01*
X2977Y740D02*
X2989Y740D01*
X3016Y740D02*
X3028Y740D01*
X3077Y740D02*
X3089Y740D01*
X3116Y740D02*
X3128Y740D01*
X3177Y740D02*
X3189Y740D01*
X3216Y740D02*
X3228Y740D01*
X3277Y740D02*
X3289Y740D01*
X3316Y740D02*
X3328Y740D01*
X3377Y740D02*
X3389Y740D01*
X3416Y740D02*
X3428Y740D01*
X3477Y740D02*
X3489Y740D01*
X3516Y740D02*
X3528Y740D01*
X2077Y739D02*
X2088Y739D01*
X2117Y739D02*
X2128Y739D01*
X2177Y739D02*
X2188Y739D01*
X2217Y739D02*
X2228Y739D01*
X2277Y739D02*
X2288Y739D01*
X2317Y739D02*
X2328Y739D01*
X2377Y739D02*
X2388Y739D01*
X2417Y739D02*
X2428Y739D01*
X2477Y739D02*
X2489Y739D01*
X2516Y739D02*
X2528Y739D01*
X2577Y739D02*
X2588Y739D01*
X2617Y739D02*
X2628Y739D01*
X2677Y739D02*
X2688Y739D01*
X2717Y739D02*
X2728Y739D01*
X2777Y739D02*
X2788Y739D01*
X2817Y739D02*
X2828Y739D01*
X2877Y739D02*
X2888Y739D01*
X2917Y739D02*
X2928Y739D01*
X2977Y739D02*
X2988Y739D01*
X3017Y739D02*
X3028Y739D01*
X3077Y739D02*
X3088Y739D01*
X3117Y739D02*
X3128Y739D01*
X3177Y739D02*
X3188Y739D01*
X3217Y739D02*
X3228Y739D01*
X3277Y739D02*
X3288Y739D01*
X3317Y739D02*
X3328Y739D01*
X3377Y739D02*
X3388Y739D01*
X3417Y739D02*
X3428Y739D01*
X3477Y739D02*
X3488Y739D01*
X3517Y739D02*
X3528Y739D01*
X2077Y738D02*
X2088Y738D01*
X2117Y738D02*
X2128Y738D01*
X2177Y738D02*
X2188Y738D01*
X2217Y738D02*
X2228Y738D01*
X2277Y738D02*
X2288Y738D01*
X2317Y738D02*
X2328Y738D01*
X2377Y738D02*
X2388Y738D01*
X2417Y738D02*
X2428Y738D01*
X2477Y738D02*
X2488Y738D01*
X2517Y738D02*
X2528Y738D01*
X2577Y738D02*
X2588Y738D01*
X2617Y738D02*
X2628Y738D01*
X2677Y738D02*
X2688Y738D01*
X2717Y738D02*
X2728Y738D01*
X2777Y738D02*
X2788Y738D01*
X2817Y738D02*
X2828Y738D01*
X2877Y738D02*
X2888Y738D01*
X2917Y738D02*
X2928Y738D01*
X2977Y738D02*
X2988Y738D01*
X3017Y738D02*
X3028Y738D01*
X3077Y738D02*
X3088Y738D01*
X3117Y738D02*
X3128Y738D01*
X3177Y738D02*
X3188Y738D01*
X3217Y738D02*
X3228Y738D01*
X3277Y738D02*
X3288Y738D01*
X3317Y738D02*
X3328Y738D01*
X3377Y738D02*
X3388Y738D01*
X3417Y738D02*
X3428Y738D01*
X3477Y738D02*
X3488Y738D01*
X3517Y738D02*
X3528Y738D01*
X2077Y737D02*
X2087Y737D01*
X2118Y737D02*
X2128Y737D01*
X2177Y737D02*
X2187Y737D01*
X2218Y737D02*
X2228Y737D01*
X2277Y737D02*
X2287Y737D01*
X2318Y737D02*
X2328Y737D01*
X2377Y737D02*
X2387Y737D01*
X2418Y737D02*
X2428Y737D01*
X2477Y737D02*
X2488Y737D01*
X2517Y737D02*
X2528Y737D01*
X2577Y737D02*
X2587Y737D01*
X2618Y737D02*
X2628Y737D01*
X2677Y737D02*
X2687Y737D01*
X2718Y737D02*
X2728Y737D01*
X2777Y737D02*
X2787Y737D01*
X2818Y737D02*
X2828Y737D01*
X2877Y737D02*
X2887Y737D01*
X2918Y737D02*
X2928Y737D01*
X2977Y737D02*
X2987Y737D01*
X3018Y737D02*
X3028Y737D01*
X3077Y737D02*
X3087Y737D01*
X3118Y737D02*
X3128Y737D01*
X3177Y737D02*
X3187Y737D01*
X3218Y737D02*
X3228Y737D01*
X3277Y737D02*
X3287Y737D01*
X3318Y737D02*
X3328Y737D01*
X3377Y737D02*
X3387Y737D01*
X3418Y737D02*
X3428Y737D01*
X3477Y737D02*
X3487Y737D01*
X3518Y737D02*
X3528Y737D01*
X2077Y736D02*
X2087Y736D01*
X2118Y736D02*
X2128Y736D01*
X2177Y736D02*
X2187Y736D01*
X2218Y736D02*
X2228Y736D01*
X2277Y736D02*
X2287Y736D01*
X2318Y736D02*
X2328Y736D01*
X2377Y736D02*
X2387Y736D01*
X2418Y736D02*
X2428Y736D01*
X2477Y736D02*
X2487Y736D01*
X2518Y736D02*
X2528Y736D01*
X2577Y736D02*
X2587Y736D01*
X2618Y736D02*
X2628Y736D01*
X2677Y736D02*
X2687Y736D01*
X2718Y736D02*
X2728Y736D01*
X2777Y736D02*
X2787Y736D01*
X2818Y736D02*
X2828Y736D01*
X2877Y736D02*
X2887Y736D01*
X2918Y736D02*
X2928Y736D01*
X2977Y736D02*
X2987Y736D01*
X3018Y736D02*
X3028Y736D01*
X3077Y736D02*
X3087Y736D01*
X3118Y736D02*
X3128Y736D01*
X3177Y736D02*
X3187Y736D01*
X3218Y736D02*
X3228Y736D01*
X3277Y736D02*
X3287Y736D01*
X3318Y736D02*
X3328Y736D01*
X3377Y736D02*
X3387Y736D01*
X3418Y736D02*
X3428Y736D01*
X3477Y736D02*
X3487Y736D01*
X3518Y736D02*
X3528Y736D01*
X2077Y735D02*
X2087Y735D01*
X2119Y735D02*
X2128Y735D01*
X2177Y735D02*
X2186Y735D01*
X2219Y735D02*
X2228Y735D01*
X2277Y735D02*
X2286Y735D01*
X2319Y735D02*
X2328Y735D01*
X2377Y735D02*
X2386Y735D01*
X2419Y735D02*
X2428Y735D01*
X2477Y735D02*
X2487Y735D01*
X2518Y735D02*
X2528Y735D01*
X2577Y735D02*
X2587Y735D01*
X2618Y735D02*
X2628Y735D01*
X2677Y735D02*
X2687Y735D01*
X2718Y735D02*
X2728Y735D01*
X2777Y735D02*
X2787Y735D01*
X2818Y735D02*
X2828Y735D01*
X2877Y735D02*
X2886Y735D01*
X2919Y735D02*
X2928Y735D01*
X2977Y735D02*
X2987Y735D01*
X3018Y735D02*
X3028Y735D01*
X3077Y735D02*
X3087Y735D01*
X3118Y735D02*
X3128Y735D01*
X3177Y735D02*
X3186Y735D01*
X3218Y735D02*
X3228Y735D01*
X3277Y735D02*
X3286Y735D01*
X3318Y735D02*
X3328Y735D01*
X3377Y735D02*
X3386Y735D01*
X3419Y735D02*
X3428Y735D01*
X3477Y735D02*
X3487Y735D01*
X3518Y735D02*
X3528Y735D01*
X2077Y734D02*
X2086Y734D01*
X2119Y734D02*
X2128Y734D01*
X2177Y734D02*
X2186Y734D01*
X2219Y734D02*
X2228Y734D01*
X2277Y734D02*
X2286Y734D01*
X2319Y734D02*
X2328Y734D01*
X2377Y734D02*
X2386Y734D01*
X2419Y734D02*
X2428Y734D01*
X2477Y734D02*
X2487Y734D01*
X2518Y734D02*
X2528Y734D01*
X2577Y734D02*
X2586Y734D01*
X2619Y734D02*
X2628Y734D01*
X2677Y734D02*
X2686Y734D01*
X2719Y734D02*
X2728Y734D01*
X2777Y734D02*
X2786Y734D01*
X2819Y734D02*
X2828Y734D01*
X2877Y734D02*
X2886Y734D01*
X2919Y734D02*
X2928Y734D01*
X2977Y734D02*
X2986Y734D01*
X3019Y734D02*
X3028Y734D01*
X3077Y734D02*
X3086Y734D01*
X3119Y734D02*
X3128Y734D01*
X3177Y734D02*
X3186Y734D01*
X3219Y734D02*
X3228Y734D01*
X3277Y734D02*
X3286Y734D01*
X3319Y734D02*
X3328Y734D01*
X3377Y734D02*
X3386Y734D01*
X3419Y734D02*
X3428Y734D01*
X3477Y734D02*
X3486Y734D01*
X3519Y734D02*
X3528Y734D01*
X2077Y733D02*
X2086Y733D01*
X2119Y733D02*
X2128Y733D01*
X2177Y733D02*
X2186Y733D01*
X2219Y733D02*
X2228Y733D01*
X2277Y733D02*
X2286Y733D01*
X2319Y733D02*
X2328Y733D01*
X2377Y733D02*
X2386Y733D01*
X2419Y733D02*
X2428Y733D01*
X2477Y733D02*
X2486Y733D01*
X2519Y733D02*
X2528Y733D01*
X2577Y733D02*
X2586Y733D01*
X2619Y733D02*
X2628Y733D01*
X2677Y733D02*
X2686Y733D01*
X2719Y733D02*
X2728Y733D01*
X2777Y733D02*
X2786Y733D01*
X2819Y733D02*
X2828Y733D01*
X2877Y733D02*
X2886Y733D01*
X2919Y733D02*
X2928Y733D01*
X2977Y733D02*
X2986Y733D01*
X3019Y733D02*
X3028Y733D01*
X3077Y733D02*
X3086Y733D01*
X3119Y733D02*
X3128Y733D01*
X3177Y733D02*
X3186Y733D01*
X3219Y733D02*
X3228Y733D01*
X3277Y733D02*
X3286Y733D01*
X3319Y733D02*
X3328Y733D01*
X3377Y733D02*
X3386Y733D01*
X3419Y733D02*
X3428Y733D01*
X3477Y733D02*
X3486Y733D01*
X3519Y733D02*
X3528Y733D01*
X2077Y732D02*
X2086Y732D01*
X2119Y732D02*
X2128Y732D01*
X2177Y732D02*
X2186Y732D01*
X2219Y732D02*
X2228Y732D01*
X2277Y732D02*
X2286Y732D01*
X2319Y732D02*
X2328Y732D01*
X2377Y732D02*
X2386Y732D01*
X2419Y732D02*
X2428Y732D01*
X2477Y732D02*
X2486Y732D01*
X2519Y732D02*
X2528Y732D01*
X2577Y732D02*
X2586Y732D01*
X2619Y732D02*
X2628Y732D01*
X2677Y732D02*
X2686Y732D01*
X2719Y732D02*
X2728Y732D01*
X2777Y732D02*
X2786Y732D01*
X2819Y732D02*
X2828Y732D01*
X2877Y732D02*
X2886Y732D01*
X2919Y732D02*
X2928Y732D01*
X2977Y732D02*
X2986Y732D01*
X3019Y732D02*
X3028Y732D01*
X3077Y732D02*
X3086Y732D01*
X3119Y732D02*
X3128Y732D01*
X3177Y732D02*
X3186Y732D01*
X3219Y732D02*
X3228Y732D01*
X3277Y732D02*
X3286Y732D01*
X3319Y732D02*
X3328Y732D01*
X3377Y732D02*
X3386Y732D01*
X3419Y732D02*
X3428Y732D01*
X3477Y732D02*
X3486Y732D01*
X3519Y732D02*
X3528Y732D01*
X2077Y731D02*
X2086Y731D01*
X2119Y731D02*
X2128Y731D01*
X2177Y731D02*
X2186Y731D01*
X2219Y731D02*
X2228Y731D01*
X2277Y731D02*
X2286Y731D01*
X2319Y731D02*
X2328Y731D01*
X2377Y731D02*
X2386Y731D01*
X2419Y731D02*
X2428Y731D01*
X2477Y731D02*
X2486Y731D01*
X2519Y731D02*
X2528Y731D01*
X2577Y731D02*
X2586Y731D01*
X2619Y731D02*
X2628Y731D01*
X2677Y731D02*
X2686Y731D01*
X2719Y731D02*
X2728Y731D01*
X2777Y731D02*
X2786Y731D01*
X2819Y731D02*
X2828Y731D01*
X2877Y731D02*
X2886Y731D01*
X2919Y731D02*
X2928Y731D01*
X2977Y731D02*
X2986Y731D01*
X3019Y731D02*
X3028Y731D01*
X3077Y731D02*
X3086Y731D01*
X3119Y731D02*
X3128Y731D01*
X3177Y731D02*
X3186Y731D01*
X3219Y731D02*
X3228Y731D01*
X3277Y731D02*
X3286Y731D01*
X3319Y731D02*
X3328Y731D01*
X3377Y731D02*
X3386Y731D01*
X3419Y731D02*
X3428Y731D01*
X3477Y731D02*
X3486Y731D01*
X3519Y731D02*
X3528Y731D01*
X2077Y730D02*
X2086Y730D01*
X2119Y730D02*
X2128Y730D01*
X2177Y730D02*
X2186Y730D01*
X2219Y730D02*
X2228Y730D01*
X2277Y730D02*
X2286Y730D01*
X2319Y730D02*
X2328Y730D01*
X2377Y730D02*
X2386Y730D01*
X2419Y730D02*
X2428Y730D01*
X2477Y730D02*
X2486Y730D01*
X2519Y730D02*
X2528Y730D01*
X2577Y730D02*
X2586Y730D01*
X2619Y730D02*
X2628Y730D01*
X2677Y730D02*
X2686Y730D01*
X2719Y730D02*
X2728Y730D01*
X2777Y730D02*
X2786Y730D01*
X2819Y730D02*
X2828Y730D01*
X2877Y730D02*
X2886Y730D01*
X2919Y730D02*
X2928Y730D01*
X2977Y730D02*
X2986Y730D01*
X3019Y730D02*
X3028Y730D01*
X3077Y730D02*
X3086Y730D01*
X3119Y730D02*
X3128Y730D01*
X3177Y730D02*
X3186Y730D01*
X3219Y730D02*
X3228Y730D01*
X3277Y730D02*
X3286Y730D01*
X3319Y730D02*
X3328Y730D01*
X3377Y730D02*
X3386Y730D01*
X3419Y730D02*
X3428Y730D01*
X3477Y730D02*
X3486Y730D01*
X3519Y730D02*
X3528Y730D01*
X2077Y729D02*
X2086Y729D01*
X2119Y729D02*
X2128Y729D01*
X2177Y729D02*
X2186Y729D01*
X2219Y729D02*
X2228Y729D01*
X2277Y729D02*
X2286Y729D01*
X2319Y729D02*
X2328Y729D01*
X2377Y729D02*
X2386Y729D01*
X2419Y729D02*
X2428Y729D01*
X2477Y729D02*
X2486Y729D01*
X2519Y729D02*
X2528Y729D01*
X2577Y729D02*
X2586Y729D01*
X2619Y729D02*
X2628Y729D01*
X2677Y729D02*
X2686Y729D01*
X2719Y729D02*
X2728Y729D01*
X2777Y729D02*
X2786Y729D01*
X2819Y729D02*
X2828Y729D01*
X2877Y729D02*
X2886Y729D01*
X2919Y729D02*
X2928Y729D01*
X2977Y729D02*
X2986Y729D01*
X3019Y729D02*
X3028Y729D01*
X3077Y729D02*
X3086Y729D01*
X3119Y729D02*
X3128Y729D01*
X3177Y729D02*
X3186Y729D01*
X3219Y729D02*
X3228Y729D01*
X3277Y729D02*
X3286Y729D01*
X3319Y729D02*
X3328Y729D01*
X3377Y729D02*
X3386Y729D01*
X3419Y729D02*
X3428Y729D01*
X3477Y729D02*
X3486Y729D01*
X3519Y729D02*
X3528Y729D01*
X2077Y728D02*
X2086Y728D01*
X2119Y728D02*
X2128Y728D01*
X2177Y728D02*
X2186Y728D01*
X2219Y728D02*
X2228Y728D01*
X2277Y728D02*
X2286Y728D01*
X2319Y728D02*
X2328Y728D01*
X2377Y728D02*
X2386Y728D01*
X2419Y728D02*
X2428Y728D01*
X2477Y728D02*
X2486Y728D01*
X2519Y728D02*
X2528Y728D01*
X2577Y728D02*
X2586Y728D01*
X2619Y728D02*
X2628Y728D01*
X2677Y728D02*
X2686Y728D01*
X2719Y728D02*
X2728Y728D01*
X2777Y728D02*
X2786Y728D01*
X2819Y728D02*
X2828Y728D01*
X2877Y728D02*
X2886Y728D01*
X2919Y728D02*
X2928Y728D01*
X2977Y728D02*
X2986Y728D01*
X3019Y728D02*
X3028Y728D01*
X3077Y728D02*
X3086Y728D01*
X3119Y728D02*
X3128Y728D01*
X3177Y728D02*
X3186Y728D01*
X3219Y728D02*
X3228Y728D01*
X3277Y728D02*
X3286Y728D01*
X3319Y728D02*
X3328Y728D01*
X3377Y728D02*
X3386Y728D01*
X3419Y728D02*
X3428Y728D01*
X3477Y728D02*
X3486Y728D01*
X3519Y728D02*
X3528Y728D01*
X2077Y727D02*
X2086Y727D01*
X2119Y727D02*
X2128Y727D01*
X2177Y727D02*
X2186Y727D01*
X2219Y727D02*
X2228Y727D01*
X2277Y727D02*
X2286Y727D01*
X2319Y727D02*
X2328Y727D01*
X2377Y727D02*
X2386Y727D01*
X2419Y727D02*
X2428Y727D01*
X2477Y727D02*
X2486Y727D01*
X2519Y727D02*
X2528Y727D01*
X2577Y727D02*
X2587Y727D01*
X2618Y727D02*
X2628Y727D01*
X2677Y727D02*
X2687Y727D01*
X2718Y727D02*
X2728Y727D01*
X2777Y727D02*
X2787Y727D01*
X2818Y727D02*
X2828Y727D01*
X2877Y727D02*
X2886Y727D01*
X2919Y727D02*
X2928Y727D01*
X2977Y727D02*
X2987Y727D01*
X3018Y727D02*
X3028Y727D01*
X3077Y727D02*
X3087Y727D01*
X3118Y727D02*
X3128Y727D01*
X3177Y727D02*
X3186Y727D01*
X3219Y727D02*
X3228Y727D01*
X3277Y727D02*
X3286Y727D01*
X3318Y727D02*
X3328Y727D01*
X3377Y727D02*
X3386Y727D01*
X3419Y727D02*
X3428Y727D01*
X3477Y727D02*
X3487Y727D01*
X3518Y727D02*
X3528Y727D01*
X2077Y726D02*
X2087Y726D01*
X2118Y726D02*
X2128Y726D01*
X2177Y726D02*
X2187Y726D01*
X2218Y726D02*
X2228Y726D01*
X2277Y726D02*
X2287Y726D01*
X2318Y726D02*
X2328Y726D01*
X2377Y726D02*
X2387Y726D01*
X2418Y726D02*
X2428Y726D01*
X2477Y726D02*
X2487Y726D01*
X2518Y726D02*
X2528Y726D01*
X2577Y726D02*
X2587Y726D01*
X2618Y726D02*
X2628Y726D01*
X2677Y726D02*
X2687Y726D01*
X2718Y726D02*
X2728Y726D01*
X2777Y726D02*
X2787Y726D01*
X2818Y726D02*
X2828Y726D01*
X2877Y726D02*
X2887Y726D01*
X2918Y726D02*
X2928Y726D01*
X2977Y726D02*
X2987Y726D01*
X3018Y726D02*
X3028Y726D01*
X3077Y726D02*
X3087Y726D01*
X3118Y726D02*
X3128Y726D01*
X3177Y726D02*
X3187Y726D01*
X3218Y726D02*
X3228Y726D01*
X3277Y726D02*
X3287Y726D01*
X3318Y726D02*
X3328Y726D01*
X3377Y726D02*
X3387Y726D01*
X3418Y726D02*
X3428Y726D01*
X3477Y726D02*
X3487Y726D01*
X3518Y726D02*
X3528Y726D01*
X2077Y725D02*
X2087Y725D01*
X2118Y725D02*
X2128Y725D01*
X2177Y725D02*
X2187Y725D01*
X2218Y725D02*
X2228Y725D01*
X2277Y725D02*
X2287Y725D01*
X2318Y725D02*
X2328Y725D01*
X2377Y725D02*
X2387Y725D01*
X2418Y725D02*
X2428Y725D01*
X2477Y725D02*
X2487Y725D01*
X2518Y725D02*
X2528Y725D01*
X2577Y725D02*
X2587Y725D01*
X2618Y725D02*
X2628Y725D01*
X2677Y725D02*
X2687Y725D01*
X2718Y725D02*
X2728Y725D01*
X2777Y725D02*
X2787Y725D01*
X2818Y725D02*
X2828Y725D01*
X2877Y725D02*
X2887Y725D01*
X2918Y725D02*
X2928Y725D01*
X2977Y725D02*
X2987Y725D01*
X3018Y725D02*
X3028Y725D01*
X3077Y725D02*
X3087Y725D01*
X3118Y725D02*
X3128Y725D01*
X3177Y725D02*
X3187Y725D01*
X3218Y725D02*
X3228Y725D01*
X3277Y725D02*
X3287Y725D01*
X3318Y725D02*
X3328Y725D01*
X3377Y725D02*
X3387Y725D01*
X3418Y725D02*
X3428Y725D01*
X3477Y725D02*
X3487Y725D01*
X3518Y725D02*
X3528Y725D01*
X2077Y724D02*
X2088Y724D01*
X2117Y724D02*
X2128Y724D01*
X2177Y724D02*
X2188Y724D01*
X2217Y724D02*
X2228Y724D01*
X2277Y724D02*
X2288Y724D01*
X2317Y724D02*
X2328Y724D01*
X2377Y724D02*
X2388Y724D01*
X2417Y724D02*
X2428Y724D01*
X2477Y724D02*
X2487Y724D01*
X2518Y724D02*
X2528Y724D01*
X2577Y724D02*
X2588Y724D01*
X2617Y724D02*
X2628Y724D01*
X2677Y724D02*
X2688Y724D01*
X2717Y724D02*
X2728Y724D01*
X2777Y724D02*
X2788Y724D01*
X2817Y724D02*
X2828Y724D01*
X2877Y724D02*
X2888Y724D01*
X2917Y724D02*
X2928Y724D01*
X2977Y724D02*
X2988Y724D01*
X3017Y724D02*
X3028Y724D01*
X3077Y724D02*
X3088Y724D01*
X3117Y724D02*
X3128Y724D01*
X3177Y724D02*
X3188Y724D01*
X3217Y724D02*
X3228Y724D01*
X3277Y724D02*
X3288Y724D01*
X3317Y724D02*
X3328Y724D01*
X3377Y724D02*
X3388Y724D01*
X3417Y724D02*
X3428Y724D01*
X3477Y724D02*
X3488Y724D01*
X3517Y724D02*
X3528Y724D01*
X2077Y723D02*
X2088Y723D01*
X2117Y723D02*
X2128Y723D01*
X2177Y723D02*
X2188Y723D01*
X2217Y723D02*
X2228Y723D01*
X2277Y723D02*
X2288Y723D01*
X2317Y723D02*
X2328Y723D01*
X2377Y723D02*
X2388Y723D01*
X2417Y723D02*
X2428Y723D01*
X2477Y723D02*
X2488Y723D01*
X2517Y723D02*
X2528Y723D01*
X2577Y723D02*
X2588Y723D01*
X2617Y723D02*
X2628Y723D01*
X2677Y723D02*
X2688Y723D01*
X2717Y723D02*
X2728Y723D01*
X2777Y723D02*
X2788Y723D01*
X2817Y723D02*
X2828Y723D01*
X2877Y723D02*
X2888Y723D01*
X2917Y723D02*
X2928Y723D01*
X2977Y723D02*
X2988Y723D01*
X3017Y723D02*
X3028Y723D01*
X3077Y723D02*
X3088Y723D01*
X3117Y723D02*
X3128Y723D01*
X3177Y723D02*
X3188Y723D01*
X3217Y723D02*
X3228Y723D01*
X3277Y723D02*
X3288Y723D01*
X3317Y723D02*
X3328Y723D01*
X3377Y723D02*
X3388Y723D01*
X3417Y723D02*
X3428Y723D01*
X3477Y723D02*
X3488Y723D01*
X3517Y723D02*
X3528Y723D01*
X2077Y722D02*
X2089Y722D01*
X2116Y722D02*
X2128Y722D01*
X2177Y722D02*
X2189Y722D01*
X2216Y722D02*
X2228Y722D01*
X2277Y722D02*
X2289Y722D01*
X2316Y722D02*
X2328Y722D01*
X2377Y722D02*
X2389Y722D01*
X2416Y722D02*
X2428Y722D01*
X2477Y722D02*
X2488Y722D01*
X2517Y722D02*
X2528Y722D01*
X2577Y722D02*
X2589Y722D01*
X2616Y722D02*
X2628Y722D01*
X2677Y722D02*
X2689Y722D01*
X2716Y722D02*
X2728Y722D01*
X2777Y722D02*
X2789Y722D01*
X2816Y722D02*
X2828Y722D01*
X2877Y722D02*
X2889Y722D01*
X2916Y722D02*
X2928Y722D01*
X2977Y722D02*
X2989Y722D01*
X3016Y722D02*
X3028Y722D01*
X3077Y722D02*
X3089Y722D01*
X3116Y722D02*
X3128Y722D01*
X3177Y722D02*
X3189Y722D01*
X3216Y722D02*
X3228Y722D01*
X3277Y722D02*
X3289Y722D01*
X3316Y722D02*
X3328Y722D01*
X3377Y722D02*
X3389Y722D01*
X3416Y722D02*
X3428Y722D01*
X3477Y722D02*
X3489Y722D01*
X3516Y722D02*
X3528Y722D01*
X2077Y721D02*
X2089Y721D01*
X2116Y721D02*
X2128Y721D01*
X2177Y721D02*
X2189Y721D01*
X2216Y721D02*
X2228Y721D01*
X2277Y721D02*
X2289Y721D01*
X2316Y721D02*
X2328Y721D01*
X2377Y721D02*
X2389Y721D01*
X2416Y721D02*
X2428Y721D01*
X2477Y721D02*
X2489Y721D01*
X2516Y721D02*
X2528Y721D01*
X2577Y721D02*
X2590Y721D01*
X2615Y721D02*
X2628Y721D01*
X2677Y721D02*
X2690Y721D01*
X2715Y721D02*
X2728Y721D01*
X2777Y721D02*
X2790Y721D01*
X2815Y721D02*
X2828Y721D01*
X2877Y721D02*
X2889Y721D01*
X2916Y721D02*
X2928Y721D01*
X2977Y721D02*
X2990Y721D01*
X3015Y721D02*
X3028Y721D01*
X3077Y721D02*
X3090Y721D01*
X3115Y721D02*
X3128Y721D01*
X3177Y721D02*
X3189Y721D01*
X3216Y721D02*
X3228Y721D01*
X3277Y721D02*
X3289Y721D01*
X3316Y721D02*
X3328Y721D01*
X3377Y721D02*
X3389Y721D01*
X3416Y721D02*
X3428Y721D01*
X3477Y721D02*
X3490Y721D01*
X3515Y721D02*
X3528Y721D01*
X2077Y720D02*
X2090Y720D01*
X2115Y720D02*
X2128Y720D01*
X2177Y720D02*
X2190Y720D01*
X2215Y720D02*
X2228Y720D01*
X2277Y720D02*
X2290Y720D01*
X2315Y720D02*
X2328Y720D01*
X2377Y720D02*
X2390Y720D01*
X2415Y720D02*
X2428Y720D01*
X2477Y720D02*
X2490Y720D01*
X2515Y720D02*
X2528Y720D01*
X2577Y720D02*
X2590Y720D01*
X2615Y720D02*
X2628Y720D01*
X2677Y720D02*
X2690Y720D01*
X2715Y720D02*
X2728Y720D01*
X2777Y720D02*
X2790Y720D01*
X2815Y720D02*
X2828Y720D01*
X2877Y720D02*
X2890Y720D01*
X2915Y720D02*
X2928Y720D01*
X2977Y720D02*
X2990Y720D01*
X3015Y720D02*
X3028Y720D01*
X3077Y720D02*
X3090Y720D01*
X3115Y720D02*
X3128Y720D01*
X3177Y720D02*
X3190Y720D01*
X3215Y720D02*
X3228Y720D01*
X3277Y720D02*
X3290Y720D01*
X3315Y720D02*
X3328Y720D01*
X3377Y720D02*
X3390Y720D01*
X3415Y720D02*
X3428Y720D01*
X3477Y720D02*
X3490Y720D01*
X3515Y720D02*
X3528Y720D01*
X2077Y719D02*
X2091Y719D01*
X2114Y719D02*
X2128Y719D01*
X2177Y719D02*
X2191Y719D01*
X2214Y719D02*
X2228Y719D01*
X2277Y719D02*
X2291Y719D01*
X2314Y719D02*
X2328Y719D01*
X2377Y719D02*
X2391Y719D01*
X2414Y719D02*
X2428Y719D01*
X2477Y719D02*
X2490Y719D01*
X2515Y719D02*
X2528Y719D01*
X2577Y719D02*
X2592Y719D01*
X2613Y719D02*
X2628Y719D01*
X2677Y719D02*
X2692Y719D01*
X2713Y719D02*
X2728Y719D01*
X2777Y719D02*
X2791Y719D01*
X2814Y719D02*
X2828Y719D01*
X2877Y719D02*
X2891Y719D01*
X2914Y719D02*
X2928Y719D01*
X2977Y719D02*
X2992Y719D01*
X3013Y719D02*
X3028Y719D01*
X3077Y719D02*
X3092Y719D01*
X3113Y719D02*
X3128Y719D01*
X3177Y719D02*
X3191Y719D01*
X3214Y719D02*
X3228Y719D01*
X3277Y719D02*
X3291Y719D01*
X3314Y719D02*
X3328Y719D01*
X3377Y719D02*
X3391Y719D01*
X3414Y719D02*
X3428Y719D01*
X3477Y719D02*
X3492Y719D01*
X3513Y719D02*
X3528Y719D01*
X2077Y718D02*
X2092Y718D01*
X2113Y718D02*
X2128Y718D01*
X2177Y718D02*
X2192Y718D01*
X2213Y718D02*
X2228Y718D01*
X2277Y718D02*
X2292Y718D01*
X2313Y718D02*
X2328Y718D01*
X2377Y718D02*
X2392Y718D01*
X2413Y718D02*
X2428Y718D01*
X2477Y718D02*
X2492Y718D01*
X2513Y718D02*
X2528Y718D01*
X2577Y718D02*
X2593Y718D01*
X2612Y718D02*
X2628Y718D01*
X2677Y718D02*
X2693Y718D01*
X2712Y718D02*
X2728Y718D01*
X2777Y718D02*
X2793Y718D01*
X2812Y718D02*
X2828Y718D01*
X2877Y718D02*
X2892Y718D01*
X2913Y718D02*
X2928Y718D01*
X2977Y718D02*
X2993Y718D01*
X3012Y718D02*
X3028Y718D01*
X3077Y718D02*
X3093Y718D01*
X3112Y718D02*
X3128Y718D01*
X3177Y718D02*
X3192Y718D01*
X3213Y718D02*
X3228Y718D01*
X3277Y718D02*
X3292Y718D01*
X3313Y718D02*
X3328Y718D01*
X3377Y718D02*
X3392Y718D01*
X3413Y718D02*
X3428Y718D01*
X3477Y718D02*
X3493Y718D01*
X3512Y718D02*
X3528Y718D01*
X2077Y717D02*
X2094Y717D01*
X2111Y717D02*
X2128Y717D01*
X2177Y717D02*
X2194Y717D01*
X2211Y717D02*
X2228Y717D01*
X2277Y717D02*
X2294Y717D01*
X2311Y717D02*
X2328Y717D01*
X2377Y717D02*
X2394Y717D01*
X2411Y717D02*
X2428Y717D01*
X2477Y717D02*
X2493Y717D01*
X2512Y717D02*
X2528Y717D01*
X2577Y717D02*
X2594Y717D01*
X2611Y717D02*
X2628Y717D01*
X2677Y717D02*
X2694Y717D01*
X2711Y717D02*
X2728Y717D01*
X2777Y717D02*
X2794Y717D01*
X2811Y717D02*
X2828Y717D01*
X2877Y717D02*
X2894Y717D01*
X2911Y717D02*
X2928Y717D01*
X2977Y717D02*
X2994Y717D01*
X3011Y717D02*
X3028Y717D01*
X3077Y717D02*
X3094Y717D01*
X3111Y717D02*
X3128Y717D01*
X3177Y717D02*
X3194Y717D01*
X3211Y717D02*
X3228Y717D01*
X3277Y717D02*
X3294Y717D01*
X3311Y717D02*
X3328Y717D01*
X3377Y717D02*
X3394Y717D01*
X3411Y717D02*
X3428Y717D01*
X3477Y717D02*
X3494Y717D01*
X3511Y717D02*
X3528Y717D01*
X2077Y716D02*
X2096Y716D01*
X2109Y716D02*
X2128Y716D01*
X2177Y716D02*
X2196Y716D01*
X2209Y716D02*
X2228Y716D01*
X2277Y716D02*
X2296Y716D01*
X2309Y716D02*
X2328Y716D01*
X2377Y716D02*
X2396Y716D01*
X2409Y716D02*
X2428Y716D01*
X2477Y716D02*
X2494Y716D01*
X2511Y716D02*
X2528Y716D01*
X2577Y716D02*
X2597Y716D01*
X2608Y716D02*
X2628Y716D01*
X2677Y716D02*
X2697Y716D01*
X2708Y716D02*
X2728Y716D01*
X2777Y716D02*
X2796Y716D01*
X2809Y716D02*
X2828Y716D01*
X2877Y716D02*
X2896Y716D01*
X2909Y716D02*
X2928Y716D01*
X2977Y716D02*
X2997Y716D01*
X3008Y716D02*
X3028Y716D01*
X3077Y716D02*
X3097Y716D01*
X3108Y716D02*
X3128Y716D01*
X3177Y716D02*
X3196Y716D01*
X3209Y716D02*
X3228Y716D01*
X3277Y716D02*
X3296Y716D01*
X3309Y716D02*
X3328Y716D01*
X3377Y716D02*
X3396Y716D01*
X3409Y716D02*
X3428Y716D01*
X3477Y716D02*
X3497Y716D01*
X3508Y716D02*
X3528Y716D01*
X2077Y715D02*
X2100Y715D01*
X2105Y715D02*
X2128Y715D01*
X2177Y715D02*
X2200Y715D01*
X2205Y715D02*
X2228Y715D01*
X2277Y715D02*
X2300Y715D01*
X2305Y715D02*
X2328Y715D01*
X2377Y715D02*
X2399Y715D01*
X2406Y715D02*
X2428Y715D01*
X2477Y715D02*
X2497Y715D01*
X2508Y715D02*
X2528Y715D01*
X2577Y715D02*
X2628Y715D01*
X2677Y715D02*
X2728Y715D01*
X2777Y715D02*
X2828Y715D01*
X2877Y715D02*
X2899Y715D01*
X2906Y715D02*
X2928Y715D01*
X2977Y715D02*
X3028Y715D01*
X3077Y715D02*
X3128Y715D01*
X3177Y715D02*
X3200Y715D01*
X3205Y715D02*
X3228Y715D01*
X3277Y715D02*
X3300Y715D01*
X3305Y715D02*
X3328Y715D01*
X3377Y715D02*
X3400Y715D01*
X3405Y715D02*
X3428Y715D01*
X3477Y715D02*
X3528Y715D01*
X2077Y714D02*
X2128Y714D01*
X2177Y714D02*
X2228Y714D01*
X2277Y714D02*
X2328Y714D01*
X2377Y714D02*
X2428Y714D01*
X2477Y714D02*
X2528Y714D01*
X2577Y714D02*
X2628Y714D01*
X2677Y714D02*
X2728Y714D01*
X2777Y714D02*
X2828Y714D01*
X2877Y714D02*
X2928Y714D01*
X2977Y714D02*
X3028Y714D01*
X3077Y714D02*
X3128Y714D01*
X3177Y714D02*
X3228Y714D01*
X3277Y714D02*
X3328Y714D01*
X3377Y714D02*
X3428Y714D01*
X3477Y714D02*
X3528Y714D01*
X2077Y713D02*
X2128Y713D01*
X2177Y713D02*
X2228Y713D01*
X2277Y713D02*
X2328Y713D01*
X2377Y713D02*
X2428Y713D01*
X2477Y713D02*
X2528Y713D01*
X2577Y713D02*
X2628Y713D01*
X2677Y713D02*
X2728Y713D01*
X2777Y713D02*
X2828Y713D01*
X2877Y713D02*
X2928Y713D01*
X2977Y713D02*
X3028Y713D01*
X3077Y713D02*
X3128Y713D01*
X3177Y713D02*
X3228Y713D01*
X3277Y713D02*
X3328Y713D01*
X3377Y713D02*
X3428Y713D01*
X3477Y713D02*
X3528Y713D01*
X2077Y712D02*
X2128Y712D01*
X2177Y712D02*
X2228Y712D01*
X2277Y712D02*
X2328Y712D01*
X2377Y712D02*
X2428Y712D01*
X2477Y712D02*
X2528Y712D01*
X2577Y712D02*
X2628Y712D01*
X2677Y712D02*
X2728Y712D01*
X2777Y712D02*
X2828Y712D01*
X2877Y712D02*
X2928Y712D01*
X2977Y712D02*
X3028Y712D01*
X3077Y712D02*
X3128Y712D01*
X3177Y712D02*
X3228Y712D01*
X3277Y712D02*
X3328Y712D01*
X3377Y712D02*
X3428Y712D01*
X3477Y712D02*
X3528Y712D01*
X2077Y711D02*
X2128Y711D01*
X2177Y711D02*
X2228Y711D01*
X2277Y711D02*
X2328Y711D01*
X2377Y711D02*
X2428Y711D01*
X2477Y711D02*
X2528Y711D01*
X2577Y711D02*
X2628Y711D01*
X2677Y711D02*
X2728Y711D01*
X2777Y711D02*
X2828Y711D01*
X2877Y711D02*
X2928Y711D01*
X2977Y711D02*
X3028Y711D01*
X3077Y711D02*
X3128Y711D01*
X3177Y711D02*
X3228Y711D01*
X3277Y711D02*
X3328Y711D01*
X3377Y711D02*
X3428Y711D01*
X3477Y711D02*
X3528Y711D01*
X2077Y710D02*
X2128Y710D01*
X2177Y710D02*
X2228Y710D01*
X2277Y710D02*
X2328Y710D01*
X2377Y710D02*
X2428Y710D01*
X2477Y710D02*
X2528Y710D01*
X2577Y710D02*
X2628Y710D01*
X2677Y710D02*
X2728Y710D01*
X2777Y710D02*
X2828Y710D01*
X2877Y710D02*
X2928Y710D01*
X2977Y710D02*
X3028Y710D01*
X3077Y710D02*
X3128Y710D01*
X3177Y710D02*
X3228Y710D01*
X3277Y710D02*
X3328Y710D01*
X3377Y710D02*
X3428Y710D01*
X3477Y710D02*
X3528Y710D01*
X2077Y709D02*
X2128Y709D01*
X2177Y709D02*
X2228Y709D01*
X2277Y709D02*
X2328Y709D01*
X2377Y709D02*
X2428Y709D01*
X2477Y709D02*
X2528Y709D01*
X2577Y709D02*
X2628Y709D01*
X2677Y709D02*
X2728Y709D01*
X2777Y709D02*
X2828Y709D01*
X2877Y709D02*
X2928Y709D01*
X2977Y709D02*
X3028Y709D01*
X3077Y709D02*
X3128Y709D01*
X3177Y709D02*
X3228Y709D01*
X3277Y709D02*
X3328Y709D01*
X3377Y709D02*
X3428Y709D01*
X3477Y709D02*
X3528Y709D01*
X2077Y708D02*
X2128Y708D01*
X2177Y708D02*
X2228Y708D01*
X2277Y708D02*
X2328Y708D01*
X2377Y708D02*
X2428Y708D01*
X2477Y708D02*
X2528Y708D01*
X2577Y708D02*
X2628Y708D01*
X2677Y708D02*
X2728Y708D01*
X2777Y708D02*
X2828Y708D01*
X2877Y708D02*
X2928Y708D01*
X2977Y708D02*
X3028Y708D01*
X3077Y708D02*
X3128Y708D01*
X3177Y708D02*
X3228Y708D01*
X3277Y708D02*
X3328Y708D01*
X3377Y708D02*
X3428Y708D01*
X3477Y708D02*
X3528Y708D01*
X2077Y707D02*
X2128Y707D01*
X2177Y707D02*
X2228Y707D01*
X2277Y707D02*
X2328Y707D01*
X2377Y707D02*
X2428Y707D01*
X2477Y707D02*
X2528Y707D01*
X2577Y707D02*
X2628Y707D01*
X2677Y707D02*
X2728Y707D01*
X2777Y707D02*
X2828Y707D01*
X2877Y707D02*
X2928Y707D01*
X2977Y707D02*
X3028Y707D01*
X3077Y707D02*
X3128Y707D01*
X3177Y707D02*
X3228Y707D01*
X3277Y707D02*
X3328Y707D01*
X3377Y707D02*
X3428Y707D01*
X3477Y707D02*
X3528Y707D01*
X2077Y706D02*
X2128Y706D01*
X2177Y706D02*
X2228Y706D01*
X2277Y706D02*
X2328Y706D01*
X2377Y706D02*
X2428Y706D01*
X2477Y706D02*
X2528Y706D01*
X2577Y706D02*
X2628Y706D01*
X2677Y706D02*
X2728Y706D01*
X2777Y706D02*
X2828Y706D01*
X2877Y706D02*
X2928Y706D01*
X2977Y706D02*
X3028Y706D01*
X3077Y706D02*
X3128Y706D01*
X3177Y706D02*
X3228Y706D01*
X3277Y706D02*
X3328Y706D01*
X3377Y706D02*
X3428Y706D01*
X3477Y706D02*
X3528Y706D01*
X2077Y705D02*
X2128Y705D01*
X2177Y705D02*
X2228Y705D01*
X2277Y705D02*
X2328Y705D01*
X2377Y705D02*
X2428Y705D01*
X2477Y705D02*
X2528Y705D01*
X2577Y705D02*
X2628Y705D01*
X2677Y705D02*
X2728Y705D01*
X2777Y705D02*
X2828Y705D01*
X2877Y705D02*
X2928Y705D01*
X2977Y705D02*
X3028Y705D01*
X3077Y705D02*
X3128Y705D01*
X3177Y705D02*
X3228Y705D01*
X3277Y705D02*
X3328Y705D01*
X3377Y705D02*
X3428Y705D01*
X3477Y705D02*
X3528Y705D01*
X2077Y704D02*
X2128Y704D01*
X2177Y704D02*
X2228Y704D01*
X2277Y704D02*
X2328Y704D01*
X2377Y704D02*
X2428Y704D01*
X2477Y704D02*
X2528Y704D01*
X2577Y704D02*
X2628Y704D01*
X2677Y704D02*
X2728Y704D01*
X2777Y704D02*
X2828Y704D01*
X2877Y704D02*
X2928Y704D01*
X2977Y704D02*
X3028Y704D01*
X3077Y704D02*
X3128Y704D01*
X3177Y704D02*
X3228Y704D01*
X3277Y704D02*
X3328Y704D01*
X3377Y704D02*
X3428Y704D01*
X3477Y704D02*
X3528Y704D01*
X2077Y703D02*
X2128Y703D01*
X2177Y703D02*
X2228Y703D01*
X2277Y703D02*
X2328Y703D01*
X2377Y703D02*
X2428Y703D01*
X2477Y703D02*
X2528Y703D01*
X2577Y703D02*
X2628Y703D01*
X2677Y703D02*
X2728Y703D01*
X2777Y703D02*
X2828Y703D01*
X2877Y703D02*
X2928Y703D01*
X2977Y703D02*
X3028Y703D01*
X3077Y703D02*
X3128Y703D01*
X3177Y703D02*
X3228Y703D01*
X3277Y703D02*
X3328Y703D01*
X3377Y703D02*
X3428Y703D01*
X3477Y703D02*
X3528Y703D01*
X2077Y702D02*
X2128Y702D01*
X2177Y702D02*
X2228Y702D01*
X2277Y702D02*
X2328Y702D01*
X2377Y702D02*
X2428Y702D01*
X2477Y702D02*
X2528Y702D01*
X2577Y702D02*
X2628Y702D01*
X2677Y702D02*
X2728Y702D01*
X2777Y702D02*
X2828Y702D01*
X2877Y702D02*
X2928Y702D01*
X2977Y702D02*
X3028Y702D01*
X3077Y702D02*
X3128Y702D01*
X3177Y702D02*
X3228Y702D01*
X3277Y702D02*
X3328Y702D01*
X3377Y702D02*
X3428Y702D01*
X3477Y702D02*
X3528Y702D01*
X2077Y701D02*
X2128Y701D01*
X2177Y701D02*
X2228Y701D01*
X2277Y701D02*
X2328Y701D01*
X2377Y701D02*
X2428Y701D01*
X2477Y701D02*
X2528Y701D01*
X2577Y701D02*
X2628Y701D01*
X2677Y701D02*
X2728Y701D01*
X2777Y701D02*
X2828Y701D01*
X2877Y701D02*
X2928Y701D01*
X2977Y701D02*
X3028Y701D01*
X3077Y701D02*
X3128Y701D01*
X3177Y701D02*
X3228Y701D01*
X3277Y701D02*
X3328Y701D01*
X3377Y701D02*
X3428Y701D01*
X3477Y701D02*
X3528Y701D01*
X2077Y700D02*
X2127Y700D01*
X2177Y700D02*
X2227Y700D01*
X2277Y700D02*
X2327Y700D01*
X2377Y700D02*
X2427Y700D01*
X2477Y700D02*
X2528Y700D01*
X2577Y700D02*
X2627Y700D01*
X2677Y700D02*
X2727Y700D01*
X2777Y700D02*
X2827Y700D01*
X2877Y700D02*
X2927Y700D01*
X2977Y700D02*
X3027Y700D01*
X3077Y700D02*
X3127Y700D01*
X3177Y700D02*
X3227Y700D01*
X3277Y700D02*
X3327Y700D01*
X3377Y700D02*
X3427Y700D01*
X3477Y700D02*
X3527Y700D01*
X2078Y699D02*
X2127Y699D01*
X2178Y699D02*
X2227Y699D01*
X2278Y699D02*
X2327Y699D01*
X2378Y699D02*
X2427Y699D01*
X2477Y699D02*
X2527Y699D01*
X2578Y699D02*
X2627Y699D01*
X2678Y699D02*
X2727Y699D01*
X2778Y699D02*
X2827Y699D01*
X2878Y699D02*
X2927Y699D01*
X2978Y699D02*
X3027Y699D01*
X3078Y699D02*
X3127Y699D01*
X3178Y699D02*
X3227Y699D01*
X3278Y699D02*
X3327Y699D01*
X3378Y699D02*
X3427Y699D01*
X3478Y699D02*
X3527Y699D01*
X2078Y698D02*
X2127Y698D01*
X2178Y698D02*
X2227Y698D01*
X2278Y698D02*
X2327Y698D01*
X2378Y698D02*
X2427Y698D01*
X2478Y698D02*
X2527Y698D01*
X2578Y698D02*
X2627Y698D01*
X2678Y698D02*
X2727Y698D01*
X2778Y698D02*
X2827Y698D01*
X2878Y698D02*
X2927Y698D01*
X2978Y698D02*
X3027Y698D01*
X3078Y698D02*
X3127Y698D01*
X3178Y698D02*
X3227Y698D01*
X3278Y698D02*
X3327Y698D01*
X3378Y698D02*
X3427Y698D01*
X3478Y698D02*
X3527Y698D01*
X2078Y697D02*
X2127Y697D01*
X2178Y697D02*
X2227Y697D01*
X2278Y697D02*
X2327Y697D01*
X2378Y697D02*
X2427Y697D01*
X2478Y697D02*
X2527Y697D01*
X2578Y697D02*
X2627Y697D01*
X2678Y697D02*
X2727Y697D01*
X2778Y697D02*
X2827Y697D01*
X2878Y697D02*
X2927Y697D01*
X2978Y697D02*
X3027Y697D01*
X3078Y697D02*
X3127Y697D01*
X3178Y697D02*
X3227Y697D01*
X3278Y697D02*
X3327Y697D01*
X3378Y697D02*
X3427Y697D01*
X3478Y697D02*
X3527Y697D01*
X2079Y696D02*
X2126Y696D01*
X2179Y696D02*
X2226Y696D01*
X2279Y696D02*
X2326Y696D01*
X2379Y696D02*
X2426Y696D01*
X2478Y696D02*
X2527Y696D01*
X2579Y696D02*
X2626Y696D01*
X2679Y696D02*
X2726Y696D01*
X2779Y696D02*
X2826Y696D01*
X2879Y696D02*
X2926Y696D01*
X2979Y696D02*
X3026Y696D01*
X3079Y696D02*
X3126Y696D01*
X3179Y696D02*
X3226Y696D01*
X3279Y696D02*
X3326Y696D01*
X3379Y696D02*
X3426Y696D01*
X3479Y696D02*
X3526Y696D01*
X2079Y695D02*
X2126Y695D01*
X2179Y695D02*
X2226Y695D01*
X2279Y695D02*
X2326Y695D01*
X2379Y695D02*
X2426Y695D01*
X2479Y695D02*
X2526Y695D01*
X2579Y695D02*
X2626Y695D01*
X2679Y695D02*
X2726Y695D01*
X2779Y695D02*
X2826Y695D01*
X2879Y695D02*
X2926Y695D01*
X2979Y695D02*
X3026Y695D01*
X3079Y695D02*
X3126Y695D01*
X3179Y695D02*
X3226Y695D01*
X3279Y695D02*
X3326Y695D01*
X3379Y695D02*
X3426Y695D01*
X3479Y695D02*
X3526Y695D01*
X2079Y694D02*
X2125Y694D01*
X2179Y694D02*
X2225Y694D01*
X2279Y694D02*
X2325Y694D01*
X2379Y694D02*
X2425Y694D01*
X2479Y694D02*
X2526Y694D01*
X2579Y694D02*
X2625Y694D01*
X2679Y694D02*
X2725Y694D01*
X2779Y694D02*
X2825Y694D01*
X2879Y694D02*
X2925Y694D01*
X2979Y694D02*
X3025Y694D01*
X3079Y694D02*
X3125Y694D01*
X3179Y694D02*
X3225Y694D01*
X3279Y694D02*
X3325Y694D01*
X3379Y694D02*
X3425Y694D01*
X3479Y694D02*
X3525Y694D01*
X2080Y693D02*
X2125Y693D01*
X2180Y693D02*
X2225Y693D01*
X2280Y693D02*
X2325Y693D01*
X2380Y693D02*
X2425Y693D01*
X2479Y693D02*
X2525Y693D01*
X2580Y693D02*
X2625Y693D01*
X2680Y693D02*
X2725Y693D01*
X2780Y693D02*
X2825Y693D01*
X2880Y693D02*
X2925Y693D01*
X2980Y693D02*
X3025Y693D01*
X3080Y693D02*
X3125Y693D01*
X3180Y693D02*
X3225Y693D01*
X3280Y693D02*
X3325Y693D01*
X3380Y693D02*
X3425Y693D01*
X3480Y693D02*
X3525Y693D01*
X2081Y692D02*
X2124Y692D01*
X2181Y692D02*
X2224Y692D01*
X2281Y692D02*
X2324Y692D01*
X2381Y692D02*
X2424Y692D01*
X2480Y692D02*
X2525Y692D01*
X2581Y692D02*
X2624Y692D01*
X2681Y692D02*
X2724Y692D01*
X2781Y692D02*
X2824Y692D01*
X2881Y692D02*
X2924Y692D01*
X2981Y692D02*
X3024Y692D01*
X3081Y692D02*
X3124Y692D01*
X3181Y692D02*
X3224Y692D01*
X3281Y692D02*
X3324Y692D01*
X3381Y692D02*
X3424Y692D01*
X3481Y692D02*
X3524Y692D01*
X2081Y691D02*
X2124Y691D01*
X2181Y691D02*
X2224Y691D01*
X2281Y691D02*
X2324Y691D01*
X2381Y691D02*
X2424Y691D01*
X2481Y691D02*
X2524Y691D01*
X2581Y691D02*
X2624Y691D01*
X2681Y691D02*
X2724Y691D01*
X2781Y691D02*
X2824Y691D01*
X2881Y691D02*
X2924Y691D01*
X2981Y691D02*
X3024Y691D01*
X3081Y691D02*
X3124Y691D01*
X3181Y691D02*
X3224Y691D01*
X3281Y691D02*
X3324Y691D01*
X3381Y691D02*
X3424Y691D01*
X3481Y691D02*
X3524Y691D01*
X2082Y690D02*
X2123Y690D01*
X2182Y690D02*
X2223Y690D01*
X2282Y690D02*
X2323Y690D01*
X2382Y690D02*
X2423Y690D01*
X2481Y690D02*
X2524Y690D01*
X2582Y690D02*
X2623Y690D01*
X2682Y690D02*
X2723Y690D01*
X2782Y690D02*
X2823Y690D01*
X2882Y690D02*
X2923Y690D01*
X2982Y690D02*
X3023Y690D01*
X3082Y690D02*
X3123Y690D01*
X3182Y690D02*
X3223Y690D01*
X3282Y690D02*
X3323Y690D01*
X3382Y690D02*
X3423Y690D01*
X3482Y690D02*
X3523Y690D01*
X2083Y689D02*
X2122Y689D01*
X2183Y689D02*
X2222Y689D01*
X2283Y689D02*
X2322Y689D01*
X2383Y689D02*
X2422Y689D01*
X2482Y689D02*
X2523Y689D01*
X2583Y689D02*
X2622Y689D01*
X2683Y689D02*
X2722Y689D01*
X2783Y689D02*
X2822Y689D01*
X2883Y689D02*
X2922Y689D01*
X2983Y689D02*
X3022Y689D01*
X3083Y689D02*
X3122Y689D01*
X3183Y689D02*
X3222Y689D01*
X3283Y689D02*
X3322Y689D01*
X3383Y689D02*
X3422Y689D01*
X3483Y689D02*
X3522Y689D01*
X2083Y688D02*
X2121Y688D01*
X2183Y688D02*
X2221Y688D01*
X2283Y688D02*
X2321Y688D01*
X2383Y688D02*
X2421Y688D01*
X2483Y688D02*
X2522Y688D01*
X2583Y688D02*
X2621Y688D01*
X2683Y688D02*
X2721Y688D01*
X2783Y688D02*
X2821Y688D01*
X2883Y688D02*
X2921Y688D01*
X2983Y688D02*
X3021Y688D01*
X3083Y688D02*
X3121Y688D01*
X3183Y688D02*
X3221Y688D01*
X3283Y688D02*
X3321Y688D01*
X3383Y688D02*
X3421Y688D01*
X3483Y688D02*
X3521Y688D01*
X2084Y687D02*
X2121Y687D01*
X2184Y687D02*
X2221Y687D01*
X2284Y687D02*
X2321Y687D01*
X2384Y687D02*
X2421Y687D01*
X2483Y687D02*
X2521Y687D01*
X2584Y687D02*
X2621Y687D01*
X2684Y687D02*
X2721Y687D01*
X2784Y687D02*
X2821Y687D01*
X2884Y687D02*
X2921Y687D01*
X2984Y687D02*
X3021Y687D01*
X3084Y687D02*
X3121Y687D01*
X3184Y687D02*
X3221Y687D01*
X3284Y687D02*
X3321Y687D01*
X3384Y687D02*
X3421Y687D01*
X3484Y687D02*
X3521Y687D01*
X2085Y686D02*
X2120Y686D01*
X2185Y686D02*
X2220Y686D01*
X2285Y686D02*
X2320Y686D01*
X2385Y686D02*
X2420Y686D01*
X2484Y686D02*
X2521Y686D01*
X2585Y686D02*
X2620Y686D01*
X2685Y686D02*
X2720Y686D01*
X2785Y686D02*
X2820Y686D01*
X2885Y686D02*
X2920Y686D01*
X2985Y686D02*
X3020Y686D01*
X3085Y686D02*
X3120Y686D01*
X3185Y686D02*
X3220Y686D01*
X3285Y686D02*
X3320Y686D01*
X3385Y686D02*
X3420Y686D01*
X3485Y686D02*
X3520Y686D01*
X2087Y685D02*
X2118Y685D01*
X2187Y685D02*
X2218Y685D01*
X2287Y685D02*
X2318Y685D01*
X2387Y685D02*
X2418Y685D01*
X2485Y685D02*
X2520Y685D01*
X2587Y685D02*
X2618Y685D01*
X2687Y685D02*
X2718Y685D01*
X2787Y685D02*
X2818Y685D01*
X2887Y685D02*
X2918Y685D01*
X2987Y685D02*
X3018Y685D01*
X3087Y685D02*
X3118Y685D01*
X3187Y685D02*
X3218Y685D01*
X3287Y685D02*
X3318Y685D01*
X3387Y685D02*
X3418Y685D01*
X3487Y685D02*
X3518Y685D01*
X2088Y684D02*
X2117Y684D01*
X2188Y684D02*
X2217Y684D01*
X2288Y684D02*
X2317Y684D01*
X2388Y684D02*
X2417Y684D01*
X2486Y684D02*
X2518Y684D01*
X2588Y684D02*
X2617Y684D01*
X2688Y684D02*
X2717Y684D01*
X2788Y684D02*
X2817Y684D01*
X2888Y684D02*
X2917Y684D01*
X2988Y684D02*
X3017Y684D01*
X3088Y684D02*
X3117Y684D01*
X3188Y684D02*
X3217Y684D01*
X3288Y684D02*
X3317Y684D01*
X3388Y684D02*
X3417Y684D01*
X3488Y684D02*
X3517Y684D01*
X2089Y683D02*
X2116Y683D01*
X2189Y683D02*
X2216Y683D01*
X2289Y683D02*
X2316Y683D01*
X2389Y683D02*
X2416Y683D01*
X2488Y683D02*
X2517Y683D01*
X2589Y683D02*
X2616Y683D01*
X2689Y683D02*
X2716Y683D01*
X2789Y683D02*
X2816Y683D01*
X2889Y683D02*
X2916Y683D01*
X2989Y683D02*
X3016Y683D01*
X3089Y683D02*
X3116Y683D01*
X3189Y683D02*
X3216Y683D01*
X3289Y683D02*
X3316Y683D01*
X3389Y683D02*
X3416Y683D01*
X3489Y683D02*
X3516Y683D01*
X2091Y682D02*
X2114Y682D01*
X2191Y682D02*
X2214Y682D01*
X2291Y682D02*
X2314Y682D01*
X2391Y682D02*
X2414Y682D01*
X2489Y682D02*
X2516Y682D01*
X2591Y682D02*
X2614Y682D01*
X2691Y682D02*
X2714Y682D01*
X2791Y682D02*
X2814Y682D01*
X2891Y682D02*
X2914Y682D01*
X2991Y682D02*
X3014Y682D01*
X3091Y682D02*
X3114Y682D01*
X3191Y682D02*
X3214Y682D01*
X3291Y682D02*
X3314Y682D01*
X3391Y682D02*
X3414Y682D01*
X3491Y682D02*
X3514Y682D01*
X2093Y681D02*
X2112Y681D01*
X2193Y681D02*
X2212Y681D01*
X2293Y681D02*
X2312Y681D01*
X2393Y681D02*
X2412Y681D01*
X2491Y681D02*
X2514Y681D01*
X2593Y681D02*
X2612Y681D01*
X2693Y681D02*
X2712Y681D01*
X2793Y681D02*
X2812Y681D01*
X2893Y681D02*
X2912Y681D01*
X2993Y681D02*
X3012Y681D01*
X3093Y681D02*
X3112Y681D01*
X3193Y681D02*
X3212Y681D01*
X3293Y681D02*
X3312Y681D01*
X3393Y681D02*
X3412Y681D01*
X3493Y681D02*
X3512Y681D01*
X2096Y680D02*
X2109Y680D01*
X2196Y680D02*
X2209Y680D01*
X2296Y680D02*
X2309Y680D01*
X2396Y680D02*
X2409Y680D01*
X2493Y680D02*
X2512Y680D01*
X2596Y680D02*
X2609Y680D01*
X2696Y680D02*
X2709Y680D01*
X2796Y680D02*
X2809Y680D01*
X2896Y680D02*
X2909Y680D01*
X2996Y680D02*
X3009Y680D01*
X3096Y680D02*
X3109Y680D01*
X3196Y680D02*
X3209Y680D01*
X3296Y680D02*
X3309Y680D01*
X3396Y680D02*
X3409Y680D01*
X3496Y680D02*
X3509Y680D01*
X2496Y679D02*
X2509Y679D01*
D02*
G04 End of Copper1*
M02*