<?xml version='1.0' encoding='UTF-8' standalone='no'?>
<!-- Created with Fritzing (https://fritzing.org/) -->
<svg xmlns="http://www.w3.org/2000/svg" x="0in" xmlns:svg="http://www.w3.org/2000/svg" baseProfile="tiny" version="1.2" y="0in" width="2.75591in"  height="3.93701in" viewBox="0 0 198.425 283.465">
 <g transform="matrix(-1, 0, 0, 1, 198.425, 0)">
  <g partID="57831">
   <g transform="translate(198.425,283.465)">
    <g transform="matrix(-1,0,0,-1,0,0)">
     <g id="silkscreen">
      <rect stroke="black" x="0.288" stroke-width="0.576" width="197.849" y="0.288" fill="none" height="282.889"/>
     </g>
    </g>
   </g>
  </g>
  <g partID="57830">
   <g transform="translate(198.425,283.465)">
    <g transform="matrix(-1,0,0,-1,0,0)">
     <g id="board">
      <rect stroke="black" x="0.288" stroke-width="0.5" width="197.849" y="0.288" id="boardoutline" fill="none" fill-opacity="0.5" height="282.889"/>
     </g>
    </g>
   </g>
  </g>
  <g partID="57831">
   <g transform="translate(198.425,283.465)">
    <g transform="matrix(-1,0,0,-1,0,0)">
     <g id="silkscreen">
      <rect stroke="black" x="0.288" stroke-width="0.576" width="197.849" y="0.288" fill="none" height="282.889"/>
     </g>
    </g>
   </g>
  </g>
  <g partID="855306221">
   <g transform="translate(181.652,68.7277)">
    <g transform="matrix(0,1,-1,0,0,0)">
     <g id="silkscreen">
      <line stroke="black" x1="1.44" y2="23.04" stroke-width="0.72" y1="1.44" x2="1.44"/>
      <line stroke="black" x1="1.44" y2="23.04" stroke-width="0.72" y1="23.04" x2="8.64"/>
      <line stroke="black" x1="8.64" y2="1.44" stroke-width="0.72" y1="23.04" x2="8.64"/>
      <line stroke="black" x1="8.64" y2="1.44" stroke-width="0.72" y1="1.44" x2="1.44"/>
      <line stroke="black" x1="1.44" y2="1.44" stroke-width="0.36" y1="3.96" x2="3.96"/>
      <!-- 120 -->
     </g>
    </g>
   </g>
  </g>
  <g partID="855175441">
   <g transform="translate(46.7282,61.5787)">
    <g transform="matrix(0,1,-1,0,0,0)">
     <g gorn="0.3" id="silkscreen">
      <rect x="0.348171" stroke="black" stroke-width="0.696312" gorn="0.3.0" width="53.1619" y="0.348171" id="boardspace" fill="none" height="13.477"/>
     </g>
    </g>
   </g>
  </g>
  <g partID="855170621">
   <g transform="translate(46.7282,3.97868)">
    <g transform="matrix(0,1,-1,0,0,0)">
     <g gorn="0.3" id="silkscreen">
      <rect x="0.348171" stroke="black" stroke-width="0.696312" gorn="0.3.0" width="53.1619" y="0.348171" id="boardspace" fill="none" height="13.477"/>
     </g>
    </g>
   </g>
  </g>
  <g partID="855204281">
   <g transform="translate(144.955,147.196)">
    <g transform="matrix(-1,0,0,-1,0,0)">
     <g id="silkscreen">
      <line stroke-linejoin="miter" stroke="black" x1="80.5039" y2="147.336" stroke-dasharray="none" stroke-width="0.72" stroke-miterlimit="4" gorn="0.3.3" y1="147.336" id="line13530" x2="0.566929"/>
      <line stroke-linejoin="miter" stroke="black" x1="30.4067" y2="133.296" stroke-dasharray="none" stroke-width="0.72" stroke-miterlimit="4" gorn="0.3.8" y1="147.696" id="line80" x2="30.4067"/>
      <line stroke-linejoin="miter" stroke="black" x1="50.7112" y2="133.296" stroke-dasharray="none" stroke-width="0.72" stroke-miterlimit="4" gorn="0.3.9" y1="147.696" id="line82" x2="50.7112"/>
      <line stroke-linejoin="miter" stroke="black" x1="30.4067" y2="133.296" stroke-dasharray="none" stroke-width="0.72" stroke-miterlimit="4" gorn="0.3.10" y1="133.296" id="line84" x2="50.5672"/>
      <circle stroke="black" stroke-width="0.72" gorn="0.4.0.58" cy="141.756" cx="5.94" r="3.348" id="circle216" fill="none"/>
      <circle stroke="black" stroke-width="0.72" cx="73.692" cy="141.756" gorn="0.4.0.58" r="3.348" id="circle218" fill="none"/>
      <line stroke-linejoin="miter" stroke="black" x1="0.36" y2="0.436534" stroke-dasharray="none" stroke-width="0.72" stroke-miterlimit="4" gorn="0.3.0" y1="147.271" id="line13522" x2="0.36"/>
      <line stroke-linejoin="miter" stroke="black" x1="80.5805" y2="147.271" stroke-dasharray="none" stroke-width="0.72" stroke-miterlimit="4" gorn="0.3.2" y1="0.436542" id="line13526" x2="80.5805"/>
      <line stroke-linejoin="miter" stroke="black" x1="0.566929" y2="0.36" stroke-dasharray="none" stroke-width="0.72" stroke-miterlimit="4" gorn="0.3.1" y1="0.36" id="line13524" x2="80.5039"/>
      <circle stroke="black" stroke-width="0.72" gorn="0.4.0.58" cy="7.18838" cx="5.94" r="3.348" id="circle222" fill="none"/>
      <circle stroke="black" stroke-width="0.72" cx="73.692" cy="7.18838" gorn="0.4.0.58" r="3.348" id="circle220" fill="none"/>
      <g transform="rotate(-90)">
       <text x="-119.575" gorn="0.3.7" y="70.1068" id="text3372" font-family="'Droid Sans'" fill="black" font-size="3.6">3V3</text>
      </g>
     </g>
    </g>
   </g>
  </g>
  <g partID="855175421">
   <g transform="translate(46.7282,119.179)">
    <g transform="matrix(0,1,-1,0,0,0)">
     <g gorn="0.3" id="silkscreen">
      <rect x="0.348171" stroke="black" stroke-width="0.696312" gorn="0.3.0" width="53.1619" y="0.348171" id="boardspace" fill="none" height="13.477"/>
     </g>
    </g>
   </g>
  </g>
  <g partID="855167241">
   <g transform="translate(181.652,54.3277)">
    <g transform="matrix(0,1,-1,0,0,0)">
     <g id="silkscreen">
      <line stroke="black" x1="1.44" y2="23.04" stroke-width="0.72" y1="1.44" x2="1.44"/>
      <line stroke="black" x1="1.44" y2="23.04" stroke-width="0.72" y1="23.04" x2="8.64"/>
      <line stroke="black" x1="8.64" y2="1.44" stroke-width="0.72" y1="23.04" x2="8.64"/>
      <line stroke="black" x1="8.64" y2="1.44" stroke-width="0.72" y1="1.44" x2="1.44"/>
      <line stroke="black" x1="1.44" y2="1.44" stroke-width="0.36" y1="3.96" x2="3.96"/>
      <!-- 120 -->
     </g>
    </g>
   </g>
  </g>
  <g partID="855119271">
   <g transform="translate(82.2016,175.222)">
    <g transform="matrix(0,1,-1,0,0,0)">
     <g gorn="0.1" id="silkscreen">
      <g transform="matrix(1, 0, 0, 1, 24.9894, 12.7085)">
       <g>
        <g>
         <text font-family="DroidSans" fill="black" font-size="2.99999">GND</text>
        </g>
       </g>
      </g>
      <g transform="matrix(1, 0, 0, 1, 32.442, 12.7085)">
       <g>
        <g>
         <text font-family="DroidSans" fill="black" font-size="2.99999">VDD</text>
        </g>
       </g>
      </g>
      <g transform="matrix(1, 0, 0, 1, 39.9957, 12.7085)">
       <g>
        <g>
         <text font-family="DroidSans" fill="black" font-size="2.99999">SCK</text>
        </g>
       </g>
      </g>
      <g transform="matrix(1, 0, 0, 1, 47.0308, 12.7085)">
       <g>
        <g>
         <text font-family="DroidSans" fill="black" font-size="2.99999">SDA</text>
        </g>
       </g>
      </g>
      <line x1="77.2557" stroke="black" y2="77.2798" stroke-width="0.749997" y1="0.719998" fill="none" x2="77.2557"/>
      <line x1="0.719997" stroke="black" y2="0.719998" stroke-width="0.749997" y1="0.719998" fill="none" x2="77.2557"/>
      <line x1="0.719997" stroke="black" y2="77.2798" stroke-width="0.749997" y1="0.719998" fill="none" x2="0.719997"/>
      <line x1="0.719997" stroke="black" y2="77.2798" stroke-width="0.749997" y1="77.2798" fill="none" x2="77.2557"/>
     </g>
    </g>
   </g>
  </g>
  <g partID="855316331">
   <g transform="translate(144.197,255.244)">
    <g transform="matrix(-1,0,0,-1,0,0)">
     <g gorn="0.2" id="silkscreen">
      <path stroke="black" stroke-width="0.576" d="M57.3273,7.42399L57.3273,57.3766A6.912,6.912,0,0,1,50.1993,64.5126L7.416,64.5126A6.912,6.912,0,0,1,0.288,57.3766L0.288,7.42399A6.912,6.912,0,0,1,7.416,0.288L50.1993,0.288A6.912,6.912,0,0,1,57.3273,7.42399" fill="none"/>
      <line stroke="black" x1="30.9458" y2="64.1163" stroke-width="0.72" stroke-linecap="round" y1="62.6763" x2="32.3858"/>
      <line stroke="black" x1="32.3858" y2="62.6763" stroke-width="0.72" stroke-linecap="round" y1="64.1163" x2="33.8258"/>
      <line stroke="black" x1="33.8258" y2="62.6763" stroke-width="0.72" stroke-linecap="round" y1="62.6763" x2="30.9458"/>
      <line stroke="black" x1="39.5858" y2="64.1163" stroke-width="0.72" stroke-linecap="round" y1="62.6763" x2="38.1458"/>
      <line stroke="black" x1="38.1458" y2="64.1163" stroke-width="0.72" stroke-linecap="round" y1="64.1163" x2="41.0258"/>
      <line stroke="black" x1="41.0258" y2="62.6763" stroke-width="0.72" stroke-linecap="round" y1="64.1163" x2="39.5858"/>
      <line stroke="black" x1="45.3458" y2="64.1163" stroke-width="0.72" stroke-linecap="round" y1="64.1163" x2="48.2258"/>
      <line stroke="black" x1="48.2258" y2="62.6763" stroke-width="0.72" stroke-linecap="round" y1="64.1163" x2="46.7858"/>
      <line stroke="black" x1="46.7858" y2="64.1163" stroke-width="0.72" stroke-linecap="round" y1="62.6763" x2="45.3458"/>
      <line stroke="black" x1="9.34583" y2="64.1163" stroke-width="0.72" stroke-linecap="round" y1="64.1163" x2="12.2258"/>
      <line stroke="black" x1="12.2258" y2="62.6763" stroke-width="0.72" stroke-linecap="round" y1="64.1163" x2="10.7858"/>
      <line stroke="black" x1="10.7858" y2="64.1163" stroke-width="0.72" stroke-linecap="round" y1="62.6763" x2="9.34583"/>
      <line stroke="black" x1="23.7458" y2="64.1163" stroke-width="0.72" stroke-linecap="round" y1="64.1163" x2="26.6258"/>
      <line stroke="black" x1="26.6258" y2="62.6763" stroke-width="0.72" stroke-linecap="round" y1="64.1163" x2="25.1858"/>
      <line stroke="black" x1="25.1858" y2="64.1163" stroke-width="0.72" stroke-linecap="round" y1="62.6763" x2="23.7458"/>
      <line stroke="black" x1="16.5458" y2="64.1163" stroke-width="0.72" stroke-linecap="round" y1="62.6763" x2="17.9858"/>
      <line stroke="black" x1="17.9858" y2="62.6763" stroke-width="0.72" stroke-linecap="round" y1="64.1163" x2="19.4258"/>
      <line stroke="black" x1="19.4258" y2="62.6763" stroke-width="0.72" stroke-linecap="round" y1="62.6763" x2="16.5458"/>
      <g>
       <title>element:IC1</title>
       <g>
        <title>package:SO08</title>
        <line stroke="black" x1="34.3298" y2="29.9163" stroke-width="0.432" stroke-linecap="round" y1="42.1563" x2="34.3298"/>
        <path stroke="black" stroke-width="0.432" d="M23.2418,42.1563A1.08,1.08,0,0,0,24.3218,43.2363" fill="none"/>
        <path stroke="black" stroke-width="0.432" d="M34.3298,29.9163A1.08,1.08,0,0,0,33.2498,28.8363" fill="none"/>
        <path stroke="black" stroke-width="0.432" d="M33.2498,43.2363A1.08,1.08,0,0,0,34.3298,42.1563" fill="none"/>
        <path stroke="black" stroke-width="0.432" d="M24.3218,28.8363A1.08,1.08,0,0,0,23.2418,29.9163" fill="none"/>
        <line stroke="black" x1="23.2418" y2="42.1563" stroke-width="0.432" stroke-linecap="round" y1="29.9163" x2="23.2418"/>
        <line stroke="black" x1="24.3218" y2="43.2363" stroke-width="0.432" stroke-linecap="round" y1="43.2363" x2="33.2498"/>
        <line stroke="black" x1="33.2498" y2="28.8363" stroke-width="0.432" stroke-linecap="round" y1="28.8363" x2="24.3218"/>
        <path stroke="black" stroke-width="0.432" d="M27.3458,28.8363A1.44,1.44,0,1,0,30.2258,28.8363" fill="none"/>
        <line stroke="black" x1="24.2498" y2="43.2363" stroke-width="0.144" stroke-linecap="round" y1="28.8363" x2="24.2498"/>
       </g>
      </g>
      <g>
       <title>element:J2</title>
       <g>
        <title>package:1X2-3.5MM</title>
        <line stroke="black" x1="38.4236" y2="4.60007" stroke-width="0.36" stroke-linecap="round" y1="20.4741" x2="38.4236"/>
        <line stroke="black" x1="38.4236" y2="0.631559" stroke-width="0.36" stroke-linecap="round" y1="4.60007" x2="38.4236"/>
        <line stroke="black" x1="38.4236" y2="0.631559" stroke-width="0.36" stroke-linecap="round" y1="0.631559" x2="18.5811"/>
        <line stroke="black" x1="18.5811" y2="4.60007" stroke-width="0.36" stroke-linecap="round" y1="0.631559" x2="18.5811"/>
        <line stroke="black" x1="18.5811" y2="20.4741" stroke-width="0.36" stroke-linecap="round" y1="4.60007" x2="18.5811"/>
        <line stroke="black" x1="18.5811" y2="20.4741" stroke-width="0.36" stroke-linecap="round" y1="20.4741" x2="38.4236"/>
        <line stroke="black" x1="38.4236" y2="4.60007" stroke-width="0.36" stroke-linecap="round" y1="4.60007" x2="18.5811"/>
       </g>
      </g>
      <g>
       <title>element:JP1</title>
       <g>
        <title>package:1X06_ROUND_76</title>
       </g>
      </g>
     </g>
    </g>
   </g>
  </g>
  <g partID="855167201">
   <g transform="translate(181.652,39.9277)">
    <g transform="matrix(0,1,-1,0,0,0)">
     <g id="silkscreen">
      <line stroke="black" x1="1.44" y2="23.04" stroke-width="0.72" y1="1.44" x2="1.44"/>
      <line stroke="black" x1="1.44" y2="23.04" stroke-width="0.72" y1="23.04" x2="8.64"/>
      <line stroke="black" x1="8.64" y2="1.44" stroke-width="0.72" y1="23.04" x2="8.64"/>
      <line stroke="black" x1="8.64" y2="1.44" stroke-width="0.72" y1="1.44" x2="1.44"/>
      <line stroke="black" x1="1.44" y2="1.44" stroke-width="0.36" y1="3.96" x2="3.96"/>
      <!-- 120 -->
     </g>
    </g>
   </g>
  </g>
  <g partID="855141411">
   <g transform="translate(77.9716,165.208)">
    <g transform="matrix(0,-1,1,0,0,0)">
     <g id="silkscreen">
      <line stroke="black" x1="1.44" y2="59.04" stroke-width="0.72" y1="1.44" x2="1.44"/>
      <line stroke="black" x1="1.44" y2="59.04" stroke-width="0.72" y1="59.04" x2="8.64"/>
      <line stroke="black" x1="8.64" y2="1.44" stroke-width="0.72" y1="59.04" x2="8.64"/>
      <line stroke="black" x1="8.64" y2="1.44" stroke-width="0.72" y1="1.44" x2="1.44"/>
      <line stroke="black" x1="1.44" y2="1.44" stroke-width="0.36" y1="3.96" x2="3.96"/>
      <!-- 120 -->
     </g>
    </g>
   </g>
  </g>
  <g partID="855330971">
   <g transform="translate(30.4516,25.5277)">
    <g transform="matrix(0,1,-1,0,0,0)">
     <g id="silkscreen">
      <line stroke="black" x1="1.44" y2="8.64" stroke-width="0.72" y1="1.44" x2="1.44"/>
      <line stroke="black" x1="1.44" y2="8.64" stroke-width="0.72" y1="8.64" x2="8.64"/>
      <line stroke="black" x1="8.64" y2="1.44" stroke-width="0.72" y1="8.64" x2="8.64"/>
      <line stroke="black" x1="8.64" y2="1.44" stroke-width="0.72" y1="1.44" x2="1.44"/>
      <line stroke="black" x1="1.44" y2="1.44" stroke-width="0.36" y1="3.96" x2="3.96"/>
      <!-- 120 -->
     </g>
    </g>
   </g>
  </g>
  <g partID="855331861">
   <g transform="translate(30.4516,54.3277)">
    <g transform="matrix(0,1,-1,0,0,0)">
     <g id="silkscreen">
      <line stroke="black" x1="1.44" y2="8.64" stroke-width="0.72" y1="1.44" x2="1.44"/>
      <line stroke="black" x1="1.44" y2="8.64" stroke-width="0.72" y1="8.64" x2="8.64"/>
      <line stroke="black" x1="8.64" y2="1.44" stroke-width="0.72" y1="8.64" x2="8.64"/>
      <line stroke="black" x1="8.64" y2="1.44" stroke-width="0.72" y1="1.44" x2="1.44"/>
      <line stroke="black" x1="1.44" y2="1.44" stroke-width="0.36" y1="3.96" x2="3.96"/>
      <!-- 120 -->
     </g>
    </g>
   </g>
  </g>
  <g partID="855332741">
   <g transform="translate(30.4516,111.928)">
    <g transform="matrix(0,1,-1,0,0,0)">
     <g id="silkscreen">
      <line stroke="black" x1="1.44" y2="8.64" stroke-width="0.72" y1="1.44" x2="1.44"/>
      <line stroke="black" x1="1.44" y2="8.64" stroke-width="0.72" y1="8.64" x2="8.64"/>
      <line stroke="black" x1="8.64" y2="1.44" stroke-width="0.72" y1="8.64" x2="8.64"/>
      <line stroke="black" x1="8.64" y2="1.44" stroke-width="0.72" y1="1.44" x2="1.44"/>
      <line stroke="black" x1="1.44" y2="1.44" stroke-width="0.36" y1="3.96" x2="3.96"/>
      <!-- 120 -->
     </g>
    </g>
   </g>
  </g>
  <g partID="855336481">
   <g transform="translate(30.4516,75.9277)">
    <g transform="matrix(0,1,-1,0,0,0)">
     <g id="silkscreen">
      <line stroke="black" x1="1.44" y2="8.64" stroke-width="0.72" y1="1.44" x2="1.44"/>
      <line stroke="black" x1="1.44" y2="8.64" stroke-width="0.72" y1="8.64" x2="8.64"/>
      <line stroke="black" x1="8.64" y2="1.44" stroke-width="0.72" y1="8.64" x2="8.64"/>
      <line stroke="black" x1="8.64" y2="1.44" stroke-width="0.72" y1="1.44" x2="1.44"/>
      <line stroke="black" x1="1.44" y2="1.44" stroke-width="0.36" y1="3.96" x2="3.96"/>
      <!-- 120 -->
     </g>
    </g>
   </g>
  </g>
  <g partID="855119270" id="partLabel">
   <g transform="translate(82.1901,169.61)">
    <g stroke="none" font-weight="normal" font-style="normal" font-family="'OCRA'" id="silkscreenLabel" fill="#000000" font-size="5" fill-opacity="1">
     <text x="0" y="3.75">OLED1</text>
    </g>
   </g>
  </g>
  <g partID="855204280" id="partLabel">
   <g transform="translate(64.014,152.796)">
    <g transform="matrix(-1,0,0,-1,0,0)">
     <g stroke="none" font-weight="normal" font-style="normal" font-family="'OCRA'" id="silkscreenLabel" fill="#000000" font-size="5" fill-opacity="1">
      <text x="0" y="3.75">M1</text>
     </g>
    </g>
   </g>
  </g>
  <g partID="855170620" id="partLabel">
   <g transform="translate(43.9282,60.6369)">
    <g stroke="none" font-weight="normal" font-style="normal" font-family="'OCRA'" id="silkscreenLabel" fill="#000000" font-size="5" fill-opacity="1">
     <text x="0" y="3.75">fan</text>
    </g>
   </g>
  </g>
  <g partID="855175440" id="partLabel">
   <g transform="translate(43.9282,118.237)">
    <g stroke="none" font-weight="normal" font-style="normal" font-family="'OCRA'" id="silkscreenLabel" fill="#000000" font-size="5" fill-opacity="1">
     <text x="0" y="3.75">RE3</text>
    </g>
   </g>
  </g>
  <g partID="855141410" id="partLabel">
   <g transform="translate(74.6964,157.452)">
    <g transform="matrix(0,-1,1,0,0,0)">
     <g stroke="none" font-weight="normal" font-style="normal" font-family="'OCRA'" id="silkscreenLabel" fill="#000000" font-size="5" fill-opacity="1">
      <text x="0" y="3.75">ExtruderMotor</text>
     </g>
    </g>
   </g>
  </g>
  <g partID="855175420" id="partLabel">
   <g transform="translate(52.3282,173.037)">
    <g transform="matrix(0,1,-1,0,0,0)">
     <g stroke="none" font-weight="normal" font-style="normal" font-family="'OCRA'" id="silkscreenLabel" fill="#000000" font-size="5" fill-opacity="1">
      <text x="0" y="3.75">temp</text>
     </g>
    </g>
   </g>
  </g>
  <g partID="855167240" id="partLabel">
   <g transform="translate(174.452,41.5277)">
    <g stroke="none" font-weight="normal" font-style="normal" font-family="'OCRA'" id="silkscreenLabel" fill="#000000" font-size="5" fill-opacity="1">
     <text x="0" y="3.75">tempOut</text>
    </g>
   </g>
  </g>
  <g partID="855306220" id="partLabel">
   <g transform="translate(174.452,55.9277)">
    <g stroke="none" font-weight="normal" font-style="normal" font-family="'OCRA'" id="silkscreenLabel" fill="#000000" font-size="5" fill-opacity="1">
     <text x="0" y="3.75">robot</text>
    </g>
   </g>
  </g>
  <g partID="855167200" id="partLabel">
   <g transform="translate(174.452,27.1277)">
    <g stroke="none" font-weight="normal" font-style="normal" font-family="'OCRA'" id="silkscreenLabel" fill="#000000" font-size="5" fill-opacity="1">
     <text x="0" y="3.75">fan</text>
    </g>
   </g>
  </g>
  <g partID="855316330" id="partLabel">
   <g transform="translate(86.5821,260.844)">
    <g transform="matrix(-1,0,0,-1,0,0)">
     <g stroke="none" font-weight="normal" font-style="normal" font-family="'OCRA'" id="silkscreenLabel" fill="#000000" font-size="5" fill-opacity="1">
      <text x="0" y="3.75">Part1</text>
     </g>
    </g>
   </g>
  </g>
  <g partID="855330970" id="partLabel">
   <g transform="translate(30.4516,19.9277)">
    <g stroke="none" font-weight="normal" font-style="normal" font-family="'OCRA'" id="silkscreenLabel" fill="#000000" font-size="5" fill-opacity="1">
     <text x="0" y="3.75">jumper</text>
    </g>
   </g>
  </g>
  <g partID="855331860" id="partLabel">
   <g transform="translate(30.4516,48.7277)">
    <g stroke="none" font-weight="normal" font-style="normal" font-family="'OCRA'" id="silkscreenLabel" fill="#000000" font-size="5" fill-opacity="1">
     <text x="0" y="3.75">jumper1</text>
    </g>
   </g>
  </g>
  <g partID="855336480" id="partLabel">
   <g transform="translate(30.4516,70.3277)">
    <g stroke="none" font-weight="normal" font-style="normal" font-family="'OCRA'" id="silkscreenLabel" fill="#000000" font-size="5" fill-opacity="1">
     <text x="0" y="3.75">jumper3</text>
    </g>
   </g>
  </g>
  <g partID="855332740" id="partLabel">
   <g transform="translate(30.4516,106.328)">
    <g stroke="none" font-weight="normal" font-style="normal" font-family="'OCRA'" id="silkscreenLabel" fill="#000000" font-size="5" fill-opacity="1">
     <text x="0" y="3.75">jumper2</text>
    </g>
   </g>
  </g>
  <g partID="855306222">
   <g transform="translate(181.652,68.7277)">
    <g transform="matrix(0,1,-1,0,0,0)">
     <g id="copper1">
      <g id="copper0">
       <circle stroke="white" stroke-width="2.16" cx="5.04" cy="5.04" r="2.088" id="connector0pin" fill="white"/>
       <circle stroke="white" stroke-width="2.16" cx="5.04" cy="12.24" r="2.088" id="connector1pin" fill="white"/>
       <circle stroke="white" stroke-width="2.16" cx="5.04" cy="19.44" r="2.088" id="connector2pin" fill="white"/>
      </g>
     </g>
    </g>
   </g>
  </g>
  <g partID="855175442">
   <g transform="translate(46.7282,61.5787)">
    <g transform="matrix(0,1,-1,0,0,0)">
     <g gorn="0.4" id="copper1">
      <g gorn="0.4.0" id="copper0">
       <circle stroke="white" stroke-width="2.16" gorn="0.4.0.0" cy="28.5165" cx="48.189" r="2.088" id="connector4pin" fill="white"/>
       <circle stroke="white" stroke-width="2.16" gorn="0.4.0.1" cy="28.5165" cx="40.989" r="2.088" id="connector3pin" fill="white"/>
       <circle stroke="white" stroke-width="2.16" gorn="0.4.0.2" cy="28.5165" cx="33.789" r="2.088" id="connector2pad" fill="white"/>
       <circle stroke="white" stroke-width="2.16" gorn="0.4.0.3" cy="28.5165" cx="26.589" r="2.088" id="connector1pad" fill="white"/>
       <rect x="17.301" stroke="white" stroke-width="2.16" gorn="0.4.0.4" width="4.176" y="26.4285" id="groundconn" fill="white" height="4.176"/>
       <circle stroke="white" stroke-width="2.16" gorn="0.4.0.5" cy="28.5165" cx="19.389" r="2.088" id="connector0pad" fill="white"/>
      </g>
     </g>
    </g>
   </g>
  </g>
  <g partID="855170622">
   <g transform="translate(46.7282,3.97868)">
    <g transform="matrix(0,1,-1,0,0,0)">
     <g gorn="0.4" id="copper1">
      <g gorn="0.4.0" id="copper0">
       <circle stroke="white" stroke-width="2.16" gorn="0.4.0.0" cy="28.5165" cx="48.189" r="2.088" id="connector4pin" fill="white"/>
       <circle stroke="white" stroke-width="2.16" gorn="0.4.0.1" cy="28.5165" cx="40.989" r="2.088" id="connector3pin" fill="white"/>
       <circle stroke="white" stroke-width="2.16" gorn="0.4.0.2" cy="28.5165" cx="33.789" r="2.088" id="connector2pad" fill="white"/>
       <circle stroke="white" stroke-width="2.16" gorn="0.4.0.3" cy="28.5165" cx="26.589" r="2.088" id="connector1pad" fill="white"/>
       <rect x="17.301" stroke="white" stroke-width="2.16" gorn="0.4.0.4" width="4.176" y="26.4285" id="groundconn" fill="white" height="4.176"/>
       <circle stroke="white" stroke-width="2.16" gorn="0.4.0.5" cy="28.5165" cx="19.389" r="2.088" id="connector0pad" fill="white"/>
      </g>
     </g>
    </g>
   </g>
  </g>
  <g partID="855204282">
   <g transform="translate(144.955,147.196)">
    <g transform="matrix(-1,0,0,-1,0,0)">
     <g id="copper1">
      <g id="copper0">
       <circle stroke="white" stroke-width="1.224" gorn="0.4.0.0" cy="116.628" cx="76.3427" r="1.62" id="connector0pin" fill="white"/>
       <path stroke="white" stroke-width="1.43963" gorn="0.4.0.1" d="m80.0049,116.629a1.87105,1.87105,0,0,1,-1.87105,1.87108l-3.7421,0a1.87105,1.87105,0,0,1,-1.87105,-1.87108l0,0a1.87105,1.87105,0,0,1,1.87105,-1.87108l3.7421,0a1.87105,1.87105,0,0,1,1.87105,1.87108zm-3.79649,-1.14761a1.15148,1.15148,0,1,0,0,2.30296,1.15148,1.15148,0,1,0,0,-2.30296z" id="path423" fill="white"/>
       <circle stroke="white" stroke-width="1.224" gorn="0.4.0.2" cy="109.428" cx="76.3427" r="1.62" id="connector1pin" fill="white"/>
       <path stroke="white" stroke-width="1.43963" gorn="0.4.0.3" d="m80.0107,109.429a1.87105,1.87105,0,0,1,-1.87105,1.87108l-3.7421,0a1.87105,1.87105,0,0,1,-1.87105,-1.87108l0,0a1.87105,1.87105,0,0,1,1.87105,-1.87108l3.7421,0a1.87105,1.87105,0,0,1,1.87105,1.87108zm-3.79649,-1.14732a1.15142,1.15142,0,1,0,0,2.30266,1.15142,1.15142,0,1,0,0,-2.30266z" id="path467" fill="white"/>
       <circle stroke="white" stroke-width="1.224" gorn="0.4.0.4" cy="102.228" cx="76.3427" r="1.62" id="connector2pin" fill="white"/>
       <path stroke="white" stroke-width="1.43963" gorn="0.4.0.5" d="m80.015,102.229a1.872,1.87105,0,0,1,-1.872,1.87108l-3.744,0a1.872,1.87105,0,0,1,-1.872,-1.87108l0,0a1.872,1.87105,0,0,1,1.872,-1.87108l3.744,0a1.872,1.87105,0,0,1,1.872,1.87108zm-3.79842,-1.14761a1.152,1.15142,0,1,0,0,2.30267,1.152,1.15142,0,1,0,0,-2.30267z" id="path13574-4" fill="white"/>
       <circle stroke="white" stroke-width="1.224" gorn="0.4.0.6" cy="95.0281" cx="76.3427" r="1.62" id="connector3pin" fill="white"/>
       <path stroke="white" stroke-width="1.43963" gorn="0.4.0.7" d="m80.0107,95.0292a1.87105,1.87105,0,0,1,-1.87105,1.87108l-3.7421,0a1.87105,1.87105,0,0,1,-1.87105,-1.87108l0,0a1.87105,1.87105,0,0,1,1.87105,-1.87108l3.7421,0a1.87105,1.87105,0,0,1,1.87105,1.87108zm-3.79649,-1.14733a1.15142,1.15142,0,1,0,0,2.30267,1.15142,1.15142,0,1,0,0,-2.30267z" id="path461" fill="white"/>
       <circle stroke="white" stroke-width="1.224" gorn="0.4.0.8" cy="87.8281" cx="76.3427" r="1.62" id="connector4pin" fill="white"/>
       <path stroke="white" stroke-width="1.43963" gorn="0.4.0.9" d="m80.015,87.8292a1.872,1.87105,0,0,1,-1.872,1.87108l-3.744,0a1.872,1.87105,0,0,1,-1.872,-1.87108l0,0a1.872,1.87105,0,0,1,1.872,-1.87108l3.744,0a1.872,1.87105,0,0,1,1.872,1.87108zm-3.79842,-1.14732a1.15206,1.15148,0,1,0,0,2.30296,1.15206,1.15148,0,1,0,0,-2.30296z" id="path459" fill="white"/>
       <circle stroke="white" stroke-width="1.224" gorn="0.4.0.10" cy="80.6281" cx="76.3427" r="1.62" id="connector5pin" fill="white"/>
       <path stroke="white" stroke-width="1.43963" gorn="0.4.0.11" d="m80.0107,80.6292a1.87105,1.87105,0,0,1,-1.87105,1.87108l-3.7421,0a1.87105,1.87105,0,0,1,-1.87105,-1.87108l0,0a1.87105,1.87105,0,0,1,1.87105,-1.87108l3.7421,0a1.87105,1.87105,0,0,1,1.87105,1.87108zm-3.79649,-1.14732a1.15148,1.15148,0,1,0,0,2.30296,1.15148,1.15148,0,1,0,0,-2.30296z" id="path479" fill="white"/>
       <circle stroke="white" stroke-width="1.224" gorn="0.4.0.12" cy="73.4281" cx="76.3427" r="1.62" id="connector6pin" fill="white"/>
       <path stroke="white" stroke-width="1.43963" gorn="0.4.0.13" d="m80.0107,73.4292a1.87105,1.87105,0,0,1,-1.87105,1.87108l-3.7421,0a1.87105,1.87105,0,0,1,-1.87105,-1.87108l0,0a1.87105,1.87105,0,0,1,1.87105,-1.87108l3.7421,0a1.87105,1.87105,0,0,1,1.87105,1.87108zm-3.79649,-1.14732a1.15148,1.15148,0,1,0,0,2.30296,1.15148,1.15148,0,1,0,0,-2.30296z" id="path481" fill="white"/>
       <circle stroke="white" stroke-width="1.224" gorn="0.4.0.14" cy="66.2281" cx="76.3427" r="1.62" id="connector7pin" fill="white"/>
       <path stroke="white" stroke-width="1.43963" gorn="0.4.0.15" d="m80.015,66.229a1.872,1.87105,0,0,1,-1.872,1.87108l-3.744,0a1.872,1.87105,0,0,1,-1.87201,-1.87108l0,0a1.872,1.87105,0,0,1,1.87201,-1.87079l3.744,0a1.872,1.87105,0,0,1,1.872,1.87079zm-3.79843,-1.14733a1.15207,1.15149,0,1,0,0,2.30297,1.15207,1.15149,0,1,0,0,-2.30297z" id="path485" fill="white"/>
       <circle stroke="white" stroke-width="1.224" gorn="0.4.0.16" cy="59.0281" cx="76.3427" r="1.62" id="connector8pin" fill="white"/>
       <path stroke="white" stroke-width="1.43963" gorn="0.4.0.17" d="m80.0107,59.0293a1.87105,1.87105,0,0,1,-1.87105,1.87078l-3.7421,0a1.87105,1.87105,0,0,1,-1.87106,-1.87078l0,0a1.87105,1.87105,0,0,1,1.87106,-1.87108l3.7421,0a1.87105,1.87105,0,0,1,1.87105,1.87108zm-3.7965,-1.14761a1.15148,1.15148,0,1,0,0,2.30296,1.15148,1.15148,0,1,0,0,-2.30296z" id="path483" fill="white"/>
       <circle stroke="white" stroke-width="1.224" gorn="0.4.0.18" cy="51.8281" cx="76.3427" r="1.62" id="connector9pin" fill="white"/>
       <path stroke="white" stroke-width="1.43963" gorn="0.4.0.19" d="m80.0107,51.829a1.87105,1.87105,0,0,1,-1.87105,1.87108l-3.7421,0a1.87105,1.87105,0,0,1,-1.87106,-1.87108l0,0a1.87105,1.87105,0,0,1,1.87106,-1.87108l3.7421,0a1.87105,1.87105,0,0,1,1.87105,1.87108zm-3.7965,-1.14761a1.15148,1.15148,0,1,0,0,2.30296,1.15148,1.15148,0,1,0,0,-2.30296z" id="path469" fill="white"/>
       <circle stroke="white" stroke-width="1.224" gorn="0.4.0.20" cy="44.6281" cx="76.3427" r="1.62" id="connector10pin" fill="white"/>
       <path stroke="white" stroke-width="1.43963" gorn="0.4.0.21" d="m80.0107,44.629a1.87105,1.87105,0,0,1,-1.87105,1.87108l-3.7421,0a1.87105,1.87105,0,0,1,-1.87106,-1.87108l0,0a1.87105,1.87105,0,0,1,1.87106,-1.87108l3.7421,0a1.87105,1.87105,0,0,1,1.87105,1.87108zm-3.7965,-1.14761a1.15148,1.15148,0,1,0,0,2.30296,1.15148,1.15148,0,1,0,0,-2.30296z" id="path457" fill="white"/>
       <circle stroke="white" stroke-width="1.224" gorn="0.4.0.22" cy="37.4281" cx="76.3427" r="1.62" id="connector11pin" fill="white"/>
       <path stroke="white" stroke-width="1.43963" gorn="0.4.0.23" d="m80.015,37.429a1.872,1.87105,0,0,1,-1.872,1.87108l-3.744,0a1.872,1.87105,0,0,1,-1.87201,-1.87108l0,0a1.872,1.87105,0,0,1,1.87201,-1.87108l3.744,0a1.872,1.87105,0,0,1,1.872,1.87108zm-3.79843,-1.14732a1.152,1.15142,0,1,0,0,2.30237,1.152,1.15142,0,1,0,0,-2.30237z" id="path477" fill="white"/>
       <circle stroke="white" stroke-width="1.224" gorn="0.4.0.24" cy="30.2281" cx="76.3427" r="1.62" id="connector12pin" fill="white"/>
       <path stroke="white" stroke-width="1.43963" gorn="0.4.0.25" d="m80.0107,30.229a1.87105,1.87105,0,0,1,-1.87105,1.87108l-3.7421,0a1.87105,1.87105,0,0,1,-1.87106,-1.87108l0,0a1.87105,1.87105,0,0,1,1.87106,-1.87108l3.7421,0a1.87105,1.87105,0,0,1,1.87105,1.87108zm-3.7965,-1.14732a1.15142,1.15142,0,1,0,0,2.30267,1.15142,1.15142,0,1,0,0,-2.30267z" id="path475" fill="white"/>
       <circle stroke="white" stroke-width="1.224" gorn="0.4.0.26" cy="23.0281" cx="76.3427" r="1.62" id="connector13pin" fill="white"/>
       <path stroke="white" stroke-width="1.43963" gorn="0.4.0.27" d="m80.015,23.029a1.872,1.87105,0,0,1,-1.872,1.87108l-3.744,0a1.872,1.87105,0,0,1,-1.87201,-1.87108l0,0a1.872,1.87105,0,0,1,1.87201,-1.87108l3.744,0a1.872,1.87105,0,0,1,1.872,1.87108zm-3.79843,-1.14732a1.152,1.15142,0,1,0,0,2.30267,1.152,1.15142,0,1,0,0,-2.30267z" id="path473" fill="white"/>
       <circle stroke="white" stroke-width="1.224" gorn="0.4.0.28" cy="15.8281" cx="76.3427" r="1.62" id="connector14pin" fill="white"/>
       <path stroke="white" stroke-width="1.43963" gorn="0.4.0.29" d="m80.0107,15.8291a1.87105,1.87105,0,0,1,-1.87105,1.87108l-3.7421,0a1.87105,1.87105,0,0,1,-1.87106,-1.87108l0,0a1.87105,1.87105,0,0,1,1.87106,-1.87108l3.7421,0a1.87105,1.87105,0,0,1,1.87105,1.87108zm-3.7965,-1.14732a1.15142,1.15142,0,1,0,0,2.30267,1.15142,1.15142,0,1,0,0,-2.30267z" id="path471" fill="white"/>
       <circle stroke="white" stroke-width="1.224" gorn="0.4.0.30" cy="15.8281" cx="4.34173" r="1.62" id="connector15pin" fill="white"/>
       <path stroke="white" stroke-width="1.43963" gorn="0.4.0.31" d="M8.18712,15.8291A1.87105,1.87105,0,0,1,6.31608,17.7001L2.57398,17.7001A1.87105,1.87105,0,0,1,0.702927,15.8291l0,0A1.87105,1.87105,0,0,1,2.57398,13.9579l3.7421,0a1.87105,1.87105,0,0,1,1.87105,1.87108zM4.44729,14.6823a1.15142,1.15142,0,1,0,0,2.30267,1.15142,1.15142,0,1,0,0,-2.30267z" id="path425" fill="white"/>
       <circle stroke="white" stroke-width="1.224" gorn="0.4.0.32" cy="23.0281" cx="4.34173" r="1.62" id="connector16pin" fill="white"/>
       <path stroke="white" stroke-width="1.43963" gorn="0.4.0.33" d="M8.18712,23.029A1.87105,1.87105,0,0,1,6.31608,24.9001L2.57398,24.9001A1.87105,1.87105,0,0,1,0.702927,23.029l0,0A1.87105,1.87105,0,0,1,2.57398,21.1579l3.7421,0a1.87105,1.87105,0,0,1,1.87105,1.87108zM4.44729,21.8817a1.15142,1.15142,0,1,0,0,2.30267,1.15142,1.15142,0,1,0,0,-2.30267z" id="path431" fill="white"/>
       <circle stroke="white" stroke-width="1.224" gorn="0.4.0.34" cy="30.2281" cx="4.34173" r="1.62" id="connector17pin" fill="white"/>
       <path stroke="white" stroke-width="1.43963" gorn="0.4.0.35" d="M8.18712,30.229A1.87105,1.87105,0,0,1,6.31608,32.1001L2.57398,32.1001A1.87105,1.87105,0,0,1,0.702927,30.229l0,0A1.87105,1.87105,0,0,1,2.57398,28.3579l3.7421,0a1.87105,1.87105,0,0,1,1.87105,1.87108zM4.44729,29.0817a1.15142,1.15142,0,1,0,0,2.30267,1.15142,1.15142,0,1,0,0,-2.30267z" id="path433" fill="white"/>
       <circle stroke="white" stroke-width="1.224" gorn="0.4.0.36" cy="37.4281" cx="4.34173" r="1.62" id="connector18pin" fill="white"/>
       <path stroke="white" stroke-width="1.43963" gorn="0.4.0.37" d="M8.18712,37.429A1.87105,1.87105,0,0,1,6.31608,39.3001L2.57398,39.3001A1.87105,1.87105,0,0,1,0.702927,37.429l0,0A1.87105,1.87105,0,0,1,2.57398,35.5579l3.7421,0a1.87105,1.87105,0,0,1,1.87105,1.87108zM4.44729,36.2817a1.15142,1.15142,0,1,0,0,2.30237,1.15142,1.15142,0,1,0,0,-2.30237z" id="path435" fill="white"/>
       <circle stroke="white" stroke-width="1.224" gorn="0.4.0.38" cy="44.6281" cx="4.34173" r="1.62" id="connector19pin" fill="white"/>
       <path stroke="white" stroke-width="1.43963" gorn="0.4.0.39" d="M8.11339,44.629A1.87105,1.87105,0,0,1,6.24231,46.5001L2.50021,46.5001A1.87105,1.87105,0,0,1,0.629162,44.629l0,0A1.87105,1.87105,0,0,1,2.50021,42.7579l3.7421,0a1.87105,1.87105,0,0,1,1.87105,1.87108zM4.37353,43.4814a1.15148,1.15148,0,1,0,0,2.30296,1.15148,1.15148,0,1,0,0,-2.30296z" id="path437" fill="white"/>
       <circle stroke="white" stroke-width="1.224" gorn="0.4.0.40" cy="51.8281" cx="4.34173" r="1.62" id="connector20pin" fill="white"/>
       <path stroke="white" stroke-width="1.43963" gorn="0.4.0.41" d="M8.18712,51.829A1.87105,1.87105,0,0,1,6.31608,53.7001L2.57398,53.7001A1.87105,1.87105,0,0,1,0.702927,51.829l0,0A1.87105,1.87105,0,0,1,2.57398,49.9579l3.7421,0a1.87105,1.87105,0,0,1,1.87105,1.87108zM4.44729,50.6814a1.15148,1.15148,0,1,0,0,2.30296,1.15148,1.15148,0,1,0,0,-2.30296z" id="path439" fill="white"/>
       <circle stroke="white" stroke-width="1.224" gorn="0.4.0.42" cy="59.0281" cx="4.34173" r="1.62" id="connector21pin" fill="white"/>
       <path stroke="white" stroke-width="1.43963" gorn="0.4.0.43" d="M8.18712,59.0293A1.87105,1.87105,0,0,1,6.31608,60.9001L2.57398,60.9001A1.87105,1.87105,0,0,1,0.702927,59.0293l0,0A1.87105,1.87105,0,0,1,2.57398,57.1583l3.7421,0a1.87105,1.87105,0,0,1,1.87105,1.87108zM4.44729,57.8817a1.15148,1.15148,0,1,0,0,2.30296,1.15148,1.15148,0,1,0,0,-2.30296z" id="path441" fill="white"/>
       <circle stroke="white" stroke-width="1.224" gorn="0.4.0.44" cy="66.2281" cx="4.34173" r="1.62" id="connector22pin" fill="white"/>
       <path stroke="white" stroke-width="1.43963" gorn="0.4.0.45" d="m8.18712,66.229a1.87105,1.87105,0,0,1,-1.87105,1.87108L2.57398,68.1001A1.87105,1.87105,0,0,1,0.702927,66.229l0,0A1.87105,1.87105,0,0,1,2.57398,64.3583l3.7421,0a1.87105,1.87105,0,0,1,1.87105,1.87079zM4.44729,65.0817a1.15149,1.15149,0,1,0,0,2.30297,1.15149,1.15149,0,1,0,0,-2.30297z" id="path443" fill="white"/>
       <circle stroke="white" stroke-width="1.224" gorn="0.4.0.46" cy="73.4281" cx="4.34173" r="1.62" id="connector23pin" fill="white"/>
       <path stroke="white" stroke-width="1.43963" gorn="0.4.0.47" d="m8.18683,73.4292a1.87105,1.87105,0,0,1,-1.87105,1.87108L2.5737,75.3005A1.87105,1.87105,0,0,1,0.702644,73.4292l0,0A1.87105,1.87105,0,0,1,2.5737,71.5579l3.7421,0a1.87105,1.87105,0,0,1,1.87105,1.87108zm-3.73984,-1.14672a1.15146,1.15146,0,1,0,0,2.30266,1.15146,1.15146,0,1,0,0,-2.30266z" id="path445" fill="white"/>
       <circle stroke="white" stroke-width="1.224" gorn="0.4.0.48" cy="80.6281" cx="4.34173" r="1.62" id="connector24pin" fill="white"/>
       <path stroke="white" stroke-width="1.43963" gorn="0.4.0.49" d="m8.18683,80.6292a1.87105,1.87105,0,0,1,-1.87105,1.87108L2.5737,82.5005A1.87105,1.87105,0,0,1,0.702644,80.6292l0,0a1.87105,1.87105,0,0,1,1.87105,-1.87108l3.7421,0a1.87105,1.87105,0,0,1,1.87105,1.87108zm-3.73984,-1.14732a1.15148,1.15148,0,1,0,0,2.30296,1.15148,1.15148,0,1,0,0,-2.30296z" id="path447" fill="white"/>
       <circle stroke="white" stroke-width="1.224" gorn="0.4.0.50" cy="87.8281" cx="4.34173" r="1.62" id="connector25pin" fill="white"/>
       <path stroke="white" stroke-width="1.43963" gorn="0.4.0.51" d="m8.18683,87.8292a1.87105,1.87105,0,0,1,-1.87105,1.87108L2.5737,89.7004A1.87105,1.87105,0,0,1,0.702644,87.8292l0,0a1.87105,1.87105,0,0,1,1.87105,-1.87108l3.7421,0a1.87105,1.87105,0,0,1,1.87105,1.87108zm-3.73984,-1.14732a1.15148,1.15148,0,1,0,0,2.30296,1.15148,1.15148,0,1,0,0,-2.30296z" id="path449" fill="white"/>
       <circle stroke="white" stroke-width="1.224" gorn="0.4.0.52" cy="95.0281" cx="4.34173" r="1.62" id="connector26pin" fill="white"/>
       <path stroke="white" stroke-width="1.43963" gorn="0.4.0.53" d="m8.18683,95.0292a1.87105,1.87105,0,0,1,-1.87105,1.87108L2.5737,96.9004A1.87105,1.87105,0,0,1,0.702644,95.0292l0,0a1.87105,1.87105,0,0,1,1.87105,-1.87108l3.7421,0a1.87105,1.87105,0,0,1,1.87105,1.87108zm-3.73984,-1.14733a1.15142,1.15142,0,1,0,0,2.30267,1.15142,1.15142,0,1,0,0,-2.30267z" id="path451" fill="white"/>
       <circle stroke="white" stroke-width="1.224" gorn="0.4.0.54" cy="102.228" cx="4.34173" r="1.62" id="connector27pin" fill="white"/>
       <path stroke="white" stroke-width="1.43963" gorn="0.4.0.55" d="m8.18683,102.229a1.87105,1.87105,0,0,1,-1.87105,1.87108L2.5737,104.1A1.87105,1.87105,0,0,1,0.702644,102.229l0,0a1.87105,1.87105,0,0,1,1.87105,-1.87108l3.7421,0a1.87105,1.87105,0,0,1,1.87105,1.87108zm-3.73984,-1.14761a1.15142,1.15142,0,1,0,0,2.30267,1.15142,1.15142,0,1,0,0,-2.30267z" id="path455" fill="white"/>
       <circle stroke="white" stroke-width="1.224" gorn="0.4.0.56" cy="109.428" cx="4.34193" r="1.62" id="connector28pin" fill="white"/>
       <path stroke="white" stroke-width="1.43963" gorn="0.4.0.57" d="m8.18683,109.429a1.87105,1.87105,0,0,1,-1.87105,1.87108L2.5737,111.3A1.87105,1.87105,0,0,1,0.702644,109.429l0,0a1.87105,1.87105,0,0,1,1.87105,-1.87108l3.7421,0a1.87105,1.87105,0,0,1,1.87105,1.87108zm-3.73984,-1.14732a1.15142,1.15142,0,1,0,0,2.30266,1.15142,1.15142,0,1,0,0,-2.30266z" id="path453" fill="white"/>
       <circle stroke="white" stroke-width="1.224" gorn="0.4.0.58" cy="116.628" cx="4.34173" r="1.62" id="connector29pin" fill="white"/>
       <path stroke="white" stroke-width="1.43963" gorn="0.4.0.59" d="m8.18683,116.629a1.87105,1.87105,0,0,1,-1.87105,1.87108L2.5737,118.5A1.87105,1.87105,0,0,1,0.702644,116.629l0,0a1.87105,1.87105,0,0,1,1.87105,-1.87108l3.7421,0a1.87105,1.87105,0,0,1,1.87105,1.87108zm-3.73984,-1.14761a1.15148,1.15148,0,1,0,0,2.30296,1.15148,1.15148,0,1,0,0,-2.30296z" id="path463" fill="white"/>
      </g>
     </g>
    </g>
   </g>
  </g>
  <g partID="855175422">
   <g transform="translate(46.7282,119.179)">
    <g transform="matrix(0,1,-1,0,0,0)">
     <g gorn="0.4" id="copper1">
      <g gorn="0.4.0" id="copper0">
       <circle stroke="white" stroke-width="2.16" gorn="0.4.0.0" cy="28.5165" cx="48.189" r="2.088" id="connector4pin" fill="white"/>
       <circle stroke="white" stroke-width="2.16" gorn="0.4.0.1" cy="28.5165" cx="40.989" r="2.088" id="connector3pin" fill="white"/>
       <circle stroke="white" stroke-width="2.16" gorn="0.4.0.2" cy="28.5165" cx="33.789" r="2.088" id="connector2pad" fill="white"/>
       <circle stroke="white" stroke-width="2.16" gorn="0.4.0.3" cy="28.5165" cx="26.589" r="2.088" id="connector1pad" fill="white"/>
       <rect x="17.301" stroke="white" stroke-width="2.16" gorn="0.4.0.4" width="4.176" y="26.4285" id="groundconn" fill="white" height="4.176"/>
       <circle stroke="white" stroke-width="2.16" gorn="0.4.0.5" cy="28.5165" cx="19.389" r="2.088" id="connector0pad" fill="white"/>
      </g>
     </g>
    </g>
   </g>
  </g>
  <g partID="855167242">
   <g transform="translate(181.652,54.3277)">
    <g transform="matrix(0,1,-1,0,0,0)">
     <g id="copper1">
      <g id="copper0">
       <circle stroke="white" stroke-width="2.16" cx="5.04" cy="5.04" r="2.088" id="connector0pin" fill="white"/>
       <circle stroke="white" stroke-width="2.16" cx="5.04" cy="12.24" r="2.088" id="connector1pin" fill="white"/>
       <circle stroke="white" stroke-width="2.16" cx="5.04" cy="19.44" r="2.088" id="connector2pin" fill="white"/>
      </g>
     </g>
    </g>
   </g>
  </g>
  <g partID="855119270">
   <g transform="translate(82.2016,175.222)">
    <g transform="matrix(0,1,-1,0,0,0)">
     <g gorn="0.2" id="copper1">
      <g gorn="0.2.0" id="copper0_1_">
       <rect stroke="white" x="26.0559" stroke-width="2.15999" gorn="0.2.0.0" width="4.17499" y="4.30299" id="square" fill="white" height="4.17199"/>
       <circle stroke="white" stroke-width="2.15999" gorn="0.2.0.1" cy="6.38898" cx="49.7478" r="2.08899" id="connector8pin" fill="white"/>
       <circle stroke="white" stroke-width="2.15999" gorn="0.2.0.2" cy="6.38998" cx="42.5478" r="2.08799" id="connector7pin" fill="white"/>
       <circle stroke="white" stroke-width="2.15999" gorn="0.2.0.3" cy="6.38998" cx="35.3459" r="2.08799" id="connector5pin" fill="white"/>
       <circle stroke="white" stroke-width="2.15999" gorn="0.2.0.4" cy="6.38998" cx="28.1429" r="2.08799" id="connector4pin" fill="white"/>
      </g>
     </g>
    </g>
   </g>
  </g>
  <g partID="855316332">
   <g transform="translate(144.197,255.244)">
    <g transform="matrix(-1,0,0,-1,0,0)">
     <g gorn="0.3" id="copper1">
      <g gorn="0.3.0" id="copper0">
       <circle stroke="white" stroke-width="2.03868" gorn="0.3.0.0" cy="59.0763" cx="39.5858" r="2.07666" id="connector38pad" fill="white" connectorname="CS"/>
       <circle stroke="white" stroke-width="2.16" gorn="0.3.0.1" cy="7.23629" cx="50.3858" r="3.83811" id="connector46pad" fill="white" connectorname="P$1"/>
       <circle stroke="white" stroke-width="2.03868" gorn="0.3.0.2" cy="59.0763" cx="10.7858" r="2.07666" id="connector34pad" fill="white" connectorname="VIN"/>
       <circle stroke="white" stroke-width="2.39868" gorn="0.3.0.3" cy="10.8363" cx="23.6835" r="2.25666" id="connector32pad" fill="white" connectorname="THERMO-"/>
       <circle stroke="white" stroke-width="2.03868" gorn="0.3.0.4" cy="59.0763" cx="25.1858" r="2.07666" id="connector36pad" fill="white" connectorname="GND"/>
       <circle stroke="white" stroke-width="2.39868" gorn="0.3.0.5" cy="10.8363" cx="33.6047" r="2.25666" id="connector33pad" fill="white" connectorname="THERMO+"/>
       <circle stroke="white" stroke-width="2.03868" gorn="0.3.0.6" cy="59.0763" cx="17.9858" r="2.07666" id="connector35pad" fill="white" connectorname="+3V3"/>
       <circle stroke="white" stroke-width="2.03868" gorn="0.3.0.7" cy="59.0763" cx="32.3858" r="2.07666" id="connector37pad" fill="white" connectorname="DO"/>
       <circle stroke="white" stroke-width="2.03868" gorn="0.3.0.8" cy="59.0763" cx="46.7858" r="2.07666" id="connector39pad" fill="white" connectorname="CLK"/>
       <circle stroke="white" stroke-width="2.16" gorn="0.3.0.9" cy="7.23629" cx="7.18583" r="3.83811" id="connector47pad" fill="white" connectorname="P$1"/>
      </g>
     </g>
    </g>
   </g>
  </g>
  <g partID="855167202">
   <g transform="translate(181.652,39.9277)">
    <g transform="matrix(0,1,-1,0,0,0)">
     <g id="copper1">
      <g id="copper0">
       <circle stroke="white" stroke-width="2.16" cx="5.04" cy="5.04" r="2.088" id="connector0pin" fill="white"/>
       <circle stroke="white" stroke-width="2.16" cx="5.04" cy="12.24" r="2.088" id="connector1pin" fill="white"/>
       <circle stroke="white" stroke-width="2.16" cx="5.04" cy="19.44" r="2.088" id="connector2pin" fill="white"/>
      </g>
     </g>
    </g>
   </g>
  </g>
  <g partID="855141412">
   <g transform="translate(77.9716,165.208)">
    <g transform="matrix(0,-1,1,0,0,0)">
     <g id="copper1">
      <g id="copper0">
       <circle stroke="white" stroke-width="2.16" cx="5.04" cy="5.04" r="2.088" id="connector0pin" fill="white"/>
       <circle stroke="white" stroke-width="2.16" cx="5.04" cy="12.24" r="2.088" id="connector1pin" fill="white"/>
       <circle stroke="white" stroke-width="2.16" cx="5.04" cy="19.44" r="2.088" id="connector2pin" fill="white"/>
       <circle stroke="white" stroke-width="2.16" cx="5.04" cy="26.64" r="2.088" id="connector3pin" fill="white"/>
       <circle stroke="white" stroke-width="2.16" cx="5.04" cy="33.84" r="2.088" id="connector4pin" fill="white"/>
       <circle stroke="white" stroke-width="2.16" cx="5.04" cy="41.04" r="2.088" id="connector5pin" fill="white"/>
       <circle stroke="white" stroke-width="2.16" cx="5.04" cy="48.24" r="2.088" id="connector6pin" fill="white"/>
       <circle stroke="white" stroke-width="2.16" cx="5.04" cy="55.44" r="2.088" id="connector7pin" fill="white"/>
      </g>
     </g>
    </g>
   </g>
  </g>
  <g partID="855330972">
   <g transform="translate(30.4516,25.5277)">
    <g transform="matrix(0,1,-1,0,0,0)">
     <g id="copper1">
      <g id="copper0">
       <circle stroke="white" stroke-width="2.16" cx="5.04" cy="5.04" r="2.088" id="connector0pin" fill="white"/>
      </g>
     </g>
    </g>
   </g>
  </g>
  <g partID="855331862">
   <g transform="translate(30.4516,54.3277)">
    <g transform="matrix(0,1,-1,0,0,0)">
     <g id="copper1">
      <g id="copper0">
       <circle stroke="white" stroke-width="2.16" cx="5.04" cy="5.04" r="2.088" id="connector0pin" fill="white"/>
      </g>
     </g>
    </g>
   </g>
  </g>
  <g partID="855332742">
   <g transform="translate(30.4516,111.928)">
    <g transform="matrix(0,1,-1,0,0,0)">
     <g id="copper1">
      <g id="copper0">
       <circle stroke="white" stroke-width="2.16" cx="5.04" cy="5.04" r="2.088" id="connector0pin" fill="white"/>
      </g>
     </g>
    </g>
   </g>
  </g>
  <g partID="855336482">
   <g transform="translate(30.4516,75.9277)">
    <g transform="matrix(0,1,-1,0,0,0)">
     <g id="copper1">
      <g id="copper0">
       <circle stroke="white" stroke-width="2.16" cx="5.04" cy="5.04" r="2.088" id="connector0pin" fill="white"/>
      </g>
     </g>
    </g>
   </g>
  </g>
 </g>
</svg>
