G04 MADE WITH FRITZING*
G04 WWW.FRITZING.ORG*
G04 DOUBLE SIDED*
G04 HOLES PLATED*
G04 CONTOUR ON CENTER OF CONTOUR VECTOR*
%ASAXBY*%
%FSLAX23Y23*%
%MOIN*%
%OFA0B0*%
%SFA1.0B1.0*%
%ADD10C,0.088000*%
%ADD11C,0.062000*%
%ADD12C,0.086000*%
%ADD13C,0.136614*%
%ADD14C,0.096000*%
%ADD15C,0.168110*%
%ADD16R,0.088000X0.088000*%
%ADD17R,0.001000X0.001000*%
%LNMASK1*%
G90*
G70*
G54D10*
X2902Y229D03*
X2902Y329D03*
X2902Y429D03*
X2402Y2429D03*
X2502Y2429D03*
X2602Y2429D03*
X2702Y2429D03*
X2802Y2429D03*
X3202Y2429D03*
X3302Y2429D03*
X3402Y2429D03*
X3502Y2429D03*
X3602Y2429D03*
G54D11*
X3502Y1729D03*
X3402Y1729D03*
X3302Y1729D03*
X3202Y1729D03*
X3102Y1729D03*
X3002Y1729D03*
X2902Y1729D03*
X2802Y1729D03*
X2702Y1729D03*
X2602Y1729D03*
X2502Y1729D03*
X2402Y1729D03*
X2302Y1729D03*
X2202Y1729D03*
X2102Y1729D03*
X2102Y729D03*
X2202Y729D03*
X2302Y729D03*
X2402Y729D03*
X2502Y729D03*
X2602Y729D03*
X2702Y729D03*
X2802Y729D03*
X2902Y729D03*
X3002Y729D03*
X3102Y729D03*
X3202Y729D03*
X3302Y729D03*
X3402Y729D03*
X3502Y729D03*
G54D10*
X1602Y2429D03*
X1702Y2429D03*
X1802Y2429D03*
X1902Y2429D03*
X2002Y2429D03*
X3102Y229D03*
X3102Y329D03*
X3102Y429D03*
G54D12*
X1202Y1229D03*
G54D13*
X482Y1379D03*
G54D12*
X1202Y829D03*
G54D14*
X532Y1008D03*
G54D12*
X1202Y1029D03*
G54D14*
X532Y1146D03*
G54D12*
X1202Y929D03*
X1202Y1129D03*
X1202Y1329D03*
G54D13*
X482Y779D03*
G54D10*
X2802Y2329D03*
X2302Y2329D03*
X3102Y2329D03*
X3502Y2329D03*
X3302Y229D03*
X3302Y329D03*
X3302Y429D03*
X1702Y1529D03*
X1702Y1429D03*
X1702Y1329D03*
X1702Y1229D03*
X1702Y1129D03*
X1702Y1029D03*
X1702Y929D03*
X1702Y829D03*
X802Y1629D03*
X902Y1629D03*
X1002Y1629D03*
X1102Y1629D03*
G54D15*
X97Y129D03*
X3802Y129D03*
X3802Y2629D03*
X102Y2629D03*
G54D16*
X2802Y2429D03*
X3602Y2429D03*
X2002Y2429D03*
G54D17*
X2100Y1790D02*
X2104Y1790D01*
X2200Y1790D02*
X2205Y1790D01*
X2300Y1790D02*
X2304Y1790D01*
X2400Y1790D02*
X2405Y1790D01*
X2500Y1790D02*
X2504Y1790D01*
X2600Y1790D02*
X2604Y1790D01*
X2700Y1790D02*
X2704Y1790D01*
X2800Y1790D02*
X2805Y1790D01*
X2900Y1790D02*
X2904Y1790D01*
X3000Y1790D02*
X3004Y1790D01*
X3100Y1790D02*
X3105Y1790D01*
X3200Y1790D02*
X3204Y1790D01*
X3300Y1790D02*
X3305Y1790D01*
X3400Y1790D02*
X3404Y1790D01*
X3502Y1790D02*
X3503Y1790D01*
X2095Y1789D02*
X2110Y1789D01*
X2194Y1789D02*
X2210Y1789D01*
X2295Y1789D02*
X2310Y1789D01*
X2394Y1789D02*
X2410Y1789D01*
X2495Y1789D02*
X2510Y1789D01*
X2595Y1789D02*
X2610Y1789D01*
X2695Y1789D02*
X2710Y1789D01*
X2794Y1789D02*
X2810Y1789D01*
X2895Y1789D02*
X2910Y1789D01*
X2995Y1789D02*
X3010Y1789D01*
X3094Y1789D02*
X3110Y1789D01*
X3195Y1789D02*
X3210Y1789D01*
X3294Y1789D02*
X3310Y1789D01*
X3395Y1789D02*
X3410Y1789D01*
X3495Y1789D02*
X3510Y1789D01*
X2091Y1788D02*
X2114Y1788D01*
X2191Y1788D02*
X2214Y1788D01*
X2291Y1788D02*
X2314Y1788D01*
X2391Y1788D02*
X2414Y1788D01*
X2491Y1788D02*
X2514Y1788D01*
X2591Y1788D02*
X2614Y1788D01*
X2691Y1788D02*
X2714Y1788D01*
X2791Y1788D02*
X2814Y1788D01*
X2891Y1788D02*
X2914Y1788D01*
X2991Y1788D02*
X3014Y1788D01*
X3091Y1788D02*
X3114Y1788D01*
X3191Y1788D02*
X3214Y1788D01*
X3291Y1788D02*
X3314Y1788D01*
X3391Y1788D02*
X3414Y1788D01*
X3492Y1788D02*
X3513Y1788D01*
X2089Y1787D02*
X2116Y1787D01*
X2189Y1787D02*
X2216Y1787D01*
X2289Y1787D02*
X2316Y1787D01*
X2389Y1787D02*
X2416Y1787D01*
X2489Y1787D02*
X2516Y1787D01*
X2589Y1787D02*
X2616Y1787D01*
X2689Y1787D02*
X2716Y1787D01*
X2789Y1787D02*
X2816Y1787D01*
X2889Y1787D02*
X2916Y1787D01*
X2989Y1787D02*
X3016Y1787D01*
X3089Y1787D02*
X3116Y1787D01*
X3189Y1787D02*
X3216Y1787D01*
X3289Y1787D02*
X3316Y1787D01*
X3389Y1787D02*
X3416Y1787D01*
X3489Y1787D02*
X3516Y1787D01*
X2087Y1786D02*
X2118Y1786D01*
X2187Y1786D02*
X2218Y1786D01*
X2287Y1786D02*
X2318Y1786D01*
X2387Y1786D02*
X2418Y1786D01*
X2487Y1786D02*
X2518Y1786D01*
X2587Y1786D02*
X2618Y1786D01*
X2687Y1786D02*
X2718Y1786D01*
X2787Y1786D02*
X2818Y1786D01*
X2887Y1786D02*
X2918Y1786D01*
X2987Y1786D02*
X3018Y1786D01*
X3087Y1786D02*
X3118Y1786D01*
X3187Y1786D02*
X3218Y1786D01*
X3287Y1786D02*
X3318Y1786D01*
X3387Y1786D02*
X3418Y1786D01*
X3487Y1786D02*
X3518Y1786D01*
X2085Y1785D02*
X2120Y1785D01*
X2185Y1785D02*
X2220Y1785D01*
X2285Y1785D02*
X2320Y1785D01*
X2385Y1785D02*
X2420Y1785D01*
X2485Y1785D02*
X2520Y1785D01*
X2585Y1785D02*
X2620Y1785D01*
X2685Y1785D02*
X2720Y1785D01*
X2785Y1785D02*
X2820Y1785D01*
X2885Y1785D02*
X2920Y1785D01*
X2985Y1785D02*
X3020Y1785D01*
X3085Y1785D02*
X3120Y1785D01*
X3185Y1785D02*
X3220Y1785D01*
X3285Y1785D02*
X3320Y1785D01*
X3385Y1785D02*
X3420Y1785D01*
X3485Y1785D02*
X3520Y1785D01*
X2083Y1784D02*
X2122Y1784D01*
X2183Y1784D02*
X2222Y1784D01*
X2283Y1784D02*
X2322Y1784D01*
X2383Y1784D02*
X2422Y1784D01*
X2483Y1784D02*
X2522Y1784D01*
X2583Y1784D02*
X2622Y1784D01*
X2683Y1784D02*
X2722Y1784D01*
X2783Y1784D02*
X2822Y1784D01*
X2883Y1784D02*
X2922Y1784D01*
X2983Y1784D02*
X3022Y1784D01*
X3083Y1784D02*
X3122Y1784D01*
X3183Y1784D02*
X3222Y1784D01*
X3283Y1784D02*
X3322Y1784D01*
X3383Y1784D02*
X3422Y1784D01*
X3483Y1784D02*
X3522Y1784D01*
X2082Y1783D02*
X2123Y1783D01*
X2182Y1783D02*
X2223Y1783D01*
X2282Y1783D02*
X2323Y1783D01*
X2382Y1783D02*
X2423Y1783D01*
X2482Y1783D02*
X2523Y1783D01*
X2582Y1783D02*
X2623Y1783D01*
X2682Y1783D02*
X2723Y1783D01*
X2782Y1783D02*
X2823Y1783D01*
X2882Y1783D02*
X2923Y1783D01*
X2982Y1783D02*
X3023Y1783D01*
X3082Y1783D02*
X3123Y1783D01*
X3182Y1783D02*
X3223Y1783D01*
X3282Y1783D02*
X3323Y1783D01*
X3382Y1783D02*
X3423Y1783D01*
X3482Y1783D02*
X3523Y1783D01*
X2080Y1782D02*
X2125Y1782D01*
X2180Y1782D02*
X2225Y1782D01*
X2280Y1782D02*
X2325Y1782D01*
X2380Y1782D02*
X2425Y1782D01*
X2480Y1782D02*
X2525Y1782D01*
X2580Y1782D02*
X2625Y1782D01*
X2680Y1782D02*
X2725Y1782D01*
X2780Y1782D02*
X2825Y1782D01*
X2880Y1782D02*
X2925Y1782D01*
X2980Y1782D02*
X3025Y1782D01*
X3080Y1782D02*
X3125Y1782D01*
X3180Y1782D02*
X3225Y1782D01*
X3280Y1782D02*
X3325Y1782D01*
X3380Y1782D02*
X3425Y1782D01*
X3480Y1782D02*
X3525Y1782D01*
X2079Y1781D02*
X2126Y1781D01*
X2179Y1781D02*
X2226Y1781D01*
X2279Y1781D02*
X2326Y1781D01*
X2379Y1781D02*
X2426Y1781D01*
X2479Y1781D02*
X2526Y1781D01*
X2579Y1781D02*
X2626Y1781D01*
X2679Y1781D02*
X2726Y1781D01*
X2779Y1781D02*
X2826Y1781D01*
X2879Y1781D02*
X2926Y1781D01*
X2979Y1781D02*
X3026Y1781D01*
X3079Y1781D02*
X3126Y1781D01*
X3179Y1781D02*
X3226Y1781D01*
X3279Y1781D02*
X3326Y1781D01*
X3379Y1781D02*
X3426Y1781D01*
X3479Y1781D02*
X3526Y1781D01*
X2078Y1780D02*
X2127Y1780D01*
X2178Y1780D02*
X2227Y1780D01*
X2278Y1780D02*
X2327Y1780D01*
X2378Y1780D02*
X2427Y1780D01*
X2478Y1780D02*
X2527Y1780D01*
X2578Y1780D02*
X2627Y1780D01*
X2678Y1780D02*
X2727Y1780D01*
X2778Y1780D02*
X2827Y1780D01*
X2878Y1780D02*
X2927Y1780D01*
X2978Y1780D02*
X3027Y1780D01*
X3078Y1780D02*
X3127Y1780D01*
X3178Y1780D02*
X3227Y1780D01*
X3278Y1780D02*
X3327Y1780D01*
X3378Y1780D02*
X3427Y1780D01*
X3478Y1780D02*
X3527Y1780D01*
X2077Y1779D02*
X2128Y1779D01*
X2177Y1779D02*
X2228Y1779D01*
X2277Y1779D02*
X2328Y1779D01*
X2377Y1779D02*
X2428Y1779D01*
X2477Y1779D02*
X2528Y1779D01*
X2577Y1779D02*
X2628Y1779D01*
X2677Y1779D02*
X2728Y1779D01*
X2777Y1779D02*
X2828Y1779D01*
X2877Y1779D02*
X2928Y1779D01*
X2977Y1779D02*
X3028Y1779D01*
X3077Y1779D02*
X3128Y1779D01*
X3177Y1779D02*
X3228Y1779D01*
X3277Y1779D02*
X3328Y1779D01*
X3377Y1779D02*
X3428Y1779D01*
X3477Y1779D02*
X3528Y1779D01*
X2076Y1778D02*
X2129Y1778D01*
X2176Y1778D02*
X2229Y1778D01*
X2276Y1778D02*
X2329Y1778D01*
X2376Y1778D02*
X2429Y1778D01*
X2476Y1778D02*
X2529Y1778D01*
X2576Y1778D02*
X2629Y1778D01*
X2676Y1778D02*
X2729Y1778D01*
X2776Y1778D02*
X2829Y1778D01*
X2876Y1778D02*
X2929Y1778D01*
X2976Y1778D02*
X3029Y1778D01*
X3076Y1778D02*
X3129Y1778D01*
X3176Y1778D02*
X3229Y1778D01*
X3276Y1778D02*
X3329Y1778D01*
X3376Y1778D02*
X3429Y1778D01*
X3476Y1778D02*
X3529Y1778D01*
X2075Y1777D02*
X2130Y1777D01*
X2175Y1777D02*
X2230Y1777D01*
X2275Y1777D02*
X2330Y1777D01*
X2375Y1777D02*
X2430Y1777D01*
X2475Y1777D02*
X2530Y1777D01*
X2575Y1777D02*
X2630Y1777D01*
X2675Y1777D02*
X2730Y1777D01*
X2775Y1777D02*
X2830Y1777D01*
X2875Y1777D02*
X2930Y1777D01*
X2975Y1777D02*
X3030Y1777D01*
X3075Y1777D02*
X3130Y1777D01*
X3175Y1777D02*
X3230Y1777D01*
X3275Y1777D02*
X3330Y1777D01*
X3375Y1777D02*
X3430Y1777D01*
X3475Y1777D02*
X3530Y1777D01*
X2074Y1776D02*
X2130Y1776D01*
X2174Y1776D02*
X2230Y1776D01*
X2274Y1776D02*
X2330Y1776D01*
X2374Y1776D02*
X2430Y1776D01*
X2474Y1776D02*
X2530Y1776D01*
X2574Y1776D02*
X2630Y1776D01*
X2674Y1776D02*
X2730Y1776D01*
X2774Y1776D02*
X2830Y1776D01*
X2874Y1776D02*
X2930Y1776D01*
X2974Y1776D02*
X3030Y1776D01*
X3074Y1776D02*
X3130Y1776D01*
X3174Y1776D02*
X3230Y1776D01*
X3274Y1776D02*
X3330Y1776D01*
X3374Y1776D02*
X3430Y1776D01*
X3475Y1776D02*
X3530Y1776D01*
X2074Y1775D02*
X2131Y1775D01*
X2174Y1775D02*
X2231Y1775D01*
X2274Y1775D02*
X2331Y1775D01*
X2374Y1775D02*
X2431Y1775D01*
X2474Y1775D02*
X2531Y1775D01*
X2574Y1775D02*
X2631Y1775D01*
X2674Y1775D02*
X2731Y1775D01*
X2774Y1775D02*
X2831Y1775D01*
X2874Y1775D02*
X2931Y1775D01*
X2974Y1775D02*
X3031Y1775D01*
X3074Y1775D02*
X3131Y1775D01*
X3174Y1775D02*
X3231Y1775D01*
X3274Y1775D02*
X3331Y1775D01*
X3374Y1775D02*
X3431Y1775D01*
X3474Y1775D02*
X3531Y1775D01*
X2073Y1774D02*
X2132Y1774D01*
X2173Y1774D02*
X2232Y1774D01*
X2273Y1774D02*
X2332Y1774D01*
X2373Y1774D02*
X2432Y1774D01*
X2473Y1774D02*
X2532Y1774D01*
X2573Y1774D02*
X2632Y1774D01*
X2673Y1774D02*
X2732Y1774D01*
X2773Y1774D02*
X2832Y1774D01*
X2873Y1774D02*
X2932Y1774D01*
X2973Y1774D02*
X3032Y1774D01*
X3073Y1774D02*
X3132Y1774D01*
X3173Y1774D02*
X3232Y1774D01*
X3273Y1774D02*
X3332Y1774D01*
X3373Y1774D02*
X3432Y1774D01*
X3473Y1774D02*
X3532Y1774D01*
X2072Y1773D02*
X2132Y1773D01*
X2172Y1773D02*
X2232Y1773D01*
X2272Y1773D02*
X2332Y1773D01*
X2372Y1773D02*
X2432Y1773D01*
X2472Y1773D02*
X2532Y1773D01*
X2572Y1773D02*
X2632Y1773D01*
X2672Y1773D02*
X2732Y1773D01*
X2772Y1773D02*
X2832Y1773D01*
X2872Y1773D02*
X2932Y1773D01*
X2972Y1773D02*
X3032Y1773D01*
X3072Y1773D02*
X3132Y1773D01*
X3172Y1773D02*
X3232Y1773D01*
X3272Y1773D02*
X3332Y1773D01*
X3372Y1773D02*
X3432Y1773D01*
X3473Y1773D02*
X3532Y1773D01*
X2072Y1772D02*
X2133Y1772D01*
X2172Y1772D02*
X2233Y1772D01*
X2272Y1772D02*
X2333Y1772D01*
X2372Y1772D02*
X2433Y1772D01*
X2472Y1772D02*
X2533Y1772D01*
X2572Y1772D02*
X2633Y1772D01*
X2672Y1772D02*
X2733Y1772D01*
X2772Y1772D02*
X2833Y1772D01*
X2872Y1772D02*
X2933Y1772D01*
X2972Y1772D02*
X3033Y1772D01*
X3072Y1772D02*
X3133Y1772D01*
X3172Y1772D02*
X3233Y1772D01*
X3272Y1772D02*
X3333Y1772D01*
X3372Y1772D02*
X3433Y1772D01*
X3472Y1772D02*
X3533Y1772D01*
X2071Y1771D02*
X2134Y1771D01*
X2171Y1771D02*
X2234Y1771D01*
X2271Y1771D02*
X2334Y1771D01*
X2371Y1771D02*
X2434Y1771D01*
X2471Y1771D02*
X2534Y1771D01*
X2571Y1771D02*
X2634Y1771D01*
X2671Y1771D02*
X2734Y1771D01*
X2771Y1771D02*
X2834Y1771D01*
X2871Y1771D02*
X2934Y1771D01*
X2971Y1771D02*
X3034Y1771D01*
X3071Y1771D02*
X3134Y1771D01*
X3171Y1771D02*
X3234Y1771D01*
X3271Y1771D02*
X3334Y1771D01*
X3371Y1771D02*
X3434Y1771D01*
X3471Y1771D02*
X3533Y1771D01*
X2071Y1770D02*
X2134Y1770D01*
X2171Y1770D02*
X2234Y1770D01*
X2271Y1770D02*
X2334Y1770D01*
X2371Y1770D02*
X2434Y1770D01*
X2471Y1770D02*
X2534Y1770D01*
X2571Y1770D02*
X2634Y1770D01*
X2671Y1770D02*
X2734Y1770D01*
X2771Y1770D02*
X2834Y1770D01*
X2871Y1770D02*
X2934Y1770D01*
X2971Y1770D02*
X3034Y1770D01*
X3071Y1770D02*
X3134Y1770D01*
X3171Y1770D02*
X3234Y1770D01*
X3271Y1770D02*
X3334Y1770D01*
X3371Y1770D02*
X3434Y1770D01*
X3471Y1770D02*
X3534Y1770D01*
X2070Y1769D02*
X2134Y1769D01*
X2170Y1769D02*
X2235Y1769D01*
X2270Y1769D02*
X2334Y1769D01*
X2370Y1769D02*
X2435Y1769D01*
X2470Y1769D02*
X2534Y1769D01*
X2570Y1769D02*
X2634Y1769D01*
X2670Y1769D02*
X2734Y1769D01*
X2770Y1769D02*
X2835Y1769D01*
X2870Y1769D02*
X2934Y1769D01*
X2970Y1769D02*
X3034Y1769D01*
X3070Y1769D02*
X3135Y1769D01*
X3170Y1769D02*
X3234Y1769D01*
X3270Y1769D02*
X3335Y1769D01*
X3370Y1769D02*
X3434Y1769D01*
X3470Y1769D02*
X3534Y1769D01*
X2070Y1768D02*
X2135Y1768D01*
X2170Y1768D02*
X2235Y1768D01*
X2270Y1768D02*
X2335Y1768D01*
X2370Y1768D02*
X2435Y1768D01*
X2470Y1768D02*
X2535Y1768D01*
X2570Y1768D02*
X2635Y1768D01*
X2670Y1768D02*
X2735Y1768D01*
X2770Y1768D02*
X2835Y1768D01*
X2870Y1768D02*
X2935Y1768D01*
X2970Y1768D02*
X3035Y1768D01*
X3070Y1768D02*
X3135Y1768D01*
X3170Y1768D02*
X3235Y1768D01*
X3270Y1768D02*
X3335Y1768D01*
X3370Y1768D02*
X3435Y1768D01*
X3470Y1768D02*
X3535Y1768D01*
X2070Y1767D02*
X2135Y1767D01*
X2170Y1767D02*
X2235Y1767D01*
X2270Y1767D02*
X2335Y1767D01*
X2370Y1767D02*
X2435Y1767D01*
X2470Y1767D02*
X2535Y1767D01*
X2570Y1767D02*
X2635Y1767D01*
X2670Y1767D02*
X2735Y1767D01*
X2770Y1767D02*
X2835Y1767D01*
X2870Y1767D02*
X2935Y1767D01*
X2970Y1767D02*
X3035Y1767D01*
X3070Y1767D02*
X3135Y1767D01*
X3170Y1767D02*
X3235Y1767D01*
X3270Y1767D02*
X3335Y1767D01*
X3370Y1767D02*
X3435Y1767D01*
X3470Y1767D02*
X3535Y1767D01*
X2069Y1766D02*
X2136Y1766D01*
X2169Y1766D02*
X2236Y1766D01*
X2269Y1766D02*
X2336Y1766D01*
X2369Y1766D02*
X2436Y1766D01*
X2469Y1766D02*
X2536Y1766D01*
X2569Y1766D02*
X2636Y1766D01*
X2669Y1766D02*
X2736Y1766D01*
X2769Y1766D02*
X2836Y1766D01*
X2869Y1766D02*
X2936Y1766D01*
X2969Y1766D02*
X3036Y1766D01*
X3069Y1766D02*
X3136Y1766D01*
X3169Y1766D02*
X3236Y1766D01*
X3269Y1766D02*
X3336Y1766D01*
X3369Y1766D02*
X3436Y1766D01*
X3469Y1766D02*
X3536Y1766D01*
X2069Y1765D02*
X2136Y1765D01*
X2169Y1765D02*
X2236Y1765D01*
X2269Y1765D02*
X2336Y1765D01*
X2369Y1765D02*
X2436Y1765D01*
X2469Y1765D02*
X2536Y1765D01*
X2569Y1765D02*
X2636Y1765D01*
X2669Y1765D02*
X2736Y1765D01*
X2769Y1765D02*
X2836Y1765D01*
X2869Y1765D02*
X2936Y1765D01*
X2969Y1765D02*
X3036Y1765D01*
X3069Y1765D02*
X3136Y1765D01*
X3169Y1765D02*
X3236Y1765D01*
X3269Y1765D02*
X3336Y1765D01*
X3369Y1765D02*
X3436Y1765D01*
X3469Y1765D02*
X3536Y1765D01*
X2069Y1764D02*
X2136Y1764D01*
X2168Y1764D02*
X2236Y1764D01*
X2269Y1764D02*
X2336Y1764D01*
X2368Y1764D02*
X2436Y1764D01*
X2469Y1764D02*
X2536Y1764D01*
X2569Y1764D02*
X2636Y1764D01*
X2669Y1764D02*
X2736Y1764D01*
X2768Y1764D02*
X2836Y1764D01*
X2869Y1764D02*
X2936Y1764D01*
X2969Y1764D02*
X3036Y1764D01*
X3068Y1764D02*
X3136Y1764D01*
X3169Y1764D02*
X3236Y1764D01*
X3268Y1764D02*
X3336Y1764D01*
X3369Y1764D02*
X3436Y1764D01*
X3469Y1764D02*
X3536Y1764D01*
X2068Y1763D02*
X2137Y1763D01*
X2168Y1763D02*
X2237Y1763D01*
X2268Y1763D02*
X2337Y1763D01*
X2368Y1763D02*
X2437Y1763D01*
X2468Y1763D02*
X2537Y1763D01*
X2568Y1763D02*
X2637Y1763D01*
X2668Y1763D02*
X2737Y1763D01*
X2768Y1763D02*
X2837Y1763D01*
X2868Y1763D02*
X2937Y1763D01*
X2968Y1763D02*
X3037Y1763D01*
X3068Y1763D02*
X3137Y1763D01*
X3168Y1763D02*
X3237Y1763D01*
X3268Y1763D02*
X3337Y1763D01*
X3368Y1763D02*
X3437Y1763D01*
X3468Y1763D02*
X3537Y1763D01*
X2068Y1762D02*
X2137Y1762D01*
X2168Y1762D02*
X2237Y1762D01*
X2268Y1762D02*
X2337Y1762D01*
X2368Y1762D02*
X2437Y1762D01*
X2468Y1762D02*
X2537Y1762D01*
X2568Y1762D02*
X2637Y1762D01*
X2668Y1762D02*
X2737Y1762D01*
X2768Y1762D02*
X2837Y1762D01*
X2868Y1762D02*
X2937Y1762D01*
X2968Y1762D02*
X3037Y1762D01*
X3068Y1762D02*
X3137Y1762D01*
X3168Y1762D02*
X3237Y1762D01*
X3268Y1762D02*
X3337Y1762D01*
X3368Y1762D02*
X3437Y1762D01*
X3468Y1762D02*
X3537Y1762D01*
X2068Y1761D02*
X2137Y1761D01*
X2168Y1761D02*
X2237Y1761D01*
X2268Y1761D02*
X2337Y1761D01*
X2368Y1761D02*
X2437Y1761D01*
X2468Y1761D02*
X2537Y1761D01*
X2568Y1761D02*
X2637Y1761D01*
X2668Y1761D02*
X2737Y1761D01*
X2768Y1761D02*
X2837Y1761D01*
X2868Y1761D02*
X2937Y1761D01*
X2968Y1761D02*
X3037Y1761D01*
X3068Y1761D02*
X3137Y1761D01*
X3168Y1761D02*
X3237Y1761D01*
X3268Y1761D02*
X3337Y1761D01*
X3368Y1761D02*
X3437Y1761D01*
X3468Y1761D02*
X3537Y1761D01*
X2068Y1760D02*
X2137Y1760D01*
X2168Y1760D02*
X2237Y1760D01*
X2268Y1760D02*
X2337Y1760D01*
X2368Y1760D02*
X2437Y1760D01*
X2468Y1760D02*
X2537Y1760D01*
X2568Y1760D02*
X2637Y1760D01*
X2668Y1760D02*
X2737Y1760D01*
X2768Y1760D02*
X2837Y1760D01*
X2868Y1760D02*
X2937Y1760D01*
X2968Y1760D02*
X3037Y1760D01*
X3068Y1760D02*
X3137Y1760D01*
X3168Y1760D02*
X3237Y1760D01*
X3268Y1760D02*
X3337Y1760D01*
X3368Y1760D02*
X3437Y1760D01*
X3468Y1760D02*
X3537Y1760D01*
X2067Y1759D02*
X2137Y1759D01*
X2167Y1759D02*
X2238Y1759D01*
X2267Y1759D02*
X2337Y1759D01*
X2367Y1759D02*
X2438Y1759D01*
X2467Y1759D02*
X2537Y1759D01*
X2567Y1759D02*
X2637Y1759D01*
X2667Y1759D02*
X2737Y1759D01*
X2767Y1759D02*
X2838Y1759D01*
X2867Y1759D02*
X2937Y1759D01*
X2967Y1759D02*
X3037Y1759D01*
X3067Y1759D02*
X3138Y1759D01*
X3167Y1759D02*
X3237Y1759D01*
X3267Y1759D02*
X3338Y1759D01*
X3367Y1759D02*
X3437Y1759D01*
X3467Y1759D02*
X3537Y1759D01*
X2067Y1758D02*
X2138Y1758D01*
X2167Y1758D02*
X2238Y1758D01*
X2267Y1758D02*
X2338Y1758D01*
X2367Y1758D02*
X2438Y1758D01*
X2467Y1758D02*
X2538Y1758D01*
X2567Y1758D02*
X2638Y1758D01*
X2667Y1758D02*
X2738Y1758D01*
X2767Y1758D02*
X2838Y1758D01*
X2867Y1758D02*
X2938Y1758D01*
X2967Y1758D02*
X3038Y1758D01*
X3067Y1758D02*
X3138Y1758D01*
X3167Y1758D02*
X3238Y1758D01*
X3267Y1758D02*
X3338Y1758D01*
X3367Y1758D02*
X3438Y1758D01*
X3467Y1758D02*
X3538Y1758D01*
X2067Y1757D02*
X2138Y1757D01*
X2167Y1757D02*
X2238Y1757D01*
X2267Y1757D02*
X2338Y1757D01*
X2367Y1757D02*
X2438Y1757D01*
X2467Y1757D02*
X2538Y1757D01*
X2567Y1757D02*
X2638Y1757D01*
X2667Y1757D02*
X2738Y1757D01*
X2767Y1757D02*
X2838Y1757D01*
X2867Y1757D02*
X2938Y1757D01*
X2967Y1757D02*
X3038Y1757D01*
X3067Y1757D02*
X3138Y1757D01*
X3167Y1757D02*
X3238Y1757D01*
X3267Y1757D02*
X3338Y1757D01*
X3367Y1757D02*
X3438Y1757D01*
X3467Y1757D02*
X3538Y1757D01*
X2067Y1756D02*
X2138Y1756D01*
X2167Y1756D02*
X2238Y1756D01*
X2267Y1756D02*
X2338Y1756D01*
X2367Y1756D02*
X2438Y1756D01*
X2467Y1756D02*
X2538Y1756D01*
X2567Y1756D02*
X2638Y1756D01*
X2667Y1756D02*
X2738Y1756D01*
X2767Y1756D02*
X2838Y1756D01*
X2867Y1756D02*
X2938Y1756D01*
X2967Y1756D02*
X3038Y1756D01*
X3067Y1756D02*
X3138Y1756D01*
X3167Y1756D02*
X3238Y1756D01*
X3267Y1756D02*
X3338Y1756D01*
X3367Y1756D02*
X3438Y1756D01*
X3467Y1756D02*
X3538Y1756D01*
X2067Y1755D02*
X2138Y1755D01*
X2167Y1755D02*
X2238Y1755D01*
X2267Y1755D02*
X2338Y1755D01*
X2367Y1755D02*
X2438Y1755D01*
X2467Y1755D02*
X2538Y1755D01*
X2567Y1755D02*
X2638Y1755D01*
X2667Y1755D02*
X2738Y1755D01*
X2767Y1755D02*
X2838Y1755D01*
X2867Y1755D02*
X2938Y1755D01*
X2967Y1755D02*
X3038Y1755D01*
X3067Y1755D02*
X3138Y1755D01*
X3167Y1755D02*
X3238Y1755D01*
X3267Y1755D02*
X3338Y1755D01*
X3367Y1755D02*
X3438Y1755D01*
X3467Y1755D02*
X3538Y1755D01*
X2067Y1754D02*
X2138Y1754D01*
X2167Y1754D02*
X2238Y1754D01*
X2267Y1754D02*
X2338Y1754D01*
X2367Y1754D02*
X2438Y1754D01*
X2467Y1754D02*
X2538Y1754D01*
X2567Y1754D02*
X2638Y1754D01*
X2667Y1754D02*
X2738Y1754D01*
X2767Y1754D02*
X2838Y1754D01*
X2867Y1754D02*
X2938Y1754D01*
X2967Y1754D02*
X3038Y1754D01*
X3067Y1754D02*
X3138Y1754D01*
X3167Y1754D02*
X3238Y1754D01*
X3267Y1754D02*
X3338Y1754D01*
X3367Y1754D02*
X3438Y1754D01*
X3467Y1754D02*
X3538Y1754D01*
X2067Y1753D02*
X2138Y1753D01*
X2167Y1753D02*
X2238Y1753D01*
X2267Y1753D02*
X2338Y1753D01*
X2367Y1753D02*
X2438Y1753D01*
X2467Y1753D02*
X2538Y1753D01*
X2567Y1753D02*
X2638Y1753D01*
X2667Y1753D02*
X2738Y1753D01*
X2767Y1753D02*
X2838Y1753D01*
X2867Y1753D02*
X2938Y1753D01*
X2967Y1753D02*
X3038Y1753D01*
X3067Y1753D02*
X3138Y1753D01*
X3167Y1753D02*
X3238Y1753D01*
X3267Y1753D02*
X3338Y1753D01*
X3367Y1753D02*
X3438Y1753D01*
X3467Y1753D02*
X3538Y1753D01*
X2067Y1752D02*
X2138Y1752D01*
X2167Y1752D02*
X2238Y1752D01*
X2267Y1752D02*
X2338Y1752D01*
X2367Y1752D02*
X2438Y1752D01*
X2467Y1752D02*
X2538Y1752D01*
X2567Y1752D02*
X2638Y1752D01*
X2667Y1752D02*
X2738Y1752D01*
X2767Y1752D02*
X2838Y1752D01*
X2867Y1752D02*
X2938Y1752D01*
X2967Y1752D02*
X3038Y1752D01*
X3067Y1752D02*
X3138Y1752D01*
X3167Y1752D02*
X3238Y1752D01*
X3267Y1752D02*
X3338Y1752D01*
X3367Y1752D02*
X3438Y1752D01*
X3467Y1752D02*
X3538Y1752D01*
X2067Y1751D02*
X2138Y1751D01*
X2167Y1751D02*
X2238Y1751D01*
X2267Y1751D02*
X2338Y1751D01*
X2367Y1751D02*
X2438Y1751D01*
X2467Y1751D02*
X2538Y1751D01*
X2567Y1751D02*
X2638Y1751D01*
X2667Y1751D02*
X2738Y1751D01*
X2767Y1751D02*
X2838Y1751D01*
X2867Y1751D02*
X2938Y1751D01*
X2967Y1751D02*
X3038Y1751D01*
X3067Y1751D02*
X3138Y1751D01*
X3167Y1751D02*
X3238Y1751D01*
X3267Y1751D02*
X3338Y1751D01*
X3367Y1751D02*
X3438Y1751D01*
X3467Y1751D02*
X3538Y1751D01*
X2067Y1750D02*
X2138Y1750D01*
X2167Y1750D02*
X2238Y1750D01*
X2267Y1750D02*
X2338Y1750D01*
X2367Y1750D02*
X2438Y1750D01*
X2467Y1750D02*
X2538Y1750D01*
X2567Y1750D02*
X2638Y1750D01*
X2667Y1750D02*
X2738Y1750D01*
X2767Y1750D02*
X2838Y1750D01*
X2867Y1750D02*
X2938Y1750D01*
X2967Y1750D02*
X3038Y1750D01*
X3067Y1750D02*
X3138Y1750D01*
X3167Y1750D02*
X3238Y1750D01*
X3267Y1750D02*
X3338Y1750D01*
X3367Y1750D02*
X3438Y1750D01*
X3467Y1750D02*
X3538Y1750D01*
X2067Y1749D02*
X2138Y1749D01*
X2167Y1749D02*
X2238Y1749D01*
X2267Y1749D02*
X2338Y1749D01*
X2367Y1749D02*
X2438Y1749D01*
X2467Y1749D02*
X2538Y1749D01*
X2567Y1749D02*
X2638Y1749D01*
X2667Y1749D02*
X2738Y1749D01*
X2767Y1749D02*
X2838Y1749D01*
X2867Y1749D02*
X2938Y1749D01*
X2967Y1749D02*
X3038Y1749D01*
X3067Y1749D02*
X3138Y1749D01*
X3167Y1749D02*
X3238Y1749D01*
X3267Y1749D02*
X3338Y1749D01*
X3367Y1749D02*
X3438Y1749D01*
X3467Y1749D02*
X3538Y1749D01*
X2067Y1748D02*
X2138Y1748D01*
X2167Y1748D02*
X2238Y1748D01*
X2267Y1748D02*
X2338Y1748D01*
X2367Y1748D02*
X2438Y1748D01*
X2467Y1748D02*
X2538Y1748D01*
X2567Y1748D02*
X2638Y1748D01*
X2667Y1748D02*
X2738Y1748D01*
X2767Y1748D02*
X2838Y1748D01*
X2867Y1748D02*
X2938Y1748D01*
X2967Y1748D02*
X3038Y1748D01*
X3067Y1748D02*
X3138Y1748D01*
X3167Y1748D02*
X3238Y1748D01*
X3267Y1748D02*
X3338Y1748D01*
X3367Y1748D02*
X3438Y1748D01*
X3467Y1748D02*
X3538Y1748D01*
X2067Y1747D02*
X2138Y1747D01*
X2167Y1747D02*
X2238Y1747D01*
X2267Y1747D02*
X2338Y1747D01*
X2367Y1747D02*
X2438Y1747D01*
X2467Y1747D02*
X2538Y1747D01*
X2567Y1747D02*
X2638Y1747D01*
X2667Y1747D02*
X2738Y1747D01*
X2767Y1747D02*
X2838Y1747D01*
X2867Y1747D02*
X2938Y1747D01*
X2967Y1747D02*
X3038Y1747D01*
X3067Y1747D02*
X3138Y1747D01*
X3167Y1747D02*
X3238Y1747D01*
X3267Y1747D02*
X3338Y1747D01*
X3367Y1747D02*
X3438Y1747D01*
X3467Y1747D02*
X3538Y1747D01*
X2067Y1746D02*
X2138Y1746D01*
X2167Y1746D02*
X2238Y1746D01*
X2267Y1746D02*
X2338Y1746D01*
X2367Y1746D02*
X2438Y1746D01*
X2467Y1746D02*
X2538Y1746D01*
X2567Y1746D02*
X2638Y1746D01*
X2667Y1746D02*
X2738Y1746D01*
X2767Y1746D02*
X2838Y1746D01*
X2867Y1746D02*
X2938Y1746D01*
X2967Y1746D02*
X3038Y1746D01*
X3067Y1746D02*
X3138Y1746D01*
X3167Y1746D02*
X3238Y1746D01*
X3267Y1746D02*
X3338Y1746D01*
X3367Y1746D02*
X3438Y1746D01*
X3467Y1746D02*
X3538Y1746D01*
X2067Y1745D02*
X2138Y1745D01*
X2167Y1745D02*
X2238Y1745D01*
X2267Y1745D02*
X2338Y1745D01*
X2367Y1745D02*
X2438Y1745D01*
X2467Y1745D02*
X2538Y1745D01*
X2567Y1745D02*
X2638Y1745D01*
X2667Y1745D02*
X2738Y1745D01*
X2767Y1745D02*
X2838Y1745D01*
X2867Y1745D02*
X2938Y1745D01*
X2967Y1745D02*
X3038Y1745D01*
X3067Y1745D02*
X3138Y1745D01*
X3167Y1745D02*
X3238Y1745D01*
X3267Y1745D02*
X3338Y1745D01*
X3367Y1745D02*
X3438Y1745D01*
X3467Y1745D02*
X3538Y1745D01*
X2067Y1744D02*
X2138Y1744D01*
X2167Y1744D02*
X2238Y1744D01*
X2267Y1744D02*
X2338Y1744D01*
X2367Y1744D02*
X2438Y1744D01*
X2467Y1744D02*
X2538Y1744D01*
X2567Y1744D02*
X2638Y1744D01*
X2667Y1744D02*
X2738Y1744D01*
X2767Y1744D02*
X2838Y1744D01*
X2867Y1744D02*
X2938Y1744D01*
X2967Y1744D02*
X3038Y1744D01*
X3067Y1744D02*
X3138Y1744D01*
X3167Y1744D02*
X3238Y1744D01*
X3267Y1744D02*
X3338Y1744D01*
X3367Y1744D02*
X3438Y1744D01*
X3467Y1744D02*
X3538Y1744D01*
X2067Y1743D02*
X2138Y1743D01*
X2167Y1743D02*
X2238Y1743D01*
X2267Y1743D02*
X2338Y1743D01*
X2367Y1743D02*
X2438Y1743D01*
X2467Y1743D02*
X2538Y1743D01*
X2567Y1743D02*
X2638Y1743D01*
X2667Y1743D02*
X2738Y1743D01*
X2767Y1743D02*
X2838Y1743D01*
X2867Y1743D02*
X2938Y1743D01*
X2967Y1743D02*
X3038Y1743D01*
X3067Y1743D02*
X3138Y1743D01*
X3167Y1743D02*
X3238Y1743D01*
X3267Y1743D02*
X3338Y1743D01*
X3367Y1743D02*
X3438Y1743D01*
X3467Y1743D02*
X3538Y1743D01*
X2067Y1742D02*
X2138Y1742D01*
X2167Y1742D02*
X2238Y1742D01*
X2267Y1742D02*
X2338Y1742D01*
X2367Y1742D02*
X2438Y1742D01*
X2467Y1742D02*
X2538Y1742D01*
X2567Y1742D02*
X2638Y1742D01*
X2667Y1742D02*
X2738Y1742D01*
X2767Y1742D02*
X2838Y1742D01*
X2867Y1742D02*
X2938Y1742D01*
X2967Y1742D02*
X3038Y1742D01*
X3067Y1742D02*
X3138Y1742D01*
X3167Y1742D02*
X3238Y1742D01*
X3267Y1742D02*
X3338Y1742D01*
X3367Y1742D02*
X3438Y1742D01*
X3467Y1742D02*
X3538Y1742D01*
X2067Y1741D02*
X2138Y1741D01*
X2167Y1741D02*
X2238Y1741D01*
X2267Y1741D02*
X2338Y1741D01*
X2367Y1741D02*
X2438Y1741D01*
X2467Y1741D02*
X2538Y1741D01*
X2567Y1741D02*
X2638Y1741D01*
X2667Y1741D02*
X2738Y1741D01*
X2767Y1741D02*
X2838Y1741D01*
X2867Y1741D02*
X2938Y1741D01*
X2967Y1741D02*
X3038Y1741D01*
X3067Y1741D02*
X3138Y1741D01*
X3167Y1741D02*
X3238Y1741D01*
X3267Y1741D02*
X3338Y1741D01*
X3367Y1741D02*
X3438Y1741D01*
X3467Y1741D02*
X3538Y1741D01*
X2067Y1740D02*
X2138Y1740D01*
X2167Y1740D02*
X2238Y1740D01*
X2267Y1740D02*
X2338Y1740D01*
X2367Y1740D02*
X2438Y1740D01*
X2467Y1740D02*
X2538Y1740D01*
X2567Y1740D02*
X2638Y1740D01*
X2667Y1740D02*
X2738Y1740D01*
X2767Y1740D02*
X2838Y1740D01*
X2867Y1740D02*
X2938Y1740D01*
X2967Y1740D02*
X3038Y1740D01*
X3067Y1740D02*
X3138Y1740D01*
X3167Y1740D02*
X3238Y1740D01*
X3267Y1740D02*
X3338Y1740D01*
X3367Y1740D02*
X3438Y1740D01*
X3467Y1740D02*
X3538Y1740D01*
X2067Y1739D02*
X2138Y1739D01*
X2167Y1739D02*
X2238Y1739D01*
X2267Y1739D02*
X2338Y1739D01*
X2367Y1739D02*
X2438Y1739D01*
X2467Y1739D02*
X2538Y1739D01*
X2567Y1739D02*
X2638Y1739D01*
X2667Y1739D02*
X2738Y1739D01*
X2767Y1739D02*
X2838Y1739D01*
X2867Y1739D02*
X2938Y1739D01*
X2967Y1739D02*
X3038Y1739D01*
X3067Y1739D02*
X3138Y1739D01*
X3167Y1739D02*
X3238Y1739D01*
X3267Y1739D02*
X3338Y1739D01*
X3367Y1739D02*
X3438Y1739D01*
X3467Y1739D02*
X3538Y1739D01*
X2067Y1738D02*
X2138Y1738D01*
X2167Y1738D02*
X2238Y1738D01*
X2267Y1738D02*
X2338Y1738D01*
X2367Y1738D02*
X2438Y1738D01*
X2467Y1738D02*
X2538Y1738D01*
X2567Y1738D02*
X2638Y1738D01*
X2667Y1738D02*
X2738Y1738D01*
X2767Y1738D02*
X2838Y1738D01*
X2867Y1738D02*
X2938Y1738D01*
X2967Y1738D02*
X3038Y1738D01*
X3067Y1738D02*
X3138Y1738D01*
X3167Y1738D02*
X3238Y1738D01*
X3267Y1738D02*
X3338Y1738D01*
X3367Y1738D02*
X3438Y1738D01*
X3467Y1738D02*
X3538Y1738D01*
X2067Y1737D02*
X2138Y1737D01*
X2167Y1737D02*
X2238Y1737D01*
X2267Y1737D02*
X2338Y1737D01*
X2367Y1737D02*
X2438Y1737D01*
X2467Y1737D02*
X2538Y1737D01*
X2567Y1737D02*
X2638Y1737D01*
X2667Y1737D02*
X2738Y1737D01*
X2767Y1737D02*
X2838Y1737D01*
X2867Y1737D02*
X2938Y1737D01*
X2967Y1737D02*
X3038Y1737D01*
X3067Y1737D02*
X3138Y1737D01*
X3167Y1737D02*
X3238Y1737D01*
X3267Y1737D02*
X3338Y1737D01*
X3367Y1737D02*
X3438Y1737D01*
X3467Y1737D02*
X3538Y1737D01*
X2067Y1736D02*
X2138Y1736D01*
X2167Y1736D02*
X2238Y1736D01*
X2267Y1736D02*
X2338Y1736D01*
X2367Y1736D02*
X2438Y1736D01*
X2467Y1736D02*
X2538Y1736D01*
X2567Y1736D02*
X2638Y1736D01*
X2667Y1736D02*
X2738Y1736D01*
X2767Y1736D02*
X2838Y1736D01*
X2867Y1736D02*
X2938Y1736D01*
X2967Y1736D02*
X3038Y1736D01*
X3067Y1736D02*
X3138Y1736D01*
X3167Y1736D02*
X3238Y1736D01*
X3267Y1736D02*
X3338Y1736D01*
X3367Y1736D02*
X3438Y1736D01*
X3467Y1736D02*
X3538Y1736D01*
X2067Y1735D02*
X2138Y1735D01*
X2167Y1735D02*
X2238Y1735D01*
X2267Y1735D02*
X2338Y1735D01*
X2367Y1735D02*
X2438Y1735D01*
X2467Y1735D02*
X2538Y1735D01*
X2567Y1735D02*
X2638Y1735D01*
X2667Y1735D02*
X2738Y1735D01*
X2767Y1735D02*
X2838Y1735D01*
X2867Y1735D02*
X2938Y1735D01*
X2967Y1735D02*
X3038Y1735D01*
X3067Y1735D02*
X3138Y1735D01*
X3167Y1735D02*
X3238Y1735D01*
X3267Y1735D02*
X3338Y1735D01*
X3367Y1735D02*
X3438Y1735D01*
X3467Y1735D02*
X3538Y1735D01*
X2067Y1734D02*
X2138Y1734D01*
X2167Y1734D02*
X2238Y1734D01*
X2267Y1734D02*
X2338Y1734D01*
X2367Y1734D02*
X2438Y1734D01*
X2467Y1734D02*
X2538Y1734D01*
X2567Y1734D02*
X2638Y1734D01*
X2667Y1734D02*
X2738Y1734D01*
X2767Y1734D02*
X2838Y1734D01*
X2867Y1734D02*
X2938Y1734D01*
X2967Y1734D02*
X3038Y1734D01*
X3067Y1734D02*
X3138Y1734D01*
X3167Y1734D02*
X3238Y1734D01*
X3267Y1734D02*
X3338Y1734D01*
X3367Y1734D02*
X3438Y1734D01*
X3467Y1734D02*
X3538Y1734D01*
X2067Y1733D02*
X2099Y1733D01*
X2106Y1733D02*
X2138Y1733D01*
X2167Y1733D02*
X2199Y1733D01*
X2206Y1733D02*
X2238Y1733D01*
X2267Y1733D02*
X2299Y1733D01*
X2306Y1733D02*
X2338Y1733D01*
X2367Y1733D02*
X2399Y1733D01*
X2406Y1733D02*
X2438Y1733D01*
X2467Y1733D02*
X2499Y1733D01*
X2505Y1733D02*
X2538Y1733D01*
X2567Y1733D02*
X2599Y1733D01*
X2605Y1733D02*
X2638Y1733D01*
X2667Y1733D02*
X2699Y1733D01*
X2706Y1733D02*
X2738Y1733D01*
X2767Y1733D02*
X2800Y1733D01*
X2805Y1733D02*
X2838Y1733D01*
X2867Y1733D02*
X2899Y1733D01*
X2906Y1733D02*
X2938Y1733D01*
X2967Y1733D02*
X2999Y1733D01*
X3006Y1733D02*
X3038Y1733D01*
X3067Y1733D02*
X3099Y1733D01*
X3106Y1733D02*
X3138Y1733D01*
X3167Y1733D02*
X3199Y1733D01*
X3206Y1733D02*
X3238Y1733D01*
X3267Y1733D02*
X3299Y1733D01*
X3306Y1733D02*
X3338Y1733D01*
X3367Y1733D02*
X3399Y1733D01*
X3406Y1733D02*
X3438Y1733D01*
X3467Y1733D02*
X3500Y1733D01*
X3505Y1733D02*
X3538Y1733D01*
X2067Y1732D02*
X2098Y1732D01*
X2107Y1732D02*
X2138Y1732D01*
X2167Y1732D02*
X2198Y1732D01*
X2207Y1732D02*
X2238Y1732D01*
X2267Y1732D02*
X2298Y1732D01*
X2307Y1732D02*
X2338Y1732D01*
X2367Y1732D02*
X2398Y1732D01*
X2407Y1732D02*
X2438Y1732D01*
X2467Y1732D02*
X2498Y1732D01*
X2507Y1732D02*
X2538Y1732D01*
X2567Y1732D02*
X2598Y1732D01*
X2607Y1732D02*
X2638Y1732D01*
X2667Y1732D02*
X2698Y1732D01*
X2707Y1732D02*
X2738Y1732D01*
X2767Y1732D02*
X2798Y1732D01*
X2807Y1732D02*
X2838Y1732D01*
X2867Y1732D02*
X2898Y1732D01*
X2907Y1732D02*
X2938Y1732D01*
X2967Y1732D02*
X2998Y1732D01*
X3007Y1732D02*
X3038Y1732D01*
X3067Y1732D02*
X3098Y1732D01*
X3107Y1732D02*
X3138Y1732D01*
X3167Y1732D02*
X3198Y1732D01*
X3207Y1732D02*
X3238Y1732D01*
X3267Y1732D02*
X3298Y1732D01*
X3307Y1732D02*
X3338Y1732D01*
X3367Y1732D02*
X3398Y1732D01*
X3407Y1732D02*
X3438Y1732D01*
X3467Y1732D02*
X3498Y1732D01*
X3507Y1732D02*
X3538Y1732D01*
X2067Y1731D02*
X2097Y1731D01*
X2108Y1731D02*
X2138Y1731D01*
X2167Y1731D02*
X2197Y1731D01*
X2208Y1731D02*
X2238Y1731D01*
X2267Y1731D02*
X2297Y1731D01*
X2308Y1731D02*
X2338Y1731D01*
X2367Y1731D02*
X2397Y1731D01*
X2408Y1731D02*
X2438Y1731D01*
X2467Y1731D02*
X2497Y1731D01*
X2508Y1731D02*
X2538Y1731D01*
X2567Y1731D02*
X2597Y1731D01*
X2608Y1731D02*
X2638Y1731D01*
X2667Y1731D02*
X2697Y1731D01*
X2708Y1731D02*
X2738Y1731D01*
X2767Y1731D02*
X2797Y1731D01*
X2808Y1731D02*
X2838Y1731D01*
X2867Y1731D02*
X2897Y1731D01*
X2908Y1731D02*
X2938Y1731D01*
X2967Y1731D02*
X2997Y1731D01*
X3008Y1731D02*
X3038Y1731D01*
X3067Y1731D02*
X3097Y1731D01*
X3108Y1731D02*
X3138Y1731D01*
X3167Y1731D02*
X3197Y1731D01*
X3208Y1731D02*
X3238Y1731D01*
X3267Y1731D02*
X3297Y1731D01*
X3308Y1731D02*
X3338Y1731D01*
X3367Y1731D02*
X3397Y1731D01*
X3408Y1731D02*
X3438Y1731D01*
X3467Y1731D02*
X3497Y1731D01*
X3508Y1731D02*
X3538Y1731D01*
X2067Y1730D02*
X2097Y1730D01*
X2108Y1730D02*
X2138Y1730D01*
X2167Y1730D02*
X2196Y1730D01*
X2208Y1730D02*
X2238Y1730D01*
X2267Y1730D02*
X2297Y1730D01*
X2308Y1730D02*
X2338Y1730D01*
X2367Y1730D02*
X2396Y1730D01*
X2409Y1730D02*
X2438Y1730D01*
X2467Y1730D02*
X2496Y1730D01*
X2509Y1730D02*
X2538Y1730D01*
X2567Y1730D02*
X2596Y1730D01*
X2609Y1730D02*
X2638Y1730D01*
X2667Y1730D02*
X2696Y1730D01*
X2709Y1730D02*
X2738Y1730D01*
X2767Y1730D02*
X2797Y1730D01*
X2808Y1730D02*
X2838Y1730D01*
X2867Y1730D02*
X2896Y1730D01*
X2909Y1730D02*
X2938Y1730D01*
X2967Y1730D02*
X2996Y1730D01*
X3009Y1730D02*
X3038Y1730D01*
X3067Y1730D02*
X3096Y1730D01*
X3109Y1730D02*
X3138Y1730D01*
X3167Y1730D02*
X3197Y1730D01*
X3208Y1730D02*
X3238Y1730D01*
X3267Y1730D02*
X3296Y1730D01*
X3308Y1730D02*
X3338Y1730D01*
X3367Y1730D02*
X3397Y1730D01*
X3408Y1730D02*
X3438Y1730D01*
X3467Y1730D02*
X3497Y1730D01*
X3508Y1730D02*
X3538Y1730D01*
X2067Y1729D02*
X2096Y1729D01*
X2109Y1729D02*
X2138Y1729D01*
X2167Y1729D02*
X2196Y1729D01*
X2209Y1729D02*
X2238Y1729D01*
X2267Y1729D02*
X2296Y1729D01*
X2309Y1729D02*
X2338Y1729D01*
X2367Y1729D02*
X2396Y1729D01*
X2409Y1729D02*
X2438Y1729D01*
X2467Y1729D02*
X2496Y1729D01*
X2509Y1729D02*
X2538Y1729D01*
X2567Y1729D02*
X2596Y1729D01*
X2609Y1729D02*
X2638Y1729D01*
X2667Y1729D02*
X2696Y1729D01*
X2709Y1729D02*
X2738Y1729D01*
X2767Y1729D02*
X2796Y1729D01*
X2809Y1729D02*
X2838Y1729D01*
X2867Y1729D02*
X2896Y1729D01*
X2909Y1729D02*
X2938Y1729D01*
X2967Y1729D02*
X2996Y1729D01*
X3009Y1729D02*
X3038Y1729D01*
X3067Y1729D02*
X3096Y1729D01*
X3109Y1729D02*
X3138Y1729D01*
X3167Y1729D02*
X3196Y1729D01*
X3209Y1729D02*
X3238Y1729D01*
X3267Y1729D02*
X3296Y1729D01*
X3309Y1729D02*
X3338Y1729D01*
X3367Y1729D02*
X3396Y1729D01*
X3409Y1729D02*
X3438Y1729D01*
X3467Y1729D02*
X3496Y1729D01*
X3509Y1729D02*
X3538Y1729D01*
X2067Y1728D02*
X2096Y1728D01*
X2109Y1728D02*
X2138Y1728D01*
X2167Y1728D02*
X2196Y1728D01*
X2209Y1728D02*
X2238Y1728D01*
X2267Y1728D02*
X2296Y1728D01*
X2309Y1728D02*
X2338Y1728D01*
X2367Y1728D02*
X2396Y1728D01*
X2409Y1728D02*
X2438Y1728D01*
X2467Y1728D02*
X2496Y1728D01*
X2509Y1728D02*
X2538Y1728D01*
X2567Y1728D02*
X2596Y1728D01*
X2609Y1728D02*
X2638Y1728D01*
X2667Y1728D02*
X2696Y1728D01*
X2709Y1728D02*
X2738Y1728D01*
X2767Y1728D02*
X2796Y1728D01*
X2809Y1728D02*
X2838Y1728D01*
X2867Y1728D02*
X2896Y1728D01*
X2909Y1728D02*
X2938Y1728D01*
X2967Y1728D02*
X2996Y1728D01*
X3009Y1728D02*
X3038Y1728D01*
X3067Y1728D02*
X3096Y1728D01*
X3109Y1728D02*
X3138Y1728D01*
X3167Y1728D02*
X3196Y1728D01*
X3209Y1728D02*
X3238Y1728D01*
X3267Y1728D02*
X3296Y1728D01*
X3309Y1728D02*
X3338Y1728D01*
X3367Y1728D02*
X3396Y1728D01*
X3409Y1728D02*
X3438Y1728D01*
X3467Y1728D02*
X3496Y1728D01*
X3509Y1728D02*
X3538Y1728D01*
X2067Y1727D02*
X2096Y1727D01*
X2109Y1727D02*
X2138Y1727D01*
X2167Y1727D02*
X2196Y1727D01*
X2209Y1727D02*
X2238Y1727D01*
X2267Y1727D02*
X2296Y1727D01*
X2309Y1727D02*
X2338Y1727D01*
X2367Y1727D02*
X2396Y1727D01*
X2409Y1727D02*
X2438Y1727D01*
X2467Y1727D02*
X2496Y1727D01*
X2509Y1727D02*
X2538Y1727D01*
X2567Y1727D02*
X2596Y1727D01*
X2609Y1727D02*
X2638Y1727D01*
X2667Y1727D02*
X2696Y1727D01*
X2709Y1727D02*
X2738Y1727D01*
X2767Y1727D02*
X2796Y1727D01*
X2809Y1727D02*
X2838Y1727D01*
X2867Y1727D02*
X2896Y1727D01*
X2909Y1727D02*
X2938Y1727D01*
X2967Y1727D02*
X2996Y1727D01*
X3009Y1727D02*
X3038Y1727D01*
X3067Y1727D02*
X3096Y1727D01*
X3109Y1727D02*
X3138Y1727D01*
X3167Y1727D02*
X3196Y1727D01*
X3209Y1727D02*
X3238Y1727D01*
X3267Y1727D02*
X3296Y1727D01*
X3309Y1727D02*
X3338Y1727D01*
X3367Y1727D02*
X3396Y1727D01*
X3409Y1727D02*
X3438Y1727D01*
X3467Y1727D02*
X3496Y1727D01*
X3509Y1727D02*
X3538Y1727D01*
X2067Y1726D02*
X2096Y1726D01*
X2109Y1726D02*
X2138Y1726D01*
X2167Y1726D02*
X2196Y1726D01*
X2209Y1726D02*
X2238Y1726D01*
X2267Y1726D02*
X2296Y1726D01*
X2309Y1726D02*
X2338Y1726D01*
X2367Y1726D02*
X2396Y1726D01*
X2409Y1726D02*
X2438Y1726D01*
X2467Y1726D02*
X2496Y1726D01*
X2509Y1726D02*
X2538Y1726D01*
X2567Y1726D02*
X2596Y1726D01*
X2609Y1726D02*
X2638Y1726D01*
X2667Y1726D02*
X2696Y1726D01*
X2709Y1726D02*
X2738Y1726D01*
X2767Y1726D02*
X2796Y1726D01*
X2809Y1726D02*
X2838Y1726D01*
X2867Y1726D02*
X2896Y1726D01*
X2909Y1726D02*
X2938Y1726D01*
X2967Y1726D02*
X2996Y1726D01*
X3009Y1726D02*
X3038Y1726D01*
X3067Y1726D02*
X3096Y1726D01*
X3109Y1726D02*
X3138Y1726D01*
X3167Y1726D02*
X3196Y1726D01*
X3209Y1726D02*
X3238Y1726D01*
X3267Y1726D02*
X3296Y1726D01*
X3309Y1726D02*
X3338Y1726D01*
X3367Y1726D02*
X3396Y1726D01*
X3409Y1726D02*
X3438Y1726D01*
X3467Y1726D02*
X3496Y1726D01*
X3509Y1726D02*
X3538Y1726D01*
X2067Y1725D02*
X2096Y1725D01*
X2109Y1725D02*
X2138Y1725D01*
X2167Y1725D02*
X2196Y1725D01*
X2209Y1725D02*
X2238Y1725D01*
X2267Y1725D02*
X2296Y1725D01*
X2309Y1725D02*
X2338Y1725D01*
X2367Y1725D02*
X2396Y1725D01*
X2409Y1725D02*
X2438Y1725D01*
X2467Y1725D02*
X2496Y1725D01*
X2509Y1725D02*
X2538Y1725D01*
X2567Y1725D02*
X2596Y1725D01*
X2609Y1725D02*
X2638Y1725D01*
X2667Y1725D02*
X2696Y1725D01*
X2709Y1725D02*
X2738Y1725D01*
X2767Y1725D02*
X2797Y1725D01*
X2808Y1725D02*
X2838Y1725D01*
X2867Y1725D02*
X2896Y1725D01*
X2909Y1725D02*
X2938Y1725D01*
X2967Y1725D02*
X2996Y1725D01*
X3009Y1725D02*
X3038Y1725D01*
X3067Y1725D02*
X3096Y1725D01*
X3109Y1725D02*
X3138Y1725D01*
X3167Y1725D02*
X3196Y1725D01*
X3209Y1725D02*
X3238Y1725D01*
X3267Y1725D02*
X3296Y1725D01*
X3309Y1725D02*
X3338Y1725D01*
X3367Y1725D02*
X3396Y1725D01*
X3409Y1725D02*
X3438Y1725D01*
X3467Y1725D02*
X3496Y1725D01*
X3509Y1725D02*
X3538Y1725D01*
X2067Y1724D02*
X2097Y1724D01*
X2108Y1724D02*
X2138Y1724D01*
X2167Y1724D02*
X2197Y1724D01*
X2208Y1724D02*
X2238Y1724D01*
X2267Y1724D02*
X2297Y1724D01*
X2308Y1724D02*
X2338Y1724D01*
X2367Y1724D02*
X2397Y1724D01*
X2408Y1724D02*
X2438Y1724D01*
X2467Y1724D02*
X2497Y1724D01*
X2508Y1724D02*
X2538Y1724D01*
X2567Y1724D02*
X2597Y1724D01*
X2608Y1724D02*
X2638Y1724D01*
X2667Y1724D02*
X2697Y1724D01*
X2708Y1724D02*
X2738Y1724D01*
X2767Y1724D02*
X2797Y1724D01*
X2808Y1724D02*
X2838Y1724D01*
X2867Y1724D02*
X2897Y1724D01*
X2908Y1724D02*
X2938Y1724D01*
X2967Y1724D02*
X2997Y1724D01*
X3008Y1724D02*
X3038Y1724D01*
X3067Y1724D02*
X3097Y1724D01*
X3108Y1724D02*
X3138Y1724D01*
X3167Y1724D02*
X3197Y1724D01*
X3208Y1724D02*
X3238Y1724D01*
X3267Y1724D02*
X3297Y1724D01*
X3308Y1724D02*
X3338Y1724D01*
X3367Y1724D02*
X3397Y1724D01*
X3408Y1724D02*
X3438Y1724D01*
X3467Y1724D02*
X3497Y1724D01*
X3508Y1724D02*
X3538Y1724D01*
X2067Y1723D02*
X2098Y1723D01*
X2107Y1723D02*
X2138Y1723D01*
X2167Y1723D02*
X2198Y1723D01*
X2207Y1723D02*
X2238Y1723D01*
X2267Y1723D02*
X2298Y1723D01*
X2307Y1723D02*
X2338Y1723D01*
X2367Y1723D02*
X2398Y1723D01*
X2407Y1723D02*
X2438Y1723D01*
X2467Y1723D02*
X2498Y1723D01*
X2507Y1723D02*
X2538Y1723D01*
X2567Y1723D02*
X2598Y1723D01*
X2607Y1723D02*
X2638Y1723D01*
X2667Y1723D02*
X2698Y1723D01*
X2707Y1723D02*
X2738Y1723D01*
X2767Y1723D02*
X2798Y1723D01*
X2807Y1723D02*
X2838Y1723D01*
X2867Y1723D02*
X2898Y1723D01*
X2907Y1723D02*
X2938Y1723D01*
X2967Y1723D02*
X2998Y1723D01*
X3007Y1723D02*
X3038Y1723D01*
X3067Y1723D02*
X3098Y1723D01*
X3107Y1723D02*
X3138Y1723D01*
X3167Y1723D02*
X3198Y1723D01*
X3207Y1723D02*
X3238Y1723D01*
X3267Y1723D02*
X3298Y1723D01*
X3307Y1723D02*
X3338Y1723D01*
X3367Y1723D02*
X3398Y1723D01*
X3407Y1723D02*
X3438Y1723D01*
X3467Y1723D02*
X3498Y1723D01*
X3507Y1723D02*
X3538Y1723D01*
X2067Y1722D02*
X2099Y1722D01*
X2106Y1722D02*
X2138Y1722D01*
X2167Y1722D02*
X2199Y1722D01*
X2206Y1722D02*
X2238Y1722D01*
X2267Y1722D02*
X2299Y1722D01*
X2306Y1722D02*
X2338Y1722D01*
X2367Y1722D02*
X2399Y1722D01*
X2406Y1722D02*
X2438Y1722D01*
X2467Y1722D02*
X2499Y1722D01*
X2506Y1722D02*
X2538Y1722D01*
X2567Y1722D02*
X2599Y1722D01*
X2606Y1722D02*
X2638Y1722D01*
X2667Y1722D02*
X2699Y1722D01*
X2706Y1722D02*
X2738Y1722D01*
X2767Y1722D02*
X2799Y1722D01*
X2806Y1722D02*
X2838Y1722D01*
X2867Y1722D02*
X2899Y1722D01*
X2906Y1722D02*
X2938Y1722D01*
X2967Y1722D02*
X2999Y1722D01*
X3006Y1722D02*
X3038Y1722D01*
X3067Y1722D02*
X3099Y1722D01*
X3106Y1722D02*
X3138Y1722D01*
X3167Y1722D02*
X3199Y1722D01*
X3206Y1722D02*
X3238Y1722D01*
X3267Y1722D02*
X3299Y1722D01*
X3306Y1722D02*
X3338Y1722D01*
X3367Y1722D02*
X3399Y1722D01*
X3406Y1722D02*
X3438Y1722D01*
X3467Y1722D02*
X3499Y1722D01*
X3506Y1722D02*
X3538Y1722D01*
X2067Y1721D02*
X2138Y1721D01*
X2167Y1721D02*
X2238Y1721D01*
X2267Y1721D02*
X2338Y1721D01*
X2367Y1721D02*
X2438Y1721D01*
X2467Y1721D02*
X2538Y1721D01*
X2567Y1721D02*
X2638Y1721D01*
X2667Y1721D02*
X2738Y1721D01*
X2767Y1721D02*
X2838Y1721D01*
X2867Y1721D02*
X2938Y1721D01*
X2967Y1721D02*
X3038Y1721D01*
X3067Y1721D02*
X3138Y1721D01*
X3167Y1721D02*
X3238Y1721D01*
X3267Y1721D02*
X3338Y1721D01*
X3367Y1721D02*
X3438Y1721D01*
X3467Y1721D02*
X3538Y1721D01*
X2067Y1720D02*
X2138Y1720D01*
X2167Y1720D02*
X2238Y1720D01*
X2267Y1720D02*
X2338Y1720D01*
X2367Y1720D02*
X2438Y1720D01*
X2467Y1720D02*
X2538Y1720D01*
X2567Y1720D02*
X2638Y1720D01*
X2667Y1720D02*
X2738Y1720D01*
X2767Y1720D02*
X2838Y1720D01*
X2867Y1720D02*
X2938Y1720D01*
X2967Y1720D02*
X3038Y1720D01*
X3067Y1720D02*
X3138Y1720D01*
X3167Y1720D02*
X3238Y1720D01*
X3267Y1720D02*
X3338Y1720D01*
X3367Y1720D02*
X3438Y1720D01*
X3467Y1720D02*
X3538Y1720D01*
X2067Y1719D02*
X2138Y1719D01*
X2167Y1719D02*
X2238Y1719D01*
X2267Y1719D02*
X2338Y1719D01*
X2367Y1719D02*
X2438Y1719D01*
X2467Y1719D02*
X2538Y1719D01*
X2567Y1719D02*
X2638Y1719D01*
X2667Y1719D02*
X2738Y1719D01*
X2767Y1719D02*
X2838Y1719D01*
X2867Y1719D02*
X2938Y1719D01*
X2967Y1719D02*
X3038Y1719D01*
X3067Y1719D02*
X3138Y1719D01*
X3167Y1719D02*
X3238Y1719D01*
X3267Y1719D02*
X3338Y1719D01*
X3367Y1719D02*
X3438Y1719D01*
X3467Y1719D02*
X3538Y1719D01*
X2067Y1718D02*
X2138Y1718D01*
X2167Y1718D02*
X2238Y1718D01*
X2267Y1718D02*
X2338Y1718D01*
X2367Y1718D02*
X2438Y1718D01*
X2467Y1718D02*
X2538Y1718D01*
X2567Y1718D02*
X2638Y1718D01*
X2667Y1718D02*
X2738Y1718D01*
X2767Y1718D02*
X2838Y1718D01*
X2867Y1718D02*
X2938Y1718D01*
X2967Y1718D02*
X3038Y1718D01*
X3067Y1718D02*
X3138Y1718D01*
X3167Y1718D02*
X3238Y1718D01*
X3267Y1718D02*
X3338Y1718D01*
X3367Y1718D02*
X3438Y1718D01*
X3467Y1718D02*
X3538Y1718D01*
X2067Y1717D02*
X2138Y1717D01*
X2167Y1717D02*
X2238Y1717D01*
X2267Y1717D02*
X2338Y1717D01*
X2367Y1717D02*
X2438Y1717D01*
X2467Y1717D02*
X2538Y1717D01*
X2567Y1717D02*
X2638Y1717D01*
X2667Y1717D02*
X2738Y1717D01*
X2767Y1717D02*
X2838Y1717D01*
X2867Y1717D02*
X2938Y1717D01*
X2967Y1717D02*
X3038Y1717D01*
X3067Y1717D02*
X3138Y1717D01*
X3167Y1717D02*
X3238Y1717D01*
X3267Y1717D02*
X3338Y1717D01*
X3367Y1717D02*
X3438Y1717D01*
X3467Y1717D02*
X3538Y1717D01*
X2067Y1716D02*
X2138Y1716D01*
X2167Y1716D02*
X2238Y1716D01*
X2267Y1716D02*
X2338Y1716D01*
X2367Y1716D02*
X2438Y1716D01*
X2467Y1716D02*
X2538Y1716D01*
X2567Y1716D02*
X2638Y1716D01*
X2667Y1716D02*
X2738Y1716D01*
X2767Y1716D02*
X2838Y1716D01*
X2867Y1716D02*
X2938Y1716D01*
X2967Y1716D02*
X3038Y1716D01*
X3067Y1716D02*
X3138Y1716D01*
X3167Y1716D02*
X3238Y1716D01*
X3267Y1716D02*
X3338Y1716D01*
X3367Y1716D02*
X3438Y1716D01*
X3467Y1716D02*
X3538Y1716D01*
X2067Y1715D02*
X2138Y1715D01*
X2167Y1715D02*
X2238Y1715D01*
X2267Y1715D02*
X2338Y1715D01*
X2367Y1715D02*
X2438Y1715D01*
X2467Y1715D02*
X2538Y1715D01*
X2567Y1715D02*
X2638Y1715D01*
X2667Y1715D02*
X2738Y1715D01*
X2767Y1715D02*
X2838Y1715D01*
X2867Y1715D02*
X2938Y1715D01*
X2967Y1715D02*
X3038Y1715D01*
X3067Y1715D02*
X3138Y1715D01*
X3167Y1715D02*
X3238Y1715D01*
X3267Y1715D02*
X3338Y1715D01*
X3367Y1715D02*
X3438Y1715D01*
X3467Y1715D02*
X3538Y1715D01*
X2067Y1714D02*
X2138Y1714D01*
X2167Y1714D02*
X2238Y1714D01*
X2267Y1714D02*
X2338Y1714D01*
X2367Y1714D02*
X2438Y1714D01*
X2467Y1714D02*
X2538Y1714D01*
X2567Y1714D02*
X2638Y1714D01*
X2667Y1714D02*
X2738Y1714D01*
X2767Y1714D02*
X2838Y1714D01*
X2867Y1714D02*
X2938Y1714D01*
X2967Y1714D02*
X3038Y1714D01*
X3067Y1714D02*
X3138Y1714D01*
X3167Y1714D02*
X3238Y1714D01*
X3267Y1714D02*
X3338Y1714D01*
X3367Y1714D02*
X3438Y1714D01*
X3467Y1714D02*
X3538Y1714D01*
X2067Y1713D02*
X2138Y1713D01*
X2167Y1713D02*
X2238Y1713D01*
X2267Y1713D02*
X2338Y1713D01*
X2367Y1713D02*
X2438Y1713D01*
X2467Y1713D02*
X2538Y1713D01*
X2567Y1713D02*
X2638Y1713D01*
X2667Y1713D02*
X2738Y1713D01*
X2767Y1713D02*
X2838Y1713D01*
X2867Y1713D02*
X2938Y1713D01*
X2967Y1713D02*
X3038Y1713D01*
X3067Y1713D02*
X3138Y1713D01*
X3167Y1713D02*
X3238Y1713D01*
X3267Y1713D02*
X3338Y1713D01*
X3367Y1713D02*
X3438Y1713D01*
X3467Y1713D02*
X3538Y1713D01*
X2067Y1712D02*
X2138Y1712D01*
X2167Y1712D02*
X2238Y1712D01*
X2267Y1712D02*
X2338Y1712D01*
X2367Y1712D02*
X2438Y1712D01*
X2467Y1712D02*
X2538Y1712D01*
X2567Y1712D02*
X2638Y1712D01*
X2667Y1712D02*
X2738Y1712D01*
X2767Y1712D02*
X2838Y1712D01*
X2867Y1712D02*
X2938Y1712D01*
X2967Y1712D02*
X3038Y1712D01*
X3067Y1712D02*
X3138Y1712D01*
X3167Y1712D02*
X3238Y1712D01*
X3267Y1712D02*
X3338Y1712D01*
X3367Y1712D02*
X3438Y1712D01*
X3467Y1712D02*
X3538Y1712D01*
X2067Y1711D02*
X2138Y1711D01*
X2167Y1711D02*
X2238Y1711D01*
X2267Y1711D02*
X2338Y1711D01*
X2367Y1711D02*
X2438Y1711D01*
X2467Y1711D02*
X2538Y1711D01*
X2567Y1711D02*
X2638Y1711D01*
X2667Y1711D02*
X2738Y1711D01*
X2767Y1711D02*
X2838Y1711D01*
X2867Y1711D02*
X2938Y1711D01*
X2967Y1711D02*
X3038Y1711D01*
X3067Y1711D02*
X3138Y1711D01*
X3167Y1711D02*
X3238Y1711D01*
X3267Y1711D02*
X3338Y1711D01*
X3367Y1711D02*
X3438Y1711D01*
X3467Y1711D02*
X3538Y1711D01*
X2067Y1710D02*
X2138Y1710D01*
X2167Y1710D02*
X2238Y1710D01*
X2267Y1710D02*
X2338Y1710D01*
X2367Y1710D02*
X2438Y1710D01*
X2467Y1710D02*
X2538Y1710D01*
X2567Y1710D02*
X2638Y1710D01*
X2667Y1710D02*
X2738Y1710D01*
X2767Y1710D02*
X2838Y1710D01*
X2867Y1710D02*
X2938Y1710D01*
X2967Y1710D02*
X3038Y1710D01*
X3067Y1710D02*
X3138Y1710D01*
X3167Y1710D02*
X3238Y1710D01*
X3267Y1710D02*
X3338Y1710D01*
X3367Y1710D02*
X3438Y1710D01*
X3467Y1710D02*
X3538Y1710D01*
X2067Y1709D02*
X2138Y1709D01*
X2167Y1709D02*
X2238Y1709D01*
X2267Y1709D02*
X2338Y1709D01*
X2367Y1709D02*
X2438Y1709D01*
X2467Y1709D02*
X2538Y1709D01*
X2567Y1709D02*
X2638Y1709D01*
X2667Y1709D02*
X2738Y1709D01*
X2767Y1709D02*
X2838Y1709D01*
X2867Y1709D02*
X2938Y1709D01*
X2967Y1709D02*
X3038Y1709D01*
X3067Y1709D02*
X3138Y1709D01*
X3167Y1709D02*
X3238Y1709D01*
X3267Y1709D02*
X3338Y1709D01*
X3367Y1709D02*
X3438Y1709D01*
X3467Y1709D02*
X3538Y1709D01*
X2067Y1708D02*
X2138Y1708D01*
X2167Y1708D02*
X2238Y1708D01*
X2267Y1708D02*
X2338Y1708D01*
X2367Y1708D02*
X2438Y1708D01*
X2467Y1708D02*
X2538Y1708D01*
X2567Y1708D02*
X2638Y1708D01*
X2667Y1708D02*
X2738Y1708D01*
X2767Y1708D02*
X2838Y1708D01*
X2867Y1708D02*
X2938Y1708D01*
X2967Y1708D02*
X3038Y1708D01*
X3067Y1708D02*
X3138Y1708D01*
X3167Y1708D02*
X3238Y1708D01*
X3267Y1708D02*
X3338Y1708D01*
X3367Y1708D02*
X3438Y1708D01*
X3467Y1708D02*
X3538Y1708D01*
X2067Y1707D02*
X2138Y1707D01*
X2167Y1707D02*
X2238Y1707D01*
X2267Y1707D02*
X2338Y1707D01*
X2367Y1707D02*
X2438Y1707D01*
X2467Y1707D02*
X2538Y1707D01*
X2567Y1707D02*
X2638Y1707D01*
X2667Y1707D02*
X2738Y1707D01*
X2767Y1707D02*
X2838Y1707D01*
X2867Y1707D02*
X2938Y1707D01*
X2967Y1707D02*
X3038Y1707D01*
X3067Y1707D02*
X3138Y1707D01*
X3167Y1707D02*
X3238Y1707D01*
X3267Y1707D02*
X3338Y1707D01*
X3367Y1707D02*
X3438Y1707D01*
X3467Y1707D02*
X3538Y1707D01*
X2067Y1706D02*
X2138Y1706D01*
X2167Y1706D02*
X2238Y1706D01*
X2267Y1706D02*
X2338Y1706D01*
X2367Y1706D02*
X2438Y1706D01*
X2467Y1706D02*
X2538Y1706D01*
X2567Y1706D02*
X2638Y1706D01*
X2667Y1706D02*
X2738Y1706D01*
X2767Y1706D02*
X2838Y1706D01*
X2867Y1706D02*
X2938Y1706D01*
X2967Y1706D02*
X3038Y1706D01*
X3067Y1706D02*
X3138Y1706D01*
X3167Y1706D02*
X3238Y1706D01*
X3267Y1706D02*
X3338Y1706D01*
X3367Y1706D02*
X3438Y1706D01*
X3467Y1706D02*
X3538Y1706D01*
X2067Y1705D02*
X2138Y1705D01*
X2167Y1705D02*
X2238Y1705D01*
X2267Y1705D02*
X2338Y1705D01*
X2367Y1705D02*
X2438Y1705D01*
X2467Y1705D02*
X2538Y1705D01*
X2567Y1705D02*
X2638Y1705D01*
X2667Y1705D02*
X2738Y1705D01*
X2767Y1705D02*
X2838Y1705D01*
X2867Y1705D02*
X2938Y1705D01*
X2967Y1705D02*
X3038Y1705D01*
X3067Y1705D02*
X3138Y1705D01*
X3167Y1705D02*
X3238Y1705D01*
X3267Y1705D02*
X3338Y1705D01*
X3367Y1705D02*
X3438Y1705D01*
X3467Y1705D02*
X3538Y1705D01*
X2067Y1704D02*
X2138Y1704D01*
X2167Y1704D02*
X2238Y1704D01*
X2267Y1704D02*
X2338Y1704D01*
X2367Y1704D02*
X2438Y1704D01*
X2467Y1704D02*
X2538Y1704D01*
X2567Y1704D02*
X2638Y1704D01*
X2667Y1704D02*
X2738Y1704D01*
X2767Y1704D02*
X2838Y1704D01*
X2867Y1704D02*
X2938Y1704D01*
X2967Y1704D02*
X3038Y1704D01*
X3067Y1704D02*
X3138Y1704D01*
X3167Y1704D02*
X3238Y1704D01*
X3267Y1704D02*
X3338Y1704D01*
X3367Y1704D02*
X3438Y1704D01*
X3467Y1704D02*
X3538Y1704D01*
X2067Y1703D02*
X2138Y1703D01*
X2167Y1703D02*
X2238Y1703D01*
X2267Y1703D02*
X2338Y1703D01*
X2367Y1703D02*
X2438Y1703D01*
X2467Y1703D02*
X2538Y1703D01*
X2567Y1703D02*
X2638Y1703D01*
X2667Y1703D02*
X2738Y1703D01*
X2767Y1703D02*
X2838Y1703D01*
X2867Y1703D02*
X2938Y1703D01*
X2967Y1703D02*
X3038Y1703D01*
X3067Y1703D02*
X3138Y1703D01*
X3167Y1703D02*
X3238Y1703D01*
X3267Y1703D02*
X3338Y1703D01*
X3367Y1703D02*
X3438Y1703D01*
X3467Y1703D02*
X3538Y1703D01*
X2067Y1702D02*
X2138Y1702D01*
X2167Y1702D02*
X2238Y1702D01*
X2267Y1702D02*
X2338Y1702D01*
X2367Y1702D02*
X2438Y1702D01*
X2467Y1702D02*
X2538Y1702D01*
X2567Y1702D02*
X2638Y1702D01*
X2667Y1702D02*
X2738Y1702D01*
X2767Y1702D02*
X2838Y1702D01*
X2867Y1702D02*
X2938Y1702D01*
X2967Y1702D02*
X3038Y1702D01*
X3067Y1702D02*
X3138Y1702D01*
X3167Y1702D02*
X3238Y1702D01*
X3267Y1702D02*
X3338Y1702D01*
X3367Y1702D02*
X3438Y1702D01*
X3467Y1702D02*
X3538Y1702D01*
X2067Y1701D02*
X2138Y1701D01*
X2167Y1701D02*
X2238Y1701D01*
X2267Y1701D02*
X2338Y1701D01*
X2367Y1701D02*
X2438Y1701D01*
X2467Y1701D02*
X2538Y1701D01*
X2567Y1701D02*
X2638Y1701D01*
X2667Y1701D02*
X2738Y1701D01*
X2767Y1701D02*
X2838Y1701D01*
X2867Y1701D02*
X2938Y1701D01*
X2967Y1701D02*
X3038Y1701D01*
X3067Y1701D02*
X3138Y1701D01*
X3167Y1701D02*
X3238Y1701D01*
X3267Y1701D02*
X3338Y1701D01*
X3367Y1701D02*
X3438Y1701D01*
X3467Y1701D02*
X3538Y1701D01*
X2067Y1700D02*
X2138Y1700D01*
X2167Y1700D02*
X2238Y1700D01*
X2267Y1700D02*
X2338Y1700D01*
X2367Y1700D02*
X2438Y1700D01*
X2467Y1700D02*
X2538Y1700D01*
X2567Y1700D02*
X2638Y1700D01*
X2667Y1700D02*
X2738Y1700D01*
X2767Y1700D02*
X2838Y1700D01*
X2867Y1700D02*
X2938Y1700D01*
X2967Y1700D02*
X3038Y1700D01*
X3067Y1700D02*
X3138Y1700D01*
X3167Y1700D02*
X3238Y1700D01*
X3267Y1700D02*
X3338Y1700D01*
X3367Y1700D02*
X3438Y1700D01*
X3467Y1700D02*
X3538Y1700D01*
X2067Y1699D02*
X2138Y1699D01*
X2167Y1699D02*
X2238Y1699D01*
X2267Y1699D02*
X2338Y1699D01*
X2367Y1699D02*
X2438Y1699D01*
X2467Y1699D02*
X2538Y1699D01*
X2567Y1699D02*
X2638Y1699D01*
X2667Y1699D02*
X2738Y1699D01*
X2767Y1699D02*
X2838Y1699D01*
X2867Y1699D02*
X2938Y1699D01*
X2967Y1699D02*
X3038Y1699D01*
X3067Y1699D02*
X3138Y1699D01*
X3167Y1699D02*
X3238Y1699D01*
X3267Y1699D02*
X3338Y1699D01*
X3367Y1699D02*
X3438Y1699D01*
X3467Y1699D02*
X3538Y1699D01*
X2067Y1698D02*
X2138Y1698D01*
X2167Y1698D02*
X2238Y1698D01*
X2267Y1698D02*
X2338Y1698D01*
X2367Y1698D02*
X2438Y1698D01*
X2467Y1698D02*
X2538Y1698D01*
X2567Y1698D02*
X2638Y1698D01*
X2667Y1698D02*
X2738Y1698D01*
X2767Y1698D02*
X2838Y1698D01*
X2867Y1698D02*
X2938Y1698D01*
X2967Y1698D02*
X3038Y1698D01*
X3067Y1698D02*
X3138Y1698D01*
X3167Y1698D02*
X3238Y1698D01*
X3267Y1698D02*
X3338Y1698D01*
X3367Y1698D02*
X3438Y1698D01*
X3467Y1698D02*
X3538Y1698D01*
X2067Y1697D02*
X2137Y1697D01*
X2167Y1697D02*
X2237Y1697D01*
X2267Y1697D02*
X2337Y1697D01*
X2367Y1697D02*
X2437Y1697D01*
X2467Y1697D02*
X2537Y1697D01*
X2567Y1697D02*
X2637Y1697D01*
X2667Y1697D02*
X2737Y1697D01*
X2767Y1697D02*
X2837Y1697D01*
X2867Y1697D02*
X2937Y1697D01*
X2967Y1697D02*
X3037Y1697D01*
X3067Y1697D02*
X3137Y1697D01*
X3167Y1697D02*
X3237Y1697D01*
X3267Y1697D02*
X3337Y1697D01*
X3367Y1697D02*
X3437Y1697D01*
X3467Y1697D02*
X3537Y1697D01*
X2068Y1696D02*
X2137Y1696D01*
X2168Y1696D02*
X2237Y1696D01*
X2268Y1696D02*
X2337Y1696D01*
X2368Y1696D02*
X2437Y1696D01*
X2468Y1696D02*
X2537Y1696D01*
X2568Y1696D02*
X2637Y1696D01*
X2668Y1696D02*
X2737Y1696D01*
X2768Y1696D02*
X2837Y1696D01*
X2868Y1696D02*
X2937Y1696D01*
X2968Y1696D02*
X3037Y1696D01*
X3068Y1696D02*
X3137Y1696D01*
X3168Y1696D02*
X3237Y1696D01*
X3268Y1696D02*
X3337Y1696D01*
X3368Y1696D02*
X3437Y1696D01*
X3468Y1696D02*
X3537Y1696D01*
X2068Y1695D02*
X2137Y1695D01*
X2168Y1695D02*
X2237Y1695D01*
X2268Y1695D02*
X2337Y1695D01*
X2368Y1695D02*
X2437Y1695D01*
X2468Y1695D02*
X2537Y1695D01*
X2568Y1695D02*
X2637Y1695D01*
X2668Y1695D02*
X2737Y1695D01*
X2768Y1695D02*
X2837Y1695D01*
X2868Y1695D02*
X2937Y1695D01*
X2968Y1695D02*
X3037Y1695D01*
X3068Y1695D02*
X3137Y1695D01*
X3168Y1695D02*
X3237Y1695D01*
X3268Y1695D02*
X3337Y1695D01*
X3368Y1695D02*
X3437Y1695D01*
X3468Y1695D02*
X3537Y1695D01*
X2068Y1694D02*
X2137Y1694D01*
X2168Y1694D02*
X2237Y1694D01*
X2268Y1694D02*
X2337Y1694D01*
X2368Y1694D02*
X2437Y1694D01*
X2468Y1694D02*
X2537Y1694D01*
X2568Y1694D02*
X2637Y1694D01*
X2668Y1694D02*
X2737Y1694D01*
X2768Y1694D02*
X2837Y1694D01*
X2868Y1694D02*
X2937Y1694D01*
X2968Y1694D02*
X3037Y1694D01*
X3068Y1694D02*
X3137Y1694D01*
X3168Y1694D02*
X3237Y1694D01*
X3268Y1694D02*
X3337Y1694D01*
X3368Y1694D02*
X3437Y1694D01*
X3468Y1694D02*
X3537Y1694D01*
X2068Y1693D02*
X2137Y1693D01*
X2168Y1693D02*
X2237Y1693D01*
X2268Y1693D02*
X2337Y1693D01*
X2368Y1693D02*
X2437Y1693D01*
X2468Y1693D02*
X2537Y1693D01*
X2568Y1693D02*
X2637Y1693D01*
X2668Y1693D02*
X2737Y1693D01*
X2768Y1693D02*
X2837Y1693D01*
X2868Y1693D02*
X2937Y1693D01*
X2968Y1693D02*
X3037Y1693D01*
X3068Y1693D02*
X3137Y1693D01*
X3168Y1693D02*
X3237Y1693D01*
X3268Y1693D02*
X3337Y1693D01*
X3368Y1693D02*
X3437Y1693D01*
X3468Y1693D02*
X3537Y1693D01*
X2069Y1692D02*
X2136Y1692D01*
X2169Y1692D02*
X2236Y1692D01*
X2269Y1692D02*
X2336Y1692D01*
X2369Y1692D02*
X2436Y1692D01*
X2469Y1692D02*
X2536Y1692D01*
X2569Y1692D02*
X2636Y1692D01*
X2669Y1692D02*
X2736Y1692D01*
X2769Y1692D02*
X2836Y1692D01*
X2869Y1692D02*
X2936Y1692D01*
X2969Y1692D02*
X3036Y1692D01*
X3069Y1692D02*
X3136Y1692D01*
X3169Y1692D02*
X3236Y1692D01*
X3269Y1692D02*
X3336Y1692D01*
X3369Y1692D02*
X3436Y1692D01*
X3469Y1692D02*
X3536Y1692D01*
X2069Y1691D02*
X2136Y1691D01*
X2169Y1691D02*
X2236Y1691D01*
X2269Y1691D02*
X2336Y1691D01*
X2369Y1691D02*
X2436Y1691D01*
X2469Y1691D02*
X2536Y1691D01*
X2569Y1691D02*
X2636Y1691D01*
X2669Y1691D02*
X2736Y1691D01*
X2769Y1691D02*
X2836Y1691D01*
X2869Y1691D02*
X2936Y1691D01*
X2969Y1691D02*
X3036Y1691D01*
X3069Y1691D02*
X3136Y1691D01*
X3169Y1691D02*
X3236Y1691D01*
X3269Y1691D02*
X3336Y1691D01*
X3369Y1691D02*
X3436Y1691D01*
X3469Y1691D02*
X3536Y1691D01*
X2069Y1690D02*
X2136Y1690D01*
X2169Y1690D02*
X2236Y1690D01*
X2269Y1690D02*
X2336Y1690D01*
X2369Y1690D02*
X2436Y1690D01*
X2469Y1690D02*
X2536Y1690D01*
X2569Y1690D02*
X2636Y1690D01*
X2669Y1690D02*
X2736Y1690D01*
X2769Y1690D02*
X2836Y1690D01*
X2869Y1690D02*
X2936Y1690D01*
X2969Y1690D02*
X3036Y1690D01*
X3069Y1690D02*
X3136Y1690D01*
X3169Y1690D02*
X3236Y1690D01*
X3269Y1690D02*
X3336Y1690D01*
X3369Y1690D02*
X3436Y1690D01*
X3469Y1690D02*
X3536Y1690D01*
X2070Y1689D02*
X2135Y1689D01*
X2170Y1689D02*
X2235Y1689D01*
X2270Y1689D02*
X2335Y1689D01*
X2370Y1689D02*
X2435Y1689D01*
X2470Y1689D02*
X2535Y1689D01*
X2570Y1689D02*
X2635Y1689D01*
X2670Y1689D02*
X2735Y1689D01*
X2770Y1689D02*
X2835Y1689D01*
X2870Y1689D02*
X2935Y1689D01*
X2970Y1689D02*
X3035Y1689D01*
X3070Y1689D02*
X3135Y1689D01*
X3170Y1689D02*
X3235Y1689D01*
X3270Y1689D02*
X3335Y1689D01*
X3370Y1689D02*
X3435Y1689D01*
X3470Y1689D02*
X3535Y1689D01*
X2070Y1688D02*
X2135Y1688D01*
X2170Y1688D02*
X2235Y1688D01*
X2270Y1688D02*
X2335Y1688D01*
X2370Y1688D02*
X2435Y1688D01*
X2470Y1688D02*
X2535Y1688D01*
X2570Y1688D02*
X2635Y1688D01*
X2670Y1688D02*
X2735Y1688D01*
X2770Y1688D02*
X2835Y1688D01*
X2870Y1688D02*
X2935Y1688D01*
X2970Y1688D02*
X3035Y1688D01*
X3070Y1688D02*
X3135Y1688D01*
X3170Y1688D02*
X3235Y1688D01*
X3270Y1688D02*
X3335Y1688D01*
X3370Y1688D02*
X3435Y1688D01*
X3470Y1688D02*
X3535Y1688D01*
X2071Y1687D02*
X2134Y1687D01*
X2171Y1687D02*
X2234Y1687D01*
X2271Y1687D02*
X2334Y1687D01*
X2371Y1687D02*
X2434Y1687D01*
X2471Y1687D02*
X2534Y1687D01*
X2571Y1687D02*
X2634Y1687D01*
X2671Y1687D02*
X2734Y1687D01*
X2771Y1687D02*
X2834Y1687D01*
X2871Y1687D02*
X2934Y1687D01*
X2971Y1687D02*
X3034Y1687D01*
X3071Y1687D02*
X3134Y1687D01*
X3171Y1687D02*
X3234Y1687D01*
X3271Y1687D02*
X3334Y1687D01*
X3371Y1687D02*
X3434Y1687D01*
X3471Y1687D02*
X3534Y1687D01*
X2071Y1686D02*
X2134Y1686D01*
X2171Y1686D02*
X2234Y1686D01*
X2271Y1686D02*
X2334Y1686D01*
X2371Y1686D02*
X2434Y1686D01*
X2471Y1686D02*
X2534Y1686D01*
X2571Y1686D02*
X2634Y1686D01*
X2671Y1686D02*
X2734Y1686D01*
X2771Y1686D02*
X2834Y1686D01*
X2871Y1686D02*
X2934Y1686D01*
X2971Y1686D02*
X3034Y1686D01*
X3071Y1686D02*
X3134Y1686D01*
X3171Y1686D02*
X3234Y1686D01*
X3271Y1686D02*
X3334Y1686D01*
X3371Y1686D02*
X3434Y1686D01*
X3471Y1686D02*
X3534Y1686D01*
X2072Y1685D02*
X2133Y1685D01*
X2172Y1685D02*
X2233Y1685D01*
X2272Y1685D02*
X2333Y1685D01*
X2372Y1685D02*
X2433Y1685D01*
X2472Y1685D02*
X2533Y1685D01*
X2572Y1685D02*
X2633Y1685D01*
X2672Y1685D02*
X2733Y1685D01*
X2772Y1685D02*
X2833Y1685D01*
X2872Y1685D02*
X2933Y1685D01*
X2972Y1685D02*
X3033Y1685D01*
X3072Y1685D02*
X3133Y1685D01*
X3172Y1685D02*
X3233Y1685D01*
X3272Y1685D02*
X3333Y1685D01*
X3372Y1685D02*
X3433Y1685D01*
X3471Y1685D02*
X3533Y1685D01*
X2072Y1684D02*
X2133Y1684D01*
X2172Y1684D02*
X2233Y1684D01*
X2272Y1684D02*
X2333Y1684D01*
X2372Y1684D02*
X2433Y1684D01*
X2472Y1684D02*
X2533Y1684D01*
X2572Y1684D02*
X2633Y1684D01*
X2672Y1684D02*
X2733Y1684D01*
X2772Y1684D02*
X2833Y1684D01*
X2872Y1684D02*
X2933Y1684D01*
X2972Y1684D02*
X3033Y1684D01*
X3072Y1684D02*
X3133Y1684D01*
X3172Y1684D02*
X3233Y1684D01*
X3272Y1684D02*
X3333Y1684D01*
X3372Y1684D02*
X3433Y1684D01*
X3472Y1684D02*
X3533Y1684D01*
X2073Y1683D02*
X2132Y1683D01*
X2173Y1683D02*
X2232Y1683D01*
X2273Y1683D02*
X2332Y1683D01*
X2373Y1683D02*
X2432Y1683D01*
X2473Y1683D02*
X2532Y1683D01*
X2573Y1683D02*
X2632Y1683D01*
X2673Y1683D02*
X2732Y1683D01*
X2773Y1683D02*
X2832Y1683D01*
X2873Y1683D02*
X2932Y1683D01*
X2973Y1683D02*
X3032Y1683D01*
X3073Y1683D02*
X3132Y1683D01*
X3173Y1683D02*
X3232Y1683D01*
X3273Y1683D02*
X3332Y1683D01*
X3373Y1683D02*
X3432Y1683D01*
X3473Y1683D02*
X3532Y1683D01*
X2073Y1682D02*
X2132Y1682D01*
X2173Y1682D02*
X2232Y1682D01*
X2273Y1682D02*
X2332Y1682D01*
X2373Y1682D02*
X2432Y1682D01*
X2473Y1682D02*
X2532Y1682D01*
X2573Y1682D02*
X2632Y1682D01*
X2673Y1682D02*
X2732Y1682D01*
X2773Y1682D02*
X2832Y1682D01*
X2873Y1682D02*
X2932Y1682D01*
X2973Y1682D02*
X3032Y1682D01*
X3073Y1682D02*
X3132Y1682D01*
X3173Y1682D02*
X3232Y1682D01*
X3273Y1682D02*
X3332Y1682D01*
X3373Y1682D02*
X3432Y1682D01*
X3473Y1682D02*
X3532Y1682D01*
X2074Y1681D02*
X2131Y1681D01*
X2174Y1681D02*
X2231Y1681D01*
X2274Y1681D02*
X2331Y1681D01*
X2374Y1681D02*
X2431Y1681D01*
X2474Y1681D02*
X2531Y1681D01*
X2574Y1681D02*
X2631Y1681D01*
X2674Y1681D02*
X2731Y1681D01*
X2774Y1681D02*
X2831Y1681D01*
X2874Y1681D02*
X2931Y1681D01*
X2974Y1681D02*
X3031Y1681D01*
X3074Y1681D02*
X3131Y1681D01*
X3174Y1681D02*
X3231Y1681D01*
X3274Y1681D02*
X3331Y1681D01*
X3374Y1681D02*
X3431Y1681D01*
X3474Y1681D02*
X3531Y1681D01*
X2075Y1680D02*
X2130Y1680D01*
X2175Y1680D02*
X2230Y1680D01*
X2275Y1680D02*
X2330Y1680D01*
X2375Y1680D02*
X2430Y1680D01*
X2475Y1680D02*
X2530Y1680D01*
X2575Y1680D02*
X2630Y1680D01*
X2675Y1680D02*
X2730Y1680D01*
X2775Y1680D02*
X2830Y1680D01*
X2875Y1680D02*
X2930Y1680D01*
X2975Y1680D02*
X3030Y1680D01*
X3075Y1680D02*
X3130Y1680D01*
X3175Y1680D02*
X3230Y1680D01*
X3275Y1680D02*
X3330Y1680D01*
X3375Y1680D02*
X3430Y1680D01*
X3475Y1680D02*
X3530Y1680D01*
X2076Y1679D02*
X2129Y1679D01*
X2176Y1679D02*
X2229Y1679D01*
X2275Y1679D02*
X2329Y1679D01*
X2376Y1679D02*
X2429Y1679D01*
X2475Y1679D02*
X2529Y1679D01*
X2575Y1679D02*
X2629Y1679D01*
X2676Y1679D02*
X2729Y1679D01*
X2776Y1679D02*
X2829Y1679D01*
X2876Y1679D02*
X2929Y1679D01*
X2976Y1679D02*
X3029Y1679D01*
X3076Y1679D02*
X3129Y1679D01*
X3175Y1679D02*
X3229Y1679D01*
X3276Y1679D02*
X3329Y1679D01*
X3375Y1679D02*
X3429Y1679D01*
X3475Y1679D02*
X3529Y1679D01*
X2076Y1678D02*
X2128Y1678D01*
X2176Y1678D02*
X2228Y1678D01*
X2276Y1678D02*
X2328Y1678D01*
X2376Y1678D02*
X2428Y1678D01*
X2476Y1678D02*
X2528Y1678D01*
X2576Y1678D02*
X2628Y1678D01*
X2676Y1678D02*
X2728Y1678D01*
X2776Y1678D02*
X2828Y1678D01*
X2876Y1678D02*
X2928Y1678D01*
X2976Y1678D02*
X3028Y1678D01*
X3076Y1678D02*
X3128Y1678D01*
X3176Y1678D02*
X3228Y1678D01*
X3276Y1678D02*
X3328Y1678D01*
X3376Y1678D02*
X3428Y1678D01*
X3476Y1678D02*
X3529Y1678D01*
X2077Y1677D02*
X2128Y1677D01*
X2177Y1677D02*
X2228Y1677D01*
X2277Y1677D02*
X2328Y1677D01*
X2377Y1677D02*
X2428Y1677D01*
X2477Y1677D02*
X2528Y1677D01*
X2577Y1677D02*
X2628Y1677D01*
X2677Y1677D02*
X2728Y1677D01*
X2777Y1677D02*
X2828Y1677D01*
X2877Y1677D02*
X2928Y1677D01*
X2977Y1677D02*
X3028Y1677D01*
X3077Y1677D02*
X3128Y1677D01*
X3177Y1677D02*
X3228Y1677D01*
X3277Y1677D02*
X3328Y1677D01*
X3377Y1677D02*
X3428Y1677D01*
X3477Y1677D02*
X3528Y1677D01*
X2078Y1676D02*
X2127Y1676D01*
X2178Y1676D02*
X2227Y1676D01*
X2278Y1676D02*
X2327Y1676D01*
X2378Y1676D02*
X2427Y1676D01*
X2478Y1676D02*
X2527Y1676D01*
X2578Y1676D02*
X2627Y1676D01*
X2678Y1676D02*
X2727Y1676D01*
X2778Y1676D02*
X2827Y1676D01*
X2878Y1676D02*
X2927Y1676D01*
X2978Y1676D02*
X3027Y1676D01*
X3078Y1676D02*
X3127Y1676D01*
X3178Y1676D02*
X3227Y1676D01*
X3278Y1676D02*
X3327Y1676D01*
X3378Y1676D02*
X3427Y1676D01*
X3478Y1676D02*
X3527Y1676D01*
X2079Y1675D02*
X2125Y1675D01*
X2179Y1675D02*
X2225Y1675D01*
X2279Y1675D02*
X2325Y1675D01*
X2379Y1675D02*
X2425Y1675D01*
X2479Y1675D02*
X2525Y1675D01*
X2579Y1675D02*
X2625Y1675D01*
X2679Y1675D02*
X2725Y1675D01*
X2779Y1675D02*
X2825Y1675D01*
X2879Y1675D02*
X2925Y1675D01*
X2979Y1675D02*
X3025Y1675D01*
X3079Y1675D02*
X3125Y1675D01*
X3179Y1675D02*
X3225Y1675D01*
X3279Y1675D02*
X3325Y1675D01*
X3379Y1675D02*
X3425Y1675D01*
X3479Y1675D02*
X3525Y1675D01*
X2081Y1674D02*
X2124Y1674D01*
X2181Y1674D02*
X2224Y1674D01*
X2281Y1674D02*
X2324Y1674D01*
X2381Y1674D02*
X2424Y1674D01*
X2481Y1674D02*
X2524Y1674D01*
X2581Y1674D02*
X2624Y1674D01*
X2681Y1674D02*
X2724Y1674D01*
X2781Y1674D02*
X2824Y1674D01*
X2881Y1674D02*
X2924Y1674D01*
X2981Y1674D02*
X3024Y1674D01*
X3081Y1674D02*
X3124Y1674D01*
X3181Y1674D02*
X3224Y1674D01*
X3281Y1674D02*
X3324Y1674D01*
X3381Y1674D02*
X3424Y1674D01*
X3481Y1674D02*
X3524Y1674D01*
X2082Y1673D02*
X2123Y1673D01*
X2182Y1673D02*
X2223Y1673D01*
X2282Y1673D02*
X2323Y1673D01*
X2382Y1673D02*
X2423Y1673D01*
X2482Y1673D02*
X2523Y1673D01*
X2582Y1673D02*
X2623Y1673D01*
X2682Y1673D02*
X2723Y1673D01*
X2782Y1673D02*
X2823Y1673D01*
X2882Y1673D02*
X2923Y1673D01*
X2982Y1673D02*
X3023Y1673D01*
X3082Y1673D02*
X3123Y1673D01*
X3182Y1673D02*
X3223Y1673D01*
X3282Y1673D02*
X3323Y1673D01*
X3382Y1673D02*
X3423Y1673D01*
X3482Y1673D02*
X3523Y1673D01*
X2084Y1672D02*
X2121Y1672D01*
X2184Y1672D02*
X2221Y1672D01*
X2284Y1672D02*
X2321Y1672D01*
X2384Y1672D02*
X2421Y1672D01*
X2484Y1672D02*
X2521Y1672D01*
X2584Y1672D02*
X2621Y1672D01*
X2684Y1672D02*
X2721Y1672D01*
X2784Y1672D02*
X2821Y1672D01*
X2884Y1672D02*
X2921Y1672D01*
X2984Y1672D02*
X3021Y1672D01*
X3084Y1672D02*
X3121Y1672D01*
X3184Y1672D02*
X3221Y1672D01*
X3284Y1672D02*
X3321Y1672D01*
X3384Y1672D02*
X3421Y1672D01*
X3484Y1672D02*
X3521Y1672D01*
X2085Y1671D02*
X2120Y1671D01*
X2185Y1671D02*
X2219Y1671D01*
X2285Y1671D02*
X2320Y1671D01*
X2385Y1671D02*
X2419Y1671D01*
X2485Y1671D02*
X2520Y1671D01*
X2585Y1671D02*
X2620Y1671D01*
X2685Y1671D02*
X2720Y1671D01*
X2785Y1671D02*
X2819Y1671D01*
X2885Y1671D02*
X2920Y1671D01*
X2985Y1671D02*
X3020Y1671D01*
X3085Y1671D02*
X3119Y1671D01*
X3185Y1671D02*
X3220Y1671D01*
X3285Y1671D02*
X3319Y1671D01*
X3385Y1671D02*
X3420Y1671D01*
X3485Y1671D02*
X3520Y1671D01*
X2087Y1670D02*
X2117Y1670D01*
X2187Y1670D02*
X2217Y1670D01*
X2287Y1670D02*
X2317Y1670D01*
X2387Y1670D02*
X2417Y1670D01*
X2487Y1670D02*
X2517Y1670D01*
X2587Y1670D02*
X2617Y1670D01*
X2687Y1670D02*
X2717Y1670D01*
X2787Y1670D02*
X2817Y1670D01*
X2887Y1670D02*
X2917Y1670D01*
X2987Y1670D02*
X3017Y1670D01*
X3087Y1670D02*
X3117Y1670D01*
X3187Y1670D02*
X3217Y1670D01*
X3287Y1670D02*
X3317Y1670D01*
X3387Y1670D02*
X3417Y1670D01*
X3487Y1670D02*
X3518Y1670D01*
X2090Y1669D02*
X2115Y1669D01*
X2190Y1669D02*
X2215Y1669D01*
X2290Y1669D02*
X2315Y1669D01*
X2390Y1669D02*
X2415Y1669D01*
X2490Y1669D02*
X2515Y1669D01*
X2590Y1669D02*
X2615Y1669D01*
X2690Y1669D02*
X2715Y1669D01*
X2790Y1669D02*
X2815Y1669D01*
X2890Y1669D02*
X2915Y1669D01*
X2990Y1669D02*
X3015Y1669D01*
X3090Y1669D02*
X3115Y1669D01*
X3190Y1669D02*
X3215Y1669D01*
X3290Y1669D02*
X3315Y1669D01*
X3390Y1669D02*
X3415Y1669D01*
X3489Y1669D02*
X3515Y1669D01*
X2092Y1668D02*
X2113Y1668D01*
X2192Y1668D02*
X2212Y1668D01*
X2292Y1668D02*
X2313Y1668D01*
X2392Y1668D02*
X2412Y1668D01*
X2492Y1668D02*
X2513Y1668D01*
X2592Y1668D02*
X2613Y1668D01*
X2692Y1668D02*
X2713Y1668D01*
X2792Y1668D02*
X2812Y1668D01*
X2892Y1668D02*
X2913Y1668D01*
X2992Y1668D02*
X3013Y1668D01*
X3092Y1668D02*
X3112Y1668D01*
X3192Y1668D02*
X3213Y1668D01*
X3292Y1668D02*
X3312Y1668D01*
X3392Y1668D02*
X3413Y1668D01*
X3492Y1668D02*
X3513Y1668D01*
X2096Y1667D02*
X2109Y1667D01*
X2196Y1667D02*
X2209Y1667D01*
X2296Y1667D02*
X2309Y1667D01*
X2396Y1667D02*
X2409Y1667D01*
X2496Y1667D02*
X2509Y1667D01*
X2596Y1667D02*
X2609Y1667D01*
X2696Y1667D02*
X2709Y1667D01*
X2796Y1667D02*
X2809Y1667D01*
X2896Y1667D02*
X2909Y1667D01*
X2996Y1667D02*
X3009Y1667D01*
X3096Y1667D02*
X3109Y1667D01*
X3196Y1667D02*
X3209Y1667D01*
X3296Y1667D02*
X3309Y1667D01*
X3396Y1667D02*
X3409Y1667D01*
X3496Y1667D02*
X3509Y1667D01*
X2103Y793D02*
X2103Y793D01*
X2203Y793D02*
X2203Y793D01*
X2303Y793D02*
X2303Y793D01*
X2403Y793D02*
X2403Y793D01*
X2603Y793D02*
X2603Y793D01*
X2903Y793D02*
X2903Y793D01*
X3003Y793D02*
X3006Y793D01*
X3103Y793D02*
X3106Y793D01*
X3203Y793D02*
X3206Y793D01*
X3303Y793D02*
X3306Y793D01*
X3403Y793D02*
X3406Y793D01*
X3503Y793D02*
X3506Y793D01*
X2095Y792D02*
X2109Y792D01*
X2195Y792D02*
X2209Y792D01*
X2295Y792D02*
X2309Y792D01*
X2395Y792D02*
X2409Y792D01*
X2500Y792D02*
X2502Y792D01*
X2595Y792D02*
X2609Y792D01*
X2695Y792D02*
X2709Y792D01*
X2795Y792D02*
X2809Y792D01*
X2895Y792D02*
X2909Y792D01*
X2995Y792D02*
X3012Y792D01*
X3095Y792D02*
X3112Y792D01*
X3195Y792D02*
X3212Y792D01*
X3295Y792D02*
X3312Y792D01*
X3395Y792D02*
X3412Y792D01*
X3495Y792D02*
X3512Y792D01*
X2092Y791D02*
X2113Y791D01*
X2192Y791D02*
X2213Y791D01*
X2292Y791D02*
X2313Y791D01*
X2392Y791D02*
X2413Y791D01*
X2496Y791D02*
X2509Y791D01*
X2592Y791D02*
X2613Y791D01*
X2692Y791D02*
X2713Y791D01*
X2792Y791D02*
X2813Y791D01*
X2892Y791D02*
X2913Y791D01*
X2992Y791D02*
X3013Y791D01*
X3092Y791D02*
X3113Y791D01*
X3192Y791D02*
X3213Y791D01*
X3292Y791D02*
X3313Y791D01*
X3392Y791D02*
X3413Y791D01*
X3492Y791D02*
X3513Y791D01*
X2089Y790D02*
X2116Y790D01*
X2189Y790D02*
X2216Y790D01*
X2289Y790D02*
X2316Y790D01*
X2389Y790D02*
X2416Y790D01*
X2492Y790D02*
X2513Y790D01*
X2589Y790D02*
X2616Y790D01*
X2689Y790D02*
X2716Y790D01*
X2789Y790D02*
X2816Y790D01*
X2889Y790D02*
X2916Y790D01*
X2989Y790D02*
X3016Y790D01*
X3089Y790D02*
X3116Y790D01*
X3189Y790D02*
X3216Y790D01*
X3289Y790D02*
X3316Y790D01*
X3389Y790D02*
X3416Y790D01*
X3489Y790D02*
X3516Y790D01*
X2087Y789D02*
X2118Y789D01*
X2187Y789D02*
X2218Y789D01*
X2287Y789D02*
X2318Y789D01*
X2387Y789D02*
X2418Y789D01*
X2489Y789D02*
X2516Y789D01*
X2587Y789D02*
X2618Y789D01*
X2687Y789D02*
X2718Y789D01*
X2787Y789D02*
X2818Y789D01*
X2887Y789D02*
X2918Y789D01*
X2987Y789D02*
X3018Y789D01*
X3087Y789D02*
X3118Y789D01*
X3187Y789D02*
X3218Y789D01*
X3287Y789D02*
X3318Y789D01*
X3387Y789D02*
X3418Y789D01*
X3487Y789D02*
X3518Y789D01*
X2085Y788D02*
X2120Y788D01*
X2185Y788D02*
X2220Y788D01*
X2285Y788D02*
X2320Y788D01*
X2385Y788D02*
X2420Y788D01*
X2487Y788D02*
X2518Y788D01*
X2585Y788D02*
X2620Y788D01*
X2685Y788D02*
X2720Y788D01*
X2785Y788D02*
X2820Y788D01*
X2885Y788D02*
X2920Y788D01*
X2985Y788D02*
X3020Y788D01*
X3085Y788D02*
X3120Y788D01*
X3185Y788D02*
X3220Y788D01*
X3285Y788D02*
X3320Y788D01*
X3385Y788D02*
X3420Y788D01*
X3485Y788D02*
X3520Y788D01*
X2083Y787D02*
X2121Y787D01*
X2183Y787D02*
X2221Y787D01*
X2283Y787D02*
X2321Y787D01*
X2383Y787D02*
X2421Y787D01*
X2485Y787D02*
X2520Y787D01*
X2583Y787D02*
X2621Y787D01*
X2683Y787D02*
X2721Y787D01*
X2783Y787D02*
X2821Y787D01*
X2883Y787D02*
X2921Y787D01*
X2983Y787D02*
X3021Y787D01*
X3083Y787D02*
X3121Y787D01*
X3183Y787D02*
X3221Y787D01*
X3283Y787D02*
X3321Y787D01*
X3383Y787D02*
X3421Y787D01*
X3483Y787D02*
X3521Y787D01*
X2082Y786D02*
X2123Y786D01*
X2182Y786D02*
X2223Y786D01*
X2282Y786D02*
X2323Y786D01*
X2382Y786D02*
X2423Y786D01*
X2483Y786D02*
X2521Y786D01*
X2582Y786D02*
X2623Y786D01*
X2682Y786D02*
X2723Y786D01*
X2782Y786D02*
X2823Y786D01*
X2882Y786D02*
X2923Y786D01*
X2982Y786D02*
X3023Y786D01*
X3082Y786D02*
X3123Y786D01*
X3182Y786D02*
X3223Y786D01*
X3282Y786D02*
X3323Y786D01*
X3382Y786D02*
X3423Y786D01*
X3482Y786D02*
X3523Y786D01*
X2081Y785D02*
X2124Y785D01*
X2181Y785D02*
X2224Y785D01*
X2281Y785D02*
X2324Y785D01*
X2381Y785D02*
X2424Y785D01*
X2482Y785D02*
X2523Y785D01*
X2581Y785D02*
X2624Y785D01*
X2681Y785D02*
X2724Y785D01*
X2781Y785D02*
X2824Y785D01*
X2881Y785D02*
X2924Y785D01*
X2981Y785D02*
X3024Y785D01*
X3081Y785D02*
X3124Y785D01*
X3181Y785D02*
X3224Y785D01*
X3281Y785D02*
X3324Y785D01*
X3381Y785D02*
X3424Y785D01*
X3481Y785D02*
X3524Y785D01*
X2079Y784D02*
X2126Y784D01*
X2179Y784D02*
X2226Y784D01*
X2279Y784D02*
X2326Y784D01*
X2379Y784D02*
X2426Y784D01*
X2481Y784D02*
X2524Y784D01*
X2579Y784D02*
X2626Y784D01*
X2679Y784D02*
X2726Y784D01*
X2779Y784D02*
X2826Y784D01*
X2879Y784D02*
X2926Y784D01*
X2979Y784D02*
X3026Y784D01*
X3079Y784D02*
X3126Y784D01*
X3179Y784D02*
X3226Y784D01*
X3279Y784D02*
X3326Y784D01*
X3379Y784D02*
X3426Y784D01*
X3479Y784D02*
X3526Y784D01*
X2078Y783D02*
X2127Y783D01*
X2178Y783D02*
X2227Y783D01*
X2278Y783D02*
X2327Y783D01*
X2378Y783D02*
X2427Y783D01*
X2479Y783D02*
X2526Y783D01*
X2578Y783D02*
X2627Y783D01*
X2678Y783D02*
X2727Y783D01*
X2778Y783D02*
X2827Y783D01*
X2878Y783D02*
X2927Y783D01*
X2978Y783D02*
X3027Y783D01*
X3078Y783D02*
X3127Y783D01*
X3178Y783D02*
X3227Y783D01*
X3278Y783D02*
X3327Y783D01*
X3378Y783D02*
X3427Y783D01*
X3478Y783D02*
X3527Y783D01*
X2077Y782D02*
X2128Y782D01*
X2177Y782D02*
X2228Y782D01*
X2277Y782D02*
X2328Y782D01*
X2377Y782D02*
X2428Y782D01*
X2478Y782D02*
X2527Y782D01*
X2577Y782D02*
X2628Y782D01*
X2677Y782D02*
X2728Y782D01*
X2777Y782D02*
X2828Y782D01*
X2877Y782D02*
X2928Y782D01*
X2977Y782D02*
X3028Y782D01*
X3077Y782D02*
X3128Y782D01*
X3177Y782D02*
X3228Y782D01*
X3277Y782D02*
X3328Y782D01*
X3377Y782D02*
X3428Y782D01*
X3477Y782D02*
X3528Y782D01*
X2076Y781D02*
X2129Y781D01*
X2176Y781D02*
X2229Y781D01*
X2276Y781D02*
X2329Y781D01*
X2376Y781D02*
X2429Y781D01*
X2477Y781D02*
X2528Y781D01*
X2576Y781D02*
X2629Y781D01*
X2676Y781D02*
X2729Y781D01*
X2776Y781D02*
X2829Y781D01*
X2876Y781D02*
X2929Y781D01*
X2976Y781D02*
X3029Y781D01*
X3076Y781D02*
X3129Y781D01*
X3176Y781D02*
X3229Y781D01*
X3276Y781D02*
X3329Y781D01*
X3376Y781D02*
X3429Y781D01*
X3476Y781D02*
X3529Y781D01*
X2075Y780D02*
X2129Y780D01*
X2175Y780D02*
X2229Y780D01*
X2275Y780D02*
X2329Y780D01*
X2375Y780D02*
X2429Y780D01*
X2476Y780D02*
X2529Y780D01*
X2575Y780D02*
X2629Y780D01*
X2675Y780D02*
X2729Y780D01*
X2775Y780D02*
X2829Y780D01*
X2875Y780D02*
X2929Y780D01*
X2975Y780D02*
X3029Y780D01*
X3075Y780D02*
X3129Y780D01*
X3175Y780D02*
X3229Y780D01*
X3275Y780D02*
X3329Y780D01*
X3375Y780D02*
X3429Y780D01*
X3475Y780D02*
X3529Y780D01*
X2075Y779D02*
X2130Y779D01*
X2175Y779D02*
X2230Y779D01*
X2275Y779D02*
X2330Y779D01*
X2375Y779D02*
X2430Y779D01*
X2475Y779D02*
X2529Y779D01*
X2575Y779D02*
X2630Y779D01*
X2675Y779D02*
X2730Y779D01*
X2775Y779D02*
X2830Y779D01*
X2875Y779D02*
X2930Y779D01*
X2975Y779D02*
X3030Y779D01*
X3075Y779D02*
X3130Y779D01*
X3175Y779D02*
X3230Y779D01*
X3275Y779D02*
X3330Y779D01*
X3375Y779D02*
X3430Y779D01*
X3475Y779D02*
X3530Y779D01*
X2074Y778D02*
X2131Y778D01*
X2174Y778D02*
X2231Y778D01*
X2274Y778D02*
X2331Y778D01*
X2374Y778D02*
X2431Y778D01*
X2475Y778D02*
X2530Y778D01*
X2574Y778D02*
X2631Y778D01*
X2674Y778D02*
X2731Y778D01*
X2774Y778D02*
X2831Y778D01*
X2874Y778D02*
X2931Y778D01*
X2974Y778D02*
X3031Y778D01*
X3074Y778D02*
X3131Y778D01*
X3174Y778D02*
X3231Y778D01*
X3274Y778D02*
X3331Y778D01*
X3374Y778D02*
X3431Y778D01*
X3474Y778D02*
X3531Y778D01*
X2073Y777D02*
X2132Y777D01*
X2173Y777D02*
X2232Y777D01*
X2273Y777D02*
X2332Y777D01*
X2373Y777D02*
X2432Y777D01*
X2474Y777D02*
X2531Y777D01*
X2573Y777D02*
X2632Y777D01*
X2673Y777D02*
X2732Y777D01*
X2773Y777D02*
X2832Y777D01*
X2873Y777D02*
X2932Y777D01*
X2973Y777D02*
X3032Y777D01*
X3073Y777D02*
X3132Y777D01*
X3173Y777D02*
X3232Y777D01*
X3273Y777D02*
X3332Y777D01*
X3373Y777D02*
X3432Y777D01*
X3473Y777D02*
X3532Y777D01*
X2073Y776D02*
X2132Y776D01*
X2173Y776D02*
X2232Y776D01*
X2273Y776D02*
X2332Y776D01*
X2373Y776D02*
X2432Y776D01*
X2473Y776D02*
X2532Y776D01*
X2573Y776D02*
X2632Y776D01*
X2673Y776D02*
X2732Y776D01*
X2773Y776D02*
X2832Y776D01*
X2873Y776D02*
X2932Y776D01*
X2973Y776D02*
X3032Y776D01*
X3073Y776D02*
X3132Y776D01*
X3173Y776D02*
X3232Y776D01*
X3273Y776D02*
X3332Y776D01*
X3373Y776D02*
X3432Y776D01*
X3473Y776D02*
X3532Y776D01*
X2072Y775D02*
X2133Y775D01*
X2172Y775D02*
X2233Y775D01*
X2272Y775D02*
X2333Y775D01*
X2372Y775D02*
X2433Y775D01*
X2473Y775D02*
X2532Y775D01*
X2572Y775D02*
X2633Y775D01*
X2672Y775D02*
X2733Y775D01*
X2772Y775D02*
X2833Y775D01*
X2872Y775D02*
X2933Y775D01*
X2972Y775D02*
X3033Y775D01*
X3072Y775D02*
X3133Y775D01*
X3172Y775D02*
X3233Y775D01*
X3272Y775D02*
X3333Y775D01*
X3372Y775D02*
X3433Y775D01*
X3472Y775D02*
X3533Y775D01*
X2071Y774D02*
X2133Y774D01*
X2171Y774D02*
X2233Y774D01*
X2271Y774D02*
X2333Y774D01*
X2371Y774D02*
X2433Y774D01*
X2472Y774D02*
X2533Y774D01*
X2571Y774D02*
X2633Y774D01*
X2671Y774D02*
X2733Y774D01*
X2771Y774D02*
X2833Y774D01*
X2871Y774D02*
X2933Y774D01*
X2971Y774D02*
X3033Y774D01*
X3071Y774D02*
X3133Y774D01*
X3171Y774D02*
X3233Y774D01*
X3271Y774D02*
X3333Y774D01*
X3371Y774D02*
X3433Y774D01*
X3471Y774D02*
X3533Y774D01*
X2071Y773D02*
X2134Y773D01*
X2171Y773D02*
X2234Y773D01*
X2271Y773D02*
X2334Y773D01*
X2371Y773D02*
X2434Y773D01*
X2471Y773D02*
X2533Y773D01*
X2571Y773D02*
X2634Y773D01*
X2671Y773D02*
X2734Y773D01*
X2771Y773D02*
X2834Y773D01*
X2871Y773D02*
X2934Y773D01*
X2971Y773D02*
X3034Y773D01*
X3071Y773D02*
X3134Y773D01*
X3171Y773D02*
X3234Y773D01*
X3271Y773D02*
X3334Y773D01*
X3371Y773D02*
X3434Y773D01*
X3471Y773D02*
X3534Y773D01*
X2070Y772D02*
X2134Y772D01*
X2170Y772D02*
X2234Y772D01*
X2270Y772D02*
X2334Y772D01*
X2370Y772D02*
X2434Y772D01*
X2471Y772D02*
X2534Y772D01*
X2570Y772D02*
X2634Y772D01*
X2671Y772D02*
X2734Y772D01*
X2771Y772D02*
X2834Y772D01*
X2870Y772D02*
X2934Y772D01*
X2970Y772D02*
X3034Y772D01*
X3070Y772D02*
X3134Y772D01*
X3170Y772D02*
X3234Y772D01*
X3270Y772D02*
X3334Y772D01*
X3370Y772D02*
X3434Y772D01*
X3470Y772D02*
X3534Y772D01*
X2070Y771D02*
X2135Y771D01*
X2170Y771D02*
X2235Y771D01*
X2270Y771D02*
X2335Y771D01*
X2370Y771D02*
X2435Y771D01*
X2471Y771D02*
X2534Y771D01*
X2570Y771D02*
X2635Y771D01*
X2670Y771D02*
X2735Y771D01*
X2770Y771D02*
X2835Y771D01*
X2870Y771D02*
X2935Y771D01*
X2970Y771D02*
X3035Y771D01*
X3070Y771D02*
X3135Y771D01*
X3170Y771D02*
X3235Y771D01*
X3270Y771D02*
X3335Y771D01*
X3370Y771D02*
X3435Y771D01*
X3470Y771D02*
X3535Y771D01*
X2070Y770D02*
X2135Y770D01*
X2170Y770D02*
X2235Y770D01*
X2270Y770D02*
X2335Y770D01*
X2370Y770D02*
X2435Y770D01*
X2470Y770D02*
X2535Y770D01*
X2570Y770D02*
X2635Y770D01*
X2670Y770D02*
X2735Y770D01*
X2770Y770D02*
X2835Y770D01*
X2870Y770D02*
X2935Y770D01*
X2970Y770D02*
X3035Y770D01*
X3070Y770D02*
X3135Y770D01*
X3170Y770D02*
X3235Y770D01*
X3270Y770D02*
X3335Y770D01*
X3370Y770D02*
X3435Y770D01*
X3470Y770D02*
X3535Y770D01*
X2069Y769D02*
X2136Y769D01*
X2169Y769D02*
X2236Y769D01*
X2269Y769D02*
X2336Y769D01*
X2369Y769D02*
X2436Y769D01*
X2470Y769D02*
X2535Y769D01*
X2569Y769D02*
X2636Y769D01*
X2669Y769D02*
X2736Y769D01*
X2769Y769D02*
X2836Y769D01*
X2869Y769D02*
X2936Y769D01*
X2969Y769D02*
X3036Y769D01*
X3069Y769D02*
X3136Y769D01*
X3169Y769D02*
X3236Y769D01*
X3269Y769D02*
X3336Y769D01*
X3369Y769D02*
X3436Y769D01*
X3469Y769D02*
X3536Y769D01*
X2069Y768D02*
X2136Y768D01*
X2169Y768D02*
X2236Y768D01*
X2269Y768D02*
X2336Y768D01*
X2369Y768D02*
X2436Y768D01*
X2469Y768D02*
X2536Y768D01*
X2569Y768D02*
X2636Y768D01*
X2669Y768D02*
X2736Y768D01*
X2769Y768D02*
X2836Y768D01*
X2869Y768D02*
X2936Y768D01*
X2969Y768D02*
X3036Y768D01*
X3069Y768D02*
X3136Y768D01*
X3169Y768D02*
X3236Y768D01*
X3269Y768D02*
X3336Y768D01*
X3369Y768D02*
X3436Y768D01*
X3469Y768D02*
X3536Y768D01*
X2069Y767D02*
X2136Y767D01*
X2169Y767D02*
X2236Y767D01*
X2269Y767D02*
X2336Y767D01*
X2369Y767D02*
X2436Y767D01*
X2469Y767D02*
X2536Y767D01*
X2569Y767D02*
X2636Y767D01*
X2669Y767D02*
X2736Y767D01*
X2769Y767D02*
X2836Y767D01*
X2869Y767D02*
X2936Y767D01*
X2969Y767D02*
X3036Y767D01*
X3069Y767D02*
X3136Y767D01*
X3169Y767D02*
X3236Y767D01*
X3269Y767D02*
X3336Y767D01*
X3369Y767D02*
X3436Y767D01*
X3469Y767D02*
X3536Y767D01*
X2068Y766D02*
X2137Y766D01*
X2168Y766D02*
X2237Y766D01*
X2268Y766D02*
X2337Y766D01*
X2368Y766D02*
X2437Y766D01*
X2469Y766D02*
X2536Y766D01*
X2568Y766D02*
X2637Y766D01*
X2668Y766D02*
X2737Y766D01*
X2768Y766D02*
X2837Y766D01*
X2868Y766D02*
X2937Y766D01*
X2968Y766D02*
X3037Y766D01*
X3068Y766D02*
X3137Y766D01*
X3168Y766D02*
X3237Y766D01*
X3268Y766D02*
X3337Y766D01*
X3368Y766D02*
X3437Y766D01*
X3468Y766D02*
X3537Y766D01*
X2068Y765D02*
X2137Y765D01*
X2168Y765D02*
X2237Y765D01*
X2268Y765D02*
X2337Y765D01*
X2368Y765D02*
X2437Y765D01*
X2468Y765D02*
X2537Y765D01*
X2568Y765D02*
X2637Y765D01*
X2668Y765D02*
X2737Y765D01*
X2768Y765D02*
X2837Y765D01*
X2868Y765D02*
X2937Y765D01*
X2968Y765D02*
X3037Y765D01*
X3068Y765D02*
X3137Y765D01*
X3168Y765D02*
X3237Y765D01*
X3268Y765D02*
X3337Y765D01*
X3368Y765D02*
X3437Y765D01*
X3468Y765D02*
X3537Y765D01*
X2068Y764D02*
X2137Y764D01*
X2168Y764D02*
X2237Y764D01*
X2268Y764D02*
X2337Y764D01*
X2368Y764D02*
X2437Y764D01*
X2468Y764D02*
X2537Y764D01*
X2568Y764D02*
X2637Y764D01*
X2668Y764D02*
X2737Y764D01*
X2768Y764D02*
X2837Y764D01*
X2868Y764D02*
X2937Y764D01*
X2968Y764D02*
X3037Y764D01*
X3068Y764D02*
X3137Y764D01*
X3168Y764D02*
X3237Y764D01*
X3268Y764D02*
X3337Y764D01*
X3368Y764D02*
X3437Y764D01*
X3468Y764D02*
X3537Y764D01*
X2068Y763D02*
X2137Y763D01*
X2168Y763D02*
X2237Y763D01*
X2268Y763D02*
X2337Y763D01*
X2368Y763D02*
X2437Y763D01*
X2468Y763D02*
X2537Y763D01*
X2568Y763D02*
X2637Y763D01*
X2668Y763D02*
X2737Y763D01*
X2768Y763D02*
X2837Y763D01*
X2868Y763D02*
X2937Y763D01*
X2968Y763D02*
X3037Y763D01*
X3068Y763D02*
X3137Y763D01*
X3168Y763D02*
X3237Y763D01*
X3268Y763D02*
X3337Y763D01*
X3368Y763D02*
X3437Y763D01*
X3468Y763D02*
X3537Y763D01*
X2067Y762D02*
X2137Y762D01*
X2167Y762D02*
X2237Y762D01*
X2267Y762D02*
X2337Y762D01*
X2367Y762D02*
X2437Y762D01*
X2468Y762D02*
X2537Y762D01*
X2567Y762D02*
X2637Y762D01*
X2667Y762D02*
X2737Y762D01*
X2767Y762D02*
X2837Y762D01*
X2867Y762D02*
X2937Y762D01*
X2967Y762D02*
X3037Y762D01*
X3067Y762D02*
X3137Y762D01*
X3167Y762D02*
X3237Y762D01*
X3267Y762D02*
X3337Y762D01*
X3367Y762D02*
X3437Y762D01*
X3467Y762D02*
X3537Y762D01*
X2067Y761D02*
X2138Y761D01*
X2167Y761D02*
X2238Y761D01*
X2267Y761D02*
X2338Y761D01*
X2367Y761D02*
X2438Y761D01*
X2467Y761D02*
X2537Y761D01*
X2567Y761D02*
X2638Y761D01*
X2667Y761D02*
X2738Y761D01*
X2767Y761D02*
X2838Y761D01*
X2867Y761D02*
X2938Y761D01*
X2967Y761D02*
X3038Y761D01*
X3067Y761D02*
X3138Y761D01*
X3167Y761D02*
X3238Y761D01*
X3267Y761D02*
X3338Y761D01*
X3367Y761D02*
X3438Y761D01*
X3467Y761D02*
X3538Y761D01*
X2067Y760D02*
X2138Y760D01*
X2167Y760D02*
X2238Y760D01*
X2267Y760D02*
X2338Y760D01*
X2367Y760D02*
X2438Y760D01*
X2467Y760D02*
X2538Y760D01*
X2567Y760D02*
X2638Y760D01*
X2667Y760D02*
X2738Y760D01*
X2767Y760D02*
X2838Y760D01*
X2867Y760D02*
X2938Y760D01*
X2967Y760D02*
X3038Y760D01*
X3067Y760D02*
X3138Y760D01*
X3167Y760D02*
X3238Y760D01*
X3267Y760D02*
X3338Y760D01*
X3367Y760D02*
X3438Y760D01*
X3467Y760D02*
X3538Y760D01*
X2067Y759D02*
X2138Y759D01*
X2167Y759D02*
X2238Y759D01*
X2267Y759D02*
X2338Y759D01*
X2367Y759D02*
X2438Y759D01*
X2467Y759D02*
X2538Y759D01*
X2567Y759D02*
X2638Y759D01*
X2667Y759D02*
X2738Y759D01*
X2767Y759D02*
X2838Y759D01*
X2867Y759D02*
X2938Y759D01*
X2967Y759D02*
X3038Y759D01*
X3067Y759D02*
X3138Y759D01*
X3167Y759D02*
X3238Y759D01*
X3267Y759D02*
X3338Y759D01*
X3367Y759D02*
X3438Y759D01*
X3467Y759D02*
X3538Y759D01*
X2067Y758D02*
X2138Y758D01*
X2167Y758D02*
X2238Y758D01*
X2267Y758D02*
X2338Y758D01*
X2367Y758D02*
X2438Y758D01*
X2467Y758D02*
X2538Y758D01*
X2567Y758D02*
X2638Y758D01*
X2667Y758D02*
X2738Y758D01*
X2767Y758D02*
X2838Y758D01*
X2867Y758D02*
X2938Y758D01*
X2967Y758D02*
X3038Y758D01*
X3067Y758D02*
X3138Y758D01*
X3167Y758D02*
X3238Y758D01*
X3267Y758D02*
X3338Y758D01*
X3367Y758D02*
X3438Y758D01*
X3467Y758D02*
X3538Y758D01*
X2067Y757D02*
X2138Y757D01*
X2167Y757D02*
X2238Y757D01*
X2267Y757D02*
X2338Y757D01*
X2367Y757D02*
X2438Y757D01*
X2467Y757D02*
X2538Y757D01*
X2567Y757D02*
X2638Y757D01*
X2667Y757D02*
X2738Y757D01*
X2767Y757D02*
X2838Y757D01*
X2867Y757D02*
X2938Y757D01*
X2967Y757D02*
X3038Y757D01*
X3067Y757D02*
X3138Y757D01*
X3167Y757D02*
X3238Y757D01*
X3267Y757D02*
X3338Y757D01*
X3367Y757D02*
X3438Y757D01*
X3467Y757D02*
X3538Y757D01*
X2067Y756D02*
X2138Y756D01*
X2167Y756D02*
X2238Y756D01*
X2267Y756D02*
X2338Y756D01*
X2367Y756D02*
X2438Y756D01*
X2467Y756D02*
X2538Y756D01*
X2567Y756D02*
X2638Y756D01*
X2667Y756D02*
X2738Y756D01*
X2767Y756D02*
X2838Y756D01*
X2867Y756D02*
X2938Y756D01*
X2967Y756D02*
X3038Y756D01*
X3067Y756D02*
X3138Y756D01*
X3167Y756D02*
X3238Y756D01*
X3267Y756D02*
X3338Y756D01*
X3367Y756D02*
X3438Y756D01*
X3467Y756D02*
X3538Y756D01*
X2067Y755D02*
X2138Y755D01*
X2167Y755D02*
X2238Y755D01*
X2267Y755D02*
X2338Y755D01*
X2367Y755D02*
X2438Y755D01*
X2467Y755D02*
X2538Y755D01*
X2567Y755D02*
X2638Y755D01*
X2667Y755D02*
X2738Y755D01*
X2767Y755D02*
X2838Y755D01*
X2867Y755D02*
X2938Y755D01*
X2967Y755D02*
X3038Y755D01*
X3067Y755D02*
X3138Y755D01*
X3167Y755D02*
X3238Y755D01*
X3267Y755D02*
X3338Y755D01*
X3367Y755D02*
X3438Y755D01*
X3467Y755D02*
X3538Y755D01*
X2067Y754D02*
X2138Y754D01*
X2167Y754D02*
X2238Y754D01*
X2267Y754D02*
X2338Y754D01*
X2367Y754D02*
X2438Y754D01*
X2467Y754D02*
X2538Y754D01*
X2567Y754D02*
X2638Y754D01*
X2667Y754D02*
X2738Y754D01*
X2767Y754D02*
X2838Y754D01*
X2867Y754D02*
X2938Y754D01*
X2967Y754D02*
X3038Y754D01*
X3067Y754D02*
X3138Y754D01*
X3167Y754D02*
X3238Y754D01*
X3267Y754D02*
X3338Y754D01*
X3367Y754D02*
X3438Y754D01*
X3467Y754D02*
X3538Y754D01*
X2067Y753D02*
X2138Y753D01*
X2167Y753D02*
X2238Y753D01*
X2267Y753D02*
X2338Y753D01*
X2367Y753D02*
X2438Y753D01*
X2467Y753D02*
X2538Y753D01*
X2567Y753D02*
X2638Y753D01*
X2667Y753D02*
X2738Y753D01*
X2767Y753D02*
X2838Y753D01*
X2867Y753D02*
X2938Y753D01*
X2967Y753D02*
X3038Y753D01*
X3067Y753D02*
X3138Y753D01*
X3167Y753D02*
X3238Y753D01*
X3267Y753D02*
X3338Y753D01*
X3367Y753D02*
X3438Y753D01*
X3467Y753D02*
X3538Y753D01*
X2067Y752D02*
X2138Y752D01*
X2167Y752D02*
X2238Y752D01*
X2267Y752D02*
X2338Y752D01*
X2367Y752D02*
X2438Y752D01*
X2467Y752D02*
X2538Y752D01*
X2567Y752D02*
X2638Y752D01*
X2667Y752D02*
X2738Y752D01*
X2767Y752D02*
X2838Y752D01*
X2867Y752D02*
X2938Y752D01*
X2967Y752D02*
X3038Y752D01*
X3067Y752D02*
X3138Y752D01*
X3167Y752D02*
X3238Y752D01*
X3267Y752D02*
X3338Y752D01*
X3367Y752D02*
X3438Y752D01*
X3467Y752D02*
X3538Y752D01*
X2067Y751D02*
X2138Y751D01*
X2167Y751D02*
X2238Y751D01*
X2267Y751D02*
X2338Y751D01*
X2367Y751D02*
X2438Y751D01*
X2467Y751D02*
X2538Y751D01*
X2567Y751D02*
X2638Y751D01*
X2667Y751D02*
X2738Y751D01*
X2767Y751D02*
X2838Y751D01*
X2867Y751D02*
X2938Y751D01*
X2967Y751D02*
X3038Y751D01*
X3067Y751D02*
X3138Y751D01*
X3167Y751D02*
X3238Y751D01*
X3267Y751D02*
X3338Y751D01*
X3367Y751D02*
X3438Y751D01*
X3467Y751D02*
X3538Y751D01*
X2067Y750D02*
X2138Y750D01*
X2167Y750D02*
X2238Y750D01*
X2267Y750D02*
X2338Y750D01*
X2367Y750D02*
X2438Y750D01*
X2467Y750D02*
X2538Y750D01*
X2567Y750D02*
X2638Y750D01*
X2667Y750D02*
X2738Y750D01*
X2767Y750D02*
X2838Y750D01*
X2867Y750D02*
X2938Y750D01*
X2967Y750D02*
X3038Y750D01*
X3067Y750D02*
X3138Y750D01*
X3167Y750D02*
X3238Y750D01*
X3267Y750D02*
X3338Y750D01*
X3367Y750D02*
X3438Y750D01*
X3467Y750D02*
X3538Y750D01*
X2067Y749D02*
X2138Y749D01*
X2167Y749D02*
X2238Y749D01*
X2267Y749D02*
X2338Y749D01*
X2367Y749D02*
X2438Y749D01*
X2467Y749D02*
X2538Y749D01*
X2567Y749D02*
X2638Y749D01*
X2667Y749D02*
X2738Y749D01*
X2767Y749D02*
X2838Y749D01*
X2867Y749D02*
X2938Y749D01*
X2967Y749D02*
X3038Y749D01*
X3067Y749D02*
X3138Y749D01*
X3167Y749D02*
X3238Y749D01*
X3267Y749D02*
X3338Y749D01*
X3367Y749D02*
X3438Y749D01*
X3467Y749D02*
X3538Y749D01*
X2067Y748D02*
X2138Y748D01*
X2167Y748D02*
X2238Y748D01*
X2267Y748D02*
X2338Y748D01*
X2367Y748D02*
X2438Y748D01*
X2467Y748D02*
X2538Y748D01*
X2567Y748D02*
X2638Y748D01*
X2667Y748D02*
X2738Y748D01*
X2767Y748D02*
X2838Y748D01*
X2867Y748D02*
X2938Y748D01*
X2967Y748D02*
X3038Y748D01*
X3067Y748D02*
X3138Y748D01*
X3167Y748D02*
X3238Y748D01*
X3267Y748D02*
X3338Y748D01*
X3367Y748D02*
X3438Y748D01*
X3467Y748D02*
X3538Y748D01*
X2067Y747D02*
X2138Y747D01*
X2167Y747D02*
X2238Y747D01*
X2267Y747D02*
X2338Y747D01*
X2367Y747D02*
X2438Y747D01*
X2467Y747D02*
X2538Y747D01*
X2567Y747D02*
X2638Y747D01*
X2667Y747D02*
X2738Y747D01*
X2767Y747D02*
X2838Y747D01*
X2867Y747D02*
X2938Y747D01*
X2967Y747D02*
X3038Y747D01*
X3067Y747D02*
X3138Y747D01*
X3167Y747D02*
X3238Y747D01*
X3267Y747D02*
X3338Y747D01*
X3367Y747D02*
X3438Y747D01*
X3467Y747D02*
X3538Y747D01*
X2067Y746D02*
X2138Y746D01*
X2167Y746D02*
X2238Y746D01*
X2267Y746D02*
X2338Y746D01*
X2367Y746D02*
X2438Y746D01*
X2467Y746D02*
X2538Y746D01*
X2567Y746D02*
X2638Y746D01*
X2667Y746D02*
X2738Y746D01*
X2767Y746D02*
X2838Y746D01*
X2867Y746D02*
X2938Y746D01*
X2967Y746D02*
X3038Y746D01*
X3067Y746D02*
X3138Y746D01*
X3167Y746D02*
X3238Y746D01*
X3267Y746D02*
X3338Y746D01*
X3367Y746D02*
X3438Y746D01*
X3467Y746D02*
X3538Y746D01*
X2067Y745D02*
X2138Y745D01*
X2167Y745D02*
X2238Y745D01*
X2267Y745D02*
X2338Y745D01*
X2367Y745D02*
X2438Y745D01*
X2467Y745D02*
X2538Y745D01*
X2567Y745D02*
X2638Y745D01*
X2667Y745D02*
X2738Y745D01*
X2767Y745D02*
X2838Y745D01*
X2867Y745D02*
X2938Y745D01*
X2967Y745D02*
X3038Y745D01*
X3067Y745D02*
X3138Y745D01*
X3167Y745D02*
X3238Y745D01*
X3267Y745D02*
X3338Y745D01*
X3367Y745D02*
X3438Y745D01*
X3467Y745D02*
X3538Y745D01*
X2067Y744D02*
X2138Y744D01*
X2167Y744D02*
X2238Y744D01*
X2267Y744D02*
X2338Y744D01*
X2367Y744D02*
X2438Y744D01*
X2467Y744D02*
X2538Y744D01*
X2567Y744D02*
X2638Y744D01*
X2667Y744D02*
X2738Y744D01*
X2767Y744D02*
X2838Y744D01*
X2867Y744D02*
X2938Y744D01*
X2967Y744D02*
X3038Y744D01*
X3067Y744D02*
X3138Y744D01*
X3167Y744D02*
X3238Y744D01*
X3267Y744D02*
X3338Y744D01*
X3367Y744D02*
X3438Y744D01*
X3467Y744D02*
X3538Y744D01*
X2067Y743D02*
X2138Y743D01*
X2167Y743D02*
X2238Y743D01*
X2267Y743D02*
X2338Y743D01*
X2367Y743D02*
X2438Y743D01*
X2467Y743D02*
X2538Y743D01*
X2567Y743D02*
X2638Y743D01*
X2667Y743D02*
X2738Y743D01*
X2767Y743D02*
X2838Y743D01*
X2867Y743D02*
X2938Y743D01*
X2967Y743D02*
X3038Y743D01*
X3067Y743D02*
X3138Y743D01*
X3167Y743D02*
X3238Y743D01*
X3267Y743D02*
X3338Y743D01*
X3367Y743D02*
X3438Y743D01*
X3467Y743D02*
X3538Y743D01*
X2067Y742D02*
X2138Y742D01*
X2167Y742D02*
X2238Y742D01*
X2267Y742D02*
X2338Y742D01*
X2367Y742D02*
X2438Y742D01*
X2467Y742D02*
X2538Y742D01*
X2567Y742D02*
X2638Y742D01*
X2667Y742D02*
X2738Y742D01*
X2767Y742D02*
X2838Y742D01*
X2867Y742D02*
X2938Y742D01*
X2967Y742D02*
X3038Y742D01*
X3067Y742D02*
X3138Y742D01*
X3167Y742D02*
X3238Y742D01*
X3267Y742D02*
X3338Y742D01*
X3367Y742D02*
X3438Y742D01*
X3467Y742D02*
X3538Y742D01*
X2067Y741D02*
X2138Y741D01*
X2167Y741D02*
X2238Y741D01*
X2267Y741D02*
X2338Y741D01*
X2367Y741D02*
X2438Y741D01*
X2467Y741D02*
X2538Y741D01*
X2567Y741D02*
X2638Y741D01*
X2667Y741D02*
X2738Y741D01*
X2767Y741D02*
X2838Y741D01*
X2867Y741D02*
X2938Y741D01*
X2967Y741D02*
X3038Y741D01*
X3067Y741D02*
X3138Y741D01*
X3167Y741D02*
X3238Y741D01*
X3267Y741D02*
X3338Y741D01*
X3367Y741D02*
X3438Y741D01*
X3467Y741D02*
X3538Y741D01*
X2067Y740D02*
X2138Y740D01*
X2167Y740D02*
X2238Y740D01*
X2267Y740D02*
X2338Y740D01*
X2367Y740D02*
X2438Y740D01*
X2467Y740D02*
X2538Y740D01*
X2567Y740D02*
X2638Y740D01*
X2667Y740D02*
X2738Y740D01*
X2767Y740D02*
X2838Y740D01*
X2867Y740D02*
X2938Y740D01*
X2967Y740D02*
X3038Y740D01*
X3067Y740D02*
X3138Y740D01*
X3167Y740D02*
X3238Y740D01*
X3267Y740D02*
X3338Y740D01*
X3367Y740D02*
X3438Y740D01*
X3467Y740D02*
X3538Y740D01*
X2067Y739D02*
X2138Y739D01*
X2167Y739D02*
X2238Y739D01*
X2267Y739D02*
X2338Y739D01*
X2367Y739D02*
X2438Y739D01*
X2467Y739D02*
X2538Y739D01*
X2567Y739D02*
X2638Y739D01*
X2667Y739D02*
X2738Y739D01*
X2767Y739D02*
X2838Y739D01*
X2867Y739D02*
X2938Y739D01*
X2967Y739D02*
X3038Y739D01*
X3067Y739D02*
X3138Y739D01*
X3167Y739D02*
X3238Y739D01*
X3267Y739D02*
X3338Y739D01*
X3367Y739D02*
X3438Y739D01*
X3467Y739D02*
X3538Y739D01*
X2067Y738D02*
X2138Y738D01*
X2167Y738D02*
X2238Y738D01*
X2267Y738D02*
X2338Y738D01*
X2367Y738D02*
X2438Y738D01*
X2467Y738D02*
X2538Y738D01*
X2567Y738D02*
X2638Y738D01*
X2667Y738D02*
X2738Y738D01*
X2767Y738D02*
X2838Y738D01*
X2867Y738D02*
X2938Y738D01*
X2967Y738D02*
X3038Y738D01*
X3067Y738D02*
X3138Y738D01*
X3167Y738D02*
X3238Y738D01*
X3267Y738D02*
X3338Y738D01*
X3367Y738D02*
X3438Y738D01*
X3467Y738D02*
X3538Y738D01*
X2067Y737D02*
X2100Y737D01*
X2105Y737D02*
X2138Y737D01*
X2167Y737D02*
X2200Y737D01*
X2205Y737D02*
X2238Y737D01*
X2267Y737D02*
X2300Y737D01*
X2305Y737D02*
X2338Y737D01*
X2367Y737D02*
X2400Y737D01*
X2405Y737D02*
X2438Y737D01*
X2467Y737D02*
X2538Y737D01*
X2567Y737D02*
X2638Y737D01*
X2667Y737D02*
X2738Y737D01*
X2767Y737D02*
X2838Y737D01*
X2867Y737D02*
X2900Y737D01*
X2905Y737D02*
X2938Y737D01*
X2967Y737D02*
X3038Y737D01*
X3067Y737D02*
X3138Y737D01*
X3167Y737D02*
X3200Y737D01*
X3205Y737D02*
X3238Y737D01*
X3267Y737D02*
X3300Y737D01*
X3305Y737D02*
X3338Y737D01*
X3367Y737D02*
X3400Y737D01*
X3405Y737D02*
X3438Y737D01*
X3467Y737D02*
X3538Y737D01*
X2067Y736D02*
X2098Y736D01*
X2107Y736D02*
X2138Y736D01*
X2167Y736D02*
X2198Y736D01*
X2207Y736D02*
X2238Y736D01*
X2267Y736D02*
X2298Y736D01*
X2307Y736D02*
X2338Y736D01*
X2367Y736D02*
X2398Y736D01*
X2407Y736D02*
X2438Y736D01*
X2467Y736D02*
X2538Y736D01*
X2567Y736D02*
X2599Y736D01*
X2606Y736D02*
X2638Y736D01*
X2667Y736D02*
X2699Y736D01*
X2706Y736D02*
X2738Y736D01*
X2767Y736D02*
X2799Y736D01*
X2806Y736D02*
X2838Y736D01*
X2867Y736D02*
X2898Y736D01*
X2907Y736D02*
X2938Y736D01*
X2967Y736D02*
X2999Y736D01*
X3006Y736D02*
X3038Y736D01*
X3067Y736D02*
X3099Y736D01*
X3106Y736D02*
X3138Y736D01*
X3167Y736D02*
X3198Y736D01*
X3207Y736D02*
X3238Y736D01*
X3267Y736D02*
X3298Y736D01*
X3307Y736D02*
X3338Y736D01*
X3367Y736D02*
X3398Y736D01*
X3407Y736D02*
X3438Y736D01*
X3467Y736D02*
X3499Y736D01*
X3506Y736D02*
X3538Y736D01*
X2067Y735D02*
X2097Y735D01*
X2108Y735D02*
X2138Y735D01*
X2167Y735D02*
X2197Y735D01*
X2208Y735D02*
X2238Y735D01*
X2267Y735D02*
X2297Y735D01*
X2308Y735D02*
X2338Y735D01*
X2367Y735D02*
X2397Y735D01*
X2408Y735D02*
X2438Y735D01*
X2467Y735D02*
X2499Y735D01*
X2506Y735D02*
X2538Y735D01*
X2567Y735D02*
X2598Y735D01*
X2607Y735D02*
X2638Y735D01*
X2667Y735D02*
X2698Y735D01*
X2707Y735D02*
X2738Y735D01*
X2767Y735D02*
X2797Y735D01*
X2808Y735D02*
X2838Y735D01*
X2867Y735D02*
X2897Y735D01*
X2908Y735D02*
X2938Y735D01*
X2967Y735D02*
X2998Y735D01*
X3007Y735D02*
X3038Y735D01*
X3067Y735D02*
X3098Y735D01*
X3107Y735D02*
X3138Y735D01*
X3167Y735D02*
X3197Y735D01*
X3208Y735D02*
X3238Y735D01*
X3267Y735D02*
X3297Y735D01*
X3308Y735D02*
X3338Y735D01*
X3367Y735D02*
X3397Y735D01*
X3408Y735D02*
X3438Y735D01*
X3467Y735D02*
X3498Y735D01*
X3507Y735D02*
X3538Y735D01*
X2067Y734D02*
X2097Y734D01*
X2108Y734D02*
X2138Y734D01*
X2167Y734D02*
X2197Y734D01*
X2208Y734D02*
X2238Y734D01*
X2267Y734D02*
X2297Y734D01*
X2308Y734D02*
X2338Y734D01*
X2367Y734D02*
X2397Y734D01*
X2408Y734D02*
X2438Y734D01*
X2467Y734D02*
X2498Y734D01*
X2507Y734D02*
X2538Y734D01*
X2567Y734D02*
X2597Y734D01*
X2608Y734D02*
X2638Y734D01*
X2667Y734D02*
X2697Y734D01*
X2708Y734D02*
X2738Y734D01*
X2767Y734D02*
X2797Y734D01*
X2808Y734D02*
X2838Y734D01*
X2867Y734D02*
X2897Y734D01*
X2908Y734D02*
X2938Y734D01*
X2967Y734D02*
X2997Y734D01*
X3008Y734D02*
X3038Y734D01*
X3067Y734D02*
X3097Y734D01*
X3108Y734D02*
X3138Y734D01*
X3167Y734D02*
X3197Y734D01*
X3208Y734D02*
X3238Y734D01*
X3267Y734D02*
X3297Y734D01*
X3308Y734D02*
X3338Y734D01*
X3367Y734D02*
X3397Y734D01*
X3408Y734D02*
X3438Y734D01*
X3467Y734D02*
X3497Y734D01*
X3508Y734D02*
X3538Y734D01*
X2067Y733D02*
X2096Y733D01*
X2109Y733D02*
X2138Y733D01*
X2167Y733D02*
X2196Y733D01*
X2209Y733D02*
X2238Y733D01*
X2267Y733D02*
X2296Y733D01*
X2309Y733D02*
X2338Y733D01*
X2367Y733D02*
X2396Y733D01*
X2409Y733D02*
X2438Y733D01*
X2467Y733D02*
X2497Y733D01*
X2508Y733D02*
X2538Y733D01*
X2567Y733D02*
X2596Y733D01*
X2609Y733D02*
X2638Y733D01*
X2667Y733D02*
X2696Y733D01*
X2709Y733D02*
X2738Y733D01*
X2767Y733D02*
X2796Y733D01*
X2809Y733D02*
X2838Y733D01*
X2867Y733D02*
X2896Y733D01*
X2909Y733D02*
X2938Y733D01*
X2967Y733D02*
X2996Y733D01*
X3009Y733D02*
X3038Y733D01*
X3067Y733D02*
X3096Y733D01*
X3109Y733D02*
X3138Y733D01*
X3167Y733D02*
X3196Y733D01*
X3209Y733D02*
X3238Y733D01*
X3267Y733D02*
X3296Y733D01*
X3309Y733D02*
X3338Y733D01*
X3367Y733D02*
X3396Y733D01*
X3409Y733D02*
X3438Y733D01*
X3467Y733D02*
X3496Y733D01*
X3509Y733D02*
X3538Y733D01*
X2067Y732D02*
X2096Y732D01*
X2109Y732D02*
X2138Y732D01*
X2167Y732D02*
X2196Y732D01*
X2209Y732D02*
X2238Y732D01*
X2267Y732D02*
X2296Y732D01*
X2309Y732D02*
X2338Y732D01*
X2367Y732D02*
X2396Y732D01*
X2409Y732D02*
X2438Y732D01*
X2467Y732D02*
X2496Y732D01*
X2509Y732D02*
X2538Y732D01*
X2567Y732D02*
X2596Y732D01*
X2609Y732D02*
X2638Y732D01*
X2667Y732D02*
X2696Y732D01*
X2709Y732D02*
X2738Y732D01*
X2767Y732D02*
X2796Y732D01*
X2809Y732D02*
X2838Y732D01*
X2867Y732D02*
X2896Y732D01*
X2909Y732D02*
X2938Y732D01*
X2967Y732D02*
X2996Y732D01*
X3009Y732D02*
X3038Y732D01*
X3067Y732D02*
X3096Y732D01*
X3109Y732D02*
X3138Y732D01*
X3167Y732D02*
X3196Y732D01*
X3209Y732D02*
X3238Y732D01*
X3267Y732D02*
X3296Y732D01*
X3309Y732D02*
X3338Y732D01*
X3367Y732D02*
X3396Y732D01*
X3409Y732D02*
X3438Y732D01*
X3467Y732D02*
X3496Y732D01*
X3509Y732D02*
X3538Y732D01*
X2067Y731D02*
X2096Y731D01*
X2109Y731D02*
X2138Y731D01*
X2167Y731D02*
X2196Y731D01*
X2209Y731D02*
X2238Y731D01*
X2267Y731D02*
X2296Y731D01*
X2309Y731D02*
X2338Y731D01*
X2367Y731D02*
X2396Y731D01*
X2409Y731D02*
X2438Y731D01*
X2467Y731D02*
X2496Y731D01*
X2509Y731D02*
X2538Y731D01*
X2567Y731D02*
X2596Y731D01*
X2609Y731D02*
X2638Y731D01*
X2667Y731D02*
X2696Y731D01*
X2709Y731D02*
X2738Y731D01*
X2767Y731D02*
X2796Y731D01*
X2809Y731D02*
X2838Y731D01*
X2867Y731D02*
X2896Y731D01*
X2909Y731D02*
X2938Y731D01*
X2967Y731D02*
X2996Y731D01*
X3009Y731D02*
X3038Y731D01*
X3067Y731D02*
X3096Y731D01*
X3109Y731D02*
X3138Y731D01*
X3167Y731D02*
X3196Y731D01*
X3209Y731D02*
X3238Y731D01*
X3267Y731D02*
X3296Y731D01*
X3309Y731D02*
X3338Y731D01*
X3367Y731D02*
X3396Y731D01*
X3409Y731D02*
X3438Y731D01*
X3467Y731D02*
X3496Y731D01*
X3509Y731D02*
X3538Y731D01*
X2067Y730D02*
X2096Y730D01*
X2109Y730D02*
X2138Y730D01*
X2167Y730D02*
X2196Y730D01*
X2209Y730D02*
X2238Y730D01*
X2267Y730D02*
X2296Y730D01*
X2309Y730D02*
X2338Y730D01*
X2367Y730D02*
X2396Y730D01*
X2409Y730D02*
X2438Y730D01*
X2467Y730D02*
X2496Y730D01*
X2509Y730D02*
X2538Y730D01*
X2567Y730D02*
X2596Y730D01*
X2609Y730D02*
X2638Y730D01*
X2667Y730D02*
X2696Y730D01*
X2709Y730D02*
X2738Y730D01*
X2767Y730D02*
X2796Y730D01*
X2809Y730D02*
X2838Y730D01*
X2867Y730D02*
X2896Y730D01*
X2909Y730D02*
X2938Y730D01*
X2967Y730D02*
X2996Y730D01*
X3009Y730D02*
X3038Y730D01*
X3067Y730D02*
X3096Y730D01*
X3109Y730D02*
X3138Y730D01*
X3167Y730D02*
X3196Y730D01*
X3209Y730D02*
X3238Y730D01*
X3267Y730D02*
X3296Y730D01*
X3309Y730D02*
X3338Y730D01*
X3367Y730D02*
X3396Y730D01*
X3409Y730D02*
X3438Y730D01*
X3467Y730D02*
X3496Y730D01*
X3509Y730D02*
X3538Y730D01*
X2067Y729D02*
X2096Y729D01*
X2109Y729D02*
X2138Y729D01*
X2167Y729D02*
X2196Y729D01*
X2209Y729D02*
X2238Y729D01*
X2267Y729D02*
X2296Y729D01*
X2309Y729D02*
X2338Y729D01*
X2367Y729D02*
X2396Y729D01*
X2409Y729D02*
X2438Y729D01*
X2467Y729D02*
X2496Y729D01*
X2509Y729D02*
X2538Y729D01*
X2567Y729D02*
X2596Y729D01*
X2609Y729D02*
X2638Y729D01*
X2667Y729D02*
X2696Y729D01*
X2709Y729D02*
X2738Y729D01*
X2767Y729D02*
X2796Y729D01*
X2809Y729D02*
X2838Y729D01*
X2867Y729D02*
X2896Y729D01*
X2909Y729D02*
X2938Y729D01*
X2967Y729D02*
X2996Y729D01*
X3009Y729D02*
X3038Y729D01*
X3067Y729D02*
X3096Y729D01*
X3109Y729D02*
X3138Y729D01*
X3167Y729D02*
X3196Y729D01*
X3209Y729D02*
X3238Y729D01*
X3267Y729D02*
X3296Y729D01*
X3309Y729D02*
X3338Y729D01*
X3367Y729D02*
X3396Y729D01*
X3409Y729D02*
X3438Y729D01*
X3467Y729D02*
X3496Y729D01*
X3509Y729D02*
X3538Y729D01*
X2067Y728D02*
X2097Y728D01*
X2108Y728D02*
X2138Y728D01*
X2167Y728D02*
X2197Y728D01*
X2208Y728D02*
X2238Y728D01*
X2267Y728D02*
X2297Y728D01*
X2308Y728D02*
X2338Y728D01*
X2367Y728D02*
X2397Y728D01*
X2408Y728D02*
X2438Y728D01*
X2467Y728D02*
X2496Y728D01*
X2509Y728D02*
X2538Y728D01*
X2567Y728D02*
X2597Y728D01*
X2608Y728D02*
X2638Y728D01*
X2667Y728D02*
X2697Y728D01*
X2708Y728D02*
X2738Y728D01*
X2767Y728D02*
X2797Y728D01*
X2808Y728D02*
X2838Y728D01*
X2867Y728D02*
X2897Y728D01*
X2908Y728D02*
X2938Y728D01*
X2967Y728D02*
X2997Y728D01*
X3008Y728D02*
X3038Y728D01*
X3067Y728D02*
X3097Y728D01*
X3108Y728D02*
X3138Y728D01*
X3167Y728D02*
X3197Y728D01*
X3208Y728D02*
X3238Y728D01*
X3267Y728D02*
X3297Y728D01*
X3308Y728D02*
X3338Y728D01*
X3367Y728D02*
X3397Y728D01*
X3408Y728D02*
X3438Y728D01*
X3467Y728D02*
X3497Y728D01*
X3508Y728D02*
X3538Y728D01*
X2067Y727D02*
X2097Y727D01*
X2108Y727D02*
X2138Y727D01*
X2167Y727D02*
X2197Y727D01*
X2208Y727D02*
X2238Y727D01*
X2267Y727D02*
X2297Y727D01*
X2308Y727D02*
X2338Y727D01*
X2367Y727D02*
X2397Y727D01*
X2408Y727D02*
X2438Y727D01*
X2467Y727D02*
X2497Y727D01*
X2508Y727D02*
X2538Y727D01*
X2567Y727D02*
X2598Y727D01*
X2607Y727D02*
X2638Y727D01*
X2667Y727D02*
X2698Y727D01*
X2707Y727D02*
X2738Y727D01*
X2767Y727D02*
X2797Y727D01*
X2808Y727D02*
X2838Y727D01*
X2867Y727D02*
X2897Y727D01*
X2908Y727D02*
X2938Y727D01*
X2967Y727D02*
X2998Y727D01*
X3007Y727D02*
X3038Y727D01*
X3067Y727D02*
X3098Y727D01*
X3107Y727D02*
X3138Y727D01*
X3167Y727D02*
X3197Y727D01*
X3208Y727D02*
X3238Y727D01*
X3267Y727D02*
X3297Y727D01*
X3308Y727D02*
X3338Y727D01*
X3367Y727D02*
X3397Y727D01*
X3408Y727D02*
X3438Y727D01*
X3467Y727D02*
X3498Y727D01*
X3507Y727D02*
X3538Y727D01*
X2067Y726D02*
X2098Y726D01*
X2107Y726D02*
X2138Y726D01*
X2167Y726D02*
X2198Y726D01*
X2207Y726D02*
X2238Y726D01*
X2267Y726D02*
X2298Y726D01*
X2307Y726D02*
X2338Y726D01*
X2367Y726D02*
X2398Y726D01*
X2407Y726D02*
X2438Y726D01*
X2467Y726D02*
X2498Y726D01*
X2507Y726D02*
X2538Y726D01*
X2567Y726D02*
X2599Y726D01*
X2606Y726D02*
X2638Y726D01*
X2667Y726D02*
X2699Y726D01*
X2706Y726D02*
X2738Y726D01*
X2767Y726D02*
X2799Y726D01*
X2806Y726D02*
X2838Y726D01*
X2867Y726D02*
X2898Y726D01*
X2907Y726D02*
X2938Y726D01*
X2967Y726D02*
X2999Y726D01*
X3006Y726D02*
X3038Y726D01*
X3067Y726D02*
X3099Y726D01*
X3106Y726D02*
X3138Y726D01*
X3167Y726D02*
X3198Y726D01*
X3207Y726D02*
X3238Y726D01*
X3267Y726D02*
X3298Y726D01*
X3307Y726D02*
X3338Y726D01*
X3367Y726D02*
X3398Y726D01*
X3407Y726D02*
X3438Y726D01*
X3467Y726D02*
X3499Y726D01*
X3506Y726D02*
X3538Y726D01*
X2067Y725D02*
X2100Y725D01*
X2105Y725D02*
X2138Y725D01*
X2167Y725D02*
X2200Y725D01*
X2205Y725D02*
X2238Y725D01*
X2267Y725D02*
X2300Y725D01*
X2305Y725D02*
X2338Y725D01*
X2367Y725D02*
X2400Y725D01*
X2405Y725D02*
X2438Y725D01*
X2467Y725D02*
X2499Y725D01*
X2506Y725D02*
X2538Y725D01*
X2567Y725D02*
X2638Y725D01*
X2667Y725D02*
X2738Y725D01*
X2767Y725D02*
X2838Y725D01*
X2867Y725D02*
X2900Y725D01*
X2905Y725D02*
X2938Y725D01*
X2967Y725D02*
X3038Y725D01*
X3067Y725D02*
X3138Y725D01*
X3167Y725D02*
X3200Y725D01*
X3205Y725D02*
X3238Y725D01*
X3267Y725D02*
X3300Y725D01*
X3305Y725D02*
X3338Y725D01*
X3367Y725D02*
X3400Y725D01*
X3405Y725D02*
X3438Y725D01*
X3467Y725D02*
X3538Y725D01*
X2067Y724D02*
X2138Y724D01*
X2167Y724D02*
X2238Y724D01*
X2267Y724D02*
X2338Y724D01*
X2367Y724D02*
X2438Y724D01*
X2467Y724D02*
X2538Y724D01*
X2567Y724D02*
X2638Y724D01*
X2667Y724D02*
X2738Y724D01*
X2767Y724D02*
X2838Y724D01*
X2867Y724D02*
X2938Y724D01*
X2967Y724D02*
X3038Y724D01*
X3067Y724D02*
X3138Y724D01*
X3167Y724D02*
X3238Y724D01*
X3267Y724D02*
X3338Y724D01*
X3367Y724D02*
X3438Y724D01*
X3467Y724D02*
X3538Y724D01*
X2067Y723D02*
X2138Y723D01*
X2167Y723D02*
X2238Y723D01*
X2267Y723D02*
X2338Y723D01*
X2367Y723D02*
X2438Y723D01*
X2467Y723D02*
X2538Y723D01*
X2567Y723D02*
X2638Y723D01*
X2667Y723D02*
X2738Y723D01*
X2767Y723D02*
X2838Y723D01*
X2867Y723D02*
X2938Y723D01*
X2967Y723D02*
X3038Y723D01*
X3067Y723D02*
X3138Y723D01*
X3167Y723D02*
X3238Y723D01*
X3267Y723D02*
X3338Y723D01*
X3367Y723D02*
X3438Y723D01*
X3467Y723D02*
X3538Y723D01*
X2067Y722D02*
X2138Y722D01*
X2167Y722D02*
X2238Y722D01*
X2267Y722D02*
X2338Y722D01*
X2367Y722D02*
X2438Y722D01*
X2467Y722D02*
X2538Y722D01*
X2567Y722D02*
X2638Y722D01*
X2667Y722D02*
X2738Y722D01*
X2767Y722D02*
X2838Y722D01*
X2867Y722D02*
X2938Y722D01*
X2967Y722D02*
X3038Y722D01*
X3067Y722D02*
X3138Y722D01*
X3167Y722D02*
X3238Y722D01*
X3267Y722D02*
X3338Y722D01*
X3367Y722D02*
X3438Y722D01*
X3467Y722D02*
X3538Y722D01*
X2067Y721D02*
X2138Y721D01*
X2167Y721D02*
X2238Y721D01*
X2267Y721D02*
X2338Y721D01*
X2367Y721D02*
X2438Y721D01*
X2467Y721D02*
X2538Y721D01*
X2567Y721D02*
X2638Y721D01*
X2667Y721D02*
X2738Y721D01*
X2767Y721D02*
X2838Y721D01*
X2867Y721D02*
X2938Y721D01*
X2967Y721D02*
X3038Y721D01*
X3067Y721D02*
X3138Y721D01*
X3167Y721D02*
X3238Y721D01*
X3267Y721D02*
X3338Y721D01*
X3367Y721D02*
X3438Y721D01*
X3467Y721D02*
X3538Y721D01*
X2067Y720D02*
X2138Y720D01*
X2167Y720D02*
X2238Y720D01*
X2267Y720D02*
X2338Y720D01*
X2367Y720D02*
X2438Y720D01*
X2467Y720D02*
X2538Y720D01*
X2567Y720D02*
X2638Y720D01*
X2667Y720D02*
X2738Y720D01*
X2767Y720D02*
X2838Y720D01*
X2867Y720D02*
X2938Y720D01*
X2967Y720D02*
X3038Y720D01*
X3067Y720D02*
X3138Y720D01*
X3167Y720D02*
X3238Y720D01*
X3267Y720D02*
X3338Y720D01*
X3367Y720D02*
X3438Y720D01*
X3467Y720D02*
X3538Y720D01*
X2067Y719D02*
X2138Y719D01*
X2167Y719D02*
X2238Y719D01*
X2267Y719D02*
X2338Y719D01*
X2367Y719D02*
X2438Y719D01*
X2467Y719D02*
X2538Y719D01*
X2567Y719D02*
X2638Y719D01*
X2667Y719D02*
X2738Y719D01*
X2767Y719D02*
X2838Y719D01*
X2867Y719D02*
X2938Y719D01*
X2967Y719D02*
X3038Y719D01*
X3067Y719D02*
X3138Y719D01*
X3167Y719D02*
X3238Y719D01*
X3267Y719D02*
X3338Y719D01*
X3367Y719D02*
X3438Y719D01*
X3467Y719D02*
X3538Y719D01*
X2067Y718D02*
X2138Y718D01*
X2167Y718D02*
X2238Y718D01*
X2267Y718D02*
X2338Y718D01*
X2367Y718D02*
X2438Y718D01*
X2467Y718D02*
X2538Y718D01*
X2567Y718D02*
X2638Y718D01*
X2667Y718D02*
X2738Y718D01*
X2767Y718D02*
X2838Y718D01*
X2867Y718D02*
X2938Y718D01*
X2967Y718D02*
X3038Y718D01*
X3067Y718D02*
X3138Y718D01*
X3167Y718D02*
X3238Y718D01*
X3267Y718D02*
X3338Y718D01*
X3367Y718D02*
X3438Y718D01*
X3467Y718D02*
X3538Y718D01*
X2067Y717D02*
X2138Y717D01*
X2167Y717D02*
X2238Y717D01*
X2267Y717D02*
X2338Y717D01*
X2367Y717D02*
X2438Y717D01*
X2467Y717D02*
X2538Y717D01*
X2567Y717D02*
X2638Y717D01*
X2667Y717D02*
X2738Y717D01*
X2767Y717D02*
X2838Y717D01*
X2867Y717D02*
X2938Y717D01*
X2967Y717D02*
X3038Y717D01*
X3067Y717D02*
X3138Y717D01*
X3167Y717D02*
X3238Y717D01*
X3267Y717D02*
X3338Y717D01*
X3367Y717D02*
X3438Y717D01*
X3467Y717D02*
X3538Y717D01*
X2067Y716D02*
X2138Y716D01*
X2167Y716D02*
X2238Y716D01*
X2267Y716D02*
X2338Y716D01*
X2367Y716D02*
X2438Y716D01*
X2467Y716D02*
X2538Y716D01*
X2567Y716D02*
X2638Y716D01*
X2667Y716D02*
X2738Y716D01*
X2767Y716D02*
X2838Y716D01*
X2867Y716D02*
X2938Y716D01*
X2967Y716D02*
X3038Y716D01*
X3067Y716D02*
X3138Y716D01*
X3167Y716D02*
X3238Y716D01*
X3267Y716D02*
X3338Y716D01*
X3367Y716D02*
X3438Y716D01*
X3467Y716D02*
X3538Y716D01*
X2067Y715D02*
X2138Y715D01*
X2167Y715D02*
X2238Y715D01*
X2267Y715D02*
X2338Y715D01*
X2367Y715D02*
X2438Y715D01*
X2467Y715D02*
X2538Y715D01*
X2567Y715D02*
X2638Y715D01*
X2667Y715D02*
X2738Y715D01*
X2767Y715D02*
X2838Y715D01*
X2867Y715D02*
X2938Y715D01*
X2967Y715D02*
X3038Y715D01*
X3067Y715D02*
X3138Y715D01*
X3167Y715D02*
X3238Y715D01*
X3267Y715D02*
X3338Y715D01*
X3367Y715D02*
X3438Y715D01*
X3467Y715D02*
X3538Y715D01*
X2067Y714D02*
X2138Y714D01*
X2167Y714D02*
X2238Y714D01*
X2267Y714D02*
X2338Y714D01*
X2367Y714D02*
X2438Y714D01*
X2467Y714D02*
X2538Y714D01*
X2567Y714D02*
X2638Y714D01*
X2667Y714D02*
X2738Y714D01*
X2767Y714D02*
X2838Y714D01*
X2867Y714D02*
X2938Y714D01*
X2967Y714D02*
X3038Y714D01*
X3067Y714D02*
X3138Y714D01*
X3167Y714D02*
X3238Y714D01*
X3267Y714D02*
X3338Y714D01*
X3367Y714D02*
X3438Y714D01*
X3467Y714D02*
X3538Y714D01*
X2067Y713D02*
X2138Y713D01*
X2167Y713D02*
X2238Y713D01*
X2267Y713D02*
X2338Y713D01*
X2367Y713D02*
X2438Y713D01*
X2467Y713D02*
X2538Y713D01*
X2567Y713D02*
X2638Y713D01*
X2667Y713D02*
X2738Y713D01*
X2767Y713D02*
X2838Y713D01*
X2867Y713D02*
X2938Y713D01*
X2967Y713D02*
X3038Y713D01*
X3067Y713D02*
X3138Y713D01*
X3167Y713D02*
X3238Y713D01*
X3267Y713D02*
X3338Y713D01*
X3367Y713D02*
X3438Y713D01*
X3467Y713D02*
X3538Y713D01*
X2067Y712D02*
X2138Y712D01*
X2167Y712D02*
X2238Y712D01*
X2267Y712D02*
X2338Y712D01*
X2367Y712D02*
X2438Y712D01*
X2467Y712D02*
X2538Y712D01*
X2567Y712D02*
X2638Y712D01*
X2667Y712D02*
X2738Y712D01*
X2767Y712D02*
X2838Y712D01*
X2867Y712D02*
X2938Y712D01*
X2967Y712D02*
X3038Y712D01*
X3067Y712D02*
X3138Y712D01*
X3167Y712D02*
X3238Y712D01*
X3267Y712D02*
X3338Y712D01*
X3367Y712D02*
X3438Y712D01*
X3467Y712D02*
X3538Y712D01*
X2067Y711D02*
X2138Y711D01*
X2167Y711D02*
X2238Y711D01*
X2267Y711D02*
X2338Y711D01*
X2367Y711D02*
X2438Y711D01*
X2467Y711D02*
X2538Y711D01*
X2567Y711D02*
X2638Y711D01*
X2667Y711D02*
X2738Y711D01*
X2767Y711D02*
X2838Y711D01*
X2867Y711D02*
X2938Y711D01*
X2967Y711D02*
X3038Y711D01*
X3067Y711D02*
X3138Y711D01*
X3167Y711D02*
X3238Y711D01*
X3267Y711D02*
X3338Y711D01*
X3367Y711D02*
X3438Y711D01*
X3467Y711D02*
X3538Y711D01*
X2067Y710D02*
X2138Y710D01*
X2167Y710D02*
X2238Y710D01*
X2267Y710D02*
X2338Y710D01*
X2367Y710D02*
X2438Y710D01*
X2467Y710D02*
X2538Y710D01*
X2567Y710D02*
X2638Y710D01*
X2667Y710D02*
X2738Y710D01*
X2767Y710D02*
X2838Y710D01*
X2867Y710D02*
X2938Y710D01*
X2967Y710D02*
X3038Y710D01*
X3067Y710D02*
X3138Y710D01*
X3167Y710D02*
X3238Y710D01*
X3267Y710D02*
X3338Y710D01*
X3367Y710D02*
X3438Y710D01*
X3467Y710D02*
X3538Y710D01*
X2067Y709D02*
X2138Y709D01*
X2167Y709D02*
X2238Y709D01*
X2267Y709D02*
X2338Y709D01*
X2367Y709D02*
X2438Y709D01*
X2467Y709D02*
X2538Y709D01*
X2567Y709D02*
X2638Y709D01*
X2667Y709D02*
X2738Y709D01*
X2767Y709D02*
X2838Y709D01*
X2867Y709D02*
X2938Y709D01*
X2967Y709D02*
X3038Y709D01*
X3067Y709D02*
X3138Y709D01*
X3167Y709D02*
X3238Y709D01*
X3267Y709D02*
X3338Y709D01*
X3367Y709D02*
X3438Y709D01*
X3467Y709D02*
X3538Y709D01*
X2067Y708D02*
X2138Y708D01*
X2167Y708D02*
X2238Y708D01*
X2267Y708D02*
X2338Y708D01*
X2367Y708D02*
X2438Y708D01*
X2467Y708D02*
X2538Y708D01*
X2567Y708D02*
X2638Y708D01*
X2667Y708D02*
X2738Y708D01*
X2767Y708D02*
X2838Y708D01*
X2867Y708D02*
X2938Y708D01*
X2967Y708D02*
X3038Y708D01*
X3067Y708D02*
X3138Y708D01*
X3167Y708D02*
X3238Y708D01*
X3267Y708D02*
X3338Y708D01*
X3367Y708D02*
X3438Y708D01*
X3467Y708D02*
X3538Y708D01*
X2067Y707D02*
X2138Y707D01*
X2167Y707D02*
X2238Y707D01*
X2267Y707D02*
X2338Y707D01*
X2367Y707D02*
X2438Y707D01*
X2467Y707D02*
X2538Y707D01*
X2567Y707D02*
X2638Y707D01*
X2667Y707D02*
X2738Y707D01*
X2767Y707D02*
X2838Y707D01*
X2867Y707D02*
X2938Y707D01*
X2967Y707D02*
X3038Y707D01*
X3067Y707D02*
X3138Y707D01*
X3167Y707D02*
X3238Y707D01*
X3267Y707D02*
X3338Y707D01*
X3367Y707D02*
X3438Y707D01*
X3467Y707D02*
X3538Y707D01*
X2067Y706D02*
X2138Y706D01*
X2167Y706D02*
X2238Y706D01*
X2267Y706D02*
X2338Y706D01*
X2367Y706D02*
X2438Y706D01*
X2467Y706D02*
X2538Y706D01*
X2567Y706D02*
X2638Y706D01*
X2667Y706D02*
X2738Y706D01*
X2767Y706D02*
X2838Y706D01*
X2867Y706D02*
X2938Y706D01*
X2967Y706D02*
X3038Y706D01*
X3067Y706D02*
X3138Y706D01*
X3167Y706D02*
X3238Y706D01*
X3267Y706D02*
X3338Y706D01*
X3367Y706D02*
X3438Y706D01*
X3467Y706D02*
X3538Y706D01*
X2067Y705D02*
X2138Y705D01*
X2167Y705D02*
X2238Y705D01*
X2267Y705D02*
X2338Y705D01*
X2367Y705D02*
X2438Y705D01*
X2467Y705D02*
X2538Y705D01*
X2567Y705D02*
X2638Y705D01*
X2667Y705D02*
X2738Y705D01*
X2767Y705D02*
X2838Y705D01*
X2867Y705D02*
X2938Y705D01*
X2967Y705D02*
X3038Y705D01*
X3067Y705D02*
X3138Y705D01*
X3167Y705D02*
X3238Y705D01*
X3267Y705D02*
X3338Y705D01*
X3367Y705D02*
X3438Y705D01*
X3467Y705D02*
X3538Y705D01*
X2067Y704D02*
X2138Y704D01*
X2167Y704D02*
X2238Y704D01*
X2267Y704D02*
X2338Y704D01*
X2367Y704D02*
X2438Y704D01*
X2467Y704D02*
X2538Y704D01*
X2567Y704D02*
X2638Y704D01*
X2667Y704D02*
X2738Y704D01*
X2767Y704D02*
X2838Y704D01*
X2867Y704D02*
X2938Y704D01*
X2967Y704D02*
X3038Y704D01*
X3067Y704D02*
X3138Y704D01*
X3167Y704D02*
X3238Y704D01*
X3267Y704D02*
X3338Y704D01*
X3367Y704D02*
X3438Y704D01*
X3467Y704D02*
X3538Y704D01*
X2067Y703D02*
X2138Y703D01*
X2167Y703D02*
X2238Y703D01*
X2267Y703D02*
X2338Y703D01*
X2367Y703D02*
X2438Y703D01*
X2467Y703D02*
X2538Y703D01*
X2567Y703D02*
X2638Y703D01*
X2667Y703D02*
X2738Y703D01*
X2767Y703D02*
X2838Y703D01*
X2867Y703D02*
X2938Y703D01*
X2967Y703D02*
X3038Y703D01*
X3067Y703D02*
X3138Y703D01*
X3167Y703D02*
X3238Y703D01*
X3267Y703D02*
X3338Y703D01*
X3367Y703D02*
X3438Y703D01*
X3467Y703D02*
X3538Y703D01*
X2067Y702D02*
X2138Y702D01*
X2167Y702D02*
X2238Y702D01*
X2267Y702D02*
X2338Y702D01*
X2367Y702D02*
X2438Y702D01*
X2467Y702D02*
X2538Y702D01*
X2567Y702D02*
X2638Y702D01*
X2667Y702D02*
X2738Y702D01*
X2767Y702D02*
X2838Y702D01*
X2867Y702D02*
X2938Y702D01*
X2967Y702D02*
X3038Y702D01*
X3067Y702D02*
X3138Y702D01*
X3167Y702D02*
X3238Y702D01*
X3267Y702D02*
X3338Y702D01*
X3367Y702D02*
X3438Y702D01*
X3467Y702D02*
X3538Y702D01*
X2067Y701D02*
X2138Y701D01*
X2167Y701D02*
X2238Y701D01*
X2267Y701D02*
X2338Y701D01*
X2367Y701D02*
X2438Y701D01*
X2467Y701D02*
X2538Y701D01*
X2567Y701D02*
X2638Y701D01*
X2667Y701D02*
X2738Y701D01*
X2767Y701D02*
X2838Y701D01*
X2867Y701D02*
X2938Y701D01*
X2967Y701D02*
X3038Y701D01*
X3067Y701D02*
X3138Y701D01*
X3167Y701D02*
X3238Y701D01*
X3267Y701D02*
X3338Y701D01*
X3367Y701D02*
X3438Y701D01*
X3467Y701D02*
X3538Y701D01*
X2067Y700D02*
X2137Y700D01*
X2167Y700D02*
X2237Y700D01*
X2267Y700D02*
X2337Y700D01*
X2367Y700D02*
X2437Y700D01*
X2467Y700D02*
X2538Y700D01*
X2567Y700D02*
X2637Y700D01*
X2667Y700D02*
X2737Y700D01*
X2767Y700D02*
X2837Y700D01*
X2867Y700D02*
X2937Y700D01*
X2967Y700D02*
X3037Y700D01*
X3067Y700D02*
X3137Y700D01*
X3167Y700D02*
X3237Y700D01*
X3267Y700D02*
X3337Y700D01*
X3367Y700D02*
X3437Y700D01*
X3467Y700D02*
X3537Y700D01*
X2068Y699D02*
X2137Y699D01*
X2168Y699D02*
X2237Y699D01*
X2268Y699D02*
X2337Y699D01*
X2368Y699D02*
X2437Y699D01*
X2467Y699D02*
X2537Y699D01*
X2568Y699D02*
X2637Y699D01*
X2668Y699D02*
X2737Y699D01*
X2768Y699D02*
X2837Y699D01*
X2868Y699D02*
X2937Y699D01*
X2968Y699D02*
X3037Y699D01*
X3068Y699D02*
X3137Y699D01*
X3168Y699D02*
X3237Y699D01*
X3268Y699D02*
X3337Y699D01*
X3368Y699D02*
X3437Y699D01*
X3468Y699D02*
X3537Y699D01*
X2068Y698D02*
X2137Y698D01*
X2168Y698D02*
X2237Y698D01*
X2268Y698D02*
X2337Y698D01*
X2368Y698D02*
X2437Y698D01*
X2468Y698D02*
X2537Y698D01*
X2568Y698D02*
X2637Y698D01*
X2668Y698D02*
X2737Y698D01*
X2768Y698D02*
X2837Y698D01*
X2868Y698D02*
X2937Y698D01*
X2968Y698D02*
X3037Y698D01*
X3068Y698D02*
X3137Y698D01*
X3168Y698D02*
X3237Y698D01*
X3268Y698D02*
X3337Y698D01*
X3368Y698D02*
X3437Y698D01*
X3468Y698D02*
X3537Y698D01*
X2068Y697D02*
X2137Y697D01*
X2168Y697D02*
X2237Y697D01*
X2268Y697D02*
X2337Y697D01*
X2368Y697D02*
X2437Y697D01*
X2468Y697D02*
X2537Y697D01*
X2568Y697D02*
X2637Y697D01*
X2668Y697D02*
X2737Y697D01*
X2768Y697D02*
X2837Y697D01*
X2868Y697D02*
X2937Y697D01*
X2968Y697D02*
X3037Y697D01*
X3068Y697D02*
X3137Y697D01*
X3168Y697D02*
X3237Y697D01*
X3268Y697D02*
X3337Y697D01*
X3368Y697D02*
X3437Y697D01*
X3468Y697D02*
X3537Y697D01*
X2068Y696D02*
X2137Y696D01*
X2168Y696D02*
X2237Y696D01*
X2268Y696D02*
X2337Y696D01*
X2368Y696D02*
X2437Y696D01*
X2468Y696D02*
X2537Y696D01*
X2568Y696D02*
X2637Y696D01*
X2668Y696D02*
X2737Y696D01*
X2768Y696D02*
X2837Y696D01*
X2868Y696D02*
X2937Y696D01*
X2968Y696D02*
X3037Y696D01*
X3068Y696D02*
X3137Y696D01*
X3168Y696D02*
X3237Y696D01*
X3268Y696D02*
X3337Y696D01*
X3368Y696D02*
X3437Y696D01*
X3468Y696D02*
X3537Y696D01*
X2069Y695D02*
X2136Y695D01*
X2169Y695D02*
X2236Y695D01*
X2269Y695D02*
X2336Y695D01*
X2369Y695D02*
X2436Y695D01*
X2468Y695D02*
X2537Y695D01*
X2569Y695D02*
X2636Y695D01*
X2669Y695D02*
X2736Y695D01*
X2769Y695D02*
X2836Y695D01*
X2869Y695D02*
X2936Y695D01*
X2969Y695D02*
X3036Y695D01*
X3069Y695D02*
X3136Y695D01*
X3169Y695D02*
X3236Y695D01*
X3269Y695D02*
X3336Y695D01*
X3369Y695D02*
X3436Y695D01*
X3469Y695D02*
X3536Y695D01*
X2069Y694D02*
X2136Y694D01*
X2169Y694D02*
X2236Y694D01*
X2269Y694D02*
X2336Y694D01*
X2369Y694D02*
X2436Y694D01*
X2469Y694D02*
X2536Y694D01*
X2569Y694D02*
X2636Y694D01*
X2669Y694D02*
X2736Y694D01*
X2769Y694D02*
X2836Y694D01*
X2869Y694D02*
X2936Y694D01*
X2969Y694D02*
X3036Y694D01*
X3069Y694D02*
X3136Y694D01*
X3169Y694D02*
X3236Y694D01*
X3269Y694D02*
X3336Y694D01*
X3369Y694D02*
X3436Y694D01*
X3469Y694D02*
X3536Y694D01*
X2069Y693D02*
X2136Y693D01*
X2169Y693D02*
X2236Y693D01*
X2269Y693D02*
X2336Y693D01*
X2369Y693D02*
X2436Y693D01*
X2469Y693D02*
X2536Y693D01*
X2569Y693D02*
X2636Y693D01*
X2669Y693D02*
X2736Y693D01*
X2769Y693D02*
X2836Y693D01*
X2869Y693D02*
X2936Y693D01*
X2969Y693D02*
X3036Y693D01*
X3069Y693D02*
X3136Y693D01*
X3169Y693D02*
X3236Y693D01*
X3269Y693D02*
X3336Y693D01*
X3369Y693D02*
X3436Y693D01*
X3469Y693D02*
X3536Y693D01*
X2070Y692D02*
X2135Y692D01*
X2170Y692D02*
X2235Y692D01*
X2270Y692D02*
X2335Y692D01*
X2370Y692D02*
X2435Y692D01*
X2469Y692D02*
X2536Y692D01*
X2570Y692D02*
X2635Y692D01*
X2670Y692D02*
X2735Y692D01*
X2770Y692D02*
X2835Y692D01*
X2870Y692D02*
X2935Y692D01*
X2970Y692D02*
X3035Y692D01*
X3070Y692D02*
X3135Y692D01*
X3170Y692D02*
X3235Y692D01*
X3270Y692D02*
X3335Y692D01*
X3370Y692D02*
X3435Y692D01*
X3470Y692D02*
X3535Y692D01*
X2070Y691D02*
X2135Y691D01*
X2170Y691D02*
X2235Y691D01*
X2270Y691D02*
X2335Y691D01*
X2370Y691D02*
X2435Y691D01*
X2470Y691D02*
X2535Y691D01*
X2570Y691D02*
X2635Y691D01*
X2670Y691D02*
X2735Y691D01*
X2770Y691D02*
X2835Y691D01*
X2870Y691D02*
X2935Y691D01*
X2970Y691D02*
X3035Y691D01*
X3070Y691D02*
X3135Y691D01*
X3170Y691D02*
X3235Y691D01*
X3270Y691D02*
X3335Y691D01*
X3370Y691D02*
X3435Y691D01*
X3470Y691D02*
X3535Y691D01*
X2070Y690D02*
X2134Y690D01*
X2170Y690D02*
X2234Y690D01*
X2270Y690D02*
X2334Y690D01*
X2370Y690D02*
X2434Y690D01*
X2470Y690D02*
X2535Y690D01*
X2570Y690D02*
X2634Y690D01*
X2670Y690D02*
X2734Y690D01*
X2770Y690D02*
X2834Y690D01*
X2870Y690D02*
X2934Y690D01*
X2970Y690D02*
X3034Y690D01*
X3070Y690D02*
X3134Y690D01*
X3170Y690D02*
X3234Y690D01*
X3270Y690D02*
X3334Y690D01*
X3370Y690D02*
X3434Y690D01*
X3470Y690D02*
X3534Y690D01*
X2071Y689D02*
X2134Y689D01*
X2171Y689D02*
X2234Y689D01*
X2271Y689D02*
X2334Y689D01*
X2371Y689D02*
X2434Y689D01*
X2470Y689D02*
X2534Y689D01*
X2571Y689D02*
X2634Y689D01*
X2671Y689D02*
X2734Y689D01*
X2771Y689D02*
X2834Y689D01*
X2871Y689D02*
X2934Y689D01*
X2971Y689D02*
X3034Y689D01*
X3071Y689D02*
X3134Y689D01*
X3171Y689D02*
X3234Y689D01*
X3271Y689D02*
X3334Y689D01*
X3371Y689D02*
X3434Y689D01*
X3471Y689D02*
X3534Y689D01*
X2071Y688D02*
X2133Y688D01*
X2171Y688D02*
X2233Y688D01*
X2271Y688D02*
X2333Y688D01*
X2371Y688D02*
X2433Y688D01*
X2471Y688D02*
X2534Y688D01*
X2571Y688D02*
X2633Y688D01*
X2671Y688D02*
X2733Y688D01*
X2771Y688D02*
X2833Y688D01*
X2871Y688D02*
X2933Y688D01*
X2971Y688D02*
X3033Y688D01*
X3071Y688D02*
X3133Y688D01*
X3171Y688D02*
X3233Y688D01*
X3271Y688D02*
X3333Y688D01*
X3371Y688D02*
X3433Y688D01*
X3471Y688D02*
X3533Y688D01*
X2072Y687D02*
X2133Y687D01*
X2172Y687D02*
X2233Y687D01*
X2272Y687D02*
X2333Y687D01*
X2372Y687D02*
X2433Y687D01*
X2471Y687D02*
X2533Y687D01*
X2572Y687D02*
X2633Y687D01*
X2672Y687D02*
X2733Y687D01*
X2772Y687D02*
X2833Y687D01*
X2872Y687D02*
X2933Y687D01*
X2972Y687D02*
X3033Y687D01*
X3072Y687D02*
X3133Y687D01*
X3172Y687D02*
X3233Y687D01*
X3272Y687D02*
X3333Y687D01*
X3372Y687D02*
X3433Y687D01*
X3472Y687D02*
X3533Y687D01*
X2073Y686D02*
X2132Y686D01*
X2173Y686D02*
X2232Y686D01*
X2273Y686D02*
X2332Y686D01*
X2373Y686D02*
X2432Y686D01*
X2472Y686D02*
X2533Y686D01*
X2573Y686D02*
X2632Y686D01*
X2673Y686D02*
X2732Y686D01*
X2773Y686D02*
X2832Y686D01*
X2873Y686D02*
X2932Y686D01*
X2973Y686D02*
X3032Y686D01*
X3073Y686D02*
X3132Y686D01*
X3173Y686D02*
X3232Y686D01*
X3273Y686D02*
X3332Y686D01*
X3373Y686D02*
X3432Y686D01*
X3473Y686D02*
X3532Y686D01*
X2073Y685D02*
X2132Y685D01*
X2173Y685D02*
X2232Y685D01*
X2273Y685D02*
X2332Y685D01*
X2373Y685D02*
X2432Y685D01*
X2473Y685D02*
X2532Y685D01*
X2573Y685D02*
X2632Y685D01*
X2673Y685D02*
X2732Y685D01*
X2773Y685D02*
X2832Y685D01*
X2873Y685D02*
X2932Y685D01*
X2973Y685D02*
X3032Y685D01*
X3073Y685D02*
X3132Y685D01*
X3173Y685D02*
X3232Y685D01*
X3273Y685D02*
X3332Y685D01*
X3373Y685D02*
X3432Y685D01*
X3473Y685D02*
X3532Y685D01*
X2074Y684D02*
X2131Y684D01*
X2174Y684D02*
X2231Y684D01*
X2274Y684D02*
X2331Y684D01*
X2374Y684D02*
X2431Y684D01*
X2473Y684D02*
X2532Y684D01*
X2574Y684D02*
X2631Y684D01*
X2674Y684D02*
X2731Y684D01*
X2774Y684D02*
X2831Y684D01*
X2874Y684D02*
X2931Y684D01*
X2974Y684D02*
X3031Y684D01*
X3074Y684D02*
X3131Y684D01*
X3174Y684D02*
X3231Y684D01*
X3274Y684D02*
X3331Y684D01*
X3374Y684D02*
X3431Y684D01*
X3474Y684D02*
X3531Y684D01*
X2075Y683D02*
X2130Y683D01*
X2175Y683D02*
X2230Y683D01*
X2275Y683D02*
X2330Y683D01*
X2375Y683D02*
X2430Y683D01*
X2474Y683D02*
X2531Y683D01*
X2575Y683D02*
X2630Y683D01*
X2675Y683D02*
X2730Y683D01*
X2775Y683D02*
X2830Y683D01*
X2875Y683D02*
X2930Y683D01*
X2975Y683D02*
X3030Y683D01*
X3075Y683D02*
X3130Y683D01*
X3175Y683D02*
X3230Y683D01*
X3275Y683D02*
X3330Y683D01*
X3375Y683D02*
X3430Y683D01*
X3475Y683D02*
X3530Y683D01*
X2075Y682D02*
X2130Y682D01*
X2175Y682D02*
X2230Y682D01*
X2275Y682D02*
X2330Y682D01*
X2375Y682D02*
X2430Y682D01*
X2475Y682D02*
X2530Y682D01*
X2575Y682D02*
X2630Y682D01*
X2675Y682D02*
X2730Y682D01*
X2775Y682D02*
X2830Y682D01*
X2875Y682D02*
X2930Y682D01*
X2975Y682D02*
X3030Y682D01*
X3075Y682D02*
X3130Y682D01*
X3175Y682D02*
X3230Y682D01*
X3275Y682D02*
X3330Y682D01*
X3375Y682D02*
X3430Y682D01*
X3475Y682D02*
X3530Y682D01*
X2076Y681D02*
X2129Y681D01*
X2176Y681D02*
X2229Y681D01*
X2276Y681D02*
X2329Y681D01*
X2376Y681D02*
X2429Y681D01*
X2475Y681D02*
X2530Y681D01*
X2576Y681D02*
X2629Y681D01*
X2676Y681D02*
X2729Y681D01*
X2776Y681D02*
X2829Y681D01*
X2876Y681D02*
X2929Y681D01*
X2976Y681D02*
X3029Y681D01*
X3076Y681D02*
X3129Y681D01*
X3176Y681D02*
X3229Y681D01*
X3276Y681D02*
X3329Y681D01*
X3376Y681D02*
X3429Y681D01*
X3476Y681D02*
X3529Y681D01*
X2077Y680D02*
X2128Y680D01*
X2177Y680D02*
X2228Y680D01*
X2277Y680D02*
X2328Y680D01*
X2377Y680D02*
X2428Y680D01*
X2476Y680D02*
X2529Y680D01*
X2577Y680D02*
X2628Y680D01*
X2677Y680D02*
X2728Y680D01*
X2777Y680D02*
X2828Y680D01*
X2877Y680D02*
X2928Y680D01*
X2977Y680D02*
X3028Y680D01*
X3077Y680D02*
X3128Y680D01*
X3177Y680D02*
X3228Y680D01*
X3277Y680D02*
X3328Y680D01*
X3377Y680D02*
X3428Y680D01*
X3477Y680D02*
X3528Y680D01*
X2078Y679D02*
X2127Y679D01*
X2178Y679D02*
X2227Y679D01*
X2278Y679D02*
X2327Y679D01*
X2378Y679D02*
X2427Y679D01*
X2477Y679D02*
X2528Y679D01*
X2578Y679D02*
X2627Y679D01*
X2678Y679D02*
X2727Y679D01*
X2778Y679D02*
X2827Y679D01*
X2878Y679D02*
X2927Y679D01*
X2978Y679D02*
X3027Y679D01*
X3078Y679D02*
X3127Y679D01*
X3178Y679D02*
X3227Y679D01*
X3278Y679D02*
X3327Y679D01*
X3378Y679D02*
X3427Y679D01*
X3478Y679D02*
X3527Y679D01*
X2079Y678D02*
X2126Y678D01*
X2179Y678D02*
X2226Y678D01*
X2279Y678D02*
X2326Y678D01*
X2379Y678D02*
X2426Y678D01*
X2478Y678D02*
X2527Y678D01*
X2579Y678D02*
X2626Y678D01*
X2679Y678D02*
X2726Y678D01*
X2779Y678D02*
X2826Y678D01*
X2879Y678D02*
X2926Y678D01*
X2979Y678D02*
X3026Y678D01*
X3079Y678D02*
X3126Y678D01*
X3179Y678D02*
X3226Y678D01*
X3279Y678D02*
X3326Y678D01*
X3379Y678D02*
X3426Y678D01*
X3479Y678D02*
X3526Y678D01*
X2080Y677D02*
X2124Y677D01*
X2180Y677D02*
X2224Y677D01*
X2280Y677D02*
X2324Y677D01*
X2380Y677D02*
X2424Y677D01*
X2479Y677D02*
X2526Y677D01*
X2580Y677D02*
X2624Y677D01*
X2680Y677D02*
X2724Y677D01*
X2780Y677D02*
X2824Y677D01*
X2880Y677D02*
X2924Y677D01*
X2980Y677D02*
X3024Y677D01*
X3080Y677D02*
X3124Y677D01*
X3180Y677D02*
X3224Y677D01*
X3280Y677D02*
X3324Y677D01*
X3380Y677D02*
X3424Y677D01*
X3480Y677D02*
X3524Y677D01*
X2082Y676D02*
X2123Y676D01*
X2182Y676D02*
X2223Y676D01*
X2282Y676D02*
X2323Y676D01*
X2382Y676D02*
X2423Y676D01*
X2480Y676D02*
X2524Y676D01*
X2582Y676D02*
X2623Y676D01*
X2682Y676D02*
X2723Y676D01*
X2782Y676D02*
X2823Y676D01*
X2882Y676D02*
X2923Y676D01*
X2982Y676D02*
X3023Y676D01*
X3082Y676D02*
X3123Y676D01*
X3182Y676D02*
X3223Y676D01*
X3282Y676D02*
X3323Y676D01*
X3382Y676D02*
X3423Y676D01*
X3482Y676D02*
X3523Y676D01*
X2083Y675D02*
X2122Y675D01*
X2183Y675D02*
X2222Y675D01*
X2283Y675D02*
X2322Y675D01*
X2383Y675D02*
X2422Y675D01*
X2482Y675D02*
X2523Y675D01*
X2583Y675D02*
X2622Y675D01*
X2683Y675D02*
X2722Y675D01*
X2783Y675D02*
X2822Y675D01*
X2883Y675D02*
X2922Y675D01*
X2983Y675D02*
X3022Y675D01*
X3083Y675D02*
X3122Y675D01*
X3183Y675D02*
X3222Y675D01*
X3283Y675D02*
X3322Y675D01*
X3383Y675D02*
X3422Y675D01*
X3483Y675D02*
X3522Y675D01*
X2085Y674D02*
X2120Y674D01*
X2185Y674D02*
X2220Y674D01*
X2285Y674D02*
X2320Y674D01*
X2385Y674D02*
X2420Y674D01*
X2483Y674D02*
X2522Y674D01*
X2585Y674D02*
X2620Y674D01*
X2685Y674D02*
X2720Y674D01*
X2785Y674D02*
X2820Y674D01*
X2885Y674D02*
X2920Y674D01*
X2985Y674D02*
X3020Y674D01*
X3085Y674D02*
X3120Y674D01*
X3185Y674D02*
X3220Y674D01*
X3285Y674D02*
X3320Y674D01*
X3385Y674D02*
X3420Y674D01*
X3485Y674D02*
X3520Y674D01*
X2087Y673D02*
X2118Y673D01*
X2187Y673D02*
X2218Y673D01*
X2287Y673D02*
X2318Y673D01*
X2387Y673D02*
X2418Y673D01*
X2485Y673D02*
X2520Y673D01*
X2587Y673D02*
X2618Y673D01*
X2687Y673D02*
X2718Y673D01*
X2787Y673D02*
X2818Y673D01*
X2887Y673D02*
X2918Y673D01*
X2987Y673D02*
X3018Y673D01*
X3087Y673D02*
X3118Y673D01*
X3187Y673D02*
X3218Y673D01*
X3287Y673D02*
X3318Y673D01*
X3387Y673D02*
X3418Y673D01*
X3487Y673D02*
X3518Y673D01*
X2089Y672D02*
X2116Y672D01*
X2189Y672D02*
X2216Y672D01*
X2289Y672D02*
X2316Y672D01*
X2389Y672D02*
X2416Y672D01*
X2487Y672D02*
X2518Y672D01*
X2589Y672D02*
X2616Y672D01*
X2689Y672D02*
X2716Y672D01*
X2789Y672D02*
X2816Y672D01*
X2889Y672D02*
X2916Y672D01*
X2989Y672D02*
X3016Y672D01*
X3089Y672D02*
X3116Y672D01*
X3189Y672D02*
X3216Y672D01*
X3289Y672D02*
X3316Y672D01*
X3389Y672D02*
X3416Y672D01*
X3489Y672D02*
X3516Y672D01*
X2092Y671D02*
X2113Y671D01*
X2192Y671D02*
X2213Y671D01*
X2292Y671D02*
X2313Y671D01*
X2392Y671D02*
X2413Y671D01*
X2489Y671D02*
X2516Y671D01*
X2592Y671D02*
X2613Y671D01*
X2692Y671D02*
X2713Y671D01*
X2792Y671D02*
X2813Y671D01*
X2892Y671D02*
X2913Y671D01*
X2992Y671D02*
X3013Y671D01*
X3092Y671D02*
X3113Y671D01*
X3192Y671D02*
X3213Y671D01*
X3292Y671D02*
X3313Y671D01*
X3392Y671D02*
X3413Y671D01*
X3492Y671D02*
X3513Y671D01*
X2095Y670D02*
X2110Y670D01*
X2195Y670D02*
X2210Y670D01*
X2295Y670D02*
X2310Y670D01*
X2395Y670D02*
X2410Y670D01*
X2492Y670D02*
X2513Y670D01*
X2595Y670D02*
X2610Y670D01*
X2695Y670D02*
X2710Y670D01*
X2795Y670D02*
X2810Y670D01*
X2895Y670D02*
X2910Y670D01*
X2995Y670D02*
X3010Y670D01*
X3095Y670D02*
X3110Y670D01*
X3195Y670D02*
X3210Y670D01*
X3295Y670D02*
X3310Y670D01*
X3395Y670D02*
X3410Y670D01*
X3495Y670D02*
X3510Y670D01*
X2495Y669D02*
X2510Y669D01*
D02*
G04 End of Mask1*
M02*