; NON-PLATED HOLES START AT T1
; THROUGH (PLATED) HOLES START AT T100
M48
INCH
T100C0.086614
T101C0.039370
T102C0.118110
T103C0.038000
%
T100
X004819Y007792
X004819Y013792
T101
X012019Y011292
X005319Y011462
X012019Y012292
X005319Y010084
X012019Y010292
X012019Y013292
X012019Y009292
X012019Y008292
T102
X038019Y026292
X038019Y001292
X000969Y001292
X001019Y026292
T103
X017019Y008292
X029019Y007292
X017019Y013292
X035019Y023292
X017019Y010292
X033019Y024292
X033019Y003292
X031019Y023292
X036019Y024292
X025019Y024292
X025019Y017292
X031019Y004292
X028019Y023292
X023019Y017292
X025019Y007292
X023019Y023292
X033019Y002292
X033019Y007292
X027019Y024292
X017019Y015292
X024019Y024292
X020019Y024292
X031019Y002292
X008019Y016292
X030019Y017292
X024019Y017292
X009019Y016292
X017019Y014292
X010019Y016292
X034019Y024292
X021019Y017292
X011019Y016292
X031019Y017292
X034019Y017292
X031019Y007292
X032019Y024292
X030019Y007292
X029019Y017292
X021019Y007292
X033019Y004292
X033019Y017292
X035019Y024292
X024019Y007292
X023019Y007292
X017019Y012292
X029019Y003292
X028019Y017292
X035019Y017292
X019019Y024292
X017019Y024292
X035019Y007292
X027019Y007292
X022019Y017292
X026019Y024292
X029019Y004292
X026019Y007292
X017019Y009292
X031019Y003292
X029019Y002292
X022019Y007292
X018019Y024292
X034019Y007292
X017019Y011292
X032019Y017292
X026019Y017292
X027019Y017292
X016019Y024292
X028019Y007292
X028019Y024292
X032019Y007292
T00
M30
